<svg width="126" height="125" viewBox="0 0 126 125" fill="none" xmlns="http://www.w3.org/2000/svg">
<path d="M118.741 44.3032C115.997 44.3032 113.772 42.0786 113.772 39.3345C113.772 42.0786 111.547 44.3032 108.803 44.3032C111.547 44.3032 113.772 46.5278 113.772 49.272C113.772 46.5278 115.997 44.3032 118.741 44.3032Z" fill="#23286B"/>
<path d="M23.0015 54.5445C20.2573 54.5445 18.0327 52.3199 18.0327 49.5757C18.0327 52.3199 15.8082 54.5445 13.064 54.5445C15.8082 54.5445 18.0327 56.7691 18.0327 59.5132C18.0327 56.7691 20.2573 54.5445 23.0015 54.5445Z" fill="#23286B"/>
<path d="M104.887 69.4785C102.729 69.4785 100.98 67.7294 100.98 65.5718C100.98 67.7294 99.2308 69.4785 97.0732 69.4785C99.2308 69.4785 100.98 71.2275 100.98 73.3851C100.98 71.2275 102.729 69.4785 104.887 69.4785Z" fill="#23286B"/>
<path d="M19.0646 33.223C17.0857 33.223 15.4815 31.6188 15.4815 29.6399C15.4815 31.6188 13.8773 33.223 11.8984 33.223C13.8773 33.223 15.4815 34.8272 15.4815 36.8061C15.4815 34.8272 17.0857 33.223 19.0646 33.223Z" fill="#23286B"/>
<path d="M41.5738 7.39797C37.4879 7.39797 34.1758 4.08576 34.1758 0C34.1758 4.08576 30.8636 7.39797 26.7778 7.39797C30.8636 7.39797 34.1758 10.7102 34.1758 14.7959C34.1758 10.7102 37.4879 7.39797 41.5738 7.39797Z" fill="#23286B"/>
<path d="M106.314 74.8975C106.374 101.843 92.0509 123.833 66.5433 124.557C66.1491 124.568 59.6393 124.556 59.2427 124.557C33.1853 124.62 12.0127 102.49 11.9523 75.1273C11.8919 47.7648 32.9665 25.5317 59.0239 25.4683C59.6332 25.4668 65.3529 25.5233 65.9567 25.5459C91.1729 26.4885 106.255 48.1749 106.314 74.8975Z" fill="#23286B"/>
<path d="M65.6035 125C91.6609 125 112.785 102.818 112.785 75.4556C112.785 48.0931 91.6609 25.9114 65.6035 25.9114C39.5461 25.9114 18.4224 48.0931 18.4224 75.4556C18.4224 102.818 39.5461 125 65.6035 125Z" fill="#3E8AF8"/>
<path opacity="0.85" d="M66.3249 124.473C91.7259 124.473 112.317 102.85 112.317 76.1772C112.317 49.504 91.7259 27.8811 66.3249 27.8811C40.924 27.8811 20.3325 49.504 20.3325 76.1772C20.3325 102.85 40.924 124.473 66.3249 124.473Z" fill="white"/>
<path d="M65.603 122.294C90.2371 122.294 110.207 101.324 110.207 75.4557C110.207 49.5878 90.2371 28.6177 65.603 28.6177C40.9689 28.6177 20.999 49.5878 20.999 75.4557C20.999 101.324 40.9689 122.294 65.603 122.294Z" fill="#C2D9F0"/>
<path opacity="0.85" d="M64.6495 121.292C88.757 121.292 108.3 100.771 108.3 75.4557C108.3 50.1407 88.757 29.6189 64.6495 29.6189C40.542 29.6189 20.999 50.1407 20.999 75.4557C20.999 100.771 40.542 121.292 64.6495 121.292Z" fill="white"/>
<path d="M69.2583 74.1432L102.509 87.0369C103.591 83.3942 104.175 79.5204 104.175 75.5032C104.175 54.8187 88.7093 37.9275 69.2583 36.8845V74.1432Z" fill="#3E8AF8"/>
<path d="M64.5263 79.0875C66.0591 79.0875 67.3017 77.7827 67.3017 76.1732C67.3017 74.5636 66.0591 73.2588 64.5263 73.2588C62.9935 73.2588 61.751 74.5636 61.751 76.1732C61.751 77.7827 62.9935 79.0875 64.5263 79.0875Z" fill="#23286B"/>
<path d="M64.5268 52.9485C63.5582 52.9485 62.7729 53.773 62.7729 54.7902V74.4356C62.7729 75.4527 63.5582 76.2773 64.5268 76.2773C65.4955 76.2773 66.2807 75.4527 66.2807 74.4356V54.7902C66.2807 53.773 65.4955 52.9485 64.5268 52.9485Z" fill="#23286B"/>
<path d="M63.9913 76.9254C63.7505 77.4554 63.9916 78.0583 64.5299 78.272L95.0966 90.0391C95.6349 90.2528 96.2664 89.9963 96.5072 89.4662C96.748 88.9361 96.5069 88.3332 95.9686 88.1196L65.4019 76.3524C64.8637 76.1388 64.2321 76.3953 63.9913 76.9254Z" fill="#23286B"/>
<g opacity="0.85">
<path opacity="0.85" d="M52.5977 89.7737C50.8888 74.186 65.9584 62.0759 61.1772 42.8979C60.0033 38.1895 57.8967 34.1209 55.4126 30.6506C35.742 35.1013 20.999 53.469 20.999 75.4557C20.999 100.771 40.542 121.292 64.6494 121.292C69.4122 121.292 73.9957 120.489 78.2867 119.008C59.4893 108.412 53.5268 98.2492 52.5977 89.7737Z" fill="white"/>
</g>
</svg>
