<svg width="273" height="272" viewBox="0 0 273 272" fill="none" xmlns="http://www.w3.org/2000/svg">
<path d="M248.912 47.7495V224.25C248.912 227.161 248.21 229.913 246.965 232.334C244.027 238.052 238.076 241.958 231.21 241.958H41.7896C32.014 241.958 24.0879 234.031 24.0879 224.25V47.7495C24.0879 37.9684 32.014 30.0424 41.7896 30.0424H231.21C240.986 30.0424 248.912 37.9684 248.912 47.7495Z" fill="#54D8F7"/>
<g style="mix-blend-mode:multiply">
<path d="M135.567 219.377C171.354 219.377 200.365 216.231 200.365 212.35C200.365 208.47 171.354 205.324 135.567 205.324C99.7796 205.324 70.7686 208.47 70.7686 212.35C70.7686 216.231 99.7796 219.377 135.567 219.377Z" fill="#EDF4FC"/>
</g>
<path d="M24.0967 183.255H30.3696C30.8044 181.283 31.3084 179.325 31.8856 177.39C32.2376 179.358 32.6554 181.314 33.1364 183.255H47.5691C48.1479 181.641 48.6256 179.991 48.9885 178.315C49.181 179.962 49.3734 181.609 49.5659 183.255H102.886C104.694 182.427 106.105 181.093 106.689 178.761C108.174 172.817 107.965 166.5 107.088 160.481C105.98 152.885 103.77 145.497 102.215 137.979C100.274 128.593 99.6154 119.244 96.8789 110.096C95.6357 105.939 94.3347 101.669 91.6294 98.2774C84.4192 89.2371 67.9995 92.9733 58.399 94.8979C44.6908 97.6461 42.8818 111.988 44.163 123.883C44.5105 127.109 44.8734 130.881 42.5023 133.096C41.3793 134.145 39.8458 134.606 38.5023 135.352C32.605 138.625 31.0468 146.868 32.3385 152.949C32.7138 154.716 33.3348 156.453 33.357 158.259C33.3792 160.066 32.6326 162.039 30.9999 162.813C30.1116 163.234 29.0797 163.248 28.1696 163.62C21.8845 166.186 23.1867 177.441 23.9652 182.547C24.0008 182.781 24.0457 183.019 24.0967 183.255Z" fill="#2E1809"/>
<g style="mix-blend-mode:multiply" opacity="0.44">
<path d="M106.688 178.761C108.174 172.817 107.965 166.5 107.088 160.481C105.98 152.885 103.77 145.497 102.215 137.979C101.019 132.195 100.309 126.426 99.3004 120.709C96.261 116.799 92.6993 113.303 88.6904 110.392L55.743 101.047C51.5694 101.32 48.3342 105.131 47.2661 109.175C46.1979 113.218 46.7955 117.487 47.2436 121.646C47.7362 126.217 48.0395 130.809 48.1524 135.406C48.1732 136.255 48.1784 137.146 47.785 137.899C47.2402 138.942 46.0794 139.469 45.0689 140.071C41.2026 142.376 38.7336 146.851 38.8455 151.35C38.9015 153.603 39.5509 155.798 39.7841 158.039C40.0173 160.28 39.7604 162.735 38.2762 164.43C37.1652 165.699 35.537 166.358 34.0735 167.196C28.5099 170.383 25.1308 176.887 25.3709 183.255H30.3696C30.8044 181.283 31.3084 179.325 31.8856 177.39C32.2376 179.358 32.6554 181.314 33.1364 183.255H47.5691C48.1479 181.641 48.6256 179.991 48.9885 178.315C49.181 179.962 49.3734 181.609 49.5659 183.255H102.886C104.694 182.427 106.105 181.093 106.688 178.761Z" fill="#FFBD4E"/>
</g>
<path d="M87.4908 135.578C88.2905 124.787 88.5206 113.954 88.18 103.139C88.1454 102.041 88.0778 100.864 87.4081 99.9926C86.8065 99.2098 85.8307 98.8257 84.8924 98.5184C76.5735 95.7945 67.8932 96.6424 59.7664 99.5695C57.4867 100.39 55.2119 101.398 53.4551 103.067C51.3945 105.024 50.2047 107.762 49.6737 110.554C49.1427 113.346 49.2224 116.215 49.3804 119.053C49.7661 125.981 50.7909 132.38 53.6685 138.709C54.1838 139.842 54.7814 140.954 55.6097 141.883C58.1441 144.727 61.6 145.567 65.2844 145.42C69.8919 145.237 77.6988 142.389 81.4665 146.123C83.485 148.123 84.123 151.738 84.2498 154.468" fill="#F7B686"/>
<g style="mix-blend-mode:multiply" opacity="0.29">
<path d="M51.6426 105.506C52.7675 110.135 57.7851 113.45 62.4848 112.669C64.3851 112.353 66.4872 110.892 66.1343 108.998C67.7971 110.643 70.1818 111.531 72.5156 111.374C74.8495 111.218 77.0938 110.018 78.5214 108.165C78.7131 110.137 81.0825 111.401 82.9825 110.842C84.8825 110.283 86.1498 108.355 86.4078 106.392C86.6659 104.428 86.0794 102.446 85.2771 100.635C84.8237 99.6121 84.2379 98.5572 83.2377 98.0547C82.5183 97.6932 81.6824 97.6695 80.8774 97.6532C74.9338 97.5324 68.9902 97.4116 63.0466 97.2908" fill="#F487C2"/>
</g>
<path d="M70.1598 127.535C70.0792 127.512 69.9407 127.804 69.6904 128.233C69.4418 128.658 69.0584 129.226 68.4729 129.635C67.8926 130.038 67.2238 130.155 66.759 130.125C66.2874 130.1 65.9984 129.961 65.9514 130.035C65.9081 130.087 66.1402 130.377 66.6937 130.525C67.2336 130.675 68.0777 130.608 68.8006 130.107C69.513 129.606 69.8896 128.903 70.0597 128.401C70.2324 127.89 70.2314 127.554 70.1598 127.535Z" fill="#231F20"/>
<path d="M59.3059 125.532C59.721 125.59 59.8709 124.552 59.6408 123.213C59.4108 121.875 58.8878 120.744 58.4727 120.686C58.0576 120.628 57.9076 121.666 58.1377 123.004C58.3677 124.343 58.8908 125.474 59.3059 125.532Z" fill="#231F20"/>
<path d="M75.5153 120.874C75.9304 120.932 76.0804 119.894 75.8503 118.556C75.6202 117.218 75.0972 116.086 74.6821 116.028C74.267 115.97 74.1171 117.009 74.3471 118.347C74.5772 119.685 75.1002 120.817 75.5153 120.874Z" fill="#231F20"/>
<g style="mix-blend-mode:multiply" opacity="0.29">
<path d="M79.7825 135.639C83.1912 135.639 85.9546 132.876 85.9546 129.467C85.9546 126.059 83.1912 123.295 79.7825 123.295C76.3737 123.295 73.6104 126.059 73.6104 129.467C73.6104 132.876 76.3737 135.639 79.7825 135.639Z" fill="#F487C2"/>
</g>
<g style="mix-blend-mode:multiply" opacity="0.29">
<path d="M53.8706 129.093C52.7388 129.093 51.6815 129.402 50.7695 129.934C51.4267 132.903 52.352 135.814 53.6685 138.709C54.0811 139.617 54.553 140.506 55.1476 141.303C57.9434 140.714 60.0428 138.236 60.0428 135.265C60.0428 131.856 57.2794 129.093 53.8706 129.093Z" fill="#F487C2"/>
</g>
<path d="M58.3954 112.589C58.1228 112.475 57.8106 112.474 57.5119 112.48C55.9302 112.512 53.1342 114.103 53.2207 115.92C53.2821 117.202 55.0684 116.748 55.978 116.372C56.7611 116.047 60.2296 113.581 58.4904 112.635C58.4593 112.618 58.4276 112.603 58.3954 112.589Z" fill="#231F20"/>
<path d="M71.9644 108.068C72.1734 107.859 72.4622 107.741 72.7409 107.633C74.2168 107.064 77.4071 107.478 78.0149 109.192C78.4435 110.402 76.6185 110.658 75.6339 110.654C74.7863 110.65 70.6424 109.681 71.8937 108.147C71.9161 108.119 71.9397 108.093 71.9644 108.068Z" fill="#231F20"/>
<path d="M42.8111 115.52L24.4307 117.227C23.5594 117.307 22.9186 118.079 22.9995 118.951L26.0611 151.931C26.1419 152.803 26.9138 153.443 27.7852 153.363L46.1656 151.656C47.0369 151.575 47.6777 150.803 47.5968 149.932L44.5352 116.952C44.4544 116.08 43.6824 115.439 42.8111 115.52Z" fill="#B7D2FF"/>
<path d="M41.1117 118.38L26.6273 119.724C25.768 119.804 25.136 120.565 25.2157 121.425L27.5886 146.986C27.6683 147.845 28.4297 148.477 29.2891 148.398L43.7734 147.053C44.6328 146.973 45.2648 146.212 45.185 145.353L42.8122 119.791C42.7324 118.932 41.971 118.3 41.1117 118.38Z" fill="white"/>
<path d="M36.7405 151.422C37.5372 151.422 38.1831 150.776 38.1831 149.98C38.1831 149.183 37.5372 148.537 36.7405 148.537C35.9437 148.537 35.2979 149.183 35.2979 149.98C35.2979 150.776 35.9437 151.422 36.7405 151.422Z" fill="#8DAED8"/>
<path d="M36.5777 117.406L30.9046 117.933C30.7289 117.949 30.5996 118.105 30.616 118.281C30.6323 118.456 30.7879 118.585 30.9637 118.569L36.6368 118.043C36.8125 118.026 36.9417 117.871 36.9254 117.695C36.9091 117.519 36.7534 117.39 36.5777 117.406Z" fill="#8DAED8"/>
<g style="mix-blend-mode:multiply" opacity="0.2">
<path d="M47.5969 149.932L46.6654 139.898C43.3769 137.212 39.263 135.355 35.5178 133.222C33.969 132.339 32.433 131.366 31.2804 130.006C30.4774 129.059 29.8845 127.95 29.3993 126.807C28.0813 123.702 27.541 120.275 27.8075 116.913L24.4308 117.227C23.5595 117.307 22.9187 118.079 22.9996 118.951L26.0611 151.931C26.142 152.803 26.9139 153.443 27.7853 153.363L46.1657 151.656C47.037 151.575 47.6778 150.803 47.5969 149.932Z" fill="#B7D2FF"/>
</g>
<path d="M90.9106 156.261C88.3201 147.354 81.6883 153.416 78.6531 158.537C76.8008 161.662 75.1947 165.162 72.1539 167.149C67.4995 170.191 60.9528 168.456 56.8779 164.673C53.429 161.471 51.3358 157.151 49.5232 152.769C48.9532 149.084 51.1085 145.273 51.833 141.754C52.077 140.569 52.0911 139.025 51.2615 138.033C50.9836 138.062 50.7743 138.315 50.6944 138.583C50.6145 138.851 50.6334 139.136 50.6259 139.415C50.5968 140.501 50.1933 142.919 49.0562 143.377C48.7071 142.392 49.076 140.858 48.9875 139.79C48.8793 138.486 48.6581 137.192 48.3065 135.931C48.2046 135.565 46.6976 133.048 46.5145 133.957C46.3505 134.773 46.6441 135.452 46.7771 136.237C47.0843 138.047 47.1738 139.779 46.5491 141.552C46.3562 140.224 45.8518 138.922 45.0777 137.824C44.3116 136.738 43.6252 135.562 42.7357 134.558C42.2367 133.994 41.5481 133.933 41.5755 134.831C41.5958 135.5 42.067 136.288 42.3735 136.863C43.0429 138.119 43.9196 139.315 44.3714 140.645C44.6568 141.485 45.1748 143.394 44.7736 144.225C43.9823 143.872 43.4194 141.948 42.9894 141.201C42.3745 140.133 41.6402 139.116 40.6121 138.411C40.4235 138.281 40.1999 138.154 39.9783 138.211C39.7585 138.268 39.6176 138.498 39.5997 138.725C39.5818 138.951 39.6624 139.173 39.7549 139.38C40.1459 140.257 41.0924 140.877 41.5972 141.735C42.156 142.685 42.5453 143.854 42.7781 144.928C43.003 145.966 42.2558 146.958 41.6242 147.727C40.7896 148.743 39.7856 149.637 39.1505 150.788C38.1662 152.572 38.3337 154.507 38.9329 156.373C39.1847 157.157 39.4646 157.931 39.7582 158.7C39.9457 159.344 40.1332 159.987 40.3207 160.63C42.9973 169.809 46.1713 179.705 54.0204 185.166C54.8368 185.734 55.6947 186.24 56.5835 186.686C67.9867 192.406 87.2546 186.506 91.7224 173.749C93.6714 168.184 92.5104 161.762 90.9106 156.261Z" fill="#F7B686"/>
<path d="M75.5637 94.6753C74.2795 94.8598 72.9954 95.074 71.7168 95.0836C69.8091 95.098 68.1526 94.5051 66.3001 94.2597C61.3773 93.6077 56.299 96.3249 52.7396 99.5633C52.3785 99.8919 52.016 100.25 51.8567 100.712C51.6992 101.168 51.7603 101.668 51.8363 102.145C52.2043 104.452 52.5019 106.655 54.3051 108.252C56.3038 110.022 59.1067 111.069 61.6906 110.398C64.2746 109.728 66.3436 107.013 65.7583 104.408C67.0469 106.808 69.6389 108.578 72.3612 108.475C75.0836 108.371 77.6833 106.123 77.7981 103.401C78.3342 105.975 80.043 108.405 82.518 109.293C84.993 110.18 88.1543 109.15 89.2213 106.746C90.547 103.761 88.4051 100.403 86.0799 98.1089C84.5357 96.5851 82.7755 95.1542 80.6666 94.6456C78.9743 94.2375 77.269 94.4303 75.5637 94.6753Z" fill="#2E1809"/>
<path d="M91.7224 173.749C92.0826 172.721 92.3352 171.663 92.4999 170.587C91.1204 164.476 89.034 158.525 86.2681 152.903L80.9806 155.325C80.0931 156.338 79.2926 157.458 78.653 158.537C76.8008 161.662 75.1947 165.162 72.1538 167.149C70.7765 168.05 69.2318 168.522 67.6361 168.657C67.321 175.413 68.3746 182.235 70.6949 188.59C79.8066 187.343 88.8414 181.975 91.7224 173.749Z" fill="#FFBD4E"/>
<path d="M83.3115 117.789C82.6069 112.996 78.9259 109.382 74.7494 109.382C74.3983 109.382 74.0433 109.408 73.6946 109.46C69.1656 110.126 66.1104 114.947 66.8842 120.206C66.8906 120.249 66.9016 120.291 66.9085 120.335C66.1405 119.85 65.2106 119.664 64.2615 119.943C63.6307 120.128 63.1371 120.554 62.7744 121.088C61.916 116.515 58.3419 113.116 54.2941 113.116C53.943 113.116 53.588 113.142 53.2393 113.194C48.7103 113.86 45.6551 118.681 46.4289 123.94C47.1338 128.732 50.8148 132.346 54.991 132.346C55.3421 132.346 55.6971 132.32 56.0458 132.269C58.2546 131.944 60.1793 130.637 61.4649 128.588C62.3703 127.146 62.8733 125.455 62.957 123.686C62.9868 123.626 63.0055 123.556 63.0087 123.475C63.0498 122.448 63.4918 121.488 64.3999 120.958C65.5577 120.282 66.8724 121.343 67.4169 122.314C68.737 126.017 71.9104 128.612 75.4463 128.612C75.7974 128.612 76.1524 128.586 76.5011 128.535C78.7102 128.21 80.6346 126.903 81.9202 124.854C83.1902 122.831 83.6842 120.322 83.3115 117.789ZM60.6231 128.06C59.4946 129.858 57.8176 131.004 55.9012 131.286C55.6001 131.33 55.2938 131.352 54.991 131.352C51.3042 131.352 48.0459 128.103 47.4121 123.795C46.7182 119.078 49.3972 114.764 53.384 114.177C53.6851 114.133 53.9913 114.11 54.2941 114.11C57.9809 114.11 61.2392 117.359 61.873 121.667C62.2113 123.967 61.7675 126.237 60.6231 128.06ZM81.0787 124.326C79.9501 126.124 78.2729 127.27 76.3565 127.552C76.0554 127.596 75.7491 127.618 75.4463 127.618C72.3172 127.618 69.5033 125.274 68.3342 121.932C68.3296 121.922 68.3308 121.912 68.3255 121.901C68.3236 121.898 68.3213 121.894 68.3194 121.891C68.1182 121.307 67.9611 120.698 67.8674 120.061C67.1735 115.344 69.8525 111.03 73.8393 110.443C74.1404 110.399 74.4466 110.376 74.7494 110.376C78.4365 110.376 81.6945 113.625 82.3283 117.933C82.6666 120.233 82.223 122.503 81.0787 124.326Z" fill="white"/>
<path d="M19.1624 121.312C19.2028 120.998 18.2001 120.61 16.9228 120.446C15.6455 120.281 14.5773 120.403 14.5368 120.717C14.4964 121.032 15.4991 121.42 16.7763 121.584C18.0536 121.749 19.1219 121.627 19.1624 121.312Z" fill="#FFBD4E"/>
<path d="M21.3994 112.69C21.6483 112.494 21.2734 111.605 20.5622 110.704C19.851 109.803 19.0728 109.232 18.824 109.428C18.5752 109.625 18.95 110.514 19.6612 111.415C20.3724 112.316 21.1506 112.887 21.3994 112.69Z" fill="#FFBD4E"/>
<path d="M32.399 109.763C32.712 109.712 32.7921 108.598 32.578 107.274C32.3638 105.951 31.9366 104.919 31.6236 104.969C31.3107 105.02 31.2306 106.134 31.4447 107.458C31.6588 108.781 32.0861 109.813 32.399 109.763Z" fill="#FFBD4E"/>
<path d="M43.0037 106.319C42.7356 106.15 41.9549 106.905 41.2598 108.006C40.5648 109.106 40.2187 110.136 40.4867 110.305C40.7547 110.474 41.5355 109.719 42.2305 108.618C42.9255 107.518 43.2717 106.488 43.0037 106.319Z" fill="#FFBD4E"/>
<path d="M81.0932 184.81C81.1627 184.749 80.4053 183.833 79.3145 182.266C78.7658 181.485 78.1533 180.528 77.5155 179.441C76.8896 178.348 76.2453 177.122 75.6471 175.797C75.0581 174.468 74.573 173.171 74.1749 171.976C73.7899 170.776 73.4842 169.682 73.2675 168.752C72.8259 166.895 72.6475 165.72 72.5558 165.731C72.4902 165.737 72.5259 166.934 72.8704 168.836C73.0387 169.788 73.3073 170.908 73.6704 172.134C74.0464 173.356 74.5245 174.681 75.1232 176.031C75.731 177.378 76.4005 178.617 77.061 179.712C77.7335 180.799 78.39 181.747 78.9872 182.506C80.1758 184.03 81.0446 184.854 81.0932 184.81Z" fill="#2991EF"/>
<path d="M94.7197 156.924C94.4792 154.935 94.6978 153.004 92.9237 151.548C92.1926 150.948 91.2608 150.65 90.3355 150.454C84.6881 149.257 80.2419 152.16 77.4172 156.96C75.5985 160.05 74.1239 163.544 71.2057 165.628C70.842 165.887 70.4463 166.141 70.0781 166.417C70.3558 168.062 70.8053 169.687 71.2755 171.229C72.184 174.207 73.1385 177.296 74.5379 180.086C75.9227 182.847 77.6418 185.291 79.6663 187.432C85.7419 184.439 90.7937 179.399 93.7725 173.314C95.0596 170.685 95.9775 167.824 96.013 164.897C96.0465 162.142 95.0445 159.609 94.7197 156.924Z" fill="#40B509"/>
<path d="M72.5431 81.7126C75.6856 78.6324 77.6376 74.3421 77.6376 69.5942C77.6376 60.2213 70.0394 52.623 60.6665 52.623C51.2936 52.623 43.6953 60.2213 43.6953 69.5942C43.6953 78.9671 51.2936 86.5653 60.6665 86.5653C63.2885 86.5653 65.7713 85.9699 67.988 84.9081L70.7424 86.5466C71.9228 87.2487 73.3804 86.2328 73.1303 84.8824L72.5431 81.7126Z" fill="#046EE5"/>
<path d="M60.599 60.4482C58.4102 65.1986 56.6201 67.0166 51.9043 69.2787C56.6546 71.4675 58.4727 73.2576 60.7347 77.9734C62.9235 73.2231 64.7136 71.4051 69.4295 69.143C64.6792 66.9542 62.8611 65.1641 60.599 60.4482Z" fill="#FFD215"/>
<g style="mix-blend-mode:multiply" opacity="0.14">
<path d="M66.7062 69.3762C64.0749 69.5315 61.4244 69.8042 58.8134 69.4432C56.2024 69.0822 53.5755 68.0007 51.9492 65.9264C50.9816 64.6924 50.4242 63.1844 50.0496 61.6617C49.6636 60.0926 49.4666 58.4802 49.448 56.8651C45.9221 59.9749 43.6953 64.5233 43.6953 69.5942C43.6953 78.9671 51.2936 86.5654 60.6665 86.5654C63.2885 86.5654 65.7713 85.9699 67.9881 84.9081L70.7424 86.5466C71.9228 87.2487 73.3805 86.2329 73.1303 84.8824L72.5431 81.7126C75.5865 78.7295 77.5076 74.6101 77.6262 70.0406C74.0805 69.1849 70.3595 69.1606 66.7062 69.3762Z" fill="#046EE5"/>
</g>
<path d="M179.608 108.392C179.552 106.205 181.078 104.072 183.166 103.419C184.057 103.141 185.009 103.112 185.907 102.86C186.863 102.591 187.729 102.079 188.636 101.674C192.367 100.012 196.665 100.235 200.683 100.975C204.7 101.716 208.646 102.941 212.723 103.194C215.858 103.388 219.147 103.026 222.014 104.31C225.08 105.682 227.086 108.712 228.351 111.824C229.509 114.67 230.14 118.072 228.555 120.705C227.618 122.262 226.044 123.308 224.791 124.624C224.504 124.925 224.22 125.272 224.185 125.686C224.146 126.149 224.425 126.569 224.657 126.971C226.228 129.679 225.988 133.327 224.076 135.806C222.164 138.285 218.696 139.444 215.678 138.612" fill="#EA2688"/>
<g style="mix-blend-mode:multiply" opacity="0.24">
<path d="M219.799 108.348C221.318 108.912 222.8 109.664 223.948 110.807C225.096 111.95 225.881 113.529 225.799 115.147C225.661 117.892 223.186 120.024 222.752 122.739C222.434 124.734 223.265 126.75 223.141 128.767C222.975 131.458 220.92 133.925 218.304 134.575C215.688 135.225 212.717 134.007 211.311 131.707" fill="#046EE5"/>
</g>
<path d="M182.103 143.728C181.304 132.937 181.074 122.104 181.414 111.289C181.449 110.191 181.516 109.014 182.186 108.143C182.788 107.36 183.763 106.976 184.702 106.668C193.021 103.944 201.701 104.792 209.828 107.719C212.107 108.541 214.382 109.548 216.139 111.217C218.2 113.174 219.389 115.912 219.92 118.704C220.451 121.496 220.372 124.365 220.214 127.203C219.828 134.131 218.803 140.53 215.926 146.859C215.41 147.992 214.813 149.104 213.984 150.033C211.45 152.877 207.994 153.717 204.31 153.57C199.702 153.387 191.895 150.539 188.128 154.273C186.109 156.273 185.471 159.888 185.344 162.618" fill="#F7B686"/>
<g style="mix-blend-mode:multiply" opacity="0.16">
<path d="M182.736 132.438C190.786 130.897 197.653 124.354 199.581 116.388C204.104 117.935 209.025 118.305 213.728 117.451C215.604 117.11 217.715 116.335 218.312 114.524C218.361 114.377 218.396 114.21 218.33 114.07C218.232 113.863 217.969 113.809 217.743 113.779C213.917 113.285 210.036 112.851 206.429 111.484C204.523 110.761 202.718 109.786 200.799 109.101C196.278 107.487 191.173 107.574 186.71 109.342" fill="#F487C2"/>
</g>
<path d="M251.533 132.287L227.016 129.8C226.288 129.726 225.638 130.256 225.564 130.984L221.696 169.106C221.622 169.834 222.153 170.484 222.881 170.557L247.398 173.045C248.126 173.119 248.776 172.588 248.849 171.861L252.717 133.739C252.791 133.011 252.261 132.361 251.533 132.287Z" fill="#B7D2FF"/>
<path d="M248.809 134.565L229.227 132.579C228.508 132.506 227.866 133.029 227.793 133.748L224.726 163.978C224.653 164.697 225.177 165.339 225.896 165.412L245.478 167.399C246.197 167.471 246.839 166.948 246.912 166.229L249.979 135.999C250.052 135.28 249.528 134.638 248.809 134.565Z" fill="white"/>
<path d="M242.786 132.461L235.549 131.727C235.351 131.707 235.174 131.851 235.154 132.049C235.133 132.247 235.278 132.424 235.476 132.445L242.713 133.179C242.912 133.199 243.089 133.055 243.109 132.856C243.129 132.658 242.984 132.481 242.786 132.461Z" fill="#6B90C6"/>
<path d="M238.593 168.291L232.461 167.669C231.857 167.608 231.318 168.047 231.257 168.651C231.196 169.254 231.635 169.793 232.239 169.855L238.371 170.477C238.975 170.538 239.514 170.098 239.575 169.495C239.636 168.891 239.196 168.352 238.593 168.291Z" fill="#6B90C6"/>
<g style="mix-blend-mode:multiply" opacity="0.2">
<path d="M248.849 171.861L249.525 165.201C249.395 165.071 249.265 164.943 249.134 164.816C243.591 159.441 236.564 155.004 233.723 147.825C232.744 145.35 232.335 142.682 232.203 140.024C232.042 136.802 232.288 133.562 232.918 130.399L227.016 129.8C226.288 129.726 225.638 130.256 225.564 130.984L221.696 169.106C221.622 169.834 222.153 170.484 222.881 170.557L247.398 173.045C248.126 173.119 248.776 172.588 248.849 171.861Z" fill="#B7D2FF"/>
</g>
<g style="mix-blend-mode:multiply" opacity="0.29">
<path d="M189.812 143.789C193.221 143.789 195.984 141.026 195.984 137.617C195.984 134.208 193.221 131.445 189.812 131.445C186.403 131.445 183.64 134.208 183.64 137.617C183.64 141.026 186.403 143.789 189.812 143.789Z" fill="#F487C2"/>
</g>
<g style="mix-blend-mode:multiply" opacity="0.29">
<path d="M215.723 137.243C216.855 137.243 217.912 137.552 218.824 138.084C218.167 141.053 217.242 143.964 215.926 146.859C215.513 147.767 215.041 148.656 214.446 149.453C211.651 148.865 209.551 146.386 209.551 143.415C209.551 140.006 212.315 137.243 215.723 137.243Z" fill="#F487C2"/>
</g>
<path d="M179.302 163.974C182.529 155.277 188.706 161.803 191.364 167.129C192.986 170.38 194.335 173.986 197.224 176.188C201.647 179.558 208.302 178.301 212.639 174.821C216.31 171.877 218.71 167.719 220.834 163.479C221.669 159.845 219.794 155.889 219.325 152.327C219.168 151.127 219.265 149.585 220.164 148.656C220.439 148.705 220.63 148.973 220.69 149.246C220.75 149.519 220.711 149.802 220.698 150.081C220.649 151.166 220.877 153.606 221.978 154.146C222.397 153.188 222.14 151.632 222.305 150.573C222.507 149.28 222.821 148.005 223.263 146.773C223.391 146.415 225.076 144.014 225.193 144.934C225.298 145.759 224.956 146.416 224.766 147.188C224.329 148.972 224.115 150.692 224.61 152.506C224.898 151.196 225.495 149.933 226.347 148.894C227.189 147.866 227.959 146.743 228.918 145.806C229.457 145.28 230.148 145.268 230.056 146.162C229.987 146.827 229.461 147.579 229.113 148.131C228.355 149.335 227.394 150.465 226.848 151.759C226.502 152.576 225.848 154.443 226.188 155.301C227.003 155.006 227.703 153.127 228.186 152.413C228.876 151.393 229.682 150.431 230.758 149.802C230.956 149.686 231.188 149.576 231.405 149.649C231.62 149.721 231.744 149.961 231.745 150.188C231.747 150.415 231.651 150.63 231.543 150.831C231.09 151.677 230.101 152.226 229.536 153.046C228.91 153.953 228.437 155.091 228.127 156.146C227.828 157.165 228.502 158.208 229.076 159.021C229.835 160.094 230.772 161.059 231.323 162.253C232.176 164.103 231.869 166.021 231.136 167.838C230.829 168.602 230.494 169.354 230.145 170.1L229.445 171.984C226.113 180.946 222.233 190.587 214.01 195.467C213.155 195.975 212.262 196.418 211.344 196.798C199.557 201.68 180.766 194.404 177.23 181.358C175.688 175.667 177.31 169.345 179.302 163.974Z" fill="#F7B686"/>
<g style="mix-blend-mode:multiply" opacity="0.29">
<path d="M207.14 186.671C210.831 188.703 214.706 190.403 218.701 191.743C222.079 188.304 224.521 183.914 226.538 179.304C224.664 174.918 222.009 170.862 218.725 167.407C217.081 170.206 215.16 172.8 212.639 174.821C208.302 178.301 201.647 179.558 197.225 176.188C196.935 175.967 196.664 175.729 196.403 175.481C197.813 180.563 202.485 184.109 207.14 186.671Z" fill="#F487C2"/>
</g>
<path d="M197.63 116.218C197.421 116.009 197.132 115.891 196.853 115.783C195.377 115.214 192.187 115.627 191.579 117.342C191.151 118.552 192.976 118.808 193.96 118.804C194.808 118.8 198.952 117.831 197.7 116.296C197.678 116.269 197.654 116.243 197.63 116.218Z" fill="#231F20"/>
<path d="M180.764 131.57C189.376 129.731 196.328 121.842 197.069 113.067C196.912 114.921 208.515 116.511 209.903 116.576C214.373 116.785 218.916 115.603 222.51 112.822C223.468 112.081 224.401 111.124 224.519 109.918C224.637 108.702 223.857 107.534 222.835 106.865C221.812 106.196 220.581 105.937 219.375 105.741C215.431 105.1 211.572 105.451 207.621 105.209C205.141 105.056 202.928 104.285 200.545 103.689C193.932 102.036 186.06 103.472 180.422 107.284" fill="#EA2688"/>
<path d="M213.494 170.021C211.04 173.11 207.227 175.102 203.28 175.283C200.311 175.418 197.154 174.464 195.265 172.17C194.193 170.867 193.603 169.248 192.893 167.717C191.63 164.993 189.872 162.409 187.377 160.735C182.744 157.627 177.101 158.624 175.127 164.064C174.455 165.916 174.348 167.922 174.343 169.893C174.328 175.743 174.497 181.741 178.108 186.53C185.676 196.565 197.996 201.365 210.443 197.84C217.282 195.904 224.382 189.414 225.967 182.064C222.809 177.209 218.604 173.185 213.494 170.021Z" fill="#5AC4FF"/>
<path d="M224.575 185.293C224.64 185.265 224.329 184.325 223.575 182.915C222.821 181.511 221.585 179.652 219.878 177.899C218.175 176.136 216.359 174.859 215.041 173.981C213.713 173.108 212.859 172.625 212.816 172.688C212.769 172.756 213.545 173.359 214.806 174.312C216.059 175.271 217.806 176.579 219.465 178.298C221.134 180.011 222.392 181.788 223.224 183.119C224.055 184.454 224.496 185.33 224.575 185.293Z" fill="#EA2688"/>
<path d="M219.698 177.825C219.646 177.783 219.091 178.431 218.025 179.532C216.949 180.619 215.352 182.174 213.091 183.697C210.846 185.217 207.884 186.685 204.351 187.278C202.593 187.574 200.703 187.657 198.788 187.385C196.884 187.118 194.902 186.557 193.387 185.246C191.847 183.956 190.862 182.155 190.037 180.394C189.218 178.619 188.534 176.815 187.704 175.171C186.088 171.872 184.062 169.132 181.875 167.362C179.705 165.568 177.524 164.727 176.003 164.411C175.24 164.24 174.632 164.205 174.224 164.188C173.814 164.19 173.601 164.206 173.6 164.235C173.594 164.317 174.457 164.321 175.922 164.736C177.377 165.143 179.439 166.039 181.482 167.826C183.537 169.589 185.445 172.267 186.991 175.519C187.785 177.138 188.441 178.919 189.271 180.747C190.107 182.551 191.128 184.471 192.832 185.904C193.672 186.622 194.65 187.157 195.65 187.512C196.651 187.876 197.67 188.082 198.674 188.221C200.688 188.494 202.663 188.39 204.487 188.059C208.154 187.398 211.186 185.817 213.438 184.198C215.707 182.573 217.261 180.926 218.272 179.759C219.273 178.576 219.739 177.857 219.698 177.825Z" fill="#EA2688"/>
<g style="mix-blend-mode:multiply" opacity="0.14">
<path d="M207.389 193.122C201.424 194.048 195.87 193.069 190.49 190.368C186.069 188.148 181.491 185.133 179.689 180.319C179.603 180.09 179.546 179.87 179.511 179.657C177.846 177.383 176.594 174.825 175.957 172.083L174.38 173.314C174.525 178.031 175.2 182.673 178.109 186.531C185.677 196.565 197.997 201.365 210.444 197.841C217.129 195.948 224.06 189.703 225.849 182.558C221.321 188.149 214.906 191.955 207.389 193.122Z" fill="#FFBD4E"/>
</g>
<path d="M234.912 125.117C235.227 125.059 235.291 123.998 235.208 122.732C235.121 121.466 234.917 120.423 234.597 120.407C234.284 120.39 233.972 121.467 234.063 122.808C234.151 124.15 234.604 125.176 234.912 125.117Z" fill="#EF3AB8"/>
<path d="M248.729 122.187C248.503 121.968 247.636 122.495 246.892 123.449C246.146 124.401 245.843 125.37 246.11 125.536C246.381 125.705 247.091 125.055 247.797 124.156C248.499 123.255 248.959 122.409 248.729 122.187Z" fill="#EF3AB8"/>
<path d="M257.294 128.234C257.108 127.977 256.184 128.332 255.23 129.025C254.276 129.719 253.653 130.489 253.84 130.746C254.026 131.002 254.951 130.648 255.905 129.954C256.859 129.26 257.481 128.49 257.294 128.234Z" fill="#EF3AB8"/>
<path d="M258.465 141.626C258.473 141.306 257.555 141.025 256.436 140.826C255.315 140.633 254.356 140.584 254.255 140.888C254.154 141.185 255.023 141.746 256.237 141.957C257.451 142.172 258.459 141.94 258.465 141.626Z" fill="#EF3AB8"/>
<path d="M232.549 68.2463H210.829C205.937 68.2463 201.971 72.2121 201.971 77.1041V88.9446C201.971 93.8366 205.937 97.8024 210.829 97.8024H226.974L228.368 100.879C228.935 102.13 230.712 102.13 231.279 100.879L232.676 97.796C237.509 97.7277 241.407 93.7939 241.407 88.9446V77.1041C241.407 72.2121 237.441 68.2463 232.549 68.2463Z" fill="#FFBD4E"/>
<g style="mix-blend-mode:multiply" opacity="0.37">
<path d="M241.165 87.2095C236.209 84.8139 230.695 85.0988 225.346 85.0697C219.95 85.0403 213.589 84.5067 209.64 80.3175C207.398 77.94 205.446 74.0661 205.126 70.3345C203.198 71.9583 201.971 74.3862 201.971 77.1042V88.9446C201.971 93.8366 205.937 97.8024 210.829 97.8024H226.974L228.368 100.879C228.935 102.13 230.712 102.13 231.279 100.879L232.676 97.796C237.509 97.7277 241.407 93.794 241.407 88.9446V87.3391C241.325 87.2972 241.249 87.2499 241.165 87.2095Z" fill="#FFBD4E"/>
</g>
<path d="M66.5418 59.3639C65.7222 61.1426 65.0519 61.8234 63.2861 62.6704C65.0648 63.4899 65.7456 64.1602 66.5926 65.926C67.4122 64.1473 68.0825 63.4666 69.8483 62.6195C68.0696 61.8 67.3888 61.1297 66.5418 59.3639Z" fill="#FFD215"/>
<path d="M228.709 77.4113C227.642 76.5715 226.105 76.4724 224.843 76.9759C223.634 77.4585 222.671 78.4326 222.006 79.5545C221.341 78.4326 220.378 77.4585 219.169 76.9759C217.908 76.4724 216.371 76.5715 215.303 77.4113C211.785 80.1793 214.473 85.7927 217.416 87.8571C218.689 88.7498 220.403 89.7402 222.006 90.1445C223.609 89.7402 225.324 88.7498 226.596 87.8571C229.539 85.7927 232.227 80.1793 228.709 77.4113Z" fill="#EA2688"/>
<path d="M189.455 129.058L178.567 149.201C178.152 149.969 177.195 150.255 176.428 149.84L141.42 130.918C140.653 130.503 140.368 129.546 140.783 128.779L151.671 108.635C152.086 107.867 153.043 107.582 153.809 107.996L188.818 126.919C189.584 127.333 189.87 128.29 189.455 129.058Z" fill="#FED2C2"/>
<path d="M189.455 129.058L188.853 130.171L166.71 133.006C164.535 133.328 162.403 132.199 161.447 130.219L151.327 109.271L151.671 108.635C152.085 107.868 153.044 107.582 153.811 107.997L188.817 126.918C189.584 127.333 189.87 128.291 189.455 129.058Z" fill="white"/>
<path d="M117.496 141.03C118.751 134.638 124.45 136.728 125.371 140.198C126.652 143.925 123.538 151.643 123.185 151.262C105.967 149.226 111.291 137.855 117.496 141.03Z" fill="#FED2C2"/>
<path d="M128.842 75.3373L84.8994 115.981C82.7241 117.993 81.4873 120.821 81.4873 123.784V160.54L188.065 159.146V123.784C188.065 120.821 186.828 117.993 184.653 115.981L140.71 75.3373C137.361 72.2393 132.192 72.2393 128.842 75.3373Z" fill="#5917C1"/>
<path d="M180.201 90.9568H101.454V156.103H180.201V90.9568Z" fill="#F4BBAB"/>
<path d="M158.588 98.418H101.551V158.495H158.588V98.418Z" fill="#FEC3AD"/>
<path d="M156.552 100.494H86.335V161.714H156.552V100.494Z" fill="white"/>
<path d="M145.716 109.585H97.9198C97.4889 109.585 97.1396 109.934 97.1396 110.365V114.88C97.1396 115.311 97.4889 115.66 97.9198 115.66H145.716C146.146 115.66 146.496 115.311 146.496 114.88V110.365C146.496 109.934 146.146 109.585 145.716 109.585Z" fill="#FED2C2"/>
<path d="M143.535 127.687H100.979C100.358 127.687 99.7564 127.476 99.2661 127.095C98.0371 126.139 97.1396 125.003 97.1396 123.657V123.504C97.1396 121.869 98.4651 120.543 100.1 120.543H143.535C145.17 120.543 146.496 121.869 146.496 123.504V123.657C146.496 125.292 145.17 126.618 143.535 127.687Z" fill="#FED2C2"/>
<path d="M145.716 132.164H97.9198C97.4889 132.164 97.1396 132.513 97.1396 132.944V137.459C97.1396 137.89 97.4889 138.239 97.9198 138.239H145.716C146.146 138.239 146.496 137.89 146.496 137.459V132.944C146.496 132.513 146.146 132.164 145.716 132.164Z" fill="#FED2C2"/>
<path d="M145.556 143.55H98.0793C97.5604 143.55 97.1396 143.97 97.1396 144.489V149.927C97.1396 150.446 97.5604 150.867 98.0793 150.867H145.556C146.075 150.867 146.496 150.446 146.496 149.927V144.489C146.496 143.97 146.075 143.55 145.556 143.55Z" fill="#FED2C2"/>
<path d="M188.065 192.71H81.4873V123.982L134.776 153.941L188.065 123.982V192.71Z" fill="#FF5CF0"/>
<path d="M128.842 148.911L81.4873 192.71H188.065L140.71 148.911C137.361 145.813 132.192 145.813 128.842 148.911Z" fill="#5917C1"/>
<path d="M205.714 132.14C205.88 132.753 205.875 133.38 205.548 133.942C205.193 134.553 204.615 134.989 204.045 135.386C203.601 135.696 203.138 134.993 203.583 134.683C204.053 134.356 204.576 133.998 204.846 133.476C205.111 132.962 204.94 132.445 204.764 131.933C204.344 130.706 203.918 129.481 203.494 128.255C203.318 127.743 204.114 127.474 204.291 127.986C204.536 128.695 204.781 129.404 205.025 130.113C205.257 130.785 205.527 131.455 205.714 132.14Z" fill="#581113"/>
<path d="M214.701 122.456C213.594 121.459 211.954 121.22 210.638 121.959C210.365 122.113 210.022 122.089 209.831 121.814C209.665 121.576 209.701 121.161 209.976 121.007C211.74 120.015 213.936 120.205 215.455 121.573C216.008 122.072 215.258 122.957 214.701 122.456Z" fill="#581113"/>
<path d="M209.95 127.63C210.054 127.34 210.329 127.14 210.646 127.223C210.923 127.295 211.157 127.628 211.053 127.919C210.797 128.626 210.677 129.358 210.71 130.111C210.726 130.486 210.779 130.863 210.883 131.225C210.951 131.458 211.073 131.8 211.345 131.813C211.643 131.827 211.899 131.552 212.071 131.321C212.312 130.996 212.509 130.628 212.676 130.261C212.997 129.558 213.175 128.784 213.215 128.014C213.231 127.707 213.466 127.444 213.785 127.444C214.081 127.444 214.372 127.706 214.356 128.015C214.314 128.811 214.16 129.599 213.87 130.343C213.58 131.083 213.189 131.922 212.577 132.452C211.924 133.017 210.904 133.184 210.278 132.471C209.736 131.855 209.611 130.941 209.571 130.15C209.529 129.299 209.66 128.431 209.95 127.63Z" fill="#581113"/>
<path d="M192.809 125.777C192.913 125.488 193.189 125.288 193.505 125.37C193.782 125.443 194.017 125.776 193.912 126.067C193.657 126.774 193.536 127.506 193.569 128.259C193.585 128.634 193.638 129.011 193.743 129.373C193.81 129.606 193.932 129.948 194.204 129.961C194.502 129.975 194.758 129.7 194.93 129.469C195.172 129.144 195.368 128.775 195.535 128.409C195.856 127.706 196.034 126.932 196.075 126.162C196.091 125.855 196.326 125.592 196.645 125.592C196.941 125.592 197.231 125.854 197.215 126.162C197.173 126.959 197.02 127.747 196.729 128.491C196.44 129.231 196.048 130.07 195.436 130.599C194.783 131.164 193.763 131.332 193.137 130.619C192.596 130.003 192.47 129.089 192.431 128.298C192.388 127.447 192.52 126.579 192.809 125.777Z" fill="#581113"/>
<path d="M198.669 141.745C197.36 141.745 196.155 142.18 195.18 142.907C195.206 143.002 195.237 143.107 195.27 143.213C194.869 142.214 195.078 141.029 195.892 140.226C196.976 139.159 198.718 139.173 199.785 140.256C200.379 140.859 201.239 141.224 202.085 141.233C202.94 141.234 203.799 140.894 204.404 140.303C205.493 139.242 207.235 139.264 208.296 140.352C209.357 141.441 209.335 143.183 208.247 144.244C207.174 145.29 205.837 146.032 204.401 146.422L204.405 146.421C203.86 143.753 201.499 141.745 198.669 141.745Z" fill="#1B2847"/>
<path d="M195.822 144.375C195.564 144.032 195.392 143.598 195.27 143.213C195.237 143.107 195.206 143.002 195.18 142.907C196.155 142.18 197.36 141.745 198.67 141.745C201.499 141.745 203.86 143.753 204.405 146.421L204.401 146.422C203.679 146.618 202.746 146.87 201.994 146.875C199.691 146.852 197.203 146.218 195.822 144.375Z" fill="#E46476"/>
</svg>
