<svg width="272" height="271" viewBox="0 0 272 271" fill="none" xmlns="http://www.w3.org/2000/svg">
<path d="M248.412 48.0967V223.3C248.412 226.189 247.71 228.921 246.465 231.324C243.527 237 237.576 240.877 230.71 240.877H41.2896C31.5139 240.877 23.5879 233.009 23.5879 223.3V48.0967C23.5879 38.3875 31.5139 30.5197 41.2896 30.5197H230.71C240.486 30.5197 248.412 38.3875 248.412 48.0967Z" fill="#F94F46"/>
<path d="M128.857 240.877H86.5776C88.0139 222.976 90.1082 202.812 92.7902 192.595C89.0365 188.961 79.065 179.068 79.5982 176.881C79.7342 176.32 80.0714 175.78 80.5175 175.283C81.5076 174.165 82.8622 173.523 84.2059 173.36C85.506 173.198 86.8008 173.485 87.7582 174.235L94.2263 179.295L94.259 179.128L98.5022 156.604C98.7034 155.578 99.6663 154.72 100.825 154.498C100.934 154.482 101.043 154.466 101.157 154.455C102.604 154.342 103.746 155.265 103.681 156.513L103.404 159.493L103.638 157.609L103.839 155.973L104.345 151.901C104.502 150.648 105.678 149.584 107.13 149.352C107.217 149.341 107.304 149.325 107.391 149.32C109.001 149.174 110.35 150.097 110.481 151.442L110.601 159.315L110.797 157.76L111.177 154.774C111.379 153.85 112.233 153.11 113.266 152.905C113.419 152.873 113.571 152.851 113.729 152.846C115.007 152.792 116.062 153.57 116.171 154.655L116.465 163.171L116.47 163.295L116.639 161.772L116.917 159.272C117.199 158.538 117.901 157.987 118.728 157.808C118.902 157.765 119.082 157.744 119.267 157.738C120.425 157.711 121.388 158.413 121.562 159.407L124.375 175.558C124.375 175.558 125.86 185.867 128.857 240.877Z" fill="#F7B686"/>
<path d="M110.823 159.311L111.395 154.77C111.593 153.861 112.431 153.163 113.443 152.942C113.198 152.884 112.945 152.84 112.672 152.852C111.901 152.886 111.216 153.236 110.732 153.736L110.823 159.311Z" fill="white"/>
<path d="M103.9 156.512L103.626 159.488L104.56 151.898C104.712 150.662 105.863 149.627 107.279 149.372C106.985 149.32 106.677 149.296 106.352 149.325C104.788 149.467 103.467 150.577 103.296 151.906L102.926 154.788C103.546 155.151 103.938 155.771 103.9 156.512Z" fill="white"/>
<path d="M116.695 163.293L117.14 159.271C117.412 158.559 118.081 158.034 118.872 157.833C118.654 157.78 118.43 157.736 118.19 157.741C117.555 157.755 116.974 158.004 116.522 158.381L116.695 163.293Z" fill="white"/>
<path d="M94.4683 179.291L98.7231 156.603C98.9141 155.585 99.8714 154.77 101.012 154.539C100.728 154.468 100.422 154.435 100.096 154.462C98.7926 154.566 97.6518 155.484 97.4343 156.611L93.2412 178.333L94.4683 179.291Z" fill="white"/>
<path d="M93.0405 192.59C90.3585 202.844 88.2859 222.987 86.866 240.877H85.1198C86.643 222.976 88.8299 202.817 91.5554 192.595C87.818 188.967 77.8955 179.074 78.4395 176.887C78.5809 176.325 78.9183 175.785 79.3642 175.288C80.6481 173.852 82.5249 173.215 84.2059 173.36C84.2494 173.36 84.2875 173.366 84.331 173.371C83.0254 173.555 81.7198 174.192 80.7515 175.277C80.3109 175.78 79.9736 176.314 79.8376 176.881C79.3045 179.068 89.2869 188.961 93.0405 192.59Z" fill="white"/>
<path opacity="0.2" d="M103.682 156.515L102.99 173.809" stroke="#3C3D3E" stroke-width="0.649572" stroke-miterlimit="10"/>
<path opacity="0.2" d="M110.704 158.667L109.665 174.345" stroke="#3C3D3E" stroke-width="0.649572" stroke-miterlimit="10"/>
<path opacity="0.2" d="M116.474 162.964L115.932 174.312" stroke="#3C3D3E" stroke-width="0.649572" stroke-miterlimit="10"/>
<path opacity="0.2" d="M99.5845 176.869C99.5845 176.869 109.583 173.302 119.784 176.767" stroke="black" stroke-width="0.649572" stroke-miterlimit="10"/>
<path opacity="0.2" d="M97.75 179.167C97.75 179.167 107.066 182.956 111.37 193.205" stroke="black" stroke-width="0.649572" stroke-miterlimit="10"/>
<path d="M124.375 175.558C124.375 175.558 125.86 185.867 128.858 240.877" stroke="black" stroke-width="0.649572" stroke-miterlimit="10"/>
<path d="M180.097 192.26C182.817 202.531 184.933 222.857 186.391 240.877H143.523C146.597 185.802 148.316 175.472 148.316 175.472L151.134 159.272C151.308 158.273 152.276 157.56 153.435 157.571C154.49 157.576 155.453 158.192 155.796 159.083L156.242 163.106L156.248 162.911L156.541 154.444C156.656 153.353 157.716 152.56 159 152.597C160.241 152.635 161.329 153.44 161.562 154.498L162.145 159.045L162.264 151.145C162.395 149.8 163.755 148.855 165.37 148.979C166.948 149.098 168.27 150.194 168.439 151.528L169.151 157.263L169.385 159.131L169.108 156.151C169.042 154.898 170.19 153.953 171.654 154.05C172.965 154.142 174.113 155.049 174.325 156.178L178.644 178.912L185.183 173.765C187.152 172.216 190.536 172.556 192.511 174.743C192.957 175.24 193.299 175.774 193.441 176.341C193.985 178.539 183.888 188.583 180.097 192.26Z" fill="#F7B686"/>
<path opacity="0.2" d="M169.108 156.15L169.807 173.496" stroke="#3C3D3E" stroke-width="0.649731" stroke-miterlimit="10"/>
<path opacity="0.2" d="M162.04 158.396L163.086 174.104" stroke="#3C3D3E" stroke-width="0.649731" stroke-miterlimit="10"/>
<path opacity="0.2" d="M156.242 162.772L156.786 174.137" stroke="#3C3D3E" stroke-width="0.649731" stroke-miterlimit="10"/>
<path opacity="0.2" d="M173.239 176.533C173.239 176.533 163.169 173.058 152.919 176.635" stroke="black" stroke-width="0.649731" stroke-miterlimit="10"/>
<path opacity="0.2" d="M175.09 178.821C175.09 178.821 165.702 182.714 161.373 193.03" stroke="black" stroke-width="0.649731" stroke-miterlimit="10"/>
<path d="M143.523 240.877C146.597 185.802 148.316 175.472 148.316 175.472" stroke="black" stroke-width="0.649731" stroke-miterlimit="10"/>
<path d="M192.402 95.9947C192.266 96.5563 191.929 97.0963 191.488 97.5932C190.492 98.7109 189.138 99.3534 187.789 99.5155C186.489 99.6775 185.199 99.3859 184.242 98.6407L177.774 93.5863L177.741 93.7483L173.498 116.272C173.302 117.308 172.328 118.167 171.164 118.378H171.153C171.055 118.399 170.952 118.41 170.849 118.421C169.396 118.54 168.254 117.611 168.319 116.363L168.596 113.388L168.362 115.267L168.161 116.909L167.655 120.975C167.503 122.233 166.312 123.302 164.854 123.524C164.777 123.54 164.696 123.551 164.614 123.556C163.004 123.702 161.649 122.779 161.524 121.44L161.399 113.561L161.209 115.089L160.828 118.102C160.627 119.026 159.773 119.765 158.745 119.976C158.592 120.003 158.434 120.025 158.277 120.03C156.998 120.084 155.943 119.307 155.829 118.221L155.54 109.705L155.535 109.581L155.361 111.131L155.083 113.604C154.801 114.338 154.104 114.895 153.272 115.073C153.098 115.116 152.918 115.138 152.733 115.143C151.58 115.165 150.612 114.463 150.443 113.469L147.631 97.3176C147.631 97.3176 146.118 86.8255 143.066 30.5197H185.542C184.106 48.7771 181.968 69.7884 179.215 80.2861C182.969 83.9149 192.94 93.8076 192.402 95.9947Z" fill="#F7B686"/>
<path d="M161.18 113.566L160.608 118.106C160.41 119.016 159.572 119.713 158.56 119.935C158.805 119.993 159.058 120.036 159.331 120.025C160.102 119.991 160.787 119.641 161.271 119.141L161.18 113.566Z" fill="white"/>
<path d="M168.103 116.365L168.377 113.389L167.443 120.979C167.291 122.215 166.141 123.25 164.725 123.505C165.019 123.557 165.327 123.581 165.651 123.552C167.215 123.41 168.536 122.3 168.707 120.971L169.078 118.089C168.457 117.726 168.065 117.107 168.103 116.365Z" fill="white"/>
<path d="M155.308 109.584L154.863 113.606C154.591 114.318 153.922 114.843 153.131 115.044C153.349 115.097 153.573 115.141 153.813 115.136C154.448 115.122 155.029 114.873 155.481 114.496L155.308 109.584Z" fill="white"/>
<path d="M177.535 93.5862L173.28 116.274C173.089 117.292 172.132 118.107 170.991 118.338C171.275 118.409 171.581 118.442 171.907 118.415C173.21 118.31 174.351 117.393 174.569 116.266L178.762 94.5442L177.535 93.5862Z" fill="white"/>
<path d="M193.566 95.9893C193.424 96.5563 193.087 97.0909 192.641 97.5876C191.346 99.0349 189.475 99.6667 187.789 99.5155C187.751 99.5101 187.712 99.5101 187.674 99.5047C188.98 99.3211 190.286 98.684 191.254 97.5984C191.695 97.1017 192.032 96.5617 192.168 95.9947C192.701 93.8076 182.719 83.9149 178.959 80.2861C181.718 69.7507 183.828 48.7609 185.248 30.5197H187.005C185.482 48.7771 183.252 69.7832 180.45 80.2807C184.182 83.9095 194.11 93.8024 193.566 95.9893Z" fill="white"/>
<path opacity="0.2" d="M168.321 116.362L169.013 99.0682" stroke="#3C3D3E" stroke-width="0.649572" stroke-miterlimit="10"/>
<path opacity="0.2" d="M161.299 114.21L162.338 98.5322" stroke="#3C3D3E" stroke-width="0.649572" stroke-miterlimit="10"/>
<path opacity="0.2" d="M155.529 109.913L156.071 98.5648" stroke="#3C3D3E" stroke-width="0.649572" stroke-miterlimit="10"/>
<path opacity="0.2" d="M172.419 96.0079C172.419 96.0079 162.42 99.5745 152.219 96.1101" stroke="black" stroke-width="0.649572" stroke-miterlimit="10"/>
<path opacity="0.2" d="M174.253 93.7101C174.253 93.7101 164.937 89.9208 160.633 79.672" stroke="black" stroke-width="0.649572" stroke-miterlimit="10"/>
<path d="M143.066 30.5198C146.118 86.8256 147.631 97.3178 147.631 97.3178" stroke="black" stroke-width="0.649572" stroke-miterlimit="10"/>
<path d="M129.064 30.5197C125.947 86.7769 124.201 97.2745 124.201 97.2745L121.383 113.475C121.209 114.473 120.24 115.192 119.082 115.181C118.826 115.175 118.576 115.138 118.336 115.067C117.596 114.857 116.982 114.338 116.721 113.669L116.351 110.315L116.275 109.646L116.269 109.835L115.975 118.302C115.861 119.393 114.806 120.187 113.516 120.149C113.402 120.149 113.288 120.133 113.179 120.117C112.08 119.96 111.166 119.209 110.954 118.248L110.448 114.279L110.427 114.144V114.112L110.405 113.944L110.372 113.707L110.367 113.923V114.095L110.361 114.387L110.252 121.602C110.122 122.952 108.762 123.891 107.146 123.767C106.98 123.756 106.82 123.725 106.664 123.693C105.308 123.411 104.229 122.413 104.078 121.218L103.365 115.483L103.132 113.615L103.409 116.596C103.474 117.854 102.326 118.793 100.863 118.696C99.552 118.61 98.4041 117.703 98.192 116.574L93.8727 93.8346L92.5507 94.8769L87.3338 98.9809C87.1324 99.1429 86.9149 99.2833 86.6809 99.3967C86.4524 99.5209 86.2131 99.6182 85.9575 99.6991C85.4569 99.8611 84.9184 99.9367 84.3744 99.9367C84.1296 99.9367 83.8848 99.9205 83.64 99.8826H83.6128C82.2909 99.7099 80.9744 99.0834 80.0061 98.009C79.56 97.5121 79.2173 96.9721 79.0758 96.4051C78.5318 94.2073 88.6284 84.1687 92.4201 80.4859C89.6349 69.9559 87.4752 48.869 86.0227 30.5197H129.064Z" fill="#F7B686"/>
<path opacity="0.2" d="M103.409 116.598L102.71 99.2515" stroke="#3C3D3E" stroke-width="0.649731" stroke-miterlimit="10"/>
<path opacity="0.2" d="M110.476 114.352L109.431 98.6438" stroke="#3C3D3E" stroke-width="0.649731" stroke-miterlimit="10"/>
<path opacity="0.2" d="M116.275 109.975L115.73 98.611" stroke="#3C3D3E" stroke-width="0.649731" stroke-miterlimit="10"/>
<path opacity="0.2" d="M99.2773 96.215C99.2773 96.215 109.348 99.6898 119.598 96.1123" stroke="black" stroke-width="0.649731" stroke-miterlimit="10"/>
<path opacity="0.2" d="M97.4272 93.9262C97.4272 93.9262 106.815 90.0333 111.144 79.7179" stroke="black" stroke-width="0.649731" stroke-miterlimit="10"/>
<path d="M108.731 121.601C108.63 122.649 107.784 123.444 106.654 123.692C106.815 123.726 106.977 123.755 107.144 123.768C108.763 123.893 110.123 122.95 110.253 121.601L110.452 113.982C110.024 113.648 110.564 114.49 110.452 113.982L108.731 121.601Z" fill="white"/>
<path d="M92.3524 93.8341L85.8149 98.9807C85.1925 99.4706 84.4292 99.7707 83.6143 99.8847C84.9728 100.066 86.3361 99.7681 87.3364 98.9807L92.5502 94.8761L92.3524 93.8341Z" fill="white"/>
<path d="M129.064 30.5197C125.947 86.777 124.201 97.2745 124.201 97.2745L121.383 113.475C121.209 114.473 120.24 115.192 119.082 115.181C118.826 115.175 118.576 115.138 118.336 115.067C119.131 114.835 119.729 114.241 119.865 113.475L122.678 97.2745C122.678 97.2745 124.429 86.777 127.546 30.5197H129.064Z" fill="white"/>
<path d="M116.276 108.666L116.155 107.453L114.454 118.303C114.368 119.141 113.722 119.798 112.847 120.043C113.063 120.1 113.286 120.141 113.518 120.148C114.803 120.187 115.863 119.395 115.975 118.303L116.394 109.344C116.276 108.595 116.445 109.105 116.276 108.666Z" fill="white"/>
<path d="M99.2778 96.215C99.2778 96.215 109.348 99.6898 119.598 96.1123L99.2778 96.215Z" fill="white"/>
<path d="M97.4272 93.9262C97.4272 93.9262 106.815 90.0333 111.144 79.7179L97.4272 93.9262Z" fill="white"/>
<path d="M186.743 177.978L164.962 176.875L162.26 176.734L81.2505 172.628L84.1627 116.085L84.3046 113.402L85.2601 94.7695L166.261 98.8779L168.972 99.0161L190.752 100.12L189.794 118.744L189.655 121.434L186.743 177.978Z" fill="#66B0F0"/>
<path d="M164.962 176.875L167.185 133.718C168.463 136.274 170.349 138.57 173.375 138.861C175.197 139.039 177.05 138.144 178.256 136.834C179.545 135.432 180.248 133.775 180.574 131.919C181.141 128.648 179.971 125.2 177.899 122.653C177.329 121.951 176.676 121.313 175.978 120.745L189.655 121.434L189.795 118.744L168.014 117.64L168.972 99.016L166.261 98.8778L165.305 117.51L84.305 113.402L84.1631 116.084L161.2 119.995C159.992 120.976 158.897 122.071 157.909 123.32C157.25 124.153 156.657 125.04 156.154 125.974C155.471 127.228 154.797 128.594 154.777 130.05C154.76 131.6 155.419 133.216 156.787 134.067C158.223 134.953 160.102 134.869 161.552 134.046C162.726 133.368 163.64 132.387 164.5 131.358C164.532 131.31 164.564 131.262 164.599 131.223L162.26 176.734L164.962 176.875ZM159.128 130.416C159.122 130.371 159.114 130.317 159.1 130.274C159.104 130.141 159.111 130.016 159.127 129.889C159.219 129.53 159.35 129.177 159.505 128.835C159.833 128.184 160.196 127.549 160.602 126.93C160.839 126.581 161.085 126.229 161.345 125.891C161.458 125.742 161.579 125.59 161.701 125.438L161.775 125.348L161.839 125.28C162.373 124.676 162.955 124.103 163.568 123.568C163.674 123.486 163.772 123.408 163.87 123.329C163.55 124.242 163.199 125.146 162.785 126.032C162.303 126.996 161.743 127.929 161.061 128.779C160.995 128.866 160.928 128.953 160.859 129.032L160.781 129.113C160.585 129.327 160.389 129.541 160.167 129.734C159.995 129.903 159.779 130.056 159.595 130.219C159.555 130.241 159.506 130.266 159.466 130.289C159.402 130.328 159.342 130.347 159.276 130.378C159.225 130.394 159.179 130.4 159.128 130.416ZM168.995 124.53C168.937 123.625 168.929 122.724 168.985 121.82C169.614 122.033 170.24 122.265 170.843 122.543C171.434 122.843 172.013 123.166 172.552 123.539C172.844 123.738 173.122 123.95 173.403 124.171C173.443 124.205 173.482 124.239 173.516 124.285C173.661 124.408 173.799 124.543 173.929 124.68C174.181 124.929 174.43 125.197 174.655 125.483C174.763 125.608 174.861 125.737 174.96 125.865L174.98 125.897L175.008 125.925C175.059 125.994 175.112 126.099 175.112 126.099C175.43 126.609 175.691 127.147 175.917 127.696C176.145 128.367 176.292 129.054 176.375 129.744C176.403 130.328 176.375 130.911 176.287 131.486C176.18 131.972 176.027 132.435 175.826 132.896C175.718 133.09 175.602 133.287 175.466 133.482C175.402 133.577 175.322 133.679 175.247 133.769C175.212 133.808 175.177 133.847 175.14 133.878C175.039 133.977 174.938 134.075 174.826 134.167L174.714 134.26C174.553 134.349 174.392 134.438 174.217 134.513C174.115 134.546 173.997 134.565 173.891 134.59C173.797 134.592 173.709 134.582 173.62 134.573C173.455 134.532 173.296 134.479 173.131 134.41C172.966 134.312 172.801 134.214 172.64 134.096L172.614 134.076C172.513 133.968 172.405 133.87 172.303 133.762C172.128 133.573 171.987 133.345 171.815 133.165C171.733 133.031 171.652 132.897 171.57 132.763C171.017 131.82 170.56 130.827 170.162 129.806C169.561 128.106 169.163 126.331 168.995 124.53Z" fill="#B0DCF7"/>
<path d="M77.5837 211.333L67.8357 211.565L68.2508 202.61L61.4683 202.871L61.7243 211.711L52.5674 211.928L52.8387 214.943L52.9406 216.076L61.8606 216.415L62.1426 226.15H67.1597L67.6008 216.634L72.9712 216.838C72.7219 216.708 72.4965 216.582 72.3009 216.464L75.2933 216.408C75.3791 216.436 75.4647 216.464 75.5517 216.493C76.0246 216.654 76.4706 216.821 76.8799 216.987L76.9802 216.991C76.842 216.779 76.7226 216.575 76.6222 216.383L77.4254 216.368L77.5837 211.333Z" fill="#E9F3FA"/>
<path d="M68.2889 202.608C69.3341 201.769 70.2449 200.813 71.0307 199.712C71.4431 199.133 71.8057 198.52 72.1114 197.879C72.5206 197.022 72.9284 196.089 72.8881 195.118C72.8451 194.085 72.3544 193.025 71.4132 192.507C70.4215 191.962 69.1728 192.081 68.2339 192.684C67.4724 193.173 66.896 193.857 66.3637 194.574C66.1048 194.923 65.8754 195.292 65.666 195.672C65.5812 195.437 65.493 195.203 65.3968 194.972C64.4526 192.713 62.9718 190.001 60.1846 189.871C58.9669 189.814 57.7597 190.472 57.001 191.389C56.1915 192.368 55.7765 193.495 55.6249 194.743C55.3573 196.946 56.2612 199.203 57.727 200.832C58.4967 201.687 59.4417 202.377 60.4747 202.909L68.2889 202.608ZM67.6859 198.07C67.9785 197.408 68.3198 196.767 68.7397 196.175C68.7816 196.116 68.8249 196.058 68.8679 196L68.914 195.943C69.0381 195.793 69.1671 195.648 69.302 195.508C69.4167 195.389 69.5517 195.284 69.6696 195.168C69.6977 195.15 69.7256 195.131 69.7544 195.114C69.7943 195.09 69.8369 195.071 69.878 195.05C69.9095 195.04 69.9415 195.03 69.9734 195.021C69.9825 195.052 69.9898 195.083 69.9974 195.113C70.0008 195.199 70.0001 195.285 69.9948 195.371C69.9426 195.615 69.8673 195.851 69.7776 196.084C69.5803 196.532 69.3617 196.97 69.112 197.391C68.9673 197.635 68.814 197.875 68.6527 198.109C68.5794 198.215 68.5044 198.32 68.4277 198.424L68.3857 198.486L68.346 198.534C68.0065 198.958 67.6392 199.359 67.2469 199.735C67.1851 199.794 67.1189 199.848 67.0559 199.906C67.2361 199.284 67.4422 198.671 67.6859 198.07ZM60.6739 199.664C60.6461 199.642 60.6182 199.62 60.5908 199.597C60.4929 199.516 60.3969 199.433 60.3031 199.348C60.1244 199.185 59.9534 199.015 59.7911 198.836C59.7171 198.755 59.6456 198.671 59.5754 198.586L59.6089 198.635L59.5592 198.568L59.5437 198.55C59.5075 198.505 59.4624 198.435 59.4676 198.437C59.2389 198.108 59.042 197.76 58.8737 197.398C58.7025 196.961 58.5762 196.511 58.498 196.049C58.4603 195.661 58.4585 195.273 58.4957 194.885C58.5534 194.56 58.6397 194.243 58.7559 193.934C58.8224 193.795 58.8932 193.659 58.9751 193.528C59.018 193.46 59.0651 193.395 59.1114 193.329C59.1336 193.303 59.1557 193.276 59.1788 193.251C59.2422 193.182 59.3085 193.115 59.3774 193.05L59.4505 192.986C59.5553 192.917 59.663 192.854 59.7732 192.797C59.8452 192.774 59.9181 192.754 59.9917 192.737C60.0509 192.735 60.1106 192.735 60.1697 192.737C60.2815 192.761 60.3918 192.792 60.5001 192.829C60.6167 192.888 60.7309 192.951 60.8399 193.024L60.8581 193.036C60.9308 193.101 61.0048 193.164 61.0744 193.232C61.1962 193.352 61.2986 193.5 61.421 193.617C61.4825 193.702 61.5419 193.789 61.5998 193.876C62.0022 194.484 62.3419 195.133 62.6389 195.798C63.0999 196.915 63.4213 198.082 63.5988 199.277C63.6686 199.876 63.7035 200.477 63.6995 201.08C63.2694 200.966 62.8465 200.828 62.4319 200.665C62.0291 200.487 61.6355 200.289 61.2605 200.059C61.0593 199.935 60.8658 199.801 60.6739 199.664Z" fill="#E9F3FA"/>
<path d="M52.9404 216.076L53.8468 226.151H62.1425L61.8605 216.415L52.9404 216.076Z" fill="#66B0F0"/>
<path d="M61.4683 202.871L60.4745 202.909L51.7861 203.244L52.5675 211.928L61.7244 211.711L61.4683 202.871Z" fill="#66B0F0"/>
<path d="M68.2888 202.608L68.251 202.61L67.8359 211.565L77.5839 211.333L77.7801 206.93L77.9893 202.235L68.2888 202.608Z" fill="#66B0F0"/>
<path d="M77.4256 216.368L67.6326 216.591L67.6304 216.635L67.601 216.634L67.2171 224.917L67.1577 226.107H67.1619L67.1599 226.151H76.9238L76.9257 226.107H76.9693L77.4256 216.368Z" fill="#66B0F0"/>
<path d="M208.862 115.024C205.22 122.869 202.242 125.872 194.396 129.608C202.299 133.223 205.324 136.179 209.088 143.968C212.729 136.122 215.708 133.119 223.554 129.383C215.65 125.769 212.625 122.812 208.862 115.024Z" fill="#FFD116"/>
<path d="M218.75 113.233C217.387 116.17 216.271 117.295 213.333 118.694C216.293 120.047 217.426 121.154 218.835 124.07C220.198 121.133 221.314 120.009 224.252 118.61C221.292 117.256 220.16 116.149 218.75 113.233Z" fill="#FFD116"/>
<path d="M64.3621 91.8498C63.2948 91.0162 61.7574 90.9179 60.4961 91.4176C59.2871 91.8966 58.3243 92.8636 57.6591 93.9773C56.9939 92.8636 56.0311 91.8966 54.822 91.4176C53.5608 90.9179 52.0234 91.0162 50.9561 91.8498C47.4383 94.5975 50.1261 100.17 53.0689 102.219C54.3414 103.105 56.0562 104.088 57.6591 104.489C59.262 104.088 60.9768 103.105 62.2493 102.219C65.1921 100.17 67.8798 94.5975 64.3621 91.8498Z" fill="#FFCF2D"/>
</svg>
