<svg width="126" height="126" viewBox="0 0 126 126" fill="none" xmlns="http://www.w3.org/2000/svg">
<g clip-path="url(#clip0_3681_4140)">
<path d="M65.1367 1.23351C63.7679 1.80723 62.2329 1.80723 60.8641 1.23351C44.5267 -5.61442 49.7835 18.2831 63.0004 18.2831C76.2173 18.2831 81.4741 -5.61442 65.1367 1.23351Z" fill="#FFA2A0"/>
<path d="M57.3867 5.27466L63.0001 10.9751L68.6134 5.27466" fill="#FFA2A0"/>
<path d="M57.3867 9.79883L63 15.4992L68.6134 9.79883" fill="#FFA2A0"/>
<path d="M75 36.5C75 43.4031 69.6269 49 63 49C56.7185 49 51.5565 43.9693 51.0448 37.5595C51.0127 37.2063 51 36.8599 51 36.5C51 32.189 53.098 28.3844 56.2899 26.1322H56.2963C58.2089 24.7862 60.5181 24 63 24C69.6269 24 75 29.5969 75 36.5Z" fill="#FFA2A0"/>
<path d="M56 25V38H51.0423C51.012 37.5982 51 37.204 51 36.7947C51 31.8904 52.9807 27.5622 55.994 25H56Z" fill="#FFFFA0"/>
<path d="M70 25V38H74.9577C74.988 37.5982 75 37.204 75 36.7947C75 31.8904 73.0194 27.5622 70.0061 25H70Z" fill="#FFFFA0"/>
<path d="M123 107H3L9.45396 85.6839L11.3221 79.517L14.8997 67.7086L22.2084 43.5717C23.2064 40.2657 26.3131 38 29.8395 38H96.1553C99.6868 38 102.788 40.2657 103.792 43.5717L111.1 67.7086L114.678 79.517L116.546 85.6839L123 107Z" fill="#3A73FB"/>
<path d="M34 38V107H3L9.40729 85.6839L11.2619 79.517L14.8136 67.7086L22.0695 43.5717C23.0603 40.2657 26.1445 38 29.6454 38H34Z" fill="#FFFFA0"/>
<path d="M92 38V107H123L116.593 85.6839L114.738 79.517L111.186 67.7086L103.93 43.5717C102.94 40.2657 99.8554 38 96.3545 38H92Z" fill="#FFFFA0"/>
<path d="M112 67H14L16.3619 59.5255L17.561 55.7369L21.4454 43.4388C22.4621 40.2116 25.6269 38 29.2193 38H96.7755C100.373 38 103.533 40.2116 104.555 43.4388L108.439 55.7369L109.638 59.5255L112 67Z" fill="white"/>
<path opacity="0.1" d="M116 86H10L11.8491 79H114.151L116 86Z" fill="white"/>
<path d="M107.817 55.53C107.226 55.84 106.583 56 105.822 56C103.446 56 102.207 54.425 100.371 51.86C98.6275 49.415 96.6476 46.64 92.8421 46.09C92.4205 46.03 91.9834 46 91.5462 46C86.9025 46 84.5832 49.25 82.7165 51.86C80.8858 54.425 79.6413 56 77.2706 56C76.1186 56 75.193 55.64 74.2724 54.8349L74.2365 54.8049C73.3777 54.04 72.6217 52.98 71.8246 51.86C69.9579 49.25 67.6386 46 62.9949 46C58.3512 46 56.037 49.25 54.1702 51.86C53.3732 52.98 52.6224 54.035 51.7636 54.8001C50.8328 55.63 49.8917 56 48.7243 56C46.3536 56 45.1091 54.425 43.2783 51.86C41.4116 49.25 39.0923 46 34.4486 46C34.0115 46 33.5744 46.03 33.1475 46.09C29.3523 46.64 27.3725 49.41 25.6291 51.86C23.7933 54.425 22.5488 56 20.1781 56C19.417 56 18.7742 55.84 18.1828 55.53L17 59.41C17.9257 59.785 18.9747 60 20.1781 60C24.8218 60 27.1411 56.75 29.0078 54.14C30.4632 52.1 31.718 50.3399 33.7492 50.05C33.9755 50.015 34.2121 50 34.4486 50C36.8193 50 38.0638 51.5749 39.8946 54.14C41.7613 56.75 44.0806 60 48.7243 60C50.9356 60 52.8383 59.265 54.5457 57.75C55.7387 56.6799 56.6592 55.39 57.554 54.14C59.3848 51.5749 60.6241 50 62.9949 50C65.3655 50 66.6101 51.5749 68.4408 54.14C69.3253 55.38 70.2407 56.66 71.4235 57.7249L71.4698 57.765C73.1668 59.27 75.0644 60 77.2706 60C81.9143 60 84.2336 56.75 86.1003 54.14C87.931 51.5749 89.1755 50 91.5462 50C91.7828 50 92.0245 50.015 92.2456 50.05C94.282 50.345 95.5368 52.1 96.9922 54.14C98.8537 56.75 101.173 60 105.822 60C107.025 60 108.074 59.785 109 59.41L107.817 55.53Z" fill="#FFA2A0"/>
<path d="M139.786 107.32H-13.7862C-15.5239 107.32 -16.9326 108.729 -16.9326 110.466V110.978C-16.9326 112.716 -15.5239 114.124 -13.7862 114.124H139.786C141.524 114.124 142.933 112.716 142.933 110.978V110.466C142.933 108.729 141.524 107.32 139.786 107.32Z" fill="white"/>
<path d="M126.768 114.124L117.801 122.705C116.263 124.178 114.217 125 112.085 125H13.9153C11.9074 125 9.97927 124.273 8.47917 122.959C8.38442 122.879 8.28973 122.792 8.19882 122.705L6.35009 120.936L-0.768066 114.124H126.768Z" fill="white"/>
<path d="M126.768 114.124L6.35009 120.936L-0.768066 114.124H126.768Z" fill="#FEABB9"/>
<path d="M66.3885 76.0002C63.7454 76.0312 62.99 78.0606 62.99 78.0606C62.99 78.0606 62.1906 76.0494 59.5474 76.0805C56.9044 76.1116 54.2308 80.5071 63.098 88C71.8001 80.3008 69.0317 75.9692 66.3885 76.0002Z" fill="#DEFD22"/>
<path d="M46.3885 76.0002C43.7454 76.0312 42.99 78.0606 42.99 78.0606C42.99 78.0606 42.1906 76.0494 39.5475 76.0805C36.9043 76.1116 34.2308 80.5071 43.0979 88C51.8001 80.3008 49.0317 75.9692 46.3885 76.0002Z" fill="#FFA2A0"/>
<path d="M86.3885 76.0002C83.7454 76.0312 82.99 78.0606 82.99 78.0606C82.99 78.0606 82.1906 76.0494 79.5474 76.0805C76.9044 76.1116 74.2308 80.5071 83.0979 88C91.8001 80.3008 89.0317 75.9692 86.3885 76.0002Z" fill="#FFA2A0"/>
<path d="M106.606 76.0002C104.183 76.0312 103.491 78.0606 103.491 78.0606C103.491 78.0606 102.758 76.0494 100.335 76.0805C97.9123 76.1116 95.4615 80.5071 103.59 88C111.567 80.3008 109.029 75.9692 106.606 76.0002Z" fill="#FFA2A0"/>
<path d="M25.6062 76.0002C23.1832 76.0312 22.4908 78.0606 22.4908 78.0606C22.4908 78.0606 21.7581 76.0494 19.3351 76.0805C16.9123 76.1116 14.4615 80.5071 22.5898 88C30.5668 80.3008 28.029 75.9692 25.6062 76.0002Z" fill="#FFA2A0"/>
</g>
<defs>
<clipPath id="clip0_3681_4140">
<rect width="125" height="125" fill="white" transform="translate(0.5 0.5)"/>
</clipPath>
</defs>
</svg>
