<svg width="126" height="126" viewBox="0 0 126 126" fill="none" xmlns="http://www.w3.org/2000/svg">
<path d="M116.941 43.2851L91.1621 45.5405C89.7994 45.6597 88.7915 46.861 88.9107 48.2236L93.1592 96.7843C93.2784 98.1469 94.4797 99.1549 95.8423 99.0357L121.621 96.7803C122.984 96.6611 123.992 95.4598 123.873 94.0972L119.624 45.5365C119.505 44.1739 118.304 43.1659 116.941 43.2851Z" fill="#00AEEF"/>
<path d="M93.1594 96.7846L88.9109 48.2239C88.7917 46.8612 89.7997 45.66 91.1623 45.5408L93.7909 45.3108C92.4283 45.43 91.4204 46.6313 91.5396 47.9939L95.7881 96.5546C95.9073 97.9172 97.1086 98.9252 98.4712 98.806L95.8425 99.036C94.4799 99.1552 93.2787 98.1472 93.1594 96.7846Z" fill="#81D0D3"/>
<path d="M89.941 52.0374L90.3193 56.3605C90.347 56.6784 90.5972 56.9251 90.9037 56.9584C90.9459 56.9631 90.9894 56.9643 91.0341 56.9603C91.3967 56.9286 91.6656 56.6081 91.6339 56.2455L91.2556 51.9224C91.2239 51.5598 90.9034 51.2909 90.5408 51.3226C90.4961 51.3265 90.4535 51.3352 90.4128 51.3471C90.2842 51.3834 90.174 51.4582 90.0924 51.5554C89.9852 51.6849 89.9251 51.8553 89.941 52.0374Z" fill="#00AEEF"/>
<path d="M89.941 52.0375L90.3193 56.3606C90.347 56.6785 90.5972 56.9252 90.9037 56.9584C91.1999 56.8724 91.4034 56.586 91.3756 56.2681L90.9973 51.945C90.9695 51.6272 90.7194 51.3804 90.4128 51.3472C90.2842 51.3835 90.174 51.4582 90.0924 51.5554C89.9852 51.6849 89.9251 51.8553 89.941 52.0375Z" fill="#00BBD6"/>
<path d="M90.6871 60.5689L91.0653 64.892C91.0931 65.2099 91.3433 65.4567 91.6499 65.4899C91.692 65.4945 91.7354 65.4957 91.7802 65.4918C92.1428 65.4601 92.4117 65.1396 92.38 64.777L92.0018 60.4539C91.97 60.0913 91.6495 59.8224 91.2869 59.8541C91.2422 59.858 91.1996 59.8667 91.1589 59.8787C91.0303 59.9149 90.92 59.9896 90.8384 60.0869C90.7313 60.2164 90.6712 60.3868 90.6871 60.5689Z" fill="#00AEEF"/>
<path d="M90.6871 60.5689L91.0653 64.892C91.0931 65.2099 91.3433 65.4567 91.6499 65.4899C91.946 65.4039 92.1495 65.1175 92.1217 64.7996L91.7434 60.4765C91.7156 60.1586 91.4655 59.9119 91.1589 59.8787C91.0303 59.9149 90.92 59.9896 90.8384 60.0869C90.7313 60.2164 90.6712 60.3868 90.6871 60.5689Z" fill="#00BBD6"/>
<path d="M97.2333 96.8499L122.438 94.6447C122.91 94.6034 123.259 94.1875 123.218 93.7157L118.992 45.4152C118.951 44.9434 118.535 44.5944 118.063 44.6356L92.8581 46.8408C92.3863 46.8821 92.0372 47.298 92.0785 47.7698L96.3042 96.0703C96.3456 96.5421 96.7615 96.8911 97.2333 96.8499Z" fill="white"/>
<path d="M122.957 90.7261L96.043 93.0807L96.3048 96.0731C96.3459 96.5435 96.7607 96.8915 97.2311 96.8504L122.441 94.6447C122.912 94.6036 123.259 94.1889 123.218 93.7185L122.957 90.7261Z" fill="#5BC9E1"/>
<path d="M92.2717 49.9733L119.185 47.6187L118.99 45.388C118.949 44.9175 118.534 44.5696 118.064 44.6107L92.8538 46.8163C92.3834 46.8575 92.0354 47.2722 92.0766 47.7426L92.2717 49.9733Z" fill="#5BC9E1"/>
<path d="M96.0532 48.5743L95.9792 47.7281C95.9653 47.5699 95.8259 47.4529 95.6677 47.4667L93.8316 47.6274C93.6734 47.6413 93.5564 47.7807 93.5703 47.9389L93.6444 48.7851C93.6582 48.9433 93.7976 49.0603 93.9558 49.0465L95.7919 48.8858C95.9501 48.8719 96.0671 48.7325 96.0532 48.5743Z" fill="white"/>
<path d="M93.6374 48.698L93.5786 48.0256L93.3807 48.043L93.4395 48.7153L93.6374 48.698Z" fill="white"/>
<path d="M95.839 48.6703L95.7516 47.6709C95.7477 47.6271 95.7091 47.5947 95.6652 47.5985L95.3584 47.6253C95.3145 47.6292 95.2821 47.6678 95.2859 47.7117L95.3734 48.7111C95.3772 48.7549 95.4158 48.7873 95.4597 48.7835L95.7666 48.7567C95.8104 48.7528 95.8428 48.7142 95.839 48.6703Z" fill="#5BC9E1"/>
<path d="M96.8443 47.2478L96.5571 47.2729L96.6913 48.8074L96.9785 48.7822L96.8443 47.2478Z" fill="white"/>
<path d="M97.4224 47.5772L97.1353 47.6023L97.2365 48.7594L97.5236 48.7343L97.4224 47.5772Z" fill="white"/>
<path d="M98.0006 47.9068L97.7134 47.9319L97.7816 48.7117L98.0688 48.6866L98.0006 47.9068Z" fill="white"/>
<path d="M98.5787 48.2364L98.2915 48.2615L98.3267 48.664L98.6139 48.6389L98.5787 48.2364Z" fill="white"/>
<path d="M114.976 47.0759L115.284 47.0489C115.421 47.037 115.522 46.9169 115.51 46.7806L115.452 46.116C115.44 45.9797 115.319 45.8789 115.183 45.8908L114.875 45.9178C114.738 45.9297 114.638 46.0498 114.65 46.1861L114.708 46.8507C114.72 46.987 114.84 47.0878 114.976 47.0759Z" stroke="white" stroke-width="0.539935" stroke-miterlimit="10"/>
<path d="M116.071 46.98L116.379 46.953C116.516 46.9411 116.616 46.8209 116.604 46.6847L116.546 46.02C116.534 45.8837 116.414 45.7829 116.278 45.7948L115.969 45.8218C115.833 45.8338 115.732 45.9539 115.744 46.0902L115.802 46.7549C115.814 46.8911 115.934 46.9919 116.071 46.98Z" stroke="white" stroke-width="0.539935" stroke-miterlimit="10"/>
<path d="M118.049 45.8624C118.039 45.7405 117.931 45.6503 117.809 45.661L117.449 45.6926C117.327 45.7032 117.237 45.8107 117.247 45.9326L117.329 46.87" stroke="white" stroke-width="0.539935" stroke-miterlimit="10"/>
<path d="M116.871 46.9101L117.097 46.8904L117.077 46.6645L116.851 46.6843L116.871 46.9101Z" fill="white"/>
<path d="M109.462 94.8553L110.051 94.8038C110.443 94.7695 110.733 94.4239 110.699 94.0319L110.647 93.443C110.613 93.051 110.267 92.7611 109.875 92.7954L109.286 92.8469C108.894 92.8812 108.604 93.2268 108.639 93.6188L108.69 94.2077C108.724 94.5997 109.07 94.8897 109.462 94.8553Z" stroke="white" stroke-width="1.07987" stroke-miterlimit="10"/>
<path d="M102.4 93.5071L103.627 94.3539L102.545 95.1685" stroke="white" stroke-width="1.07987" stroke-linecap="round" stroke-linejoin="round"/>
<path d="M114.962 92.4756L115.119 94.2622" stroke="white" stroke-width="1.01848" stroke-linecap="round" stroke-linejoin="round"/>
<path d="M115.87 92.3965L116.026 94.1831" stroke="white" stroke-width="1.01848" stroke-linecap="round" stroke-linejoin="round"/>
<path d="M116.776 92.3171L116.933 94.1037" stroke="white" stroke-width="1.01848" stroke-linecap="round" stroke-linejoin="round"/>
<path d="M112.503 78.1494C116.589 75.4596 117.72 69.9666 115.031 65.8806C112.341 61.7945 106.848 60.6627 102.762 63.3525C98.6757 66.0423 97.5438 71.5353 100.234 75.6214C102.924 79.7074 108.416 80.8393 112.503 78.1494Z" fill="#5BC9E1"/>
<path d="M112.133 74.9384C114.455 72.5595 114.409 68.7488 112.03 66.4267C109.652 64.1047 105.841 64.1508 103.519 66.5297C101.197 68.9085 101.243 72.7193 103.622 75.0413C106.001 77.3633 109.811 77.3172 112.133 74.9384Z" fill="white"/>
<path d="M113.19 73.4641L114.045 75.4895C114.181 75.8126 113.922 76.164 113.573 76.1299L110.958 75.8738L113.19 73.4641Z" fill="white"/>
<path d="M108.579 70.5169C108.542 70.0937 108.169 69.7806 107.746 69.8177C107.322 69.8547 107.009 70.2278 107.046 70.651C107.083 71.0742 107.457 71.3872 107.88 71.3502C108.303 71.3132 108.616 70.9401 108.579 70.5169Z" fill="#5BC9E1"/>
<path d="M105.801 70.7598C105.764 70.3366 105.391 70.0236 104.968 70.0606C104.545 70.0976 104.232 70.4707 104.269 70.8939C104.306 71.3171 104.679 71.6301 105.102 71.5931C105.525 71.5561 105.838 71.183 105.801 70.7598Z" fill="#5BC9E1"/>
<path d="M111.241 70.2838C111.204 69.8606 110.831 69.5475 110.408 69.5845C109.985 69.6215 109.672 69.9946 109.709 70.4178C109.746 70.841 110.119 71.1541 110.542 71.1171C110.965 71.08 111.278 70.7069 111.241 70.2838Z" fill="#5BC9E1"/>
<g style="mix-blend-mode:soft-light" opacity="0.64">
<path d="M99.8823 46.2016L120.437 61.8914L118.993 45.3862C118.952 44.9166 118.538 44.5689 118.068 44.6094L99.8823 46.2016Z" fill="white"/>
<path d="M92.859 46.8161L95.9056 46.5496L120.77 65.698L121.222 70.8652L92.143 48.4709L92.0795 47.7451C92.0382 47.2733 92.3872 46.8574 92.859 46.8161Z" fill="white"/>
</g>
<path d="M105.877 45.677L111.919 45.1484L111.174 46.2758C110.835 46.7901 110.279 47.1212 109.665 47.1749L106.036 47.4924L102.407 47.8099C101.793 47.8636 101.188 47.6341 100.764 47.1865L99.8354 46.2056L105.877 45.677Z" fill="#00AEEF"/>
<path d="M108.604 46.1299L103.469 46.5791" stroke="#81D0D3" stroke-width="1.61981" stroke-miterlimit="10"/>
<path d="M73.0313 41.6237L46.0844 44.7797C44.66 44.9466 43.6406 46.2364 43.8074 47.6608L49.7526 98.4213C49.9194 99.8457 51.2093 100.865 52.6336 100.698L79.5806 97.5422C81.0049 97.3754 82.0243 96.0855 81.8575 94.6611L75.9124 43.9006C75.7456 42.4763 74.4557 41.4568 73.0313 41.6237Z" fill="#00AEEF"/>
<path d="M49.7526 98.4209L43.8074 47.6604C43.6406 46.236 44.66 44.9462 46.0844 44.7793L48.8321 44.4575C47.4078 44.6244 46.3884 45.9142 46.5552 47.3386L52.5003 98.0991C52.6672 99.5235 53.957 100.543 55.3814 100.376L52.6337 100.698C51.2093 100.865 49.9194 99.8453 49.7526 98.4209Z" fill="#81D0D3"/>
<path d="M45.0043 51.6256L45.5335 56.1445C45.5724 56.4768 45.8421 56.7277 46.1645 56.7531C46.2087 56.7567 46.2543 56.7566 46.3011 56.7512C46.6801 56.7068 46.9521 56.3626 46.9077 55.9836L46.3784 51.4647C46.334 51.0856 45.9899 50.8136 45.6109 50.858C45.5641 50.8635 45.5197 50.874 45.4775 50.8877C45.3438 50.9297 45.2305 51.0113 45.148 51.1158C45.0397 51.2548 44.982 51.4352 45.0043 51.6256Z" fill="#00AEEF"/>
<path d="M45.0043 51.6254L45.5335 56.1443C45.5724 56.4766 45.8421 56.7275 46.1645 56.7529C46.4722 56.6537 46.6766 56.3473 46.6377 56.015L46.1084 51.4961C46.0695 51.1637 45.7998 50.9129 45.4775 50.8875C45.3438 50.9294 45.2305 51.0111 45.148 51.1155C45.0397 51.2546 44.982 51.435 45.0043 51.6254Z" fill="#00BBD6"/>
<path d="M46.0487 60.5436L46.578 65.0625C46.6169 65.3948 46.8866 65.6457 47.2089 65.6711C47.2532 65.6747 47.2988 65.6746 47.3455 65.6691C47.7245 65.6247 47.9965 65.2806 47.9521 64.9016L47.4229 60.3826C47.3785 60.0036 47.0343 59.7316 46.6553 59.776C46.6086 59.7814 46.5642 59.7919 46.5219 59.8056C46.3882 59.8476 46.275 59.9293 46.1925 60.0337C46.0842 60.1727 46.0264 60.3532 46.0487 60.5436Z" fill="#00AEEF"/>
<path d="M46.0487 60.5433L46.578 65.0623C46.6169 65.3946 46.8866 65.6455 47.2089 65.6709C47.5166 65.5717 47.721 65.2653 47.6821 64.933L47.1529 60.414C47.114 60.0817 46.8442 59.8309 46.5219 59.8054C46.3882 59.8474 46.275 59.9291 46.1925 60.0335C46.0842 60.1725 46.0264 60.353 46.0487 60.5433Z" fill="#00BBD6"/>
<path d="M54.084 98.3573L80.3125 95.2853C80.8384 95.2238 81.2147 94.7475 81.1531 94.2217L75.2537 43.8515C75.1921 43.3256 74.7159 42.9493 74.1901 43.0109L47.9616 46.0828C47.4357 46.1444 47.0594 46.6206 47.1209 47.1464L53.0204 97.5166C53.082 98.0425 53.5582 98.4188 54.084 98.3573Z" fill="white"/>
<path d="M80.7939 91.1555L52.6611 94.4505L53.0275 97.5784C53.0851 98.0702 53.5304 98.4221 54.0221 98.3645L80.3741 95.2781C80.8659 95.2205 81.2178 94.7752 81.1602 94.2834L80.7939 91.1555Z" fill="#5BC9E1"/>
<path d="M47.3833 49.3907L75.516 46.0957L75.243 43.7639C75.1853 43.2722 74.74 42.9203 74.2483 42.9779L47.8963 46.0643C47.4045 46.1219 47.0526 46.5672 47.1102 47.0589L47.3833 49.3907Z" fill="#5BC9E1"/>
<path d="M74.1627 45.1446L74.0559 44.2323C74.0374 44.0746 73.8946 43.9617 73.737 43.9802L71.79 44.2082C71.6323 44.2267 71.5194 44.3695 71.5379 44.5272L71.6447 45.4395C71.6632 45.5972 71.806 45.71 71.9637 45.6916L73.9107 45.4635C74.0684 45.4451 74.1812 45.3023 74.1627 45.1446Z" fill="white"/>
<path d="M74.3567 45.0156L74.2744 44.3127L74.0675 44.337L74.1498 45.0398L74.3567 45.0156Z" fill="white"/>
<path d="M72.2471 44.3731L72.3703 45.4255C72.3754 45.4691 72.3441 45.5087 72.3005 45.5138L71.972 45.5523C71.9283 45.5574 71.8887 45.5261 71.8836 45.4825L71.7603 44.4301C71.7552 44.3864 71.7865 44.3468 71.8302 44.3417L72.1587 44.3032C72.2023 44.2981 72.2419 44.3294 72.2471 44.3731Z" fill="#5BC9E1"/>
<path d="M70.85 44.1963L70.5498 44.2314L70.7378 45.8354L71.0379 45.8002L70.85 44.1963Z" fill="white"/>
<path d="M70.3266 44.6572L70.0264 44.6924L70.168 45.9019L70.4682 45.8668L70.3266 44.6572Z" fill="white"/>
<path d="M69.8021 45.1184L69.502 45.1536L69.5974 45.9687L69.8976 45.9335L69.8021 45.1184Z" fill="white"/>
<path d="M69.2787 45.5794L68.9785 45.6145L69.0278 46.0352L69.328 46.0001L69.2787 45.5794Z" fill="white"/>
<path d="M51.7666 46.6919L51.4203 46.7324C51.2845 46.7483 51.1872 46.8714 51.2031 47.0072L51.2873 47.7258C51.3032 47.8617 51.4262 47.959 51.5621 47.9431L51.9084 47.9025C52.0443 47.8866 52.1415 47.7635 52.1256 47.6277L52.0414 46.9091C52.0255 46.7732 51.9025 46.676 51.7666 46.6919Z" stroke="white" stroke-width="0.539935" stroke-miterlimit="10"/>
<path d="M50.6221 46.8259L50.2758 46.8665C50.1399 46.8824 50.0427 47.0054 50.0586 47.1413L50.1428 47.8599C50.1587 47.9958 50.2817 48.093 50.4176 48.0771L50.7639 48.0365C50.8997 48.0206 50.997 47.8976 50.9811 47.7617L50.8969 47.0431C50.881 46.9072 50.7579 46.81 50.6221 46.8259Z" stroke="white" stroke-width="0.539935" stroke-miterlimit="10"/>
<path d="M48.483 47.3103C48.4681 47.1829 48.5593 47.0675 48.6868 47.0526L49.0636 47.0084C49.191 46.9935 49.3064 47.0847 49.3213 47.2121L49.4361 48.192" stroke="white" stroke-width="0.539935" stroke-miterlimit="10"/>
<path d="M49.888 47.8996L49.6519 47.9272L49.6795 48.1633L49.9156 48.1357L49.888 47.8996Z" fill="white"/>
<path d="M66.7788 95.898L67.3942 95.8259C67.804 95.7779 68.0973 95.4068 68.0493 94.997L67.9773 94.3815C67.9293 93.9717 67.5582 93.6785 67.1484 93.7264L66.5329 93.7985C66.1231 93.8465 65.8298 94.2176 65.8778 94.6274L65.9499 95.2429C65.9979 95.6527 66.369 95.946 66.7788 95.898Z" stroke="white" stroke-width="1.07987" stroke-miterlimit="10"/>
<path d="M59.3364 94.7021L60.6488 95.5519L59.5399 96.4389" stroke="white" stroke-width="1.07987" stroke-linecap="round" stroke-linejoin="round"/>
<path d="M72.4702 93.2354L72.6889 95.1029" stroke="white" stroke-width="1.01848" stroke-linecap="round" stroke-linejoin="round"/>
<path d="M73.4189 93.124L73.6377 94.9916" stroke="white" stroke-width="1.01848" stroke-linecap="round" stroke-linejoin="round"/>
<path d="M74.3667 93.0132L74.5854 94.8807" stroke="white" stroke-width="1.01848" stroke-linecap="round" stroke-linejoin="round"/>
<path d="M72.8232 73.9863C74.6433 69.1912 72.2315 63.8286 67.4364 62.0085C62.6413 60.1885 57.2786 62.6002 55.4586 67.3953C53.6385 72.1904 56.0503 77.5531 60.8454 79.3731C65.6405 81.1932 71.0032 78.7814 72.8232 73.9863Z" fill="#5BC9E1"/>
<path d="M68.4116 71.0711C66.7072 72.391 65.0142 73.702 63.3171 75.0163C62.637 75.5429 61.6573 75.0993 61.554 74.2174L60.78 67.609C60.6767 66.7271 61.5268 66.0688 62.3102 66.4241L68.1803 69.086C68.9637 69.4412 69.0917 70.5444 68.4116 71.0711Z" fill="white"/>
<g style="mix-blend-mode:soft-light" opacity="0.75">
<path d="M55.2261 45.206L77.2673 61.0148L75.2467 43.7619C75.1892 43.271 74.7449 42.9194 74.2538 42.9762L55.2261 45.206Z" fill="white"/>
<path d="M47.9025 46.0637L51.0871 45.6907L77.7331 64.9938L78.3657 70.395L47.203 47.8199L47.1141 47.0613C47.0563 46.5681 47.4094 46.1214 47.9025 46.0637Z" fill="white"/>
</g>
<path d="M61.5096 44.4701L67.8249 43.7305L67.0795 44.9348C66.7394 45.4842 66.1671 45.8483 65.5253 45.9235L61.7319 46.3678L57.9384 46.8121C57.2967 46.8872 56.6557 46.6652 56.1979 46.2093L55.1943 45.2098L61.5096 44.4701Z" fill="#00AEEF"/>
<path d="M64.3818 44.8604L59.0146 45.489" stroke="#81D0D3" stroke-width="1.61981" stroke-miterlimit="10"/>
<path d="M32.7588 100.54L4.6969 100.014C3.21364 99.9864 2.03373 98.7615 2.06152 97.2782L3.05178 44.4174C3.07954 42.9341 4.30451 41.7542 5.7878 41.782L33.8497 42.3077C35.333 42.3354 36.5129 43.5604 36.4851 45.0437L35.4949 97.9045C35.4671 99.3878 34.2421 100.568 32.7588 100.54Z" fill="#00AEEF"/>
<path d="M35.4949 97.9044L36.4852 45.0436C36.513 43.5603 35.3331 42.3353 33.8497 42.3075L30.9883 42.2539C32.4716 42.2817 33.6515 43.5067 33.6237 44.9899L32.6335 97.8507C32.6057 99.334 31.3807 100.514 29.8975 100.486L32.7589 100.54C34.2422 100.568 35.4671 99.3876 35.4949 97.9044Z" fill="#81D0D3"/>
<path d="M35.6541 49.2464L35.566 53.9523C35.5594 54.2984 35.3071 54.5839 34.9779 54.6427C34.9326 54.6508 34.8857 54.6554 34.837 54.6544C34.4423 54.647 34.1275 54.3202 34.1349 53.9255L34.2231 49.2196C34.2304 48.8249 34.5573 48.5101 34.952 48.5175C35.0007 48.5184 35.0474 48.5247 35.0923 48.5345C35.2342 48.5642 35.359 48.6369 35.4545 48.736C35.5801 48.8682 35.6578 49.0482 35.6541 49.2464Z" fill="#00AEEF"/>
<path d="M35.6537 49.2466L35.5655 53.9524C35.559 54.2985 35.3067 54.584 34.9775 54.6428C34.6506 54.5718 34.4092 54.277 34.4157 53.9309L34.5038 49.225C34.5103 48.8789 34.7626 48.5934 35.0919 48.5347C35.2338 48.5644 35.3586 48.637 35.4541 48.7362C35.5796 48.8684 35.6574 49.0483 35.6537 49.2466Z" fill="#00BBD6"/>
<path d="M35.4798 58.5335L35.3916 63.2394C35.3851 63.5854 35.1328 63.871 34.8035 63.9298C34.7583 63.9379 34.7114 63.9424 34.6627 63.9415C34.268 63.9341 33.9532 63.6073 33.9606 63.2126L34.0487 58.5067C34.0561 58.112 34.383 57.7972 34.7777 57.8046C34.8263 57.8055 34.8731 57.8117 34.918 57.8216C35.0599 57.8513 35.1847 57.924 35.2802 58.0231C35.4057 58.1553 35.4835 58.3352 35.4798 58.5335Z" fill="#00AEEF"/>
<path d="M35.4793 58.5334L35.3912 63.2393C35.3847 63.5854 35.1324 63.8709 34.8031 63.9297C34.4763 63.8586 34.2348 63.5638 34.2413 63.2178L34.3295 58.5119C34.336 58.1658 34.5883 57.8803 34.9176 57.8215C35.0594 57.8512 35.1843 57.9239 35.2798 58.023C35.4053 58.1552 35.4831 58.3352 35.4793 58.5334Z" fill="#00BBD6"/>
<path d="M32.082 43.84L4.70211 43.327C4.17277 43.3171 3.73561 43.7382 3.7257 44.2675L2.7418 96.788C2.73189 97.3174 3.15296 97.7545 3.6823 97.7644L31.0622 98.2774C31.5915 98.2873 32.0287 97.8662 32.0386 97.3369L33.0225 44.8164C33.0324 44.287 32.6113 43.8499 32.082 43.84Z" fill="white"/>
<path d="M2.80238 93.562L32.0992 94.1108L32.0381 97.3682C32.0286 97.8803 31.6057 98.2876 31.0936 98.278L3.65119 97.7639C3.13909 97.7543 2.73176 97.3314 2.74138 96.8194L2.80238 93.562Z" fill="#5BC9E1"/>
<path d="M32.978 47.1869L3.68115 46.638L3.72666 44.2098C3.73626 43.6977 4.15916 43.2904 4.67123 43.3L32.1136 43.8141C32.6257 43.8237 33.033 44.2466 33.0234 44.7586L32.978 47.1869Z" fill="#5BC9E1"/>
<path d="M31.4042 46.0268L31.4224 45.057C31.4253 44.8982 31.2991 44.7671 31.1403 44.7641L29.093 44.7258C28.9342 44.7228 28.8031 44.8491 28.8002 45.0079L28.782 45.9777C28.779 46.1365 28.9053 46.2676 29.064 46.2705L31.1114 46.3089C31.2701 46.3118 31.4012 46.1856 31.4042 46.0268Z" fill="white"/>
<path d="M31.622 45.9118L31.6357 45.1799L31.4202 45.1759L31.4065 45.9078L31.622 45.9118Z" fill="white"/>
<path d="M29.5493 44.9561L29.5286 46.0576C29.5278 46.1015 29.4915 46.1365 29.4475 46.1357L29.1 46.1292C29.056 46.1284 29.021 46.092 29.0218 46.048L29.0424 44.9466C29.0433 44.9027 29.0796 44.8676 29.1236 44.8685L29.4711 44.875C29.5151 44.8758 29.5501 44.9122 29.5493 44.9561Z" fill="#5BC9E1"/>
<path d="M27.8286 44.5765L27.7974 46.2468L28.11 46.2527L28.1412 44.5824L27.8286 44.5765Z" fill="white"/>
<path d="M27.2277 44.976L27.2041 46.2356L27.5167 46.2414L27.5403 44.9819L27.2277 44.976Z" fill="white"/>
<path d="M26.6262 45.3758L26.6104 46.2246L26.923 46.2305L26.9389 45.3816L26.6262 45.3758Z" fill="white"/>
<path d="M26.0253 45.7752L26.0171 46.2134L26.3297 46.2192L26.3379 45.7811L26.0253 45.7752Z" fill="white"/>
<path d="M8.24056 44.477L7.86289 44.47C7.72611 44.4674 7.61316 44.5762 7.6106 44.713L7.59626 45.4784C7.5937 45.6152 7.7025 45.7281 7.83928 45.7307L8.21695 45.7378C8.35373 45.7403 8.46669 45.6315 8.46925 45.4947L8.48359 44.7293C8.48615 44.5926 8.37734 44.4796 8.24056 44.477Z" stroke="white" stroke-width="0.539935" stroke-miterlimit="10"/>
<path d="M7.04868 44.4548L6.67099 44.4478C6.53422 44.4452 6.42126 44.554 6.4187 44.6908L6.40437 45.4562C6.4018 45.593 6.5106 45.7059 6.64738 45.7085L7.02507 45.7156C7.16184 45.7181 7.27479 45.6093 7.27736 45.4725L7.29169 44.7071C7.29425 44.5703 7.18545 44.4574 7.04868 44.4548Z" stroke="white" stroke-width="0.539935" stroke-miterlimit="10"/>
<path d="M4.78027 44.6528C4.78278 44.5201 4.89236 44.4145 5.02505 44.417L5.41749 44.4244C5.55022 44.4269 5.65576 44.5365 5.65327 44.6692L5.63416 45.6896" stroke="white" stroke-width="0.539935" stroke-miterlimit="10"/>
<path d="M6.13748 45.4528L5.8916 45.4482L5.88699 45.6941L6.13287 45.6987L6.13748 45.4528Z" fill="white"/>
<path d="M17.8551 94.8436L17.01 94.8277C16.6396 94.8208 16.3337 95.1154 16.3268 95.4858L16.311 96.3309C16.3041 96.7013 16.5987 97.0071 16.969 97.014L17.8142 97.0299C18.1845 97.0368 18.4904 96.7422 18.4973 96.3718L18.5131 95.5267C18.5201 95.1563 18.2255 94.8505 17.8551 94.8436Z" stroke="white" stroke-width="1.07987" stroke-miterlimit="10"/>
<path d="M25.2531 95.0447L23.9878 96.0521L25.2192 96.8532" stroke="white" stroke-width="1.07987" stroke-linecap="round" stroke-linejoin="round"/>
<path d="M11.5824 94.8618L11.5459 96.8066" stroke="white" stroke-width="1.01848" stroke-linecap="round" stroke-linejoin="round"/>
<path d="M10.595 94.8433L10.5586 96.788" stroke="white" stroke-width="1.01848" stroke-linecap="round" stroke-linejoin="round"/>
<path d="M9.60774 94.8252L9.57129 96.77" stroke="white" stroke-width="1.01848" stroke-linecap="round" stroke-linejoin="round"/>
<path d="M27.1095 73.5478C28.6214 68.462 25.7242 63.1135 20.6383 61.6016C15.5525 60.0897 10.204 62.987 8.69211 68.0728C7.18022 73.1586 10.0775 78.5071 15.1633 80.019C20.2491 81.5309 25.5976 78.6337 27.1095 73.5478Z" fill="#5BC9E1"/>
<path d="M11.2049 70.0556C10.7909 73.6312 13.363 76.877 16.9387 77.291C20.5144 77.7049 23.7602 75.1327 24.1741 71.5571C24.5881 67.9814 22.0159 64.7355 18.4402 64.3216C14.8646 63.9076 11.6188 66.4799 11.2049 70.0556ZM17.3511 70.4538L14.8489 70.4027C14.8907 69.5785 15.0201 68.7965 15.2164 68.0952C15.899 68.2626 16.6337 68.3694 17.393 68.4061L17.3511 70.4538ZM15.4288 67.4373C15.9135 66.1243 16.6488 65.2037 17.4624 65.0099L17.4071 67.7152C16.7154 67.6808 16.0479 67.5855 15.4288 67.4373ZM20.0859 67.5324C19.4612 67.6552 18.7905 67.7231 18.0979 67.7292L18.1532 65.024C18.9582 65.2509 19.6553 66.2008 20.0859 67.5324ZM20.2713 68.1985C20.4388 68.9072 20.5361 69.6939 20.5442 70.5191L18.0419 70.4679L18.0838 68.4202C18.8439 68.4145 19.5825 68.3379 20.2713 68.1985ZM20.9516 68.0354C21.5031 67.8816 22.0119 67.6845 22.4593 67.4469C23.091 68.3413 23.4769 69.419 23.5213 70.58L21.236 70.5332C21.2301 69.6392 21.1297 68.796 20.9516 68.0354ZM23.5071 71.2708C23.4153 72.43 22.9849 73.4919 22.3161 74.3602C21.8792 74.1048 21.3792 73.8874 20.8347 73.7114C21.0444 72.9579 21.1794 72.1184 21.2219 71.2241L23.5071 71.2708ZM20.1616 73.5207C19.4793 73.3534 18.7449 73.2467 17.9859 73.21L18.0278 71.1588L20.5301 71.2099C20.4882 72.0354 20.3585 72.8186 20.1616 73.5207ZM19.9489 74.1786C19.4642 75.4898 18.7295 76.409 17.9165 76.6026L17.9717 73.9009C18.6631 73.9353 19.3301 74.0305 19.9489 74.1786ZM15.2941 74.0834C15.9185 73.9607 16.5888 73.893 17.2809 73.8868L17.2257 76.5885C16.4214 76.3618 15.7248 75.4133 15.2941 74.0834ZM15.1084 73.4174C14.9404 72.7078 14.8429 71.9199 14.8348 71.0935L17.337 71.1447L17.2951 73.1959C16.5352 73.2015 15.7971 73.2782 15.1084 73.4174ZM14.4282 73.5804C13.8769 73.734 13.3686 73.9308 12.9214 74.1681C12.2887 73.2732 11.9021 72.1946 11.8577 71.0327L14.143 71.0794C14.1488 71.9746 14.2494 72.8189 14.4282 73.5804ZM11.8718 70.3418C11.9635 69.1837 12.3933 68.1227 13.0609 67.2548C13.4983 67.5105 13.9986 67.7283 14.5434 67.9045C14.3343 68.6572 14.1995 69.4955 14.1571 70.3885L11.8718 70.3418ZM15.8744 65.2597C15.4266 65.7639 15.0438 66.4425 14.7526 67.2475C14.3042 67.1023 13.8911 66.9265 13.5243 66.7231C14.173 66.0617 14.9765 65.5545 15.8744 65.2597ZM22.018 66.8966C21.6431 67.0849 21.2233 67.2436 20.7693 67.3705C20.5113 66.5543 20.1564 65.8605 19.7297 65.3385C20.6148 65.6697 21.3968 66.2093 22.018 66.8966ZM19.5045 76.3529C19.9517 75.8493 20.3342 75.1718 20.6252 74.3682C21.0731 74.5133 21.4858 74.6887 21.8524 74.8918C21.204 75.5521 20.4014 76.0584 19.5045 76.3529ZM13.363 74.7182C13.7376 74.5303 14.1571 74.3719 14.6106 74.2452C14.8685 75.0601 15.2231 75.7527 15.6492 76.2741C14.7651 75.9432 13.9838 75.4044 13.363 74.7182Z" fill="white"/>
<g style="mix-blend-mode:soft-light" opacity="0.64">
<path d="M24.4817 43.6709L3.38721 62.1745L3.72377 44.2077C3.73335 43.6965 4.15524 43.2896 4.66651 43.2985L24.4817 43.6709Z" fill="white"/>
<path d="M32.1083 43.8141L28.792 43.752L3.30998 66.3184L3.20459 71.9431L33.0061 45.5515L33.0209 44.7615C33.0305 44.2478 32.6219 43.8237 32.1083 43.8141Z" fill="white"/>
</g>
<path d="M17.9374 43.548L11.3608 43.4248L12.25 44.5894C12.6556 45.1206 13.2817 45.4376 13.95 45.4501L17.9004 45.5241L21.8508 45.5981C22.5191 45.6107 23.1566 45.3174 23.5818 44.8016L24.514 43.6712L17.9374 43.548Z" fill="#00AEEF"/>
<path d="M15.02 44.2407L20.6092 44.3454" stroke="#81D0D3" stroke-width="1.61981" stroke-miterlimit="10"/>
</svg>
