<svg width="126" height="126" viewBox="0 0 126 126" fill="none" xmlns="http://www.w3.org/2000/svg">
<g style="mix-blend-mode:multiply">
<path d="M46.3562 50.7899C45.2275 45.7716 43.152 40.968 40.2714 36.7066C39.5637 35.6598 38.7886 34.6261 37.7514 33.9043C36.7143 33.1825 35.3646 32.8095 34.1626 33.1994C33.1984 33.5122 32.3951 34.2823 31.3893 34.4084C30.3123 34.5435 29.2682 33.8831 28.5998 33.0278C27.9313 32.1725 27.5512 31.1345 27.0936 30.1501C26.2634 28.364 25.1495 26.7102 23.8064 25.2695C22.481 23.8477 20.4062 22.5688 18.702 23.5039C17.2191 24.3177 16.679 26.5319 15.0178 26.8507C14.0802 27.0306 13.1657 26.5014 12.3717 25.9713C10.9343 25.0118 9.51457 23.9607 7.8616 23.4562C6.20864 22.9517 4.22549 23.1088 3.00971 24.3371C1.7203 25.6398 1.65231 27.7388 2.11404 29.5126C2.51224 31.0423 3.24237 32.4847 4.23943 33.7113C5.54896 35.3223 7.41371 36.793 7.49206 38.8677C7.5538 40.5022 6.44904 41.936 6.05961 43.5247C5.57203 45.5136 6.32533 47.7528 7.9159 49.0427C9.05883 49.9695 10.5168 50.3911 11.8382 51.0386C13.1596 51.6861 14.4587 52.7215 14.7057 54.1721C14.9506 55.6099 14.0973 57.0009 13.9724 58.454C13.7804 60.6862 15.3191 62.7029 17.0362 64.1421C21.9627 68.2711 28.6171 69.517 34.9501 70.6184C39.0125 71.3249 43.1173 72.0341 47.2344 71.8067L46.3562 50.7899Z" fill="url(#paint0_linear_3681_3908)"/>
</g>
<path d="M46.3562 50.7899C45.2275 45.7716 43.152 40.968 40.2714 36.7066C39.5637 35.6598 38.7886 34.6261 37.7514 33.9043C36.7143 33.1825 35.3646 32.8095 34.1626 33.1994C33.1984 33.5122 32.3951 34.2823 31.3893 34.4084C30.3123 34.5435 29.2682 33.8831 28.5998 33.0278C27.9313 32.1725 27.5512 31.1345 27.0936 30.1501C26.2634 28.364 25.1495 26.7102 23.8064 25.2695C22.481 23.8477 20.4062 22.5688 18.702 23.5039C17.2191 24.3177 16.679 26.5319 15.0178 26.8507C14.0802 27.0306 13.1657 26.5014 12.3717 25.9713C10.9343 25.0118 9.51457 23.9607 7.8616 23.4562C6.20864 22.9517 4.22549 23.1088 3.00971 24.3371C1.7203 25.6398 1.65231 27.7388 2.11404 29.5126C2.51224 31.0423 3.24237 32.4847 4.23943 33.7113C5.54896 35.3223 7.41371 36.793 7.49206 38.8677C7.5538 40.5022 6.44904 41.936 6.05961 43.5247C5.57203 45.5136 6.32533 47.7528 7.9159 49.0427C9.05883 49.9695 10.5168 50.3911 11.8382 51.0386C13.1596 51.6861 14.4587 52.7215 14.7057 54.1721C14.9506 55.6099 14.0973 57.0009 13.9724 58.454C13.7804 60.6862 15.3191 62.7029 17.0362 64.1421C21.9627 68.2711 28.6171 69.517 34.9501 70.6184C39.0125 71.3249 43.1173 72.0341 47.2344 71.8067L46.3562 50.7899Z" fill="#92ACEF"/>
<path d="M41.0486 57.602C41.4798 57.8882 41.8865 58.1582 42.27 58.4128C42.6481 58.6691 42.9586 58.8785 43.2064 59.0377C43.4503 59.1961 43.5867 59.2603 43.6135 59.2284C43.6386 59.1984 43.6172 59.1412 43.5475 59.0551C43.4774 58.9697 43.3773 58.863 43.2393 58.7394C43.0992 58.6156 42.9295 58.47 42.7199 58.3109C42.5138 58.1504 42.2719 57.9712 41.9973 57.7723C41.6985 57.555 40.9812 57.0443 39.821 56.2926C38.6603 55.5371 37.2153 54.6562 35.5441 53.5479C33.8747 52.4393 32.0338 51.1841 30.0715 49.7191C28.1061 48.259 26.1581 46.725 24.2331 45.1129C22.3083 43.503 20.5 41.873 18.7828 40.2572C17.0643 38.6451 15.5878 37.1544 14.3089 35.8336C13.033 34.5123 12.0304 33.4263 11.2723 32.6036C10.5184 31.7772 10.1279 31.3761 10.1004 31.3997C10.0908 31.4078 10.1713 31.5179 10.342 31.73C10.5165 31.9402 10.7772 32.2542 11.1248 32.673C11.8312 33.5026 12.7788 34.5883 14.0029 35.9017C15.2247 37.2196 16.6507 38.6907 18.3103 40.2863C19.9648 41.8874 21.713 43.4824 23.5601 45.0552C25.4065 46.6287 27.2554 48.1276 29.1213 49.5324C30.9882 50.9321 32.6968 52.1618 34.2553 53.2036C35.8071 54.2515 37.1091 55.082 38.135 55.7264C39.153 56.3771 39.7282 56.7448 39.8573 56.8272C40.2146 57.0596 40.6113 57.3176 41.0486 57.602Z" fill="#F5E5FF"/>
<path d="M22.7172 45.1706C22.8511 45.1254 22.9732 45.0683 23.0871 45.0141C23.2002 44.9587 23.2899 44.905 23.357 44.8527C23.423 44.8005 23.4499 44.7545 23.4379 44.7145C23.4267 44.677 23.4042 44.6516 23.3701 44.6382C23.336 44.6246 23.2942 44.619 23.244 44.6218C23.1933 44.6246 23.1348 44.6347 23.0675 44.6524C23.0008 44.6708 22.9241 44.6919 22.8375 44.7157C22.7442 44.745 22.5175 44.7995 22.1613 44.8884C21.8034 44.973 21.3635 45.0734 20.8368 45.1693C20.3115 45.2696 19.7234 45.3579 19.075 45.4392C18.4258 45.5123 17.7667 45.5737 17.0972 45.6035C16.4283 45.6342 15.7785 45.6462 15.1494 45.631C14.5204 45.6228 13.9614 45.5878 13.4712 45.5555C12.984 45.5174 12.5915 45.4867 12.2884 45.463C11.9892 45.4394 11.8357 45.4453 11.8292 45.481C11.8247 45.5057 11.965 45.5504 12.2516 45.6158C12.5377 45.6846 12.9206 45.75 13.4 45.8195C13.8804 45.8838 14.4304 45.9442 15.0511 45.9748C15.6715 46.0134 16.3105 46.0142 16.9655 46.0037C17.62 45.9805 18.2624 45.9487 18.8896 45.8795C19.5171 45.8185 20.0798 45.7344 20.5798 45.6529C21.0783 45.5652 21.4877 45.4853 21.8076 45.4106C22.1281 45.342 22.3069 45.2931 22.3473 45.2834C22.4598 45.255 22.5832 45.2174 22.7172 45.1706Z" fill="#F5E5FF"/>
<path d="M22.9705 43.7298C22.9845 43.8821 22.9967 44.0257 23.0178 44.1607C23.0379 44.2952 23.0633 44.4056 23.0939 44.4925C23.1247 44.5783 23.1609 44.6222 23.2026 44.6233C23.2417 44.6244 23.2726 44.6096 23.2954 44.5783C23.3182 44.547 23.3356 44.5049 23.3476 44.4509C23.3596 44.3964 23.3669 44.331 23.3696 44.2537C23.3714 44.1769 23.3735 44.0886 23.3758 43.9889C23.3761 43.8803 23.3765 43.6217 23.377 43.214C23.3729 42.8059 23.3642 42.3052 23.3322 41.7119C23.3051 41.1189 23.2514 40.4611 23.1781 39.7397C23.0969 39.019 23.0008 38.2909 22.8727 37.5583C22.7449 36.8264 22.6015 36.1198 22.4344 35.442C22.2732 34.7635 22.0991 34.1673 21.9364 33.6486C21.77 33.1315 21.6243 32.7197 21.4959 32.4145C21.3698 32.1086 21.2899 31.9621 21.2556 31.9738C21.2318 31.9818 21.2609 32.1406 21.3426 32.45C21.4242 32.7611 21.5312 33.1691 21.6642 33.6768C21.7921 34.1874 21.9357 34.7692 22.075 35.4278C22.2211 36.085 22.3413 36.7659 22.4594 37.4644C22.5658 38.1649 22.6658 38.8523 22.7328 39.5307C22.8067 40.2077 22.8496 40.8203 22.8844 41.3659C22.9131 41.9114 22.9318 42.3609 22.9387 42.715C22.951 43.0685 22.9479 43.2683 22.9491 43.3131C22.9499 43.4382 22.957 43.577 22.9705 43.7298Z" fill="#F5E5FF"/>
<path d="M33.4072 51.5123C33.3877 51.6742 33.3652 51.826 33.3551 51.9712C33.3439 52.1156 33.3432 52.2361 33.3532 52.3332C33.3634 52.4293 33.3886 52.4829 33.4291 52.4932C33.467 52.5028 33.5005 52.4941 33.53 52.4664C33.5595 52.4387 33.5863 52.3985 33.6104 52.3447C33.6347 52.2902 33.657 52.2235 33.6774 52.1434C33.6969 52.0636 33.7194 51.9717 33.7447 51.8681C33.7746 51.7557 33.8298 51.4846 33.9183 51.0574C34.0027 50.6291 34.1011 50.1022 34.1862 49.4722C34.2784 48.8438 34.3463 48.1408 34.4005 47.3668C34.4426 46.5922 34.4656 45.8065 34.4433 45.0111C34.4216 44.2165 34.3724 43.4465 34.2838 42.705C34.2037 41.9632 34.0886 41.3086 33.9748 40.7386C33.8552 40.1702 33.7446 39.7163 33.6375 39.3791C33.5338 39.0411 33.4646 38.8774 33.4294 38.8861C33.405 38.8921 33.4224 39.0635 33.4814 39.4C33.5443 39.7355 33.6143 40.1812 33.7009 40.7353C33.7805 41.2912 33.8667 41.9248 33.9282 42.6403C33.9997 43.3549 34.0279 44.0922 34.0483 44.8473C34.0514 45.6029 34.0473 46.3439 33.9964 47.0691C33.9561 47.7942 33.8842 48.4452 33.8147 49.0239C33.7364 49.601 33.6644 50.0752 33.5956 50.4465C33.5349 50.8186 33.4859 51.026 33.4777 51.0731C33.4511 51.2037 33.4275 51.35 33.4072 51.5123Z" fill="#F5E5FF"/>
<path d="M32.4929 52.9156C32.6468 52.8599 32.7893 52.7988 32.9217 52.7376C33.0534 52.6761 33.1585 52.6173 33.2377 52.5609C33.3158 52.5048 33.349 52.4567 33.3372 52.4167C33.326 52.3792 33.3014 52.3544 33.2627 52.3425C33.2241 52.3305 33.1761 52.3269 33.118 52.3322C33.0592 52.3378 32.9911 52.351 32.9124 52.3725C32.8345 52.3945 32.7447 52.4198 32.6435 52.4484C32.5331 52.4792 32.2702 52.5525 31.8559 52.668C31.4403 52.7808 30.9303 52.9181 30.3224 53.0704C29.7155 53.225 29.0387 53.3863 28.293 53.5577C27.5466 53.7249 26.7898 53.8894 26.0203 54.0423C25.2514 54.1951 24.5046 54.3378 23.7789 54.4656C23.0539 54.5917 22.4085 54.7038 21.8414 54.8024C21.2752 54.8982 20.8201 54.9801 20.476 55.0462C20.1321 55.1135 19.9622 55.1652 19.9664 55.2012C19.9692 55.2261 20.1406 55.2269 20.4811 55.2035C20.8218 55.1814 21.2707 55.1382 21.8292 55.0766C22.388 55.0125 23.024 54.9322 23.7364 54.8245C24.4495 54.7202 25.1791 54.5952 25.9267 54.4617C26.673 54.3221 27.4042 54.1811 28.1183 54.0247C28.8326 53.8721 29.4738 53.721 30.0441 53.5833C30.6132 53.4426 31.081 53.3228 31.4479 53.223C31.814 53.1231 32.0208 53.0666 32.0672 53.0539C32.1965 53.0178 32.3384 52.9717 32.4929 52.9156Z" fill="#F5E5FF"/>
<path d="M24.4473 75.5613C24.4473 75.5613 6.43211 62.2515 2.05489 67.8801C-2.32233 73.5086 11.5282 85.9345 14.4736 86.2272C14.4736 86.2272 7.81874 84.0705 7.01474 89.6812C6.21072 95.2919 25.9276 104.322 38.37 98.412L48.59 92.0674C48.59 92.0674 35.2492 82.1395 24.4473 75.5613Z" fill="#6F5490"/>
<path d="M118.24 64.831C119.271 65.3179 120.233 65.4925 121.005 65.5303C122.639 65.6105 123.798 65.1074 123.925 65.0498C124.67 64.7115 124.999 63.8336 124.661 63.0891C124.325 62.3493 123.456 62.0198 122.715 62.3468C122.676 62.363 121.983 62.6393 121.027 62.5646C119.742 62.4644 118.559 61.7906 117.509 60.5628C116.978 59.9411 116.042 59.8685 115.421 60.3999C114.8 60.9315 114.727 61.8662 115.258 62.4876C116.245 63.6411 117.272 64.3737 118.24 64.831Z" fill="#92ACEF"/>
<path d="M120.867 63.2133C121.823 63.2879 122.516 63.0117 122.555 62.9954C122.966 62.814 123.416 62.8349 123.793 63.0158C123.977 63.1042 123.902 63.3836 123.698 63.3708C123.47 63.3565 123.235 63.3951 123.012 63.4937C122.972 63.51 122.28 63.7861 121.324 63.7115C120.039 63.6113 118.856 62.9376 117.805 61.7097C117.275 61.088 119.582 63.113 120.867 63.2133Z" fill="#92ACEF"/>
<path d="M111.313 62.1317C111.303 61.314 111.958 60.6432 112.776 60.6334C112.794 60.6333 113.321 60.6231 114.079 60.5184C112.102 56.5978 113.122 54.2904 114.002 53.2003C115.339 51.5434 117.746 50.9635 119.854 51.7903C121.804 52.5529 122.92 54.3403 122.775 56.4536C122.396 62.0128 116.092 63.5556 112.811 63.5946C112.579 63.5974 112.358 63.5465 112.162 63.4536C111.666 63.2192 111.32 62.7172 111.313 62.1317ZM116.198 55.2879C115.725 56.3423 115.376 58.3143 117.017 59.731C118.438 59.1048 119.623 58.0383 119.821 56.252C120.057 54.1284 117.091 53.3002 116.198 55.2879Z" fill="#92ACEF"/>
<path d="M115.22 61.1173L114.673 61.193L115.22 61.1173ZM116.265 60.0552L114.868 60.4188L116.265 60.0552Z" fill="#92ACEF"/>
<path d="M119.619 57.1741C119.051 59.221 116.117 61.1052 112.971 61.0803C112.857 61.0794 112.762 60.9896 112.751 60.8755C112.74 60.7473 112.838 60.6359 112.967 60.6311C114.04 60.5908 118.44 60.2381 119.619 57.1741Z" fill="#92ACEF"/>
<path d="M82.0298 97.2361L80.6263 101.978H73.175L71.9082 97.2361H82.0298Z" fill="#F36A8D"/>
<path d="M62.5318 97.2361L61.1283 101.978H53.677L52.4102 97.2361H62.5318Z" fill="#F36A8D"/>
<path d="M49.1821 96.218L71.5193 99.1998C91.3795 101.851 109.629 87.9 112.28 68.0398L112.28 68.0397C114.931 48.1794 100.98 29.9303 81.1198 27.2792L58.7826 24.2975C38.9224 21.6464 20.6733 35.5972 18.0221 55.4575C15.371 75.3178 29.3219 93.5669 49.1821 96.218Z" fill="#F36A8D"/>
<path d="M48.1614 43.1747L39.1479 38.0139L44.4646 33.6416C46.0265 32.357 48.3756 33.4985 48.3308 35.5203L48.1614 43.1747Z" fill="white"/>
<path d="M29.6346 36.7718L24.7337 40.6613L24.0031 34.8561C23.8791 33.8705 25.0052 33.2241 25.7936 33.8283L29.6346 36.7718Z" fill="white"/>
<path d="M17.1616 75.9162H24.3453C30.706 75.9162 35.9102 70.712 35.9102 64.3513C35.9102 57.9906 30.706 52.7864 24.3453 52.7864H17.1616C10.8009 52.7864 5.59668 57.9906 5.59668 64.3513C5.59668 70.712 10.8009 75.9162 17.1616 75.9162Z" fill="#92ACEF"/>
<path d="M51.3628 73.9682C56.922 73.9682 61.4286 69.4615 61.4286 63.9023C61.4286 58.3431 56.922 53.8364 51.3628 53.8364C45.8035 53.8364 41.2969 58.3431 41.2969 63.9023C41.2969 69.4615 45.8035 73.9682 51.3628 73.9682Z" fill="#92ACEF"/>
<path d="M21.603 66.5621C23.0722 66.5621 24.2632 65.371 24.2632 63.9019C24.2632 62.4327 23.0722 61.2417 21.603 61.2417C20.1339 61.2417 18.9429 62.4327 18.9429 63.9019C18.9429 65.371 20.1339 66.5621 21.603 66.5621Z" fill="white"/>
<path d="M39.0289 50.0141C39.6867 50.0141 40.2199 49.4809 40.2199 48.8231C40.2199 48.1653 39.6867 47.6321 39.0289 47.6321C38.3711 47.6321 37.8379 48.1653 37.8379 48.8231C37.8379 49.4809 38.3711 50.0141 39.0289 50.0141Z" fill="white"/>
<path d="M41.2967 46.5044C41.1727 46.5044 41.0474 46.4679 40.9381 46.3916C39.8783 45.6548 38.5344 45.5058 37.342 45.9933C37.0202 46.1251 36.6538 45.9706 36.522 45.6494C36.3906 45.3279 36.5445 44.9609 36.8663 44.8295C38.455 44.1794 40.2451 44.3776 41.6561 45.3596C41.9414 45.5579 42.0114 45.9497 41.8133 46.2348C41.6909 46.4104 41.4953 46.5044 41.2967 46.5044Z" fill="white"/>
<path d="M23.0722 46.5075C22.859 46.5075 22.651 46.3988 22.5327 46.2025C22.3538 45.9049 22.4504 45.5187 22.748 45.3398C23.9241 44.6327 25.3556 44.4345 26.6733 44.796C27.0082 44.8879 27.2055 45.2338 27.1134 45.5686C27.0213 45.9039 26.675 46.0994 26.3409 46.0089C25.3523 45.7377 24.279 45.8867 23.3956 46.4176C23.2945 46.4786 23.1828 46.5075 23.0722 46.5075Z" fill="white"/>
<path d="M23.9937 48.8231C23.9937 49.4809 24.5269 50.0141 25.1846 50.0141C25.8424 50.0141 26.3756 49.4809 26.3756 48.8231C26.3756 48.1653 25.8424 47.6321 25.1846 47.6321C24.5269 47.6321 23.9937 48.1653 23.9937 48.8231Z" fill="white"/>
<path d="M10.3521 66.5621C11.8212 66.5621 13.0122 65.371 13.0122 63.9019C13.0122 62.4327 11.8212 61.2417 10.3521 61.2417C8.8829 61.2417 7.69189 62.4327 7.69189 63.9019C7.69189 65.371 8.8829 66.5621 10.3521 66.5621Z" fill="white"/>
<path d="M78.165 28.8289H52.1368C50.7634 28.8289 49.6499 29.9423 49.6499 31.3158C49.6499 32.6893 50.7634 33.8027 52.1368 33.8027H78.165C79.5385 33.8027 80.652 32.6893 80.652 31.3158C80.652 29.9423 79.5385 28.8289 78.165 28.8289Z" fill="#92ACEF"/>
<mask id="mask0_3681_3908" style="mask-type:luminance" maskUnits="userSpaceOnUse" x="51" y="12" width="29" height="24">
<path d="M79.1255 35.1952C79.1255 35.1952 68.1312 32.0792 52.418 34.8611L51.4365 13.0925L78.0797 12L79.1255 35.1952Z" fill="white"/>
</mask>
<g mask="url(#mask0_3681_3908)">
<path d="M65.1528 38.8546C71.9905 38.8546 77.5336 33.5679 77.5336 27.0464C77.5336 20.525 71.9905 15.2383 65.1528 15.2383C58.315 15.2383 52.772 20.525 52.772 27.0464C52.772 33.5679 58.315 38.8546 65.1528 38.8546Z" fill="url(#paint1_linear_3681_3908)"/>
<path d="M65.1533 35.9027C70.2816 35.9027 74.4389 31.9376 74.4389 27.0465C74.4389 22.1554 70.2816 18.1904 65.1533 18.1904C60.025 18.1904 55.8677 22.1554 55.8677 27.0465C55.8677 31.9376 60.025 35.9027 65.1533 35.9027Z" fill="url(#paint2_linear_3681_3908)"/>
<path d="M64.7272 24.9321C64.8819 24.8264 65.1562 24.7636 65.5503 24.7439C66.3779 24.7026 67.3194 24.8919 68.3749 25.3118L69.1363 23.1241C68.1173 22.7375 67.116 22.5412 66.1329 22.5351L66.0771 21.5195L64.5475 21.596L64.6041 22.6265C63.5657 22.7892 62.7984 23.1166 62.3019 23.609C61.8054 24.1016 61.5799 24.7614 61.6254 25.5889C61.6551 26.1305 61.7674 26.5787 61.9622 26.9335C62.157 27.2884 62.4547 27.6028 62.855 27.8768C63.2555 28.1511 63.7747 28.3905 64.4134 28.5948C64.9814 28.7726 65.4331 28.9259 65.7687 29.0549C66.1042 29.184 66.3454 29.3028 66.4921 29.411C66.6389 29.5195 66.7168 29.6563 66.7259 29.8217C66.7391 30.0624 66.6513 30.2391 66.4624 30.3516C66.2732 30.4641 65.9696 30.5309 65.5509 30.5518C65.0434 30.5771 64.4494 30.5076 63.7685 30.343C63.0877 30.1784 62.4534 29.9626 61.8657 29.6951L62.003 32.1924C63.0272 32.5837 64.0802 32.7775 65.1618 32.7736L65.2391 34.1803L66.7686 34.1038L66.6888 32.6521C67.6868 32.4765 68.4337 32.1122 68.9294 31.5596C69.4251 31.0067 69.6498 30.3092 69.6034 29.4666C69.5623 28.7195 69.3046 28.1203 68.8305 27.6688C68.3561 27.2172 67.594 26.8318 66.544 26.5121C66.0269 26.3619 65.6219 26.2275 65.329 26.1089C65.036 25.9904 64.8285 25.8801 64.707 25.778C64.5852 25.676 64.5199 25.5422 64.5108 25.3767C64.5003 25.1862 64.5724 25.038 64.7272 24.9321Z" fill="url(#paint3_linear_3681_3908)"/>
<path d="M64.6906 24.1172C64.8452 24.0114 65.1196 23.9486 65.5137 23.9289C66.3413 23.8876 67.2828 24.0769 68.3382 24.4968L69.0997 22.3091C68.0806 21.9226 67.0794 21.7263 66.0962 21.7201L66.0404 20.7046L64.5109 20.7811L64.5675 21.8116C63.5291 21.9742 62.7618 22.3016 62.2653 22.7941C61.7688 23.2866 61.5432 23.9464 61.5887 24.7738C61.6185 25.3155 61.7308 25.7637 61.9256 26.1185C62.1204 26.4734 62.4181 26.7878 62.8184 27.0619C63.2188 27.3361 63.7381 27.5754 64.3768 27.7798C64.9448 27.9577 65.3964 28.1109 65.7321 28.24C66.0676 28.3691 66.3088 28.4879 66.4555 28.596C66.6023 28.7045 66.6802 28.8414 66.6892 29.0067C66.7025 29.2474 66.6147 29.4241 66.4258 29.5366C66.2366 29.6491 65.933 29.7159 65.5143 29.7368C65.0068 29.7622 64.4127 29.6927 63.7319 29.528C63.0511 29.3635 62.4168 29.1476 61.8291 28.8801L61.9664 31.3774C62.9906 31.7688 64.0435 31.9626 65.1251 31.9586L65.2024 33.3653L66.732 33.2889L66.6522 31.8371C67.6502 31.6615 68.3971 31.2973 68.8928 30.7446C69.3885 30.1917 69.6131 29.4943 69.5668 28.6517C69.5257 27.9045 69.268 27.3053 68.7939 26.8537C68.3195 26.4022 67.5573 26.0168 66.5074 25.6972C65.9903 25.547 65.5853 25.4126 65.2924 25.294C64.9993 25.1754 64.7919 25.0652 64.6704 24.9631C64.5486 24.861 64.4832 24.7272 64.4742 24.5618C64.4637 24.3712 64.5358 24.223 64.6906 24.1172Z" fill="url(#paint4_linear_3681_3908)"/>
<path d="M69.0993 22.3091L69.1361 23.1241L68.3747 25.3118L68.3379 24.4968L69.0993 22.3091Z" fill="url(#paint5_linear_3681_3908)"/>
<path style="mix-blend-mode:multiply" d="M64.7893 19.0138C69.7687 18.8093 73.989 22.3873 74.4259 27.0741C74.4262 26.9378 74.4352 26.8033 74.429 26.6657C74.2084 21.7791 69.8761 17.9884 64.7525 18.1988C59.629 18.4092 55.6544 22.5411 55.875 27.4277C55.8812 27.5652 55.9022 27.6985 55.9149 27.8343C55.9278 23.129 59.81 19.2183 64.7893 19.0138Z" fill="url(#paint6_linear_3681_3908)"/>
<path d="M65.1528 38.8547C71.9905 38.8547 77.5336 33.568 77.5336 27.0466C77.5336 20.5252 71.9905 15.2385 65.1528 15.2385C58.3151 15.2385 52.772 20.5252 52.772 27.0466C52.772 33.568 58.3151 38.8547 65.1528 38.8547Z" fill="#6F5490"/>
</g>
<path d="M80.9395 98.5908L118.132 67.4939C118.132 67.4939 114.432 106.734 80.9395 98.5908Z" fill="#92ACEF"/>
<path d="M80.9394 98.591L118.132 67.494C118.132 67.494 78.8569 64.1857 80.9394 98.591Z" fill="#92ACEF"/>
<g style="mix-blend-mode:multiply">
<path d="M80.8716 98.5866L111.769 88.2024C111.769 88.2024 99.8583 111.875 80.8716 98.5866Z" fill="url(#paint7_linear_3681_3908)"/>
<path d="M80.8716 98.5862L111.769 88.202C111.769 88.202 87.9789 76.5277 80.8716 98.5862Z" fill="url(#paint8_linear_3681_3908)"/>
</g>
<defs>
<linearGradient id="paint0_linear_3681_3908" x1="18.3574" y1="19.6333" x2="33.6459" y2="75.5238" gradientUnits="userSpaceOnUse">
<stop stop-color="#FD7E50" stop-opacity="0.2"/>
<stop offset="0.135725" stop-color="#FD7E50" stop-opacity="0.216471"/>
<stop offset="0.276365" stop-color="#FD7E50" stop-opacity="0.26564"/>
<stop offset="0.419335" stop-color="#FD7E50" stop-opacity="0.347651"/>
<stop offset="0.563835" stop-color="#FD7E50" stop-opacity="0.462577"/>
<stop offset="0.709592" stop-color="#FD7E50" stop-opacity="0.610588"/>
<stop offset="0.854838" stop-color="#FD7E50" stop-opacity="0.789728"/>
<stop offset="1" stop-color="#FD7E50"/>
</linearGradient>
<linearGradient id="paint1_linear_3681_3908" x1="64.6185" y1="14.6381" x2="65.4293" y2="33.4686" gradientUnits="userSpaceOnUse">
<stop stop-color="#B9DFE6"/>
<stop offset="1" stop-color="#F0EFF8"/>
</linearGradient>
<linearGradient id="paint2_linear_3681_3908" x1="64.6585" y1="15.5561" x2="65.2813" y2="30.0211" gradientUnits="userSpaceOnUse">
<stop stop-color="#F0EFF8"/>
<stop offset="1" stop-color="#B9DFE6"/>
</linearGradient>
<linearGradient id="paint3_linear_3681_3908" x1="65.2668" y1="19.4562" x2="65.9858" y2="36.153" gradientUnits="userSpaceOnUse">
<stop stop-color="#B9DFE6"/>
<stop offset="1" stop-color="#F0EFF8"/>
</linearGradient>
<linearGradient id="paint4_linear_3681_3908" x1="65.2302" y1="18.6413" x2="65.9491" y2="35.338" gradientUnits="userSpaceOnUse">
<stop stop-color="#F0EFF8"/>
<stop offset="1" stop-color="#B9DFE6"/>
</linearGradient>
<linearGradient id="paint5_linear_3681_3908" x1="68.6519" y1="21.8345" x2="68.8211" y2="25.7645" gradientUnits="userSpaceOnUse">
<stop stop-color="#B9DFE6"/>
<stop offset="1" stop-color="#F0EFF8"/>
</linearGradient>
<linearGradient id="paint6_linear_3681_3908" x1="64.7114" y1="16.8135" x2="65.0378" y2="24.3942" gradientUnits="userSpaceOnUse">
<stop stop-color="#F0EFF8"/>
<stop offset="1" stop-color="#B9DFE6" stop-opacity="0"/>
</linearGradient>
<linearGradient id="paint7_linear_3681_3908" x1="80.8716" y1="95.4192" x2="111.769" y2="95.4192" gradientUnits="userSpaceOnUse">
<stop stop-color="#F5E5FF"/>
<stop offset="0.389893" stop-color="#F2E9FB"/>
<stop offset="0.79292" stop-color="#EAF5F0"/>
<stop offset="1" stop-color="#E5FFE8"/>
</linearGradient>
<linearGradient id="paint8_linear_3681_3908" x1="-41.7938" y1="91.8507" x2="-41.3746" y2="91.8507" gradientUnits="userSpaceOnUse">
<stop stop-color="#F5E5FF"/>
<stop offset="0.389893" stop-color="#F2E9FB"/>
<stop offset="0.79292" stop-color="#EAF5F0"/>
<stop offset="1" stop-color="#E5FFE8"/>
</linearGradient>
</defs>
</svg>
