<svg width="126" height="126" viewBox="0 0 126 126" fill="none" xmlns="http://www.w3.org/2000/svg">
<g clip-path="url(#clip0_3681_4133)">
<path d="M87.1937 9.55283C78.866 5.17652 69.3614 2.68823 59.2639 2.68823C26.4384 2.68823 -0.171875 28.9026 -0.171875 61.2396C-0.171875 89.037 19.4984 112.293 45.8702 118.28L59.2639 61.2396L87.1937 9.55283Z" fill="#FFE093"/>
<path d="M118.108 84.9167L61.6543 65.8601L48.2153 123.473C52.5365 124.461 57.0307 125 61.6543 125C87.8643 125 110.109 108.225 118.108 84.9167Z" fill="#FFDFE8"/>
<path d="M114.781 29.5698L67.0322 64.3384L123.016 83.3333C125.052 77.3712 126.172 70.9871 126.172 64.3384C126.172 51.3331 121.938 39.3184 114.781 29.5698Z" fill="#DFFFF6"/>
<path d="M119.452 20.5177C113.247 12.0246 105.185 4.98479 95.8565 0L63 61.828L119.452 20.5177Z" fill="#DFE8FF"/>
</g>
<defs>
<clipPath id="clip0_3681_4133">
<rect width="125" height="125" fill="white" transform="translate(0.5 0.5)"/>
</clipPath>
</defs>
</svg>
