<svg width="126" height="126" viewBox="0 0 126 126" fill="none" xmlns="http://www.w3.org/2000/svg">
<g clip-path="url(#clip0_3681_4187)">
<path d="M87.1877 113L-0.53125 37.7197L79.5453 92.7767L87.1877 113Z" fill="#91A0E2"/>
<mask id="mask0_3681_4187" style="mask-type:luminance" maskUnits="userSpaceOnUse" x="-1" y="37" width="89" height="76">
<path d="M87.1877 113L-0.53125 37.7197L79.5453 92.7767L87.1877 113Z" fill="white"/>
</mask>
<g mask="url(#mask0_3681_4187)">
<path d="M87.1877 37.7197H-0.53125V113H87.1877V37.7197Z" fill="#91A0E2"/>
<path d="M87.6738 103.254V65.1909H90.629C84.6314 53.4919 75.9528 42.9563 65.2286 34.1084V37.2338H-1.0166V113.486H87.6738V103.254Z" fill="#91A0E2"/>
<path d="M87.6738 103.254V65.4815H89.7953C83.8435 53.8718 75.2312 43.4166 64.5888 34.6362V37.2338H-1.0166V113.486H87.6738V103.254Z" fill="#91A0E2"/>
<path d="M87.6738 103.253V65.7718H88.9617C83.0556 54.2514 74.5095 43.8767 63.9491 35.1638V37.2336H-1.0166V113.485H87.6738V103.253Z" fill="#91A0E2"/>
<path d="M87.6738 103.254V66.0628H88.128C82.2678 54.6317 73.7879 44.3374 63.3093 35.6921V37.234H-1.0166V113.486H87.6738V103.254Z" fill="#91A0E2"/>
<path d="M87.6738 103.253V84.1479V70.6579H89.3517C88.7074 69.206 88.0212 67.7706 87.2944 66.3529C81.4799 55.0111 73.0663 44.7972 62.6695 36.2195V37.2336H-1.0166V113.485H87.6738V103.253Z" fill="#91A0E2"/>
<path d="M87.6738 103.254V84.2988V75.2852H90.2941C89.1839 72.3401 87.9029 69.457 86.4607 66.6439C80.692 55.3915 72.3447 45.258 62.0298 36.7478V37.2341H-1.0166V113.486H87.6738V103.254Z" fill="#91A0E2"/>
<path d="M87.6738 103.254V84.4489V75.5068H89.4301C88.3286 72.5851 87.0578 69.7249 85.627 66.9342C79.9042 55.771 71.623 45.718 61.39 37.2753C60.1109 36.22 58.8013 35.1898 57.4623 34.1858V37.2337H-1.0166V113.485H87.6738V103.254Z" fill="#91A0E2"/>
<path d="M87.6738 103.254V84.5993V75.7288H88.566C87.4734 72.8304 86.2127 69.9931 84.7934 67.2247C79.1163 56.1508 70.9014 46.1783 60.7503 37.8031C59.4814 36.7562 58.1822 35.7343 56.854 34.7383V37.2337H-1.0166V113.485H87.6738V103.254Z" fill="#91A0E2"/>
<path d="M87.6738 103.254V84.7497H90.4441C88.9617 78.7728 86.7754 73.0074 83.9597 67.5152C78.3284 56.5306 70.1798 46.6385 60.1105 38.3309C58.8518 37.2924 57.5632 36.2787 56.2457 35.2908V37.2336H-1.0166V113.485H87.6738V103.254Z" fill="#91A0E2"/>
<path d="M87.6738 103.253V84.9001H89.5578C88.0874 78.9718 85.9189 73.2533 83.1261 67.8057C77.5406 56.9105 69.4581 47.0987 59.4707 38.8587C58.2223 37.8286 56.9441 36.8232 55.6373 35.8433V37.2336H-1.0166V113.485H87.6738V103.253Z" fill="#91A0E2"/>
<path d="M90.8956 103.254C90.8956 78.3123 78.6421 55.7319 58.831 39.3869C57.5928 38.3653 56.3251 37.3681 55.029 36.3962V37.234H-1.0166V113.486H87.6738V103.254H90.8956Z" fill="#91A0E2"/>
<path d="M89.9908 103.254C89.9908 78.5181 77.8386 56.1243 58.1912 39.9144C55.7353 37.8882 53.1622 35.9586 50.4812 34.1331V37.2337H-1.0166V113.485H87.6738V103.254H89.9908Z" fill="#91A0E2"/>
<path d="M89.086 103.254C89.086 78.7244 77.0352 56.5172 57.5514 40.4424C55.116 38.433 52.5644 36.5195 49.9057 34.7092V37.2339H-1.0166V113.486H87.6738V103.254H89.086Z" fill="#91A0E2"/>
<path d="M88.1813 103.254C88.1813 78.9307 76.2317 56.9102 56.9117 40.9704C54.4967 38.9779 51.9666 37.0805 49.3302 35.2854V37.2341H-1.0166V113.486H86.9511V116.668C87.2212 115.21 87.4478 113.74 87.6301 112.26C87.9946 109.299 88.1813 106.294 88.1813 103.254Z" fill="#91A0E2"/>
<path d="M87.2765 103.254C87.2765 79.1365 75.4282 57.3025 56.2719 41.4979C53.8774 39.5223 51.3687 37.6409 48.7547 35.8611V37.2337H-1.0166V113.485H86.0568V116.554C86.3245 115.108 86.5493 113.651 86.73 112.183C87.0914 109.247 87.2765 106.268 87.2765 103.254Z" fill="#91A0E2"/>
<path d="M86.3718 103.254C86.3718 79.3428 74.6247 57.6955 55.6322 42.0259C53.2581 40.0672 50.7708 38.2019 48.1792 36.4373V37.2339H-1.0166V113.486H85.1625V116.44C85.4279 115.007 85.6507 113.562 85.8299 112.107C86.1882 109.196 86.3718 106.243 86.3718 103.254Z" fill="#91A0E2"/>
<path d="M85.467 103.254C85.467 79.5488 73.8212 58.0881 54.9924 42.5536C52.6388 40.6118 50.173 38.7626 47.6036 37.0132V37.2338H-1.0166V113.486H84.2682V116.327C84.5313 114.906 84.7522 113.473 84.9298 112.031C85.285 109.145 85.467 106.217 85.467 103.254Z" fill="#91A0E2"/>
<path d="M84.5623 103.254C84.5623 79.755 73.0177 58.4809 54.3527 43.0815C52.0196 41.1566 49.5752 39.3235 47.0281 37.5892C45.7547 36.7221 44.4555 35.8797 43.1318 35.063V37.2339H-1.0166V113.486H83.3738V116.213C83.6347 114.805 83.8537 113.385 84.0298 111.954C84.3819 109.094 84.5623 106.191 84.5623 103.254Z" fill="#91A0E2"/>
<path d="M83.6575 103.254C83.6575 79.9611 72.2142 58.8736 53.7129 43.6093C51.4003 41.7013 48.9773 39.8842 46.4527 38.1652C45.1903 37.3057 43.9026 36.4707 42.5904 35.6611V37.2338H-1.0166V113.486H82.4795V116.099C82.7381 114.703 82.9551 113.296 83.1297 111.878C83.4787 109.042 83.6575 106.165 83.6575 103.254Z" fill="#91A0E2"/>
<path d="M82.7527 103.254C82.7527 80.1673 71.4107 59.2664 53.0732 44.1372C48.4887 40.3549 43.4672 36.9333 38.0762 33.9285V37.2339H-1.0166V113.486H81.5852V115.986C81.8415 114.602 82.0566 113.207 82.2296 111.802C82.5755 108.991 82.7527 106.14 82.7527 103.254Z" fill="#91A0E2"/>
<path d="M81.848 103.254C81.848 80.3733 70.6072 59.6591 52.4334 44.6649C47.8899 40.9164 42.9131 37.5253 37.5703 34.5474V37.2338H-1.0166V113.486H80.6908V115.872C80.9448 114.501 81.1581 113.118 81.3295 111.725C81.6724 108.94 81.848 106.114 81.848 103.254Z" fill="#91A0E2"/>
<path d="M80.9432 103.254C80.9432 80.5796 69.8037 60.052 51.7936 45.1929C47.2911 41.4781 42.3592 38.1177 37.0645 35.1665V37.234H-1.0166V113.486H79.7965V115.758C80.0482 114.399 80.2595 113.029 80.4294 111.649C80.7692 108.889 80.9432 106.088 80.9432 103.254Z" fill="#91A0E2"/>
<path d="M80.0385 103.254C80.0385 80.7854 69.0003 60.4444 51.1539 45.7204C46.6923 42.0394 41.8052 38.7095 36.5587 35.7852V37.2337H-1.0166V113.485H78.9022V115.644C79.1516 114.298 79.361 112.94 79.5293 111.573C79.866 108.837 80.0385 106.062 80.0385 103.254Z" fill="#91A0E2"/>
<path d="M79.1338 103.254C79.1338 80.9918 68.1968 60.8374 50.5141 46.2484C46.0935 42.6012 41.2512 39.3018 36.0528 36.4043V37.2338H-1.0166V113.486H78.0079V115.531C78.255 114.197 78.4625 112.851 78.6293 111.496C78.9629 108.786 79.1338 106.036 79.1338 103.254Z" fill="#91A0E2"/>
<path d="M78.229 103.254C78.229 81.1978 67.3933 61.23 49.8744 46.7762C45.4946 43.1627 40.6972 39.8939 35.5469 37.0232V37.2338H-1.0166V113.485H77.1135V115.417C77.3584 114.095 77.5639 112.762 77.7292 111.42C78.0597 108.735 78.229 106.011 78.229 103.254Z" fill="#91A0E2"/>
<path d="M77.3242 103.254C77.3242 81.4041 66.5898 61.6229 49.2346 47.3042C44.8958 43.7245 40.1432 40.4862 35.0411 37.6424C33.7655 36.9314 32.4682 36.2451 31.15 35.5842V37.2339H-1.0166V113.486H76.2192V115.304C76.4617 113.994 76.6654 112.674 76.8291 111.344C77.1565 108.684 77.3242 105.985 77.3242 103.254Z" fill="#91A0E2"/>
<path d="M76.4195 103.254C76.4195 81.6101 65.7863 62.0155 48.5949 47.8318C44.297 44.2859 39.5892 41.0782 34.5352 38.2612C32.0082 36.8526 29.3947 35.5418 26.7025 34.3352V37.2337H-1.0166V113.485H75.3248V115.19C75.5651 113.893 75.7669 112.585 75.929 111.267C76.2533 108.633 76.4195 105.959 76.4195 103.254Z" fill="#91A0E2"/>
<path d="M75.5147 103.254C75.5147 81.8163 64.9828 62.4084 47.9551 48.3598C43.6982 44.8477 39.0352 41.6704 34.0294 38.8803C31.5265 37.4851 28.9378 36.1868 26.2712 34.9917V37.2339H-1.0166V113.486H74.4305V115.076C74.6685 113.791 74.8683 112.496 75.0289 111.191C75.3502 108.581 75.5147 105.933 75.5147 103.254Z" fill="#91A0E2"/>
<path d="M74.6099 103.254C74.6099 82.0226 64.1793 62.8012 47.3153 48.8877C43.0993 45.4094 38.4812 42.2627 33.5235 39.4994C31.0447 38.1177 28.4809 36.8318 25.84 35.6482V37.234H-1.0166V113.486H73.5362V114.963C73.7719 113.69 73.9698 112.407 74.1288 111.115C74.447 108.53 74.6099 105.908 74.6099 103.254Z" fill="#91A0E2"/>
<path d="M73.7052 103.254C73.7052 82.2283 63.3759 63.1936 46.6756 49.4152C42.5005 45.9706 37.9273 42.8545 33.0176 40.118C30.5629 38.7497 28.0239 37.4763 25.4087 36.3042V37.2336H-1.0166V113.485H72.6419V114.849C72.8753 113.588 73.0712 112.318 73.2288 111.038C73.5438 108.479 73.7052 105.882 73.7052 103.254Z" fill="#91A0E2"/>
<path d="M72.8005 103.254C72.8005 82.4346 62.5724 63.5865 46.0358 49.9431C41.9017 46.5324 37.3732 43.4468 32.5118 40.7371C30.0811 39.3822 27.5671 38.1213 24.9775 36.9607V37.2338H-1.0166V113.486H71.7476V114.735C71.9787 113.487 72.1727 112.229 72.3287 110.962C72.6407 108.428 72.8005 105.856 72.8005 103.254Z" fill="#91A0E2"/>
<path d="M71.8957 103.254C71.8957 82.6406 61.7689 63.9791 45.396 50.4709C37.2096 43.7167 27.4617 38.2509 16.6374 34.4736V37.2336H-1.0166V113.485H70.8532V114.621C71.0821 113.386 71.2742 112.14 71.4286 110.886C71.7375 108.376 71.8957 105.83 71.8957 103.254Z" fill="#91A0E2"/>
<path d="M70.991 103.254C70.991 82.8472 60.9654 64.3723 44.7563 50.9992C36.6517 44.3125 27.0013 38.9014 16.2852 35.1619V37.2341H-1.0166V113.486H69.9589V114.508C70.1854 113.285 70.3756 112.052 70.5285 110.81C70.8343 108.325 70.991 105.805 70.991 103.254Z" fill="#91A0E2"/>
<path d="M70.0862 103.254C70.0862 83.0533 60.1619 64.765 44.1165 51.5269C36.0939 44.9078 26.5409 39.5514 15.9331 35.8496V37.234H-1.0166V113.486H69.0646V114.394C69.2888 113.184 69.477 111.963 69.6284 110.733C69.9311 108.274 70.0862 105.779 70.0862 103.254Z" fill="#91A0E2"/>
<path d="M69.1814 103.254C69.1814 83.2593 59.3584 65.1577 43.4768 52.0547C35.536 45.5032 26.0804 40.2013 15.5809 36.5374V37.234H-1.0166V113.486H68.1702V114.281C68.3922 113.082 68.5786 111.874 68.7283 110.657C69.0279 108.223 69.1814 105.753 69.1814 103.254Z" fill="#91A0E2"/>
<path d="M68.2767 103.254C68.2767 83.4654 58.555 65.5504 42.837 52.5825C34.9781 46.0985 25.6201 40.8513 15.2287 37.2251V37.2339H-1.0166V113.486H67.2759V114.167C67.4956 112.981 67.68 111.785 67.8282 110.581C68.1248 108.172 68.2767 105.727 68.2767 103.254Z" fill="#91A0E2"/>
<path d="M67.3719 103.254C67.3719 83.6713 57.7515 65.9429 42.1973 53.1101C34.4202 46.6937 25.1596 41.5011 14.8765 37.9127C12.3058 37.0156 9.67107 36.2187 6.97964 35.5281V37.2337H-1.0166V113.485H66.3816V114.053C66.5989 112.879 66.7814 111.696 66.9282 110.504C67.2216 108.12 67.3719 105.701 67.3719 103.254Z" fill="#91A0E2"/>
<path d="M66.4666 103.254C66.4666 83.8777 56.9474 66.3359 41.5569 53.6381C33.8617 47.2892 24.6986 42.1514 14.5237 38.6007C9.43629 36.8254 4.09592 35.4469 -1.44043 34.5122L-1.01721 37.2339V113.486H65.4866V113.94C65.7017 112.778 65.8823 111.607 66.0275 110.428C66.3178 108.069 66.4666 105.676 66.4666 103.254Z" fill="#91A0E2"/>
<path d="M65.562 103.254C65.562 84.0835 56.1441 66.7283 40.9174 54.1657C33.304 47.8843 24.2384 42.8011 14.1718 39.2882C9.13846 37.5318 3.85488 36.1679 -1.62256 35.2432L-1.017 37.2336V113.485H64.5925V113.826C64.8053 112.677 64.984 111.518 65.1276 110.351C65.4149 108.018 65.562 105.65 65.562 103.254Z" fill="#91A0E2"/>
<path d="M64.6575 103.254C64.6575 84.2898 55.3408 67.1212 40.2778 54.6936C32.7463 48.4798 23.7782 43.4513 13.8198 39.9762C8.84063 38.2386 3.61388 36.8894 -1.80469 35.9746L-1.01678 37.2338V113.486H63.6984V113.712C63.9089 112.575 64.0856 111.43 64.2277 110.275C64.5119 107.967 64.6575 105.624 64.6575 103.254Z" fill="#91A0E2"/>
<path d="M63.7525 103.254C63.7525 84.4958 54.5371 67.5139 39.6378 55.2214C32.1881 49.0751 23.3175 44.1012 13.4674 40.6639C8.54231 38.9452 3.37234 37.6107 -1.9873 36.7058L-1.01706 37.2337V113.485H62.8038V113.598C63.012 112.474 63.1868 111.341 63.3274 110.199C63.6085 107.915 63.7525 105.598 63.7525 103.254Z" fill="#91A0E2"/>
<path d="M62.8474 103.254C62.8474 84.7021 53.7333 67.9067 38.9978 55.7493C31.63 49.6706 22.8568 44.7514 13.1149 41.3518C8.24399 39.652 3.13085 38.3322 -2.16992 37.4373H-1.01733V113.486H61.1931V116.793C62.2778 112.42 62.8474 107.892 62.8474 103.254Z" fill="#91A0E2"/>
<path d="M61.9429 103.254C61.9429 84.9084 52.93 68.2997 38.3582 56.2773C31.0723 50.2662 22.3966 45.4016 12.763 42.0398C7.94616 40.3589 2.8898 39.0537 -2.35205 38.1687H-1.01712V113.486H60.307V116.643C61.3796 112.318 61.9429 107.84 61.9429 103.254Z" fill="#91A0E2"/>
<path d="M61.0383 103.254C61.0383 85.1142 52.1267 68.6921 37.7187 56.8048C30.5146 50.8612 21.9364 46.0512 12.411 42.7272C7.64833 41.0652 2.64881 39.7747 -2.53418 38.8997H-1.0169V113.485H59.4208V116.492C60.4814 112.216 61.0383 107.788 61.0383 103.254Z" fill="#91A0E2"/>
<path d="M60.1338 103.254C60.1338 85.3204 51.3235 69.085 37.0791 57.3328C29.9569 51.4567 21.4762 46.7014 12.0591 43.4152C7.3505 41.7721 2.40776 40.4962 -2.71631 39.6311H-1.01669V113.486H58.5346V116.342C59.5832 112.114 60.1338 107.737 60.1338 103.254Z" fill="#91A0E2"/>
<path d="M59.2288 103.254C59.2288 85.5265 50.5197 69.4776 36.4391 57.8605C29.3987 52.0519 21.0156 47.3513 11.7066 44.1029C7.05213 42.4786 2.16627 41.2174 -2.89893 40.3623H-1.01696V113.485H57.648V116.191C58.6844 112.012 59.2288 107.685 59.2288 103.254Z" fill="#91A0E2"/>
<path d="M58.3237 103.254C58.3237 85.7327 49.716 69.8705 35.799 58.3885C28.8406 52.6475 20.5549 48.0015 11.3542 44.7908C6.75381 43.1854 1.92473 41.9389 -3.08154 41.0938H-1.01724V113.486H56.7613V116.041C57.7858 111.911 58.3237 107.634 58.3237 103.254Z" fill="#91A0E2"/>
<path d="M57.4187 103.254C57.4187 85.939 48.9122 70.2634 35.159 58.9165C28.2824 53.243 20.0942 48.6517 11.0017 45.4788C6.4555 43.8923 1.68325 42.6605 -3.26416 41.8252H-1.01751V113.486H55.8747V115.891C56.8871 111.809 57.4187 107.583 57.4187 103.254Z" fill="#91A0E2"/>
<path d="M56.5146 103.254C56.5146 86.1448 48.1094 70.6558 34.5199 59.4439C27.7252 53.838 19.6344 49.3014 10.6502 46.1662C6.1581 44.5986 1.44264 43.3815 -3.4458 42.5562H-1.01686V113.485H54.989V115.74C55.9893 111.707 56.5146 107.531 56.5146 103.254Z" fill="#91A0E2"/>
<path d="M55.6101 103.254C55.6101 86.3511 47.3061 71.0487 33.8804 59.9719C27.1675 54.4336 19.1742 49.9516 10.2983 46.8542C5.86028 45.3055 1.20164 44.103 -3.62793 43.2876H-1.01664V113.486H54.1028V115.59C55.0911 111.605 55.6101 107.479 55.6101 103.254Z" fill="#91A0E2"/>
<path d="M54.705 103.254C54.705 86.5572 46.5023 71.4413 33.2403 60.4997C26.6093 55.0288 18.7135 50.6015 9.94582 47.5419C5.56196 46.0121 0.960102 44.8242 -3.81055 44.0188H-1.01692V113.485H53.2162V115.439C54.1924 111.503 54.705 107.428 54.705 103.254Z" fill="#91A0E2"/>
<path d="M53.8001 103.254C53.8001 86.7634 45.6986 71.8343 32.6003 61.0276C26.0512 55.6243 18.2528 51.2517 9.59335 48.2299C5.26364 46.719 0.718615 45.5457 -3.99316 44.7502H-1.01719V113.486H52.3295V115.289C53.2937 111.401 53.8001 107.376 53.8001 103.254Z" fill="#91A0E2"/>
<path d="M52.895 103.254C52.895 86.9697 44.8948 72.2271 31.9603 61.5556C25.493 56.2199 17.7921 51.9018 9.24091 48.9178C4.96532 47.4258 0.477078 46.2672 -4.17578 45.4817H-1.01747V113.486H51.4429V115.138C52.395 111.3 52.895 107.325 52.895 103.254Z" fill="#91A0E2"/>
<path d="M51.9904 103.254C51.9904 87.1755 44.0915 72.6196 31.3207 62.0831C24.9353 56.8149 17.3319 52.5516 8.88897 49.6053C4.66749 48.1322 0.236078 46.9883 -4.35791 46.2126H-1.01725V113.485H50.5567V114.988C51.4967 111.197 51.9904 107.273 51.9904 103.254Z" fill="#91A0E2"/>
<path d="M51.086 103.254C51.086 87.3818 43.2884 73.0125 30.6813 62.6111C24.3777 57.4105 16.8719 53.2018 8.53711 50.2932C6.45342 49.5661 4.31796 48.9203 2.13649 48.3605C1.04579 48.0806 -0.0564312 47.8222 -1.16943 47.5859H-1.01692V113.486H49.6706V114.837C50.5987 111.096 51.086 107.222 51.086 103.254Z" fill="#91A0E2"/>
<path d="M50.1813 103.254C50.1813 87.5881 42.4849 73.4054 30.0416 63.1392C23.8199 58.006 16.4115 53.852 8.18499 50.9812C6.12836 50.2636 4.02063 49.6261 1.86748 49.0736C0.790911 48.7973 -0.29698 48.5423 -1.39551 48.3091H-1.01688V113.486H48.7843V114.687C49.7003 110.994 50.1813 107.17 50.1813 103.254Z" fill="#91A0E2"/>
<path d="M49.2766 103.254C49.2766 87.794 41.6815 73.7979 29.4019 63.6666C23.262 58.6011 15.9511 54.5017 7.83287 51.6687C5.80329 50.9605 3.72325 50.3314 1.59847 49.7862C0.536081 49.5135 -0.537529 49.2619 -1.62158 49.0317H-1.01685V113.486H47.898V114.536C48.8019 110.892 49.2766 107.119 49.2766 103.254Z" fill="#91A0E2"/>
<path d="M48.3719 103.254C48.3719 88 40.8781 74.1906 28.7621 64.1944C22.7042 59.1964 15.4907 55.1517 7.4807 52.3565C5.47823 51.6577 3.42592 51.037 1.32946 50.499C0.281251 50.23 -0.778029 49.9817 -1.84766 49.7546H-1.01681V113.485H47.0117V114.386C47.9035 110.79 48.3719 107.067 48.3719 103.254Z" fill="#91A0E2"/>
<path d="M47.4672 103.254C47.4672 88.2061 40.0746 74.5832 28.1224 64.7222C22.1463 59.7917 15.0303 55.8016 7.12858 53.0442C5.15311 52.3548 3.12859 51.7425 1.06044 51.2118C0.0263724 50.9465 -1.01858 50.7015 -2.07373 50.4775H-1.01678V113.485H46.1253V114.235C47.0051 110.688 47.4672 107.015 47.4672 103.254Z" fill="#91A0E2"/>
<path d="M46.5624 103.254C46.5624 88.4124 39.2711 74.9762 27.4827 65.2502C21.5885 60.3873 14.5699 56.4519 6.77645 53.7322C4.82804 53.0523 2.83125 52.4484 0.79143 51.9249C-0.228457 51.6632 -1.25913 51.4216 -2.2998 51.2007H-1.01675V113.486H45.239V114.085C46.1067 110.587 46.5624 106.964 46.5624 103.254Z" fill="#91A0E2"/>
<path d="M45.6577 103.254C45.6577 88.6185 38.4677 75.3688 26.843 65.778C21.0306 60.9826 14.1096 57.1018 6.42428 54.4199C4.50298 53.7494 2.53388 53.1539 0.52242 52.6378C-0.483333 52.3797 -1.49963 52.1414 -2.52588 51.9236H-1.01671V113.486H44.3526V113.935C45.2083 110.485 45.6577 106.912 45.6577 103.254Z" fill="#91A0E2"/>
<path d="M44.753 103.254C44.753 88.8248 37.6642 75.7618 26.2033 66.306C20.4728 61.5781 13.6492 57.752 6.07216 55.1079C4.17791 54.4469 2.23654 53.8597 0.253404 53.3508C-0.738166 53.0964 -1.74018 52.8615 -2.75195 52.6467H-1.01668V113.486H43.4663V113.784C44.3099 110.383 44.753 106.861 44.753 103.254Z" fill="#91A0E2"/>
<path d="M43.8483 103.254C43.8483 89.0309 36.8608 76.1545 25.5635 66.8337C19.9149 62.1734 13.1889 58.402 5.72009 55.7957C3.85289 55.144 1.93926 54.5653 -0.0155578 54.0637C-0.992944 53.8129 -1.98068 53.5813 -2.97803 53.3696H-1.0166V113.486H42.58V113.634C43.4116 110.281 43.8483 106.809 43.8483 103.254Z" fill="#91A0E2"/>
<path d="M42.9436 103.253C42.9436 89.2367 36.0574 76.5469 24.9238 67.3613C19.3571 62.7684 12.7285 59.0517 5.36792 56.4831C3.52778 55.841 1.64193 55.2706 -0.284571 54.7763C-1.24782 54.5291 -2.22118 54.3009 -3.2041 54.0923H-1.01657V113.485H41.0067V115.939C41.2596 115.128 41.4888 114.309 41.6936 113.483C42.5132 110.179 42.9436 106.758 42.9436 103.253Z" fill="#91A0E2"/>
<path d="M42.0389 103.254C42.0389 89.443 35.2539 76.9398 24.2841 67.8893C18.7992 63.364 12.2681 59.7019 5.0158 57.1711C3.20271 56.5385 1.34455 55.9765 -0.553584 55.4894C-1.50265 55.2458 -2.46173 55.021 -3.43018 54.8154H-1.01653V113.486H40.1305V115.753C40.3796 114.954 40.6055 114.147 40.8073 113.333C41.6148 110.077 42.0389 106.706 42.0389 103.254Z" fill="#91A0E2"/>
<path d="M41.1337 103.254C41.1337 89.6491 34.45 77.3325 23.6439 68.417C18.2409 63.9593 11.8072 60.3519 4.66319 57.8589C2.87716 57.2356 1.04673 56.682 -0.823086 56.2022C-1.75797 55.9623 -2.70276 55.7408 -3.65674 55.5383H-1.01699V113.485H39.2537V115.566C39.4992 114.779 39.7216 113.984 39.9205 113.182C40.7159 109.975 41.1337 106.655 41.1337 103.254Z" fill="#91A0E2"/>
<path d="M40.2287 103.254C40.2287 89.8554 33.6463 77.7254 23.004 68.9451C17.6828 64.5549 11.3466 61.0021 4.31083 58.5469C2.55191 57.9331 0.749215 57.3879 -1.09229 56.9153H-1.01714V113.486H38.3773V115.38C38.619 114.604 38.8381 113.822 39.0339 113.032C39.8173 109.874 40.2287 106.603 40.2287 103.254Z" fill="#91A0E2"/>
<path d="M39.324 103.254C39.324 90.0615 32.8428 78.1182 22.3642 69.4729C17.1249 65.1502 10.8863 61.6521 3.95868 59.2346C2.22676 58.6303 0.451806 58.0935 -1.36133 57.6282H-1.01714V113.486H37.501V115.193C37.739 114.43 37.9548 113.659 38.1476 112.882C38.9189 109.772 39.324 106.552 39.324 103.254Z" fill="#91A0E2"/>
<path d="M38.4193 103.254C38.4193 90.2676 32.0393 78.5109 21.7245 70.0007C16.567 65.7456 10.4258 62.3021 3.60648 59.9225C1.90167 59.3275 0.154445 58.7991 -1.63037 58.3411H-1.01714V113.486H36.6248V115.007C36.859 114.255 37.0714 113.497 37.2612 112.731C38.0205 109.67 38.4193 106.5 38.4193 103.254Z" fill="#91A0E2"/>
<path d="M37.5145 103.254C37.5145 90.4735 31.2359 78.9034 21.0847 70.5283C16.0091 66.3407 9.96542 62.9519 3.25433 60.61C1.57657 60.0245 -0.142916 59.5045 -1.89941 59.0537H-1.01713V113.485H35.7485V114.82C35.979 114.08 36.1881 113.334 36.3749 112.581C37.1221 109.568 37.5145 106.448 37.5145 103.254Z" fill="#91A0E2"/>
<path d="M36.6097 103.253C36.6097 90.6796 30.4324 79.2961 20.445 71.0561C15.4513 66.9361 9.505 63.6019 2.90218 61.2978C1.25147 60.7217 -0.440277 60.2101 -2.16846 59.7666H-1.01713V113.485H34.1285V116.794C34.666 115.368 35.1209 113.912 35.4885 112.43C36.2237 109.466 36.6097 106.397 36.6097 103.253Z" fill="#91A0E2"/>
<path d="M35.705 103.254C35.705 90.886 29.6289 79.6891 19.8052 71.5841C14.8934 67.5317 9.04458 64.2522 2.54998 61.9858C0.926328 61.4192 -0.737687 60.9159 -2.4375 60.4797H-1.01713V113.486H33.2645V116.572C33.7931 115.17 34.2405 113.738 34.6021 112.28C35.3253 109.364 35.705 106.346 35.705 103.254Z" fill="#91A0E2"/>
<path d="M34.8002 103.254C34.8002 91.0921 28.8254 80.0819 19.1655 72.112C14.3354 68.1271 8.58421 64.9022 2.19783 62.6736C0.601231 62.1165 -1.03505 61.6216 -2.70654 61.1926H-1.01713V113.486H32.4003V116.35C32.9203 114.971 33.3602 113.563 33.7157 112.13C34.4268 109.263 34.8002 106.294 34.8002 103.254Z" fill="#91A0E2"/>
<path d="M33.896 103.254C33.896 91.2982 28.0224 80.4746 18.5262 72.6398C13.7781 68.7224 8.12428 65.5522 1.84617 63.3614C0.276626 62.8137 -1.33192 62.3272 -2.9751 61.9055H-1.01663V113.486H31.5368V116.128C32.0479 114.773 32.4804 113.388 32.8299 111.979C33.5289 109.161 33.896 106.243 33.896 103.254Z" fill="#91A0E2"/>
<path d="M32.9912 103.254C32.9912 91.5043 27.219 80.8673 17.8864 73.1676C13.2202 69.3177 7.66386 66.2022 1.49397 64.0492C-0.0484715 63.5109 -1.62928 63.0328 -3.24414 62.6184H-1.01663V113.486H30.6727V115.906C31.175 114.574 31.6 113.214 31.9435 111.829C32.6304 109.059 32.9912 106.191 32.9912 103.254Z" fill="#91A0E2"/>
<path d="M32.0865 103.253C32.0865 91.7102 26.4155 81.2598 17.2467 73.6952C12.6623 69.9128 7.20344 66.852 1.14181 64.7367C-0.373568 64.2079 -1.92669 63.7382 -3.51318 63.3311H-1.01663V113.485H29.8086V115.684C30.3021 114.375 30.7197 113.039 31.0571 111.678C31.732 108.957 32.0865 106.139 32.0865 103.253Z" fill="#91A0E2"/>
<path d="M31.1807 103.254C31.1807 91.9168 25.611 81.653 16.606 74.2235C12.1034 70.5087 6.74204 67.5025 0.788685 65.425C-0.69969 64.9056 -2.22503 64.4443 -3.7832 64.0444H-1.0176V113.486H28.9436V115.463C29.4282 114.177 29.8383 112.864 30.1698 111.528C30.8327 108.855 31.1807 106.088 31.1807 103.254Z" fill="#91A0E2"/>
<path d="M30.2765 103.254C30.2765 92.1227 24.808 82.0455 15.9667 74.751C11.546 71.1038 6.28215 68.1523 0.436973 66.1125C-1.0243 65.6026 -2.5219 65.1496 -4.05176 64.7571H-1.01711V113.486H28.08V115.24C28.5558 113.978 28.9585 112.689 29.2839 111.377C29.9347 108.753 30.2765 106.036 30.2765 103.254Z" fill="#91A0E2"/>
<path d="M29.3717 103.254C29.3717 92.3288 24.0045 82.4382 15.3269 75.2789C10.9881 71.6992 5.82173 68.8023 0.0848207 66.8003C-1.3494 66.2998 -2.81926 65.8553 -4.3208 65.47H-1.01711V113.486H27.2159V115.018C27.6829 113.779 28.0781 112.515 28.3975 111.227C29.0363 108.651 29.3717 105.985 29.3717 103.254Z" fill="#91A0E2"/>
<path d="M28.467 103.254C28.467 92.5351 23.201 82.8311 14.6872 75.8068C10.4303 72.2946 5.36132 69.4524 -0.267323 67.4882C-0.970904 67.2427 -1.68323 67.0109 -2.40381 66.7932H-1.0171V113.486H26.3519V114.796C26.8101 113.581 27.1978 112.34 27.5112 111.077C28.1378 108.55 28.467 105.933 28.467 103.254Z" fill="#91A0E2"/>
<path d="M27.5623 103.254C27.5623 92.7412 22.3977 83.2238 14.0475 76.3346C9.87242 72.89 4.90097 70.1025 -0.619454 68.1761C-1.30948 67.9352 -2.00811 67.7079 -2.71484 67.4944H-1.01702V113.486H25.4878V114.574C25.9372 113.382 26.3175 112.165 26.6249 110.926C27.2395 108.448 27.5623 105.882 27.5623 103.254Z" fill="#91A0E2"/>
<path d="M26.6571 103.254C26.6571 92.9473 21.5937 83.6166 13.4072 76.8624C9.31405 73.4854 4.44008 70.7524 -0.972068 68.8638C-1.64859 68.6278 -2.33352 68.4049 -3.02637 68.1956H-1.01748V113.486H24.6233V114.352C25.0639 113.184 25.4367 111.99 25.738 110.776C26.3406 108.346 26.6571 105.83 26.6571 103.254Z" fill="#91A0E2"/>
<path d="M25.7528 103.254C25.7528 93.1533 20.7907 84.0092 12.768 77.3902C8.75668 74.0807 3.98015 71.4024 -1.32373 69.5515H-1.01699V113.486H23.7597V114.13C24.1915 112.985 24.5569 111.816 24.8521 110.625C25.4427 108.244 25.7528 105.779 25.7528 103.254Z" fill="#91A0E2"/>
<path d="M24.8478 103.254C24.8478 93.3594 19.9869 84.4019 12.1279 77.9179C8.19843 74.676 3.51944 72.0523 -1.67627 70.2393H-1.01733V113.485H22.8953V113.908C23.3182 112.786 23.6762 111.641 23.9654 110.475C24.5439 108.142 24.8478 105.727 24.8478 103.254Z" fill="#91A0E2"/>
<path d="M23.9436 103.254C23.9436 93.5657 19.184 84.7948 11.4887 78.446C7.64112 75.2715 3.05961 72.7026 -2.02783 70.9272H-1.01674V113.486H22.0318V113.687C22.446 112.588 22.7964 111.466 23.0797 110.324C23.6461 108.04 23.9436 105.676 23.9436 103.254Z" fill="#91A0E2"/>
<path d="M23.0384 103.254C23.0384 93.7718 18.3801 85.1875 10.8486 78.9737C7.08287 75.8668 2.5988 73.3525 -2.38037 71.615H-1.01712V113.486H19.7678V116.619C21.8738 112.511 23.0384 107.995 23.0384 103.254Z" fill="#91A0E2"/>
<path d="M22.1339 103.254C22.1339 93.9779 17.5768 85.5802 10.209 79.5015C6.52511 76.4621 2.13853 74.0025 -2.73242 72.3027H-1.01697V113.486H18.9344V116.329C20.9946 112.31 22.1339 107.892 22.1339 103.254Z" fill="#91A0E2"/>
<path d="M21.2292 103.254C21.2292 94.184 16.7734 85.9729 9.56933 80.0293C5.96731 77.0575 1.67821 74.6525 -3.08447 72.9905H-1.01687V113.486H18.1008V116.038C20.1152 112.109 21.2292 107.788 21.2292 103.254Z" fill="#91A0E2"/>
<path d="M20.324 103.254C20.324 94.39 15.9695 86.3655 8.9292 80.557C5.40906 77.6528 1.21745 75.3025 -3.43701 73.6782H-1.01725V113.485H17.2668V115.747C19.2354 111.907 20.324 107.685 20.324 103.254Z" fill="#91A0E2"/>
<path d="M19.4199 103.254C19.4199 94.5961 15.1667 86.7583 8.29008 81.0848C4.85179 78.2481 0.757668 75.9524 -3.78857 74.366H-1.01661V113.485H16.4337V115.457C18.3566 111.706 19.4199 107.582 19.4199 103.254Z" fill="#91A0E2"/>
<path d="M18.5143 103.253C18.5143 94.8021 14.3623 87.151 7.64945 81.6126C4.29301 78.8434 0.296371 76.6024 -4.1416 75.0537H-1.01748V113.485H15.5992V115.166C17.4763 111.505 18.5143 107.479 18.5143 103.253Z" fill="#91A0E2"/>
<path d="M17.6097 103.254C17.6097 95.0085 13.559 87.5439 7.00986 82.1406C5.37256 80.7898 3.57915 79.5678 1.65381 78.4946C0.691141 77.958 -0.304507 77.4587 -1.33008 76.999H-1.01732V113.486H14.7657V114.876C16.597 111.304 17.6097 107.376 17.6097 103.254Z" fill="#91A0E2"/>
<path d="M16.7051 103.254C16.7051 95.2148 12.7556 87.9368 6.37023 82.6685C4.77388 81.3515 3.02525 80.16 1.1481 79.1137C0.209474 78.5905 -0.761258 78.1037 -1.76123 77.6555H-1.01719V113.486H13.9322V114.585C15.7177 111.103 16.7051 107.273 16.7051 103.254Z" fill="#91A0E2"/>
<path d="M15.8004 103.254C15.8004 95.421 11.9522 88.3297 5.73056 83.1965C4.1751 81.9132 2.47136 80.7523 0.642289 79.7328C-0.272244 79.2231 -1.21811 78.7487 -2.19238 78.312H-1.01711V113.486H13.0986V114.295C14.8384 110.901 15.8004 107.17 15.8004 103.254Z" fill="#91A0E2"/>
<path d="M14.8958 103.254C14.8958 95.6268 11.1489 88.722 5.09093 83.7239C3.57642 82.4745 1.91751 81.3441 0.136579 80.3514C-0.75391 79.8551 -1.67486 79.3932 -2.62354 78.968H-1.01698V113.485H12.2651V114.004C13.9591 110.7 14.8958 107.067 14.8958 103.254Z" fill="#91A0E2"/>
<path d="M13.9911 103.254C13.9911 95.833 10.3454 89.1149 4.45125 84.2519C2.97769 83.0362 1.36361 81.9364 -0.369228 80.9706C-1.23563 80.4876 -2.1317 80.0382 -3.05469 79.6245H-1.0169V113.486H11.4315V113.714C13.0797 110.499 13.9911 106.964 13.9911 103.254Z" fill="#91A0E2"/>
<path d="M13.086 103.254C13.086 96.0393 9.54159 89.5077 3.81114 84.7799C2.37848 83.5979 0.809226 82.5287 -0.875432 81.5897C-1.71774 81.1201 -2.58894 80.6832 -3.48633 80.281H-1.01726V113.486H9.26404V115.707C9.75152 114.967 10.1969 114.205 10.5975 113.423C12.1999 110.298 13.086 106.861 13.086 103.254Z" fill="#91A0E2"/>
<path d="M12.1817 103.254C12.1817 96.2455 8.73855 89.9006 3.17179 85.3078C1.78008 84.1596 0.255663 83.1209 -1.38086 82.2087H-1.01685V113.486H8.46888V115.351C8.94246 114.632 9.3751 113.892 9.76427 113.133C11.3209 110.096 12.1817 106.758 12.1817 103.254Z" fill="#91A0E2"/>
<path d="M11.2764 103.254C11.2764 96.4513 7.9346 90.2931 2.53153 85.8353C1.18081 84.7209 -0.298772 83.7127 -1.88721 82.8274H-1.01731V113.485H7.67289V114.995C8.13249 114.297 8.5524 113.579 8.93015 112.842C10.441 109.895 11.2764 106.655 11.2764 103.254Z" fill="#91A0E2"/>
<path d="M10.3717 103.254C10.3717 96.6574 7.13108 90.6857 1.89176 86.3631C0.581935 85.2824 -0.852816 84.3048 -2.39307 83.4463H-1.01733V113.485H5.42709V116.609C6.46767 115.338 7.36394 113.98 8.09647 112.551C9.56153 109.694 10.3717 106.552 10.3717 103.254Z" fill="#91A0E2"/>
<path d="M9.46689 103.254C9.46689 96.8636 6.32757 91.0786 1.25198 86.891C-0.0168943 85.8441 -1.40681 84.8971 -2.89893 84.0654H-1.01735V113.486H4.67682V116.192C5.6849 114.96 6.55314 113.645 7.26279 112.261C8.68205 109.492 9.46689 106.449 9.46689 103.254Z" fill="#91A0E2"/>
<path d="M8.56264 103.254C8.56264 97.07 5.52459 91.4715 0.612741 87.419C-0.615185 86.4059 -1.96027 85.4894 -3.4043 84.6846H-1.01683V113.486H3.92712V115.774C4.90266 114.583 5.74288 113.31 6.42965 111.971C7.80315 109.291 8.56264 106.346 8.56264 103.254Z" fill="#91A0E2"/>
<path d="M7.6579 103.254C7.6579 97.276 4.72113 91.8642 -0.0270326 87.9468C-1.21406 86.9674 -2.51431 86.0815 -3.91016 85.3035H-1.01685V113.486H3.17684V115.357C4.11989 114.205 4.93213 112.975 5.59597 111.68C6.92367 109.09 7.6579 106.243 7.6579 103.254Z" fill="#91A0E2"/>
<path d="M6.75311 103.253C6.75311 97.4818 3.91761 92.2566 -0.666809 88.4743C-1.81289 87.5287 -3.06831 86.6733 -4.41602 85.9221H-1.01688V113.485H2.42661V114.939C3.33711 113.827 4.12133 112.639 4.7623 111.389C6.04424 108.888 6.75311 106.139 6.75311 103.253Z" fill="#91A0E2"/>
<path d="M5.84826 103.254C5.84826 97.688 3.11404 92.6494 -1.30664 89.0022H-1.01695V113.485H1.67628V114.522C2.55428 113.45 3.31052 112.304 3.92856 111.099C5.1647 108.687 5.84826 106.036 5.84826 103.254Z" fill="#91A0E2"/>
<path d="M4.94311 103.254C4.94311 97.8944 2.31016 93.0424 -1.94678 89.5303H-1.01733V113.486H0.925685V114.105C1.77115 113.072 2.49935 111.969 3.09452 110.808C4.2849 108.486 4.94311 105.933 4.94311 103.254Z" fill="#91A0E2"/>
<path d="M4.0385 103.254C4.0385 98.1005 1.50677 93.4352 -2.58643 90.0581H-1.01723V113.486L-2.58643 116.449C1.50677 113.072 4.0385 108.407 4.0385 103.254Z" fill="#91A0E2"/>
<path d="M3.13383 103.254C3.13383 98.3067 0.703387 93.8279 -3.22607 90.5859H-1.01712V113.486L-3.22607 115.922C0.703387 112.68 3.13383 108.201 3.13383 103.254Z" fill="#91A0E2"/>
<path d="M2.22917 103.254C2.22917 98.5128 -0.0999529 94.2206 -3.86572 91.1138H-1.01701V113.486L-3.86572 115.394C-0.0999529 112.287 2.22917 107.995 2.22917 103.254Z" fill="#91A0E2"/>
<path d="M1.32419 103.254C1.32419 100.986 0.767201 98.8263 -0.24001 96.8615C-0.743663 95.8792 -1.35981 94.9457 -2.0752 94.072H-1.01728V112.436H-2.0752C-1.35981 111.562 -0.743663 110.628 -0.24001 109.646C0.767201 107.681 1.32419 105.521 1.32419 103.254Z" fill="#91A0E2"/>
</g>
<path d="M-1 38L94.5952 84L126 66.0036L-1 38Z" fill="#F36A8D"/>
<path d="M-1 38L80 92.9484L48.3107 111L-1 38Z" fill="#F36A8D"/>
<path d="M79.6127 92.852L-1 38L95 84.0601L87.3064 113L79.6127 92.852Z" fill="#FCFFE5"/>
<path d="M76.5811 54L127 65.3474L95.5488 84L48 60.9829L76.5811 54Z" fill="#F36A8D"/>
</g>
<defs>
<clipPath id="clip0_3681_4187">
<rect width="125" height="125" fill="white" transform="translate(0.5 0.5)"/>
</clipPath>
</defs>
</svg>
