<svg width="126" height="126" viewBox="0 0 126 126" fill="none" xmlns="http://www.w3.org/2000/svg">
<g clip-path="url(#clip0_3681_4371)">
<path opacity="0.4" d="M87.7152 111.109L63 125L38.2848 111.109C25.7633 104.071 18 90.7365 18 76.2663V17.1406L63 0L108 17.1406V76.2663C108 90.7365 100.237 104.071 87.7152 111.109Z" fill="#FCFFE5"/>
<path d="M83.8706 102.525L63 114L42.1294 102.525C31.5557 96.7116 25 85.6965 25 73.7435V23.159L63 9L101 23.159V73.7435C101 85.6965 94.4444 96.7116 83.8706 102.525Z" fill="#FDF151"/>
<path d="M87.3287 107C87.2056 107 87.088 106.935 87.0319 106.823C86.954 106.668 87.0238 106.483 87.1877 106.41C98.0386 101.547 105.335 90.6569 105.343 79.31C105.343 79.1387 105.491 79 105.672 79C105.853 79.0002 106 79.139 106 79.3103C105.991 90.8918 98.5442 102.007 87.4692 106.97C87.4236 106.99 87.3759 107 87.3287 107Z" fill="#FCFFE5"/>
<path d="M21.3127 19C21.1882 19 21.0703 18.9206 21.0218 18.7905C20.9586 18.6207 21.0374 18.4288 21.1979 18.3618L55.5725 4.02315C55.7337 3.95617 55.9147 4.03945 55.9782 4.20942C56.0414 4.37921 55.9626 4.57113 55.8021 4.63811L21.4275 18.9768C21.3896 18.9924 21.3509 19 21.3127 19Z" fill="#FCFFE5"/>
<path d="M63.6743 23.0007C50.7172 22.9043 40.0962 33.4519 40.0006 46.5119C39.9858 48.5323 40.2479 50.6011 40.7784 52.6597L47.2687 50.9568C46.8845 49.4701 46.6945 47.9916 46.705 46.5617C46.7734 37.227 54.3626 29.6894 63.6248 29.7583C72.8849 29.8271 80.3631 37.4766 80.2949 46.8113C80.2844 48.2489 80.0728 49.7234 79.6692 51.1943L86.1294 53C86.6921 50.9572 86.9845 48.8915 86.9994 46.8611C87.0948 33.8012 76.6314 23.0969 63.6743 23.0007Z" fill="#77B3F7"/>
<path d="M35.1102 50C34.4478 52.3805 34.02 59.4049 34.0008 61.9921C33.8827 77.895 46.7705 90.882 62.7859 90.9992C78.8018 91.1165 91.8811 78.3196 91.9992 62.4167C92.0184 59.8296 91.695 52.7997 91.068 50.4097L35.1102 50Z" fill="#BFDBFB"/>
<path opacity="0.5" d="M68.9998 61.9358C69.0243 58.6816 66.3577 56.0241 63.0435 56.0002C59.7301 55.9762 57.0246 58.5948 57.0002 61.8489C56.9804 64.4864 58.7401 66.7054 61.1673 67.4746L58.8415 79.9418L66.8855 80L64.7479 67.5006C67.1871 66.7666 68.98 64.5733 68.9998 61.9358Z" fill="#77B3F7"/>
<g opacity="0.5">
<path d="M56.2 61.3203C56.1942 61.3203 56.1887 61.32 56.1832 61.3194C56.0968 61.3102 56.0347 61.233 56.0439 61.1469C56.2079 59.6105 56.9386 58.1125 58.0489 57.0371C59.1592 55.9619 60.6797 55.2793 62.2206 55.1642C62.3067 55.1565 62.3816 55.2223 62.3887 55.3088C62.3951 55.3951 62.3302 55.4703 62.2439 55.4767C60.7749 55.5865 59.3254 56.2373 58.2669 57.2623C57.2086 58.2875 56.5119 59.7155 56.3555 61.1802C56.3469 61.2606 56.279 61.3203 56.2 61.3203Z" fill="#B2FFBB"/>
</g>
<g opacity="0.5">
<path d="M73.0245 86.6624C72.9636 86.6624 72.9055 86.6265 72.8801 86.5668C72.8464 86.487 72.8837 86.395 72.9636 86.3614C80.9048 83.0048 86.9588 75.6823 88.7631 67.2516C88.7814 67.1667 88.865 67.1132 88.9492 67.1311C89.034 67.1492 89.0879 67.2325 89.0698 67.3171C87.2441 75.8464 81.1194 83.2543 73.0855 86.65C73.0656 86.6584 73.0451 86.6624 73.0245 86.6624Z" fill="#B2FFBB"/>
</g>
</g>
<defs>
<clipPath id="clip0_3681_4371">
<rect width="125" height="125" fill="white" transform="translate(0.5 0.5)"/>
</clipPath>
</defs>
</svg>
