<svg width="1054" height="1490" viewBox="0 0 1054 1490" fill="none" xmlns="http://www.w3.org/2000/svg">
<g clip-path="url(#clip0_3562_7430)">
<path d="M1085.51 -30.7383H-31.5071V1520.74H1085.51V-30.7383Z" fill="#011627"/>
<mask id="mask0_3562_7430" style="mask-type:luminance" maskUnits="userSpaceOnUse" x="-6" y="0" width="1066" height="255">
<path d="M1059.12 0H-5.12085V254.953H1059.12V0Z" fill="white"/>
</mask>
<g mask="url(#mask0_3562_7430)">
<path d="M859.614 40.5664L867.632 -7.12109L847.058 -0.94453L826.483 5.2317L859.614 40.5664Z" fill="#A7D1CD"/>
<path d="M799.397 56.1463L810.504 9.08203L789.571 13.9062L768.638 18.7308L799.397 56.1463Z" fill="#F08451"/>
<path d="M741.301 67.8587L754.983 21.4766L733.816 25.1419L712.649 28.8076L741.301 67.8587Z" fill="#A7D1CD"/>
<path d="M681.861 76.8967L698.005 31.3125L676.672 33.8408L655.34 36.3691L681.861 76.8967Z" fill="#F08451"/>
<path d="M622.988 82.786L641.164 37.9727L619.739 39.541L598.314 41.1094L622.988 82.786Z" fill="#A7D1CD"/>
<path d="M562.156 85.7247L582.218 41.7227L560.746 42.3807L539.274 43.0385L562.156 85.7247Z" fill="#F08451"/>
<path d="M204.593 45.9897L195.599 -1.52344L216.296 4.23018L236.992 9.98345L204.593 45.9897Z" fill="#A7D1CD"/>
<path d="M265.117 60.3308L253.047 13.5039L274.075 17.8984L295.103 22.2926L265.117 60.3308Z" fill="#F08451"/>
<path d="M323.441 70.8498L308.811 24.7578L330.049 27.9888L351.287 31.2198L323.441 70.8498Z" fill="#A7D1CD"/>
<path d="M383.055 78.6692L365.979 33.4258L387.359 35.5161L408.739 37.6067L383.055 78.6692Z" fill="#F08451"/>
<path d="M442.036 83.3493L422.945 38.918L444.397 40.0466L465.85 41.1756L442.036 83.3493Z" fill="#A7D1CD"/>
<path d="M502.916 85.0424L481.955 41.4609L503.436 41.6783L524.918 41.896L502.916 85.0424Z" fill="#F08451"/>
<path d="M521.618 44.5064C394.558 44.5064 271.68 26.3145 174.885 -6.8907L175.973 -10.0647C274.203 23.6336 399.372 41.8926 528.626 41.1342C657.804 40.4513 782.848 20.9459 880.717 -13.7891L881.837 -10.6282C783.625 24.2296 658.19 43.8037 528.642 44.4883C526.302 44.5014 523.956 44.5064 521.618 44.5064Z" fill="black"/>
<path d="M885.669 49.6017L894.772 2.10938L911.906 15.0626L929.039 28.0157L885.669 49.6017Z" fill="#A7D1CD"/>
<path d="M936.686 85.1712L942.676 37.1875L960.617 48.9983L978.557 60.809L936.686 85.1712Z" fill="#F08451"/>
<path d="M987.062 116.377L990.401 68.1367L1008.97 78.9426L1027.53 89.7488L987.062 116.377Z" fill="#A7D1CD"/>
<path d="M1039.63 145.549L1040.38 97.1992L1059.5 106.997L1078.61 116.795L1039.63 145.549Z" fill="#F08451"/>
<path d="M1536.34 245.714C1432.18 242.055 1308.33 214.186 1187.59 167.236C1066.87 120.289 956.732 57.1703 877.479 -10.4915L879.662 -13.043C958.629 54.3814 1068.42 117.295 1188.81 164.112C1309.2 210.926 1432.67 238.717 1536.46 242.363L1536.34 245.714Z" fill="black"/>
<path d="M168.33 52.2345L159.227 4.74219L142.094 17.6954L124.961 30.6485L168.33 52.2345Z" fill="#A7D1CD"/>
<path d="M117.314 87.804L111.324 39.8203L93.383 51.6311L75.4424 63.4419L117.314 87.804Z" fill="#F08451"/>
<path d="M66.9383 119.01L63.5988 70.7695L45.0348 81.5754L26.4711 92.3816L66.9383 119.01Z" fill="#A7D1CD"/>
<path d="M14.3709 148.182L13.6186 99.832L-5.49711 109.629L-24.6128 119.427L14.3709 148.182Z" fill="#F08451"/>
<path d="M-482.342 248.346L-482.46 244.996C-378.667 241.35 -255.205 213.559 -134.814 166.744C-14.4249 119.93 95.3685 57.0142 174.339 -10.4102L176.518 -7.85836C97.2691 59.8031 -12.8669 122.922 -133.599 169.869C-254.331 216.818 -378.183 244.688 -482.342 248.346Z" fill="black"/>
</g>
<path d="M282.664 992.263L280.035 989.752C293.16 976.031 301.468 955.594 304.061 930.649C305.629 915.591 305.185 900.128 304.756 885.172C304.564 878.468 304.365 871.534 304.348 864.711C304.172 792.707 319.824 719.843 346.219 669.797L349.435 671.491C323.304 721.037 307.807 793.265 307.983 864.702C308 871.478 308.198 878.387 308.389 885.067C308.822 900.141 309.269 915.729 307.678 931.024C305 956.777 296.349 977.953 282.664 992.263Z" fill="#FD9F1E"/>
<path d="M254.379 545.405C254.149 546.236 253.933 547.076 253.731 547.926C250.957 559.295 249.753 572.023 250.055 585.271C250.335 597.866 251.969 610.905 254.896 623.668C259.17 642.341 266.196 660.391 275.79 675.544C288.156 695.118 304.759 709.865 325.195 714.836C350.085 720.907 376.606 711.509 399.984 694.198C405.654 690.004 411.136 685.351 416.368 680.339C427.414 669.748 437.319 657.53 445.441 644.757C454.298 630.834 461.021 616.212 464.788 602.222C465.041 601.325 465.278 600.418 465.493 599.517C468.689 586.421 469.367 573.298 467.834 560.663C466.464 549.31 463.303 538.354 458.602 528.153C452.497 514.922 443.774 502.978 432.926 493.115C419.888 481.237 403.757 472.361 385.419 467.887C356.003 460.71 326.447 466.22 302.553 480.926C297.473 484.039 292.668 487.565 288.166 491.465C281.464 497.278 275.425 503.932 270.256 511.32C263.186 521.409 257.736 532.871 254.379 545.405Z" fill="#E52037"/>
<g style="mix-blend-mode:overlay" opacity="0.33">
<path d="M329.75 696.179C351.221 701.411 377.938 690.588 403.052 666.485C424.265 646.127 441.041 618.725 446.833 594.974C458.556 546.902 428.967 498.26 380.875 486.541C352.664 479.668 322.708 486.931 300.747 505.971C286.634 518.204 276.831 534.283 272.395 552.471C259.632 604.808 285.652 685.435 329.75 696.179Z" fill="#F6F9F5"/>
</g>
<path d="M306.269 720.123L338.39 727.95L338.726 711.506L313.931 705.465L306.269 720.123Z" fill="#E52037"/>
<path d="M304.76 722.773L338.64 731.028C340.058 731.374 341.487 730.505 341.833 729.088C342.178 727.671 341.309 726.242 339.892 725.897L306.011 717.642C304.594 717.297 303.165 718.165 302.819 719.582C302.473 720.999 303.342 722.428 304.76 722.773Z" fill="#E52037"/>
<path d="M270.256 511.32C352.778 539.925 417.433 536.687 458.602 528.153C452.497 514.923 443.774 502.979 432.926 493.115C429.74 493.54 426.429 493.908 422.997 494.217C394.474 496.791 353.32 495.653 302.553 480.926C297.474 484.039 292.668 487.566 288.166 491.465C281.464 497.278 275.425 503.932 270.256 511.32Z" fill="#FD9F1E"/>
<path d="M254.379 545.406C254.149 546.238 253.933 547.078 253.731 547.928C250.957 559.297 249.753 572.024 250.055 585.273C349.274 622.336 423.964 613.412 464.788 602.224C465.041 601.326 465.278 600.42 465.493 599.519C468.689 586.422 469.367 573.299 467.834 560.665C456.456 564.697 438.027 569.828 413.548 572.043C378.099 575.237 323.105 572.689 254.379 545.406Z" fill="#FD9F1E"/>
<path d="M254.896 623.668C259.17 642.34 266.196 660.39 275.79 675.543C325.023 694.304 367.479 697.131 399.984 694.198C405.654 690.004 411.136 685.351 416.368 680.339C427.414 669.747 437.319 657.53 445.441 644.757C435.23 648.494 422.697 652.05 408.156 654.248C358.862 661.679 307.436 651.402 254.896 623.668Z" fill="#FD9F1E"/>
<g style="mix-blend-mode:overlay" opacity="0.4">
<path d="M375.72 522.134C376.558 512.954 384.543 505.385 393.555 503.428C402.567 501.47 412.146 504.423 419.681 509.738C427.216 515.051 432.954 522.531 437.893 530.316C442.385 537.396 446.423 545.202 446.553 553.585C446.814 570.341 430.126 583.972 413.823 579.828C396.615 575.454 395.86 560.654 387.14 548.114C381.772 540.394 374.802 532.186 375.72 522.134Z" fill="#F6F9F5"/>
</g>
<g style="mix-blend-mode:multiply" opacity="0.5">
<path d="M253.728 547.925C239.472 606.382 266.728 700.593 325.2 714.84C356.121 722.374 389.583 706.038 416.359 680.342C375.373 665.041 339.757 635.736 316.922 598.428C296.808 565.562 288.783 529.396 288.157 491.465C271.666 505.76 259.29 525.118 253.728 547.925Z" fill="#BCD4D2"/>
</g>
<path d="M723.132 1001.06L726.358 998.509C713.009 981.662 705.796 957.753 705.498 929.364C705.316 912.226 707.444 894.844 709.502 878.03C710.425 870.495 711.379 862.701 712.116 855.011C719.893 773.871 709.919 690.095 685.436 630.91L681.633 632.482C705.872 691.075 715.736 774.117 708.019 854.618C707.287 862.254 706.336 870.021 705.417 877.531C703.344 894.476 701.199 911.999 701.381 929.406C701.69 958.716 709.212 983.494 723.132 1001.06Z" fill="#FD9F1E"/>
<path d="M802.047 500.359C802.219 501.32 802.374 502.29 802.513 503.27C804.443 516.376 804.46 530.849 802.725 545.75C801.084 559.916 797.87 574.441 793.227 588.52C786.444 609.117 776.624 628.723 764.216 644.794C748.217 665.557 727.952 680.433 704.392 683.888C675.7 688.112 646.795 674.73 622.267 652.76C616.318 647.436 610.628 641.615 605.258 635.415C593.922 622.315 584.044 607.503 576.233 592.252C567.716 575.628 561.676 558.439 558.904 542.273C558.714 541.236 558.541 540.189 558.393 539.15C556.169 524.053 556.788 509.19 559.844 495.11C562.584 482.457 567.3 470.44 573.672 459.436C581.947 445.166 593.036 432.621 606.3 422.643C622.247 410.627 641.364 402.318 662.504 399.204C696.416 394.208 729.15 403.527 754.534 422.615C759.932 426.658 764.977 431.139 769.641 436.008C776.583 443.265 782.69 451.399 787.739 460.27C794.646 472.386 799.582 485.878 802.047 500.359Z" fill="#001628"/>
<g style="mix-blend-mode:overlay" opacity="0.33">
<path d="M701.222 662.379C676.471 666.017 647.496 651.009 621.725 621.201C599.958 596.023 583.933 563.372 579.904 535.992C571.75 480.575 610.221 428.859 665.662 420.709C698.185 415.928 731.184 427.264 753.934 451.035C768.553 466.307 777.911 485.462 780.996 506.429C789.874 566.764 752.058 654.906 701.222 662.379Z" fill="#F6F9F5"/>
</g>
<path d="M725.17 691.836L688.14 697.279L689.492 678.71L718.076 674.508L725.17 691.836Z" fill="#001628"/>
<path d="M726.592 694.979L687.534 700.72C685.9 700.961 684.38 699.831 684.14 698.198C683.9 696.565 685.03 695.046 686.664 694.806L725.721 689.063C727.355 688.823 728.875 689.953 729.115 691.586C729.356 693.219 728.226 694.739 726.592 694.979Z" fill="#001628"/>
<path d="M787.739 460.272C691.713 483.835 619.178 473.387 573.672 459.438C581.947 445.167 593.036 432.622 606.301 422.645C609.848 423.46 613.54 424.222 617.377 424.932C649.255 430.833 695.763 433.877 754.534 422.617C759.932 426.659 764.977 431.14 769.641 436.01C776.583 443.266 782.69 451.401 787.739 460.272Z" fill="#FD9F1E"/>
<path d="M802.047 500.362C802.219 501.323 802.374 502.293 802.513 503.273C804.443 516.378 804.46 530.852 802.725 545.753C686.989 577.094 603.741 559.181 558.904 542.276C558.714 541.239 558.541 540.192 558.393 539.153C556.169 524.056 556.788 509.193 559.844 495.113C572.245 500.854 592.477 508.575 619.835 513.647C659.456 520.976 721.711 523.887 802.047 500.362Z" fill="#FD9F1E"/>
<path d="M793.227 588.523C786.444 609.12 776.624 628.727 764.216 644.797C706.748 660.766 658.597 659.487 622.267 652.763C616.318 647.439 610.628 641.618 605.258 635.418C593.922 622.318 584.044 607.506 576.233 592.255C587.349 597.542 601.101 602.868 617.261 606.873C672.04 620.433 731.087 614.259 793.227 588.523Z" fill="#FD9F1E"/>
<g style="mix-blend-mode:overlay" opacity="0.4">
<path d="M667.727 461.369C667.749 450.934 659.544 441.563 649.593 438.409C639.641 435.255 628.533 437.577 619.48 442.773C610.428 447.971 603.174 455.799 596.787 464.054C590.979 471.561 585.606 479.934 584.577 489.37C582.519 508.23 599.894 525.349 618.706 522.392C638.562 519.271 640.971 502.67 652.12 489.451C658.983 481.315 667.704 472.796 667.727 461.369Z" fill="#F6F9F5"/>
</g>
<g style="mix-blend-mode:multiply" opacity="0.5">
<path d="M802.516 503.268C812.431 570.656 771.792 673.981 704.387 683.89C668.74 689.131 632.743 667.2 605.268 635.419C653.075 622.484 696.305 593.196 725.971 553.546C752.101 518.616 764.953 478.697 769.651 436.008C786.736 453.855 798.647 476.975 802.516 503.268Z" fill="#BCD4D2"/>
</g>
<path d="M512.386 1163.16L508.219 1162.22C514.511 1121.08 516.416 1079.65 514.074 1041.11C512.195 1008.85 507.277 978.664 499.431 952.588L503.606 951.348C511.518 977.523 516.436 1007.71 518.398 1039.99C520.789 1079.15 518.898 1121.36 512.386 1163.16Z" fill="#FD9F1E"/>
<path d="M639.464 826.804C639.543 827.829 639.603 828.861 639.646 829.902C640.29 843.833 638.786 858.997 635.401 874.424C632.194 889.092 627.299 903.97 620.955 918.23C611.685 939.095 599.337 958.602 584.649 974.134C565.706 994.203 542.913 1007.66 517.871 1008.8C487.37 1010.21 458.496 993.159 435.112 967.568C429.44 961.366 424.092 954.67 419.118 947.612C408.621 932.698 399.83 916.144 393.25 899.347C386.077 881.037 381.556 862.398 380.352 845.172C380.262 844.064 380.191 842.95 380.144 841.847C379.403 825.798 381.613 810.293 386.295 795.864C390.495 782.898 396.699 770.805 404.532 759.947C414.699 745.867 427.635 733.89 442.58 724.831C460.549 713.918 481.447 707.222 503.92 706.181C539.97 704.509 573.28 717.71 597.865 740.373C603.094 745.174 607.908 750.398 612.283 755.989C618.792 764.319 624.334 773.483 628.69 783.306C634.653 796.723 638.405 811.375 639.464 826.804Z" fill="#27696C"/>
<g style="mix-blend-mode:overlay" opacity="0.33">
<path d="M516.811 985.94C490.5 987.152 461.725 968.386 437.862 934.453C417.707 905.792 404.353 869.905 403.012 840.8C400.296 781.892 446.033 731.757 504.968 729.042C539.539 727.45 572.915 742.793 594.249 770.083C607.958 787.617 615.746 808.666 616.774 830.954C619.73 895.091 570.85 983.451 516.811 985.94Z" fill="#F6F9F5"/>
</g>
<path d="M538.8 1019.31L499.438 1021.12L502.806 1001.81L533.191 1000.41L538.8 1019.31Z" fill="#27696C"/>
<path d="M539.959 1022.76L498.441 1024.67C496.704 1024.75 495.231 1023.41 495.151 1021.67C495.071 1019.93 496.414 1018.46 498.151 1018.38L539.669 1016.47C541.406 1016.39 542.88 1017.73 542.959 1019.47C543.04 1021.2 541.696 1022.68 539.959 1022.76Z" fill="#27696C"/>
<path d="M628.69 783.307C525.621 797.904 450.735 779.339 404.531 759.948C414.699 745.867 427.635 733.89 442.58 724.832C446.21 726.058 449.997 727.244 453.941 728.391C486.716 737.921 535.115 745.995 597.865 740.373C603.094 745.175 607.908 750.399 612.283 755.989C618.792 764.32 624.334 773.484 628.69 783.307Z" fill="#FD9F1E"/>
<path d="M639.464 826.803C639.543 827.828 639.603 828.86 639.646 829.901C640.29 843.832 638.786 858.996 635.401 874.423C510.868 895.097 425.544 867.589 380.352 845.171C380.262 844.063 380.191 842.949 380.144 841.846C379.403 825.797 381.613 810.292 386.295 795.863C398.681 803.18 419.065 813.394 447.191 821.58C487.924 833.419 552.835 843.008 639.464 826.803Z" fill="#FD9F1E"/>
<path d="M620.955 918.231C611.685 939.095 599.337 958.602 584.649 974.134C522.77 984.826 472.463 978.428 435.112 967.568C429.44 961.366 424.092 954.67 419.118 947.612C408.621 932.698 399.83 916.145 393.25 899.348C404.339 906.053 418.185 913.077 434.692 918.97C490.651 938.93 553.155 938.663 620.955 918.231Z" fill="#FD9F1E"/>
<g style="mix-blend-mode:overlay" opacity="0.4">
<path d="M502.856 771.851C503.975 760.922 496.366 750.243 486.273 745.894C476.18 741.544 464.299 742.809 454.27 747.303C444.24 751.797 435.819 759.234 428.26 767.211C421.386 774.466 414.878 782.673 412.808 792.449C408.669 811.989 425.071 831.748 445.088 830.627C466.216 829.442 470.485 812.304 483.554 799.629C491.599 791.827 501.63 783.819 502.856 771.851Z" fill="#F6F9F5"/>
</g>
<g style="mix-blend-mode:multiply" opacity="0.5">
<path d="M639.649 829.899C642.951 901.534 589.518 1005.5 517.865 1008.8C479.972 1010.55 444.569 983.793 419.128 947.615C470.57 939.087 518.934 912.948 554.179 874.528C585.224 840.682 602.884 800.214 612.293 755.988C628.314 776.479 638.36 801.949 639.649 829.899Z" fill="#BCD4D2"/>
</g>
<path d="M300.884 1403.95L302.881 1417.82L312.973 1487.99L420.298 1488.49L431.029 1418.42L433.149 1404.58L300.884 1403.95Z" fill="#00AAA3"/>
<path d="M401.441 1404.43L394.232 1488.37L420.297 1488.49L433.149 1404.58L401.441 1404.43Z" fill="#00A6A1"/>
<path d="M339.425 1404.14L344.08 1488.13L361.055 1488.21L363.383 1404.25L339.425 1404.14Z" fill="#F98178"/>
<g style="mix-blend-mode:multiply" opacity="0.5">
<path d="M300.884 1403.95L302.881 1417.82L431.029 1418.42L433.149 1404.58L300.884 1403.95Z" fill="#001628"/>
</g>
<path d="M325.151 1344.75C314.33 1342.34 295.53 1373.73 300.975 1378.93C306.419 1384.14 356.267 1387.53 356.267 1387.53C356.267 1387.53 335.971 1347.16 325.151 1344.75ZM317.751 1376.77C314.921 1374.06 324.694 1357.74 330.319 1359C335.944 1360.25 346.495 1381.23 346.495 1381.23C346.495 1381.23 320.582 1379.47 317.751 1376.77Z" fill="#F98178"/>
<path d="M357.474 1385.37C357.474 1385.37 406.996 1378.76 412.091 1373.21C417.187 1367.66 396.389 1337.56 385.748 1340.67C375.107 1343.78 357.474 1385.37 357.474 1385.37ZM366.817 1378.46C366.817 1378.46 375.983 1356.83 381.515 1355.22C387.046 1353.6 397.858 1369.25 395.209 1372.14C392.561 1375.02 366.817 1378.46 366.817 1378.46Z" fill="#F98178"/>
<path d="M351.183 1388.37C351.183 1388.37 347.87 1375.49 349.502 1375.03C351.134 1374.56 361.426 1372.34 362.725 1373.88C364.024 1375.41 362.658 1387.12 362.189 1387.34C361.719 1387.55 351.183 1388.37 351.183 1388.37Z" fill="#F98178"/>
<path d="M439.154 1378.04L437.322 1412.39L392.815 1411.84L391.99 1411.83L388.293 1411.78L296.677 1410.61L291.673 1387.07L392.926 1380.87L394.362 1380.79L397.683 1380.59L439.154 1378.04Z" fill="#00AAA3"/>
<path d="M439.163 1378.05L437.319 1412.39L392.812 1411.83L394.37 1380.79L439.163 1378.05Z" fill="#00A6A1"/>
<path d="M342.166 1383.98L346.022 1411.24L367.738 1411.51L369.662 1382.3L342.166 1383.98Z" fill="#F98178"/>
<path d="M752.957 1406.09L750.829 1419.93L740.073 1490L632.747 1489.49L622.681 1419.32L620.691 1405.46L752.957 1406.09Z" fill="#00AAA3"/>
<path d="M652.4 1405.61L658.814 1489.62L632.748 1489.49L620.691 1405.46L652.4 1405.61Z" fill="#00A6A1"/>
<path d="M714.415 1405.9L708.966 1489.85L691.99 1489.77L690.458 1405.79L714.415 1405.9Z" fill="#FCFDFB"/>
<g style="mix-blend-mode:multiply" opacity="0.5">
<path d="M752.957 1406.09L750.829 1419.93L622.681 1419.32L620.691 1405.46L752.957 1406.09Z" fill="#001628"/>
</g>
<path d="M697.731 1389.14C697.731 1389.14 747.609 1386.23 753.103 1381.07C758.597 1375.92 740.094 1344.35 729.251 1346.66C718.409 1348.97 697.731 1389.14 697.731 1389.14ZM707.563 1382.94C707.563 1382.94 718.312 1362.06 723.948 1360.86C729.585 1359.66 739.203 1376.06 736.347 1378.74C733.491 1381.43 707.563 1382.94 707.563 1382.94Z" fill="#FCFDFB"/>
<path d="M668.696 1342C658.084 1338.79 637.002 1368.7 642.045 1374.3C647.087 1379.89 696.545 1386.97 696.545 1386.97C696.545 1386.97 679.307 1345.21 668.696 1342ZM658.936 1373.38C656.315 1370.47 667.274 1354.92 672.79 1356.59C678.307 1358.26 687.268 1379.97 687.268 1379.97C687.268 1379.97 661.558 1376.29 658.936 1373.38Z" fill="#FCFDFB"/>
<path d="M702.807 1390.03C702.807 1390.03 706.242 1377.19 704.614 1376.7C702.986 1376.22 692.716 1373.91 691.403 1375.43C690.089 1376.95 691.344 1388.68 691.812 1388.89C692.279 1389.11 702.807 1390.03 702.807 1390.03Z" fill="#FCFDFB"/>
<path d="M614.938 1378.88L616.445 1413.24L660.955 1413.11L661.78 1413.11L665.477 1413.09L757.101 1412.79L762.327 1389.3L661.137 1382.14L659.702 1382.05L656.383 1381.82L614.938 1378.88Z" fill="#00AAA3"/>
<path d="M614.929 1378.88L616.448 1413.24L660.958 1413.1L659.694 1382.04L614.929 1378.88Z" fill="#00A6A1"/>
<path d="M711.865 1385.73L707.751 1412.95L686.034 1413.02L684.386 1383.79L711.865 1385.73Z" fill="#FCFDFB"/>
<path d="M405.536 1331.03L409.278 1357.01L428.194 1488.53L629.351 1489.48L649.462 1358.15L653.437 1332.2L405.536 1331.03Z" fill="#EE5533"/>
<path d="M594.007 1331.92L580.495 1489.25L629.349 1489.48L653.437 1332.2L594.007 1331.92Z" fill="#FD9F1E"/>
<path d="M477.772 1331.37L486.496 1488.8L518.313 1488.95L522.675 1331.58L477.772 1331.37Z" fill="#66AAA8"/>
<g style="mix-blend-mode:multiply" opacity="0.5">
<path d="M405.536 1331.03L409.278 1357.01L649.462 1358.15L653.437 1332.2L405.536 1331.03Z" fill="#001628"/>
</g>
<path d="M451.018 1220.07C430.737 1215.55 395.501 1274.38 405.706 1284.14C415.911 1293.9 509.339 1300.25 509.339 1300.25C509.339 1300.25 471.298 1224.59 451.018 1220.07ZM437.15 1280.08C431.845 1275 450.162 1244.42 460.705 1246.77C471.248 1249.12 491.023 1288.45 491.023 1288.45C491.023 1288.45 442.455 1285.15 437.15 1280.08Z" fill="#00AAA3"/>
<path d="M511.6 1296.21C511.6 1296.21 604.419 1283.81 613.969 1273.41C623.519 1263.01 584.538 1206.58 564.593 1212.41C544.649 1218.24 511.6 1296.21 511.6 1296.21ZM529.112 1283.25C529.112 1283.25 546.292 1242.72 556.66 1239.69C567.027 1236.66 587.292 1265.99 582.328 1271.39C577.363 1276.8 529.112 1283.25 529.112 1283.25Z" fill="#00AAA3"/>
<path d="M499.809 1301.82C499.809 1301.82 493.6 1277.69 496.659 1276.82C499.719 1275.94 519.009 1271.78 521.444 1274.66C523.878 1277.53 521.317 1299.49 520.438 1299.89C519.558 1300.28 499.809 1301.82 499.809 1301.82Z" fill="#00AAA3"/>
<path d="M664.691 1282.47L661.258 1346.85L577.84 1345.81L576.293 1345.81L569.364 1345.71L397.65 1343.51L388.272 1299.39L578.048 1287.78L580.739 1287.62L586.964 1287.25L664.691 1282.47Z" fill="#EE5533"/>
<path d="M664.708 1282.48L661.252 1346.86L577.835 1345.8L580.754 1287.61L664.708 1282.48Z" fill="#FD9F1E"/>
<path d="M482.91 1293.6L490.137 1344.69L530.839 1345.21L534.444 1290.45L482.91 1293.6Z" fill="#66AAA8"/>
<path d="M861.445 706.764C856.282 707.745 850.934 707.775 845.708 706.744C841.063 705.829 837.388 704.243 834.478 701.902C828.331 696.952 825.4 688.515 825.766 676.823C826.027 668.579 829.764 663.07 835.543 662.495C837.921 662.252 840.047 663.979 840.293 666.356C840.535 668.731 838.792 670.853 836.43 671.104C835.55 671.134 834.53 673.555 834.418 677.096C834.141 685.928 835.989 692.008 839.908 695.164C841.699 696.606 844.144 697.617 847.384 698.255C858.938 700.531 871.755 696.005 879.303 686.986C880.794 685.207 882.075 683.256 883.14 681.186C875.509 679.293 869.189 675.41 865.221 670.141C859.851 663.009 859.156 653.261 863.53 646.432C866.07 642.468 870.544 639.647 875.416 638.943C879.866 638.283 884.223 639.443 887.367 642.122C890.351 644.667 891.918 648.093 892.84 650.449C895.741 657.884 896.346 666.019 894.832 673.742C903.462 673.338 911.449 669.623 916.127 663.439C919.381 659.136 920.826 653.165 919.988 647.467C919.264 642.55 916.942 638.435 913.446 635.88C911.518 634.47 911.098 631.763 912.51 629.832C913.922 627.913 916.629 627.483 918.56 628.897C923.939 632.831 927.489 638.98 928.551 646.209C929.719 654.151 927.657 662.542 923.034 668.655C916.256 677.621 904.442 682.724 892.158 682.403C890.593 686.042 888.515 689.466 885.943 692.537C879.695 700.002 870.884 704.972 861.445 706.764ZM876.336 647.561C874.043 647.996 871.952 649.33 870.819 651.098C868.396 654.883 868.949 660.704 872.135 664.938C875.049 668.804 879.992 671.654 886.093 672.991C887.53 666.552 887.156 659.693 884.777 653.595C883.853 651.233 882.893 649.681 881.748 648.707C880.049 647.258 877.849 647.329 876.688 647.5C876.571 647.518 876.452 647.539 876.336 647.561Z" fill="#FDFFFC"/>
<path d="M125.323 731.56C124.773 725.26 125.382 718.854 127.25 712.724C128.909 707.274 131.253 703.067 134.411 699.867C141.085 693.108 151.548 690.62 165.511 692.473C175.357 693.783 181.505 698.922 181.494 705.909C181.498 708.785 179.171 711.122 176.294 711.128C173.42 711.131 171.088 708.787 171.073 705.93C171.144 704.872 168.367 703.358 164.138 702.796C153.59 701.396 146.081 702.873 141.826 707.182C139.881 709.151 138.375 711.955 137.218 715.757C133.093 729.312 136.965 745.202 146.857 755.328C148.81 757.328 150.991 759.097 153.343 760.623C156.533 751.718 161.95 744.622 168.744 740.509C177.937 734.945 189.701 735.292 197.354 741.354C201.795 744.875 204.634 750.571 204.887 756.488C205.14 761.895 203.224 766.97 199.633 770.41C196.223 773.673 191.928 775.135 188.994 775.952C179.736 778.526 169.916 778.265 160.847 775.519C160.287 785.899 163.771 795.909 170.614 802.257C175.376 806.673 182.354 809.124 189.282 808.81C195.262 808.539 200.473 806.257 203.957 802.382C205.88 800.244 209.173 800.069 211.315 801.994C213.444 803.916 213.632 807.207 211.704 809.348C206.34 815.311 198.544 818.816 189.754 819.213C180.097 819.65 170.294 816.167 163.529 809.894C153.607 800.695 148.923 785.937 150.793 771.272C146.623 768.958 142.772 766.055 139.404 762.604C131.216 754.223 126.328 743.074 125.323 731.56ZM194.452 756.546C194.208 753.75 192.861 751.085 190.881 749.515C186.64 746.156 179.599 746.114 174.14 749.416C169.157 752.436 165.144 758.008 162.803 765.149C170.345 767.648 178.608 768.03 186.201 765.921C189.142 765.1 191.119 764.139 192.424 762.887C194.366 761.028 194.546 758.386 194.482 756.975C194.475 756.832 194.464 756.688 194.452 756.546Z" fill="#FDFFFC"/>
<path d="M595.403 420.401C579.533 429.842 573.488 436.945 566.709 454.117C557.263 438.254 550.157 432.211 532.978 425.435C548.848 415.994 554.894 408.89 561.673 391.719C571.118 407.582 578.225 413.625 595.403 420.401Z" fill="#EDF2F4"/>
<path d="M549.15 393.513C540.927 398.404 537.795 402.085 534.283 410.981C529.389 402.763 525.707 399.632 516.806 396.121C525.029 391.229 528.161 387.549 531.673 378.652C536.567 386.871 540.249 390.002 549.15 393.513Z" fill="#EDF2F4"/>
<path d="M419.116 1217.92C407.17 1225.03 402.619 1230.38 397.516 1243.3C390.406 1231.36 385.056 1226.81 372.124 1221.71C384.071 1214.61 388.622 1209.26 393.725 1196.33C400.835 1208.27 406.185 1212.82 419.116 1217.92Z" fill="#EDF2F4"/>
<path d="M422.316 178.643V205.214C421.587 209.401 419.813 212.701 416.33 212.701C412.716 212.701 411.788 209.605 411.788 192.576C411.788 180.191 406.108 175.546 398.158 175.546C390.724 175.546 386.078 180.397 383.083 186.899V178.643C383.083 176.269 367.286 176.579 367.286 178.643V201.563C366.207 211.67 355.43 220.029 342.406 220.029C320.413 220.029 320.103 198.562 339.205 198.562C343.232 198.562 343.748 191.544 339.411 191.544C315.044 191.544 319.897 157.279 341.58 157.279C353.97 157.279 355.726 176.475 343.335 176.475C336.933 176.475 338.998 169.251 342.406 169.251C343.748 169.251 344.781 163.988 338.998 163.988C325.575 163.988 325.059 187.724 342.819 187.724C368.529 187.724 369.767 148.609 341.063 148.609C304.512 148.609 303.996 195.568 320.723 195.568C302.964 197.53 299.452 235.303 334.868 235.303C347.927 235.303 360.021 229.173 367.286 219.81V224.983C367.286 227.253 383.083 226.943 383.083 224.983C383.083 224.983 385.871 184.732 393.408 184.732C396.609 184.732 395.989 190.099 395.989 201.038C395.989 221.473 401.565 228.078 410.238 228.078C414.994 228.078 419.105 226.099 422.316 222.65V226.84C422.316 236.851 422.109 246.862 414.365 246.862C407.963 246.862 406.621 238.915 408.996 233.548C410.029 231.485 397.019 231.278 395.78 233.651C392.682 239.844 394.541 257.183 415.294 257.183C429.44 257.183 438.01 247.584 438.01 231.485C438.01 216.829 438.114 178.643 438.114 178.643C438.114 176.269 422.316 176.579 422.316 178.643Z" fill="#FDFFFC"/>
<path d="M429.853 172.966C434.086 172.966 437.494 169.56 437.494 165.329C437.494 161.096 434.086 157.691 429.853 157.691C425.723 157.691 422.316 161.096 422.316 165.329C422.316 169.56 425.723 172.966 429.853 172.966Z" fill="#FDFFFC"/>
<path d="M462.066 175.547C436.872 175.547 437.698 228.079 461.137 228.079C482.406 228.079 487.363 175.547 462.066 175.547ZM464.853 212.288C456.387 212.288 458.038 184.733 465.369 184.733C472.184 184.733 471.978 212.288 464.853 212.288Z" fill="#FDFFFC"/>
<path d="M514.826 178.643C514.826 178.643 513.174 212.288 503.571 212.288C500.99 212.288 500.163 209.811 500.163 200.522V178.643C500.163 176.269 484.366 176.579 484.366 178.643V201.761C484.366 217.449 488.702 228.078 500.473 228.078C507.391 228.078 511.935 224.363 514.826 218.996V226.84C514.826 236.851 514.722 246.862 506.875 246.862C500.473 246.862 499.131 238.915 501.609 233.548C502.538 231.485 489.528 231.278 488.393 233.651C485.192 239.844 485.709 257.183 506.462 257.183C520.711 257.183 530.623 247.584 530.623 231.485V178.643C530.623 176.269 514.826 176.579 514.826 178.643Z" fill="#FDFFFC"/>
<path d="M592.054 178.643C592.054 178.643 590.401 212.288 580.798 212.288C578.218 212.288 577.392 209.811 577.392 200.522V178.643C577.392 176.269 561.594 176.579 561.594 178.643V201.761C561.594 217.449 565.93 228.078 577.701 228.078C584.619 228.078 589.162 224.363 592.054 218.996V226.84C592.054 236.851 591.95 246.862 584.103 246.862C577.701 246.862 576.359 238.915 578.837 233.548C579.766 231.485 566.757 231.278 565.621 233.651C562.42 239.844 562.936 257.183 583.69 257.183C597.939 257.183 607.85 247.584 607.85 231.485V178.643C607.85 176.269 592.054 176.579 592.054 178.643Z" fill="#FDFFFC"/>
<path d="M631.802 175.547C606.608 175.547 607.434 228.079 630.872 228.079C652.142 228.079 657.098 175.547 631.802 175.547ZM634.59 212.288C626.123 212.288 627.775 184.733 635.106 184.733C641.921 184.733 641.714 212.288 634.59 212.288Z" fill="#FDFFFC"/>
<path d="M733.292 175.547C730.092 175.547 727.51 176.269 725.548 177.508C721.522 176.476 711.3 176.992 711.3 178.644V202.659C710.875 207.979 709.085 212.701 705.005 212.701C701.288 212.701 700.463 208.676 700.463 204.342V178.644C700.463 176.269 684.665 176.579 684.665 178.644C684.665 178.644 682.91 212.288 673.307 212.288C670.829 212.288 669.899 209.812 669.899 200.522V178.644C669.899 176.269 654.206 176.579 654.206 178.644V201.761C654.206 217.449 658.542 228.079 670.312 228.079C678.263 228.079 683.013 223.125 685.904 216.417C688.072 223.435 692.615 228.079 698.81 228.079C703.79 228.079 708.047 225.959 711.3 222.261V224.983C711.3 226.325 716.566 226.738 721.005 226.531C723.69 226.738 727.097 226.221 727.097 224.983V203.619C727.097 193.608 729.369 184.733 734.428 184.733C737.836 184.733 738.868 191.441 737.216 196.498C736.494 198.666 743.927 199.181 745.063 196.808C748.264 190.615 745.889 175.547 733.292 175.547Z" fill="#FDFFFC"/>
<path d="M363.484 313.539C388.554 301.919 382.256 267.176 346.287 267.176C294.817 267.176 293.122 322.497 314.315 322.497C323.398 322.497 325.457 314.75 322.429 314.75C310.682 314.75 313.71 276.255 343.259 276.255C371.599 276.255 365.544 307.124 347.498 310.151V290.539C347.498 287.877 328.969 288.24 328.969 290.539V357.603C328.969 357.846 329.09 358.087 329.333 358.208C330.906 360.629 337.93 369.829 351.979 369.829C391.581 369.829 397.515 325.645 363.484 313.539ZM353.553 353.729C349.921 353.729 348.225 352.035 347.498 350.461V317.293C377.532 319.23 370.508 353.729 353.553 353.729Z" fill="#FDFFFC"/>
<path d="M400.902 296.712C405.868 296.712 409.865 292.718 409.865 287.755C409.865 282.791 405.868 278.797 400.902 278.797C396.059 278.797 392.062 282.791 392.062 287.755C392.062 292.718 396.059 296.712 400.902 296.712Z" fill="#FDFFFC"/>
<path d="M448.374 299.738C444.619 299.738 441.591 300.586 439.29 302.039C434.567 300.828 422.578 301.433 422.578 303.371V328.626C422.545 335.946 420.714 343.318 415.072 343.318C410.834 343.318 409.743 338.596 409.743 333.513V303.371C409.743 300.586 391.214 300.949 391.214 303.371V336.78C391.214 350.944 397.755 361.354 407.926 361.354C413.742 361.354 418.747 358.848 422.578 354.474V357.723C422.578 359.297 428.754 359.781 433.962 359.539C437.111 359.781 441.107 359.176 441.107 357.723V332.665C441.107 320.923 443.771 310.513 449.706 310.513C453.702 310.513 454.913 318.381 452.975 324.312C452.128 326.855 460.847 327.46 462.18 324.676C465.934 317.412 463.148 299.738 448.374 299.738Z" fill="#FDFFFC"/>
<path d="M733.926 303.372C733.926 303.372 731.988 342.834 720.725 342.834C717.698 342.834 716.728 339.929 716.728 329.034V303.372C716.728 300.587 698.199 300.95 698.199 303.372V330.487C698.199 330.802 698.213 331.1 698.216 331.411C697.759 337.705 695.738 343.319 690.816 343.319C686.577 343.319 685.487 338.597 685.487 333.514V303.372C685.487 300.587 667.079 300.95 667.079 303.372V304.582C664.415 301.798 660.66 299.739 655.452 299.739C640.471 299.739 632.469 317.716 632.614 334.251C631.792 339.298 629.707 343.319 625.544 343.319C621.305 343.319 620.215 338.597 620.215 333.514V280.251C620.215 277.587 601.686 277.95 601.686 280.251V304.582C599.022 301.798 595.389 299.739 590.181 299.739C577.285 299.739 569.557 313.063 567.757 327.317C567.541 327.641 567.416 328.012 567.416 328.429C567.416 335.814 565.599 343.319 559.907 343.319C555.668 343.319 554.578 339.687 554.578 319.713C554.578 305.187 547.917 299.739 538.592 299.739C529.873 299.739 524.423 305.429 520.911 313.056V280.251C520.911 277.587 502.382 277.95 502.382 280.251V331.584C501.9 337.806 499.873 343.319 494.996 343.319C490.757 343.319 489.667 338.597 489.667 333.514V310.514H494.633C496.086 310.514 495.722 301.435 494.633 301.435H489.667V280.251C489.667 277.587 471.259 277.95 471.259 280.251V301.435H466.657C465.204 301.435 465.325 310.514 466.657 310.514H471.259V336.781C471.259 350.945 477.678 361.355 487.85 361.355C493.607 361.355 498.566 358.894 502.382 354.601V357.725C502.382 360.387 520.911 360.023 520.911 357.725C520.911 357.725 524.181 310.514 533.021 310.514C536.776 310.514 536.049 316.808 536.049 329.639C536.049 353.608 542.589 361.355 552.762 361.355C560.314 361.355 566.507 357.144 570.521 350.075C573.538 356.75 578.736 361.355 586.305 361.355C593.693 361.355 598.901 354.092 602.534 344.771C604.471 354.698 610.285 361.355 618.399 361.355C625.835 361.355 631.91 357.262 635.895 350.388C638.915 356.89 644.04 361.355 651.456 361.355C658.964 361.355 664.172 353.971 667.805 344.65C669.743 354.577 675.556 361.355 683.67 361.355C691.135 361.355 697.267 357.232 701.283 350.31C704.153 357.256 709.189 361.355 717.092 361.355C725.206 361.355 730.535 356.998 733.926 350.703V359.903C733.926 371.645 733.805 383.387 724.6 383.387C717.092 383.387 715.518 374.066 718.424 367.771C719.514 365.351 704.255 365.109 702.923 367.892C699.169 375.156 699.774 395.493 724.116 395.493C740.829 395.493 752.455 384.234 752.455 365.351V303.372C752.455 300.587 733.926 300.95 733.926 303.372ZM601.686 318.503C599.385 329.639 595.63 342.834 590.786 342.834C582.309 342.834 585.458 310.514 594.056 310.514C597.326 310.514 599.869 314.387 601.686 318.261V318.503ZM655.937 342.834C647.58 342.834 650.608 310.514 659.328 310.514C662.598 310.514 665.141 314.387 666.957 318.382C664.657 329.518 660.903 342.834 655.937 342.834Z" fill="#FDFFFC"/>
<path d="M345.774 407.844H283.696V348.418H289.008V404.203H345.774V407.844Z" fill="white"/>
<path d="M721.416 135.617H783.494V195.043H778.182V139.258H721.416V135.617Z" fill="white"/>
</g>
<defs>
<clipPath id="clip0_3562_7430">
<rect width="1054" height="1490" fill="white"/>
</clipPath>
</defs>
</svg>
