<svg
width="25"
height="26"
viewBox="0 0 25 26"
fill="none"
xmlns="http://www.w3.org/2000/svg"
>
<path
  d="M3.50234 25.2861C2.24336 23.214 1.39093 21.0502 0.945038 18.7945C0.49915 16.5388 0.459807 14.3225 0.827009 12.1455C1.19421 9.96854 1.95484 7.88335 3.10891 5.88997C4.2892 3.87036 5.86292 2.06058 7.83008 0.460628L10.8595 2.30975C11.3841 2.65072 11.6201 3.07038 11.5677 3.56873C11.5152 4.06708 11.3447 4.46051 11.0562 4.74902C10.5054 5.40474 9.98083 6.27029 9.48248 7.34566C8.98414 8.42104 8.63005 9.62756 8.42022 10.9652C8.23662 12.3029 8.26285 13.7324 8.49891 15.2536C8.73497 16.7749 9.32511 18.2962 10.2693 19.8174C10.7415 20.5781 10.8726 21.2469 10.6628 21.8239C10.4529 22.3747 10.0202 22.7681 9.36445 23.0042L3.50234 25.2861ZM16.5642 25.2861C15.3053 23.214 14.4528 21.0502 14.0069 18.7945C13.561 16.5388 13.5217 14.3225 13.8889 12.1455C14.2561 9.96854 15.0167 7.88335 16.1708 5.88997C17.3511 3.87036 18.9248 2.06058 20.892 0.460628L23.9214 2.30975C24.446 2.65072 24.682 3.07038 24.6296 3.56873C24.5771 4.06708 24.4066 4.46051 24.1181 4.74902C23.5673 5.40474 23.0427 6.27029 22.5444 7.34566C22.046 8.42104 21.6919 9.62756 21.4821 10.9652C21.2985 12.3029 21.3247 13.7324 21.5608 15.2536C21.7969 16.7749 22.387 18.2962 23.3312 19.8174C23.8034 20.5781 23.9345 21.2469 23.7247 21.8239C23.5148 22.3747 23.0821 22.7681 22.4264 23.0042L16.5642 25.2861Z"
  fill="#ACDCFF"
/>
</svg>