<?xml version="1.0" encoding="utf-8"?>
<!-- Generator: Adobe Illustrator 26.5.0, SVG Export Plug-In . SVG Version: 6.00 Build 0)  -->
<svg version="1.1" id="Layer_1" xmlns="http://www.w3.org/2000/svg" xmlns:xlink="http://www.w3.org/1999/xlink" x="0px" y="0px"
	 viewBox="0 0 595.3 841.9" style="enable-background:new 0 0 595.3 841.9;" xml:space="preserve">
<style type="text/css">
	.st0{fill:#007200;}
	.st1{fill:#CCFF33;}
	.st2{fill:#9EF01A;}
	.st3{fill:#71D510;}
	.st4{opacity:0.31;fill:#CCFF33;}
	.st5{fill:#004B24;}
	.st6{fill:#72D714;}
	.st7{opacity:0.3;}
	.st8{fill:#F7FEFA;}
	.st9{fill:#CAFE35;}
	.st10{fill:#006315;}
	.st11{fill:#007202;}
	.st12{fill:#71D410;}
	.st13{fill:#F1FFFF;}
	.st14{fill:#FDFEFF;}
	.st15{fill:#D9F2A0;}
	.st16{fill:#6DD40E;}
	.st17{fill:#026912;}
</style>
<rect x="-12.5" y="-14.8" class="st0" width="620.2" height="871.5"/>
<g>
	<path class="st1" d="M162.2,224.1l1.1-80.6h8.2l10.6,65.4l10.7-65.4h8.2l1.1,80.6h-6.8l-0.7-58.5l-10.2,58.5h-4.7l-10.1-58.5
		l-0.7,58.5H162.2z"/>
	<path class="st1" d="M222.4,224.9c-3.2,0-5.7-0.9-7.5-2.6c-1.8-1.7-3.1-4.2-3.9-7.4c-0.8-3.2-1.1-6.9-1.1-11.2V187
		c0-4.3,0.4-8.1,1.1-11.2c0.8-3.2,2.1-5.6,3.9-7.4c1.8-1.7,4.3-2.6,7.5-2.6c3.2,0,5.6,0.9,7.5,2.6c1.8,1.7,3.1,4.2,3.9,7.4
		c0.8,3.2,1.1,6.9,1.1,11.2v16.7c0,4.3-0.4,8.1-1.1,11.2c-0.8,3.2-2.1,5.6-3.9,7.4C228,224.1,225.6,224.9,222.4,224.9z M222.4,217.1
		c1.5,0,2.6-0.6,3.2-1.8c0.6-1.2,1-2.8,1.1-4.7c0.1-2,0.2-4,0.2-6.1v-18c0-2.2-0.1-4.2-0.2-6.2c-0.1-1.9-0.5-3.5-1.1-4.7
		c-0.6-1.2-1.7-1.8-3.2-1.8c-1.5,0-2.6,0.6-3.3,1.8c-0.6,1.2-1,2.8-1.1,4.7c-0.1,1.9-0.2,4-0.2,6.2v18c0,2.1,0.1,4.2,0.2,6.1
		c0.1,2,0.5,3.5,1.1,4.7C219.8,216.5,220.9,217.1,222.4,217.1z"/>
	<path class="st1" d="M247.7,224.1l-8.5-57.5h8l5.3,46.3l5.3-46.3h7.7l-8.2,57.5H247.7z"/>
	<path class="st1" d="M282.6,224.9c-3.4,0-6-0.9-7.8-2.6c-1.8-1.8-3.1-4.3-3.8-7.8c-0.7-3.4-1.1-7.6-1.1-12.6v-13.1
		c0-5.1,0.4-9.4,1.1-12.7c0.7-3.4,2-5.9,3.9-7.7c1.9-1.7,4.4-2.6,7.7-2.6c3.6,0,6.3,1,8,3s2.8,4.9,3.4,8.6c0.5,3.7,0.8,8.2,0.8,13.5
		v4.7h-16.9v11.5c0,2.3,0.2,4.2,0.5,5.7c0.3,1.5,0.8,2.5,1.6,3.2c0.7,0.7,1.6,1,2.8,1c1.2,0,2.1-0.4,2.7-1.1c0.6-0.8,1-1.9,1.3-3.3
		c0.2-1.4,0.3-3.1,0.3-5v-3.5h7.7v2.2c0,5.8-0.9,10.3-2.7,13.6C290.1,223.3,287,224.9,282.6,224.9z M277.8,189.8h9.1v-5.2
		c0-2.4-0.1-4.4-0.3-6c-0.2-1.6-0.6-2.9-1.2-3.7c-0.6-0.8-1.6-1.2-2.9-1.2c-1.3,0-2.3,0.4-2.9,1.2c-0.7,0.8-1.1,2.1-1.4,4
		c-0.2,1.9-0.4,4.5-0.4,7.8V189.8z"/>
	<path class="st1" d="M301.9,224.1v-57.5h7.3v5.5c1.4-2.2,3-3.8,4.7-4.9c1.7-1.1,3.5-1.6,5.3-1.6c1.6,0,3,0.5,4.3,1.6
		c1.3,1.1,2.2,3,2.7,5.7c1.5-2.5,3.2-4.4,5-5.5c1.8-1.2,3.7-1.7,5.7-1.7c1.4,0,2.6,0.4,3.8,1.3c1.1,0.9,2.1,2.3,2.7,4.3
		c0.7,2,1,4.5,1,7.7v45.2h-7.3v-44.5c0-2.8-0.3-4.7-1-5.6c-0.7-1-1.6-1.4-2.7-1.4c-1.1,0-2.2,0.4-3.4,1.2c-1.2,0.8-2.3,2-3.3,3.4
		c0,0.3,0,0.5,0,0.8c0,0.3,0,0.6,0,0.9v45.2h-7.3v-44.5c0-2.8-0.3-4.7-1-5.6c-0.7-1-1.6-1.4-2.7-1.4c-1.1,0-2.2,0.4-3.4,1.2
		c-1.2,0.8-2.3,2-3.3,3.4v46.9H301.9z"/>
	<path class="st1" d="M364.2,224.9c-3.4,0-6-0.9-7.8-2.6c-1.8-1.8-3.1-4.3-3.8-7.8c-0.7-3.4-1.1-7.6-1.1-12.6v-13.1
		c0-5.1,0.4-9.4,1.1-12.7c0.7-3.4,2-5.9,3.9-7.7c1.9-1.7,4.4-2.6,7.7-2.6c3.6,0,6.3,1,8,3s2.8,4.9,3.4,8.6c0.5,3.7,0.8,8.2,0.8,13.5
		v4.7h-16.9v11.5c0,2.3,0.2,4.2,0.5,5.7c0.3,1.5,0.8,2.5,1.6,3.2c0.7,0.7,1.6,1,2.8,1c1.2,0,2.1-0.4,2.7-1.1c0.6-0.8,1-1.9,1.3-3.3
		c0.2-1.4,0.3-3.1,0.3-5v-3.5h7.7v2.2c0,5.8-0.9,10.3-2.7,13.6C371.7,223.3,368.6,224.9,364.2,224.9z M359.5,189.8h9.1v-5.2
		c0-2.4-0.1-4.4-0.3-6c-0.2-1.6-0.6-2.9-1.2-3.7c-0.6-0.8-1.6-1.2-2.9-1.2c-1.3,0-2.3,0.4-2.9,1.2c-0.7,0.8-1.1,2.1-1.4,4
		c-0.2,1.9-0.4,4.5-0.4,7.8V189.8z"/>
	<path class="st1" d="M383.6,224.1v-57.5h7.9v5.7c1.4-1.8,3-3.3,4.7-4.6c1.7-1.3,3.6-1.9,5.7-1.9c1.7,0,3.1,0.6,4,1.8
		c0.9,1.2,1.6,2.7,1.9,4.5c0.4,1.8,0.6,3.6,0.6,5.5v46.6h-7.9v-43.5c0-2.1-0.2-3.6-0.7-4.8c-0.4-1.1-1.4-1.7-2.7-1.7
		c-0.9,0-1.8,0.3-2.8,1c-1,0.7-1.9,1.5-2.8,2.5v46.4H383.6z"/>
	<path class="st1" d="M427.6,224.9c-2.2,0-4-0.6-5.4-1.7c-1.4-1.1-2.3-2.7-3-4.8c-0.6-2.1-0.9-4.5-0.9-7.3v-37.5h-4.5v-7.1h4.5
		v-16.8h7.9v16.8h6.9v7.1h-6.9v36.8c0,2.3,0.3,3.9,0.8,4.8c0.5,1,1.6,1.4,3.1,1.4c0.4,0,0.9,0,1.4-0.1c0.5-0.1,1-0.1,1.5-0.2v7.9
		c-1,0.2-1.9,0.3-2.7,0.4C429.5,224.9,428.6,224.9,427.6,224.9z"/>
</g>
<path class="st2" d="M245.8,150v-8l14.4-34c1.1-2.5,2.1-4.9,3-7.1c0.9-2.2,1.7-4.5,2.2-6.9c0.6-2.4,0.9-5.2,0.9-8.4
	c0-4-0.4-7.1-1.3-9.3c-0.8-2.3-2.3-3.4-4.4-3.4c-1.8,0-3.2,0.7-4.1,2.2c-1,1.5-1.7,3.4-2,5.8c-0.4,2.4-0.6,5-0.6,7.7v2.9h-7.5v-3
	c0-5.1,0.5-9.6,1.4-13.3s2.4-6.6,4.4-8.6c2-2,4.7-3.1,8.1-3.1c4.6,0,8,2,10.2,5.9c2.2,3.9,3.4,9.3,3.4,16.2c0,3.7-0.3,6.9-0.9,9.6
	c-0.6,2.8-1.3,5.3-2.3,7.7c-0.9,2.4-2,4.9-3.1,7.4l-13,30.1h17.9v9.5H245.8z"/>
<path class="st1" d="M249.5,150v-8l14.4-34c1.1-2.5,2.1-4.9,3-7.1c0.9-2.2,1.7-4.5,2.2-6.9c0.6-2.4,0.9-5.2,0.9-8.4
	c0-4-0.4-7.1-1.3-9.3c-0.8-2.3-2.3-3.4-4.4-3.4c-1.8,0-3.2,0.7-4.1,2.2c-1,1.5-1.7,3.4-2,5.8c-0.4,2.4-0.6,5-0.6,7.7v2.9h-7.5v-3
	c0-5.1,0.5-9.6,1.4-13.3s2.4-6.6,4.4-8.6c2-2,4.7-3.1,8.1-3.1c4.6,0,8,2,10.2,5.9c2.2,3.9,3.4,9.3,3.4,16.2c0,3.7-0.3,6.9-0.9,9.6
	c-0.6,2.8-1.3,5.3-2.3,7.7c-0.9,2.4-2,4.9-3.1,7.4l-13,30.1h17.9v9.5H249.5z"/>
<g>
	<path class="st3" d="M163.6,135.4V82.9h3.3l9.9,34.8V82.9h4v52.4h-3.1l-10-35.8v35.8H163.6z"/>
	<path class="st3" d="M189.6,135.9c-1,0-1.8-0.4-2.6-1.3c-0.7-0.8-1.3-1.9-1.8-3.2c-0.4-1.3-0.6-2.7-0.6-4.2c0-2.3,0.3-4.3,0.8-5.9
		c0.5-1.6,1.2-2.9,2.1-4c0.9-1.1,1.9-2.1,3.1-2.9c1.2-0.8,2.4-1.6,3.8-2.4v-2.7c0-1.5-0.1-2.8-0.2-3.8c-0.1-1-0.4-1.7-0.7-2.2
		c-0.4-0.5-0.9-0.7-1.6-0.7c-0.6,0-1.1,0.2-1.5,0.6c-0.4,0.4-0.7,1-0.8,1.8c-0.2,0.8-0.3,1.7-0.3,2.8v1.9l-4.5-0.3
		c0.1-4.1,0.7-7.2,1.9-9.2c1.2-2,3.1-2.9,5.6-2.9c2.5,0,4.2,1,5.2,3c1,2,1.5,5,1.5,8.8v17.1c0,1.2,0,2.3,0.1,3.4
		c0,1.1,0.1,2.1,0.2,3c0.1,0.9,0.1,1.8,0.2,2.6h-4.2c-0.1-0.7-0.2-1.6-0.3-2.6c-0.1-1.1-0.2-2-0.3-2.9c-0.3,1.5-0.8,2.8-1.7,4.1
		C192.2,135.3,191.1,135.9,189.6,135.9z M191.4,129.9c0.5,0,0.9-0.2,1.3-0.6c0.4-0.4,0.8-0.8,1.1-1.3c0.3-0.5,0.5-0.9,0.6-1.2v-10.6
		c-0.7,0.6-1.4,1.2-2,1.8c-0.6,0.6-1.2,1.2-1.7,1.9c-0.5,0.7-0.8,1.4-1.1,2.3c-0.3,0.8-0.4,1.8-0.4,2.9c0,1.5,0.2,2.7,0.6,3.6
		C190.2,129.5,190.7,129.9,191.4,129.9z"/>
	<path class="st3" d="M203.7,92.4v-7.3h4.6v7.3H203.7z M203.7,135.4V98h4.6v37.4H203.7z"/>
	<path class="st3" d="M212.5,144.8c-0.4,0-0.8,0-1.2-0.1s-0.8-0.2-1.1-0.4v-5c0.1,0,0.3,0.1,0.6,0.1c0.3,0,0.5,0.1,0.6,0.1
		c0.7,0,1.2-0.2,1.5-0.6s0.6-0.9,0.8-1.6c0.2-0.7,0.2-1.5,0.2-2.3V98h4.6v37.8c0,2.9-0.5,5.2-1.6,6.7
		C215.8,144.1,214.3,144.8,212.5,144.8z M213.9,92.4v-7.3h4.6v7.3H213.9z"/>
	<path class="st3" d="M226.8,135.9c-1,0-1.8-0.4-2.6-1.3c-0.7-0.8-1.3-1.9-1.8-3.2c-0.4-1.3-0.6-2.7-0.6-4.2c0-2.3,0.3-4.3,0.8-5.9
		c0.5-1.6,1.2-2.9,2.1-4c0.9-1.1,1.9-2.1,3.1-2.9c1.2-0.8,2.4-1.6,3.8-2.4v-2.7c0-1.5-0.1-2.8-0.2-3.8c-0.1-1-0.4-1.7-0.7-2.2
		c-0.4-0.5-0.9-0.7-1.6-0.7c-0.6,0-1.1,0.2-1.5,0.6c-0.4,0.4-0.7,1-0.8,1.8c-0.2,0.8-0.3,1.7-0.3,2.8v1.9l-4.5-0.3
		c0.1-4.1,0.7-7.2,1.9-9.2c1.2-2,3.1-2.9,5.6-2.9c2.5,0,4.2,1,5.2,3c1,2,1.5,5,1.5,8.8v17.1c0,1.2,0,2.3,0.1,3.4
		c0,1.1,0.1,2.1,0.2,3c0.1,0.9,0.1,1.8,0.2,2.6h-4.2c-0.1-0.7-0.2-1.6-0.3-2.6c-0.1-1.1-0.2-2-0.3-2.9c-0.3,1.5-0.8,2.8-1.7,4.1
		C229.4,135.3,228.3,135.9,226.8,135.9z M228.6,129.9c0.5,0,0.9-0.2,1.3-0.6c0.4-0.4,0.8-0.8,1.1-1.3c0.3-0.5,0.5-0.9,0.6-1.2v-10.6
		c-0.7,0.6-1.4,1.2-2,1.8c-0.6,0.6-1.2,1.2-1.7,1.9c-0.5,0.7-0.8,1.4-1.1,2.3c-0.3,0.8-0.4,1.8-0.4,2.9c0,1.5,0.2,2.7,0.6,3.6
		C227.4,129.5,227.9,129.9,228.6,129.9z"/>
	<path class="st3" d="M285,135.4v-47h-5.9v-5.4h16.4v5.4h-5.7v47H285z"/>
	<path class="st3" d="M298.6,135.4V82.9h4.6v18.9c0.8-1.2,1.8-2.2,2.8-3.1c1-0.9,2.2-1.3,3.4-1.3c1,0,1.7,0.4,2.2,1.2
		c0.5,0.8,0.9,1.7,1.1,2.9c0.2,1.2,0.3,2.4,0.3,3.6v30.3h-4.6v-28.3c0-1.3-0.1-2.4-0.4-3.1c-0.3-0.7-0.8-1.1-1.6-1.1
		c-0.5,0-1.1,0.2-1.7,0.7c-0.6,0.5-1.1,1.1-1.7,1.7v30H298.6z"/>
	<path class="st3" d="M324.5,135.9c-1.9,0-3.4-0.6-4.5-1.7c-1.1-1.1-1.8-2.8-2.2-5c-0.4-2.2-0.6-5-0.6-8.2v-8.5
		c0-3.3,0.2-6.1,0.6-8.3s1.2-3.9,2.3-5c1.1-1.1,2.6-1.7,4.4-1.7c2.1,0,3.6,0.6,4.6,1.9c1,1.3,1.6,3.2,2,5.6c0.3,2.4,0.5,5.4,0.5,8.8
		v3h-9.8v7.5c0,1.5,0.1,2.7,0.3,3.7c0.2,0.9,0.5,1.7,0.9,2.1c0.4,0.5,1,0.7,1.6,0.7c0.7,0,1.2-0.2,1.6-0.7c0.4-0.5,0.6-1.2,0.7-2.1
		c0.1-0.9,0.2-2,0.2-3.3v-2.3h4.5v1.4c0,3.8-0.5,6.7-1.6,8.9C328.8,134.8,327,135.9,324.5,135.9z M321.7,113h5.3v-3.4
		c0-1.6-0.1-2.9-0.2-3.9c-0.1-1.1-0.4-1.9-0.7-2.4c-0.4-0.5-0.9-0.8-1.7-0.8c-0.7,0-1.3,0.3-1.7,0.8c-0.4,0.5-0.7,1.4-0.8,2.6
		c-0.1,1.2-0.2,2.9-0.2,5.1V113z"/>
	<path class="st3" d="M350.4,135.4l-5.7-52.4h4l3.7,37.7l4.7-37.5h3.4l4.7,37.7l3.6-37.9h3.9l-5.6,52.4h-3.5l-4.8-38.8l-4.9,38.8
		H350.4z"/>
	<path class="st3" d="M382.3,135.9c-1.8,0-3.3-0.6-4.3-1.7c-1.1-1.1-1.8-2.7-2.3-4.8s-0.7-4.5-0.7-7.3v-10.9c0-2.8,0.2-5.2,0.7-7.3
		s1.2-3.7,2.3-4.8c1.1-1.1,2.5-1.7,4.3-1.7c1.8,0,3.3,0.6,4.3,1.7c1,1.1,1.8,2.7,2.2,4.8s0.7,4.5,0.7,7.3v10.9
		c0,2.8-0.2,5.2-0.7,7.3s-1.2,3.7-2.2,4.8C385.6,135.3,384.2,135.9,382.3,135.9z M382.3,130.8c0.9,0,1.5-0.4,1.9-1.2
		s0.6-1.8,0.6-3.1c0.1-1.3,0.1-2.6,0.1-4v-11.7c0-1.4,0-2.8-0.1-4c-0.1-1.3-0.3-2.3-0.6-3.1c-0.4-0.8-1-1.2-1.9-1.2
		c-0.9,0-1.5,0.4-1.9,1.2c-0.4,0.8-0.6,1.8-0.7,3.1c-0.1,1.3-0.1,2.6-0.1,4v11.7c0,1.4,0,2.7,0.1,4c0.1,1.3,0.3,2.3,0.7,3.1
		C380.8,130.4,381.5,130.8,382.3,130.8z"/>
	<path class="st3" d="M393.9,135.4V98h4.6v5.3c0.9-2.3,1.8-3.8,2.7-4.6c0.9-0.8,1.8-1.2,2.7-1.2c0.1,0,0.2,0,0.3,0
		c0.1,0,0.2,0,0.4,0.1v7.6c-0.3-0.2-0.7-0.4-1.2-0.6c-0.4-0.2-0.9-0.2-1.4-0.2c-0.7,0-1.4,0.2-2,0.7c-0.6,0.5-1.2,1.5-1.7,2.9v27.3
		H393.9z"/>
	<path class="st3" d="M408,135.4V82.9h4.6v52.4H408z"/>
	<path class="st3" d="M423.1,135.9c-2.1,0-3.6-1.2-4.7-3.5c-1-2.3-1.5-6.2-1.5-11.8v-7.3c0-2.8,0.2-5.5,0.5-7.9
		c0.3-2.4,0.9-4.4,1.8-5.9c0.9-1.5,2.2-2.2,3.8-2.2c0.8,0,1.6,0.3,2.3,0.8c0.7,0.6,1.3,1.3,1.8,2.1V82.9h4.6v52.4h-4.6V133
		c-0.5,0.9-1.1,1.6-1.8,2.1C424.7,135.6,423.9,135.9,423.1,135.9z M424.2,130.5c0.4,0,0.9-0.1,1.4-0.4c0.5-0.2,1-0.6,1.5-1.1v-24.5
		c-0.4-0.4-0.8-0.8-1.3-1.1c-0.5-0.3-1-0.5-1.6-0.5c-1.1,0-1.8,0.8-2.1,2.3c-0.4,1.5-0.6,3.4-0.6,5.5v10.6c0,1.7,0.1,3.3,0.2,4.7
		c0.1,1.4,0.4,2.5,0.8,3.3C422.8,130.1,423.4,130.5,424.2,130.5z"/>
</g>
<g>
	<path class="st1" d="M165.3,133.5V81h3.3l9.9,34.8V81h4v52.4h-3.1l-10-35.8v35.8H165.3z"/>
	<path class="st1" d="M191.3,134c-1,0-1.8-0.4-2.6-1.3c-0.7-0.8-1.3-1.9-1.8-3.2c-0.4-1.3-0.6-2.7-0.6-4.2c0-2.3,0.3-4.3,0.8-5.9
		c0.5-1.6,1.2-2.9,2.1-4c0.9-1.1,1.9-2.1,3.1-2.9c1.2-0.8,2.4-1.6,3.8-2.4v-2.7c0-1.5-0.1-2.8-0.2-3.8c-0.1-1-0.4-1.7-0.7-2.2
		c-0.4-0.5-0.9-0.7-1.6-0.7c-0.6,0-1.1,0.2-1.5,0.6c-0.4,0.4-0.7,1-0.8,1.8c-0.2,0.8-0.3,1.7-0.3,2.8v1.9l-4.5-0.3
		c0.1-4.1,0.7-7.2,1.9-9.2c1.2-2,3.1-2.9,5.6-2.9c2.5,0,4.2,1,5.2,3c1,2,1.5,5,1.5,8.8v17.1c0,1.2,0,2.3,0.1,3.4
		c0,1.1,0.1,2.1,0.2,3c0.1,0.9,0.1,1.8,0.2,2.6h-4.2c-0.1-0.7-0.2-1.6-0.3-2.6c-0.1-1.1-0.2-2-0.3-2.9c-0.3,1.5-0.8,2.8-1.7,4.1
		C193.8,133.4,192.7,134,191.3,134z M193.1,128c0.5,0,0.9-0.2,1.3-0.6c0.4-0.4,0.8-0.8,1.1-1.3c0.3-0.5,0.5-0.9,0.6-1.2v-10.6
		c-0.7,0.6-1.4,1.2-2,1.8c-0.6,0.6-1.2,1.2-1.7,1.9c-0.5,0.7-0.8,1.4-1.1,2.3c-0.3,0.8-0.4,1.8-0.4,2.9c0,1.5,0.2,2.7,0.6,3.6
		C191.8,127.6,192.4,128,193.1,128z"/>
	<path class="st1" d="M205.4,90.5v-7.3h4.6v7.3H205.4z M205.4,133.5V96.1h4.6v37.4H205.4z"/>
	<path class="st1" d="M214.1,142.9c-0.4,0-0.8,0-1.2-0.1s-0.8-0.2-1.1-0.4v-5c0.1,0,0.3,0.1,0.6,0.1c0.3,0,0.5,0.1,0.6,0.1
		c0.7,0,1.2-0.2,1.5-0.6s0.6-0.9,0.8-1.6c0.2-0.7,0.2-1.5,0.2-2.3V96.1h4.6v37.8c0,2.9-0.5,5.2-1.6,6.7
		C217.5,142.1,216,142.9,214.1,142.9z M215.5,90.5v-7.3h4.6v7.3H215.5z"/>
	<path class="st1" d="M228.5,134c-1,0-1.8-0.4-2.6-1.3c-0.7-0.8-1.3-1.9-1.8-3.2c-0.4-1.3-0.6-2.7-0.6-4.2c0-2.3,0.3-4.3,0.8-5.9
		c0.5-1.6,1.2-2.9,2.1-4c0.9-1.1,1.9-2.1,3.1-2.9c1.2-0.8,2.4-1.6,3.8-2.4v-2.7c0-1.5-0.1-2.8-0.2-3.8c-0.1-1-0.4-1.7-0.7-2.2
		c-0.4-0.5-0.9-0.7-1.6-0.7c-0.6,0-1.1,0.2-1.5,0.6c-0.4,0.4-0.7,1-0.8,1.8c-0.2,0.8-0.3,1.7-0.3,2.8v1.9l-4.5-0.3
		c0.1-4.1,0.7-7.2,1.9-9.2c1.2-2,3.1-2.9,5.6-2.9c2.5,0,4.2,1,5.2,3c1,2,1.5,5,1.5,8.8v17.1c0,1.2,0,2.3,0.1,3.4
		c0,1.1,0.1,2.1,0.2,3c0.1,0.9,0.1,1.8,0.2,2.6h-4.2c-0.1-0.7-0.2-1.6-0.3-2.6c-0.1-1.1-0.2-2-0.3-2.9c-0.3,1.5-0.8,2.8-1.7,4.1
		C231,133.4,229.9,134,228.5,134z M230.3,128c0.5,0,0.9-0.2,1.3-0.6c0.4-0.4,0.8-0.8,1.1-1.3c0.3-0.5,0.5-0.9,0.6-1.2v-10.6
		c-0.7,0.6-1.4,1.2-2,1.8c-0.6,0.6-1.2,1.2-1.7,1.9c-0.5,0.7-0.8,1.4-1.1,2.3c-0.3,0.8-0.4,1.8-0.4,2.9c0,1.5,0.2,2.7,0.6,3.6
		C229,127.6,229.6,128,230.3,128z"/>
	<path class="st1" d="M286.7,133.5v-47h-5.9V81h16.4v5.4h-5.7v47H286.7z"/>
	<path class="st1" d="M300.3,133.5V81h4.6v18.9c0.8-1.2,1.8-2.2,2.8-3.1c1-0.9,2.2-1.3,3.4-1.3c1,0,1.7,0.4,2.2,1.2
		c0.5,0.8,0.9,1.7,1.1,2.9c0.2,1.2,0.3,2.4,0.3,3.6v30.3h-4.6v-28.3c0-1.3-0.1-2.4-0.4-3.1c-0.3-0.7-0.8-1.1-1.6-1.1
		c-0.5,0-1.1,0.2-1.7,0.7c-0.6,0.5-1.1,1.1-1.7,1.7v30H300.3z"/>
	<path class="st1" d="M326.1,134c-1.9,0-3.4-0.6-4.5-1.7c-1.1-1.1-1.8-2.8-2.2-5c-0.4-2.2-0.6-5-0.6-8.2v-8.5c0-3.3,0.2-6.1,0.6-8.3
		s1.2-3.9,2.3-5c1.1-1.1,2.6-1.7,4.4-1.7c2.1,0,3.6,0.6,4.6,1.9c1,1.3,1.6,3.2,2,5.6c0.3,2.4,0.5,5.4,0.5,8.8v3h-9.8v7.5
		c0,1.5,0.1,2.7,0.3,3.7c0.2,0.9,0.5,1.7,0.9,2.1c0.4,0.5,1,0.7,1.6,0.7c0.7,0,1.2-0.2,1.6-0.7c0.4-0.5,0.6-1.2,0.7-2.1
		c0.1-0.9,0.2-2,0.2-3.3v-2.3h4.5v1.4c0,3.8-0.5,6.7-1.6,8.9C330.5,132.9,328.6,134,326.1,134z M323.4,111.1h5.3v-3.4
		c0-1.6-0.1-2.9-0.2-3.9c-0.1-1.1-0.4-1.9-0.7-2.4c-0.4-0.5-0.9-0.8-1.7-0.8c-0.7,0-1.3,0.3-1.7,0.8c-0.4,0.5-0.7,1.4-0.8,2.6
		c-0.1,1.2-0.2,2.9-0.2,5.1V111.1z"/>
	<path class="st1" d="M352,133.5L346.3,81h4l3.7,37.7l4.7-37.5h3.4l4.7,37.7l3.6-37.9h3.9l-5.6,52.4h-3.5l-4.8-38.8l-4.9,38.8H352z"
		/>
	<path class="st1" d="M384,134c-1.8,0-3.3-0.6-4.3-1.7c-1.1-1.1-1.8-2.7-2.3-4.8s-0.7-4.5-0.7-7.3v-10.9c0-2.8,0.2-5.2,0.7-7.3
		s1.2-3.7,2.3-4.8c1.1-1.1,2.5-1.7,4.3-1.7c1.8,0,3.3,0.6,4.3,1.7c1,1.1,1.8,2.7,2.2,4.8s0.7,4.5,0.7,7.3v10.9
		c0,2.8-0.2,5.2-0.7,7.3s-1.2,3.7-2.2,4.8C387.3,133.4,385.8,134,384,134z M384,128.9c0.9,0,1.5-0.4,1.9-1.2s0.6-1.8,0.6-3.1
		c0.1-1.3,0.1-2.6,0.1-4v-11.7c0-1.4,0-2.8-0.1-4c-0.1-1.3-0.3-2.3-0.6-3.1c-0.4-0.8-1-1.2-1.9-1.2c-0.9,0-1.5,0.4-1.9,1.2
		c-0.4,0.8-0.6,1.8-0.7,3.1c-0.1,1.3-0.1,2.6-0.1,4v11.7c0,1.4,0,2.7,0.1,4c0.1,1.3,0.3,2.3,0.7,3.1
		C382.5,128.5,383.1,128.9,384,128.9z"/>
	<path class="st1" d="M395.5,133.5V96.1h4.6v5.3c0.9-2.3,1.8-3.8,2.7-4.6c0.9-0.8,1.8-1.2,2.7-1.2c0.1,0,0.2,0,0.3,0
		c0.1,0,0.2,0,0.4,0.1v7.6c-0.3-0.2-0.7-0.4-1.2-0.6c-0.4-0.2-0.9-0.2-1.4-0.2c-0.7,0-1.4,0.2-2,0.7c-0.6,0.5-1.2,1.5-1.7,2.9v27.3
		H395.5z"/>
	<path class="st1" d="M409.6,133.5V81h4.6v52.4H409.6z"/>
	<path class="st1" d="M424.7,134c-2.1,0-3.6-1.2-4.7-3.5c-1-2.3-1.5-6.2-1.5-11.8v-7.3c0-2.8,0.2-5.5,0.5-7.9
		c0.3-2.4,0.9-4.4,1.8-5.9c0.9-1.5,2.2-2.2,3.8-2.2c0.8,0,1.6,0.3,2.3,0.8c0.7,0.6,1.3,1.3,1.8,2.1V81h4.6v52.4h-4.6v-2.4
		c-0.5,0.9-1.1,1.6-1.8,2.1C426.3,133.7,425.6,134,424.7,134z M425.9,128.6c0.4,0,0.9-0.1,1.4-0.4c0.5-0.2,1-0.6,1.5-1.1v-24.5
		c-0.4-0.4-0.8-0.8-1.3-1.1c-0.5-0.3-1-0.5-1.6-0.5c-1.1,0-1.8,0.8-2.1,2.3c-0.4,1.5-0.6,3.4-0.6,5.5v10.6c0,1.7,0.1,3.3,0.2,4.7
		c0.1,1.4,0.4,2.5,0.8,3.3C424.5,128.2,425.1,128.6,425.9,128.6z"/>
</g>
<path class="st4" d="M299.5,226c-81.4-0.8-148.2,68.7-149.2,155.3s144.2,271.8,144.2,271.8s149.6-182.4,150.6-269
	C446.1,297.6,380.9,226.8,299.5,226L299.5,226z M296.9,446.2c-42-0.4-75.6-34.7-75.1-76.4c0.5-41.8,35-75.3,76.9-74.9
	c42,0.4,75.6,34.6,75.1,76.4C373.4,413,338.9,446.5,296.9,446.2z"/>
<g>
	<g>
		<path class="st5" d="M202,320.4c0,0-6.2,4.1-7.8,8.8c-1.6,4.7,0.4,9.5,3.9,10.3c0,0-3.1,20.8-0.8,26.1c2.3,5.3,9.5,0,9.5,0
			S204,328.6,202,320.4L202,320.4z"/>
		<path class="st5" d="M203.8,375c0,0-6.2,4.1-7.8,8.8s0.4,9.5,3.9,10.3c0,0-3.1,20.8-0.8,26.1c2.3,5.3,9.5,0,9.5,0
			S205.9,383.3,203.8,375z"/>
		<path d="M204.6,302.7c0,0-6.2,3.9-2.5,44.6s-7.4,71.1,9.2,88.6s62.7-16,62.7-16l-21-116L204.6,302.7z"/>
		<path class="st5" d="M229.3,431.6c-4.1,0-8.5-0.8-12.1-3.3c-4.4-3.1-6.9-10.4-7.7-22.2c-0.7-10.1,0-21.7,0.6-31.9
			c0.3-5.7,0.7-11.1,0.7-15.2c0-18-6.7-50.5-6.8-50.8s0.1-0.7,0.5-0.7c0.3-0.1,0.7,0.1,0.7,0.5c0.1,0.3,6.8,32.9,6.8,51.1
			c0,4.1-0.3,9.5-0.7,15.3c-1.2,19.7-2.7,46.6,6.6,53.1c6.5,4.6,16.1,3,21.2,1.7c9-2.3,17.6-7.2,19.6-11.2c0.2-0.3,0.5-0.4,0.8-0.3
			c0.3,0.2,0.4,0.5,0.3,0.8c-2.2,4.3-10.9,9.4-20.4,11.8C236.9,430.9,233.2,431.6,229.3,431.6L229.3,431.6z"/>
		<g>
			<path class="st3" d="M195.7,272.9c0,0,46.5-14.5,99.9-12.5c0,0,15.3,13.6,2.5,34.3l-92.9,16C205.3,310.7,193.1,287.7,195.7,272.9
				L195.7,272.9z"/>
			<path d="M227.4,265.6c0,0,20.9,10.4,14.5,38.8l6.4-0.6c0,0,7.3-25-13.1-39.3C235.3,264.5,230.8,262.6,227.4,265.6L227.4,265.6z"
				/>
			<path class="st6" d="M189.4,277.6c3.9-6.7,13.7-6.4,17.1,0.5c1.7,3.4,3.3,8,3.9,13.7c1.4,14.3-4.3,23.9-12.2,17.3
				c-7.8-6.7-13.1-23.9-9-31.3C189.3,277.7,189.3,277.6,189.4,277.6L189.4,277.6z"/>
			<path d="M202.1,308.2c-0.4,0-0.8-0.1-1.3-0.2c-3-0.9-5.9-5.1-7.8-11.2c-2.3-7.4-2.3-15.7-2.3-15.8c0-0.4,0.3-0.6,0.6-0.6l0,0
				c0.4,0,0.6,0.3,0.6,0.6c0,0.1,0.1,8.2,2.3,15.4c1.7,5.6,4.4,9.6,6.9,10.4c1,0.3,2,0.1,3-0.7c1.5-1.2,2.2-4.1,2-8.1
				c-0.3-8-3.8-17.8-7.3-20.2c-0.6-0.4-1-0.2-1.3-0.1c-1.5,1-2.4,5.2-1.1,11.1c1.8,8.4,4.3,13.2,5.2,13.5c0.1,0,0.2-0.1,0.4-0.3
				c1.3-2.3-0.9-11.5-1.9-14.1c-0.1-0.3,0-0.7,0.4-0.8c0.3-0.1,0.7,0,0.8,0.4c0.5,1.3,3.6,12,1.8,15.2c-0.4,0.7-0.9,0.9-1.3,1
				c-0.4,0.1-1.5,0.3-3.4-4.1c-1.2-2.8-2.3-6.5-3.2-10.5c-1.4-6.9-0.2-11.2,1.7-12.5c0.8-0.6,1.8-0.5,2.7,0.1
				c4.1,2.9,7.6,13.6,7.9,21.2c0.1,3.1-0.2,7.3-2.5,9.1C204.1,307.8,203.1,308.2,202.1,308.2L202.1,308.2z"/>
		</g>
	</g>
	<g class="st7">
		<ellipse cx="282.7" cy="779.2" rx="122.3" ry="9.2"/>
	</g>
	<g>
		<g>
			<path class="st8" d="M352.1,327.4c0,0,26.9,50.1,31,50.1c3.4,0,45.4-35.5,45.4-35.5l6.5,4.7c0,0-27.5,65.8-59.4,66.5
				c-25.1,0.5-50.3-63-50.3-63L352.1,327.4L352.1,327.4z"/>
			<path class="st9" d="M381.8,377.3c-3.5,2.7-6.8,5.7-9.7,9c-0.3,0.3,0.2,0.7,0.4,0.4c2.9-3.3,6.1-6.3,9.6-8.9
				C382.5,377.6,382.2,377,381.8,377.3L381.8,377.3z"/>
			<path class="st9" d="M378.7,379.9c-3.2-0.5-6.5-0.6-9.7-0.2c-0.4,0-0.4,0.7,0,0.6c3.2-0.4,6.4-0.4,9.6,0.2
				C378.9,380.6,379.1,380,378.7,379.9L378.7,379.9z"/>
			<path class="st10" d="M337,290.6c0,0,8.6,10.2,13.2,19.5s9.4,20.2,9.4,20.2L336.8,363l-5.7-17.3L337,290.6L337,290.6z"/>
			<path d="M356.9,325.5c-6.2,8-11.6,16.5-17.9,24.5c-0.3,0.4,0.2,0.9,0.5,0.5c6.2-8,11.6-16.5,17.9-24.5
				C357.8,325.7,357.2,325.1,356.9,325.5L356.9,325.5L356.9,325.5z"/>
			<g>
				<g>
					<g>
						<path class="st5" d="M395.7,357.3l2.8-19.2c0.2-1.5,1.6-2.9,3.1-3.1l34.7-4.7l-2.8,19.2c-0.2,1.5-1.6,2.9-3.1,3.1L395.7,357.3
							L395.7,357.3z"/>
						<path d="M395.8,357l2.5-17.5c0.2-1.5,1.6-2.9,3.1-3.1l34.7-4.7l-2.8,19.2c-0.2,1.5-1.6,2.9-3.1,3.1l-32.9,4.5
							C396.4,358.6,395.7,357.9,395.8,357L395.8,357z"/>
						<path class="st5" d="M416.6,347.7c-1.9,0.4-3.2-0.4-3-1.9s1.9-3.1,3.8-3.5s3.2,0.4,3,1.9C420.2,345.7,418.5,347.3,416.6,347.7
							L416.6,347.7z"/>
					</g>
					<path class="st11" d="M430.9,337.9c-0.9,0.2-1.6-0.3-1.6-1.2c0.1-0.8,0.9-1.6,1.8-1.8c0.9-0.2,1.6,0.3,1.6,1.2
						C432.6,336.9,431.8,337.7,430.9,337.9L430.9,337.9z"/>
				</g>
				<path class="st8" d="M434.3,340.8c0,0-9.4-2.1-11.2-0.4c-1.8,1.7,7.3,5.2,7.3,5.2s-5.6-1.1-7.2,0s4.9,4.4,4.9,4.4
					s-3.7-0.6-4.2,1.4s0.8,3,2.8,3.9s4.2,0.4,5.1-0.3c1-0.7,0.6-2.9,0.6-2.9s3.9-1.2,4.2-2.5c0.4-1.3-0.5-2.4-0.5-2.4s1.7,0,2.6-1.5
					s0.3-2.6,0.3-2.6s1.9-2.8,2.7-4.5c0.8-1.7-2.1-3.6-3.8-5c-1.7-1.4-5.8,1.9-9,2.1c0,0-1.8,0.7-0.2,2.2c1.5,1.5,5.5,0.3,6.2,0.5
					C435.7,338.3,434.3,340.8,434.3,340.8z"/>
			</g>
		</g>
		<g>
			<g>
				<polygon class="st8" points="203.8,706 187.7,738.3 200.4,747 223.2,719.2 				"/>
				<g>
					<path class="st12" d="M217.5,779.4h-23.1c0,0-16.9-28.6-16.4-32.9c0.1-0.8,0.5-1,2.2-2.6l0.9-0.8c0,0,0,0,0.1-0.1
						c3-4,7.3-9.5,9.7-12.3c0.6-0.7,1.6-0.4,1.9,0.4c0.9,3.5-0.3,6,3.3,7.6c0,0,4.4-6.4,9.4-2c2.8,2.4-4.6,14-2.6,17.1
						c1.7,2.6,4.8,6.3,8.6,10.2c0.8,0.8,1.6,1.6,2.4,2.4c2.9,2.9,3.6,7,3.8,9.8C217.6,778.1,217.5,779.4,217.5,779.4L217.5,779.4z"
						/>
					<path d="M198.1,755.4c1.5-1.4,3.7-1.7,5.5-0.7c0.5,0.3,0.1,1.1-0.5,0.8c-1.4-0.8-3.2-0.6-4.4,0.6
						C198.4,756.5,197.7,755.8,198.1,755.4L198.1,755.4L198.1,755.4z"/>
					<path d="M200.2,757.8c1.5-1.4,3.7-1.7,5.5-0.7c0.5,0.3,0.1,1.1-0.5,0.8c-1.4-0.8-3.2-0.6-4.4,0.6
						C200.4,758.8,199.7,758.2,200.2,757.8L200.2,757.8z"/>
					<path d="M202.4,760.1c1.5-1.4,3.7-1.7,5.5-0.7c0.5,0.3,0.1,1.1-0.5,0.8c-1.4-0.8-3.2-0.6-4.4,0.6
						C202.6,761.2,201.9,760.5,202.4,760.1L202.4,760.1z"/>
					<path class="st13" d="M188.1,734.4c-0.1,5-1.8,9.6-5,13.4c-0.6,0.7,0.4,1.6,1,1c3.4-4.1,5.3-9,5.4-14.3
						C189.4,733.5,188.1,733.5,188.1,734.4L188.1,734.4L188.1,734.4z"/>
					<path class="st13" d="M217.5,779.4h-24.1c0,0-15.8-28.6-15.4-32.9c0.1-0.8,0.5-1,2.2-2.6l0.9-0.8c0,0,0,0,0.1-0.1
						c3.5,12,9.4,23.2,15.3,33.3h21.1C217.6,778.1,217.5,779.4,217.5,779.4L217.5,779.4z"/>
				</g>
				<path d="M312.2,460c0,0-14.8,124.2-18.8,143.4c-0.2,0.9-0.4,1.6-0.5,2c-0.8,2.3-2.4,6-4.7,10.9c-15,31.6-57,108.7-57,108.7
					L187,708.1l49-107.9l2.9-143.2L312.2,460L312.2,460z"/>
				<path class="st5" d="M293.4,603.4c-0.2,0.9-0.4,1.6-0.5,2c-0.8,2.3-2.4,6-4.7,10.9c-2.1-0.1-4.4-0.5-6.7-1
					c-10-2.3-17.3-7.4-16.4-11.5s9.8-5.6,19.8-3.3C288,601.2,290.9,602.2,293.4,603.4L293.4,603.4z"/>
				<path class="st5" d="M264.1,462.7c3.5,15.8-3.8,32.2-17.9,40.1c-0.5,0.3-1-0.5-0.5-0.8c13.8-7.7,20.9-23.7,17.5-39.1
					C263.1,462.4,264,462.1,264.1,462.7L264.1,462.7L264.1,462.7z"/>
				<path class="st5" d="M246.4,459.3c0.1,31.1-0.2,62.2-0.7,93.4c-0.2,11.7-0.5,23.3-0.8,35c-0.1,3.9-0.3,7.8-0.4,11.6
					c-0.1,2.1,0,4.3-0.4,6.3c-0.7,3.4-2.5,6.7-3.8,9.9c-2.6,6.4-5.3,12.7-8.1,19c-6.9,16-14,32-21,48c-2.9,6.5-5.7,12.9-8.5,19.4
					c-0.9,2.1-1.9,4.3-2.8,6.4c-0.5,1.2-0.9,2.5-1.5,3.6c0,0.1-0.1,0.3-0.1,0.3c-0.2,0.2-0.6-0.6-0.8-0.2c0.3-0.5,1.1,0,0.8,0.5
					c-0.4,0.5-0.9,0.2-0.9-0.4c0-0.2,0.2-0.5,0.3-0.7c0.5-1.3,1.1-2.7,1.7-4c2.3-5.4,4.7-10.7,7-16c7-16,14.1-32,21.1-48
					c5.2-11.9,10.7-23.8,15.1-36c1.3-3.7,1-8,1.2-12.1c0.4-10.5,0.7-20.9,0.9-31.4c0.6-30.7,1-61.5,1-92.3c0-4.1,0-8.2,0-12.2
					C245.5,458.7,246.4,458.7,246.4,459.3L246.4,459.3L246.4,459.3z"/>
				<g>
					<polygon points="369.5,593.5 368.3,606.7 356.3,734.9 308.1,734.9 314.1,605.4 291.1,464 352.3,457.1 369.3,592 					"/>
					<path class="st5" d="M369.5,593.5l-1.2,13.3c-1.3,0.2-2.7,0.4-4.1,0.4c-10.2,0.6-18.7-2.3-19-6.5s7.8-8.1,18-8.7
						c2.1-0.1,4.2-0.1,6.1,0.1L369.5,593.5L369.5,593.5z"/>
					<path class="st5" d="M344.2,468.1c-0.5,6.2,0.5,12.5,2.9,18.2c2,4.9,5.1,10,10,12.7c0.5,0.3,0.1,1.1-0.5,0.8
						c-4.8-2.6-8-7.6-10.1-12.5c-2.6-6-3.8-12.6-3.2-19.1C343.3,467.5,344.2,467.5,344.2,468.1L344.2,468.1z"/>
					<path class="st5" d="M308.4,467.2c0.4,7.8,0.5,15.6,0.5,23.4c0,0.6-0.9,0.6-0.9,0c0.1-7.8-0.1-15.6-0.5-23.4
						C307.5,466.6,308.4,466.6,308.4,467.2L308.4,467.2z"/>
					<path class="st5" d="M302.1,467.9c0,3.8,0,7.6,0,11.4c0,1.7-0.2,3.6,0.6,5.2c1,1.9,3.2,2.4,5,1.4c0.5-0.3,1,0.5,0.5,0.8
						c-3.1,1.9-6.3-0.3-6.9-3.6c-0.4-2.2-0.2-4.5-0.2-6.7c0-2.8,0-5.6,0-8.4C301.2,467.3,302.1,467.3,302.1,467.9L302.1,467.9
						L302.1,467.9z"/>
					<path class="st5" d="M308.9,489.2c-0.6,15.8-2.2,31.6-5,47.2c-0.1,0.6-1,0.3-0.9-0.2c2.7-15.5,4.4-31.2,4.9-47
						C307.9,488.6,308.9,488.6,308.9,489.2L308.9,489.2L308.9,489.2z"/>
					<path class="st5" d="M307.9,508.8c3.2,15.8,5.7,31.7,8.2,47.7c2,12.9,3.8,25.8,5.5,38.7c0.3,2.5,0.7,5,1,7.5h-0.9
						c0-0.5,0.5-1.9,1-0.8c0.3,0.7,0,2,0,2.7c-0.1,5.5-0.3,11-0.4,16.5c-0.7,21.1-1.7,42.2-3,63.3c-0.9,14.5-1.8,29-3,43.5
						c0,0.6-1,0.6-0.9,0c1.9-23.7,3.3-47.4,4.5-71.1c0.8-16,1.5-32.1,1.8-48.1c0-1.8,0.1-3.7,0.1-5.5c0-0.2-0.1-0.9,0-1.1
						c0,0.1,0.8,0,0.9,0.1c0,0,0,0.4,0,0.5c0,0.6-0.9,0.6-0.9,0c-0.9-7.2-1.9-14.4-2.9-21.6c-2.2-15.3-4.4-30.5-7-45.7
						c-1.5-8.8-3-17.5-4.8-26.2C306.9,508.4,307.8,508.2,307.9,508.8L307.9,508.8L307.9,508.8z"/>
					<g>
						<polygon class="st8" points="322.1,725 324.2,761 339.6,762.2 345.5,726.8 						"/>
						<g>
							<path class="st12" d="M377.1,779.4h-58.9c-0.1-0.9-0.1-1.8-0.1-2.8c0-0.4,0-0.8,0-1.2c-0.2-8.1,0-25,3.7-22.5
								c3.6,6.4,13.1,3.7,13.1,3.7s5.9-7.7,9.9-5.4s-0.6,6.8,4.6,10.8c3.9,3.1,8.9,1.3,14.7,2.4c1.8,0.3,3.6,0.9,5.6,2
								c4.5,2.6,6.3,6.2,7,8.9C377.2,777.7,377.1,779.4,377.1,779.4L377.1,779.4z"/>
							<path d="M349.7,763.1c-1.7,0-3.3,0.7-4.3,2.1c-0.3,0.5-1.2,0-0.8-0.5c1.2-1.7,3.1-2.6,5.1-2.5
								C350.3,762.2,350.3,763.1,349.7,763.1L349.7,763.1z"/>
							<path d="M352.6,763.9c-1.7,0-3.3,0.7-4.3,2.1c-0.3,0.5-1.2,0-0.8-0.5c1.2-1.7,3.1-2.6,5.1-2.5
								C353.2,762.9,353.2,763.9,352.6,763.9L352.6,763.9z"/>
							<path d="M356,764.1c-1.7,0-3.3,0.7-4.3,2.1c-0.3,0.5-1.2,0-0.8-0.5c1.2-1.7,3.1-2.6,5.1-2.5
								C356.6,763.1,356.6,764.1,356,764.1L356,764.1z"/>
							<path class="st13" d="M318.7,761.5c6.4,2.9,11.3,8.3,13.6,15c0.3,0.8,1.6,0.5,1.3-0.4c-2.4-7-7.5-12.7-14.2-15.8
								C318.6,760,317.9,761.1,318.7,761.5L318.7,761.5z"/>
							<path class="st13" d="M377.1,779.4h-58.9c-0.1-0.9-0.1-1.8-0.1-2.8v-1.2h58.7C377.2,777.7,377.1,779.4,377.1,779.4z"/>
						</g>
					</g>
					<polygon class="st5" points="306,725.3 360,723.8 359.5,736 305.9,737.3 					"/>
				</g>
				<polygon class="st5" points="185.6,702.6 236,721.8 230.9,732.9 180.9,713.7 				"/>
			</g>
			<g>
				<path class="st10" d="M231.3,467.2c1.4-13.1,5.4-56.2,5.5-101.6c0-1.3-0.1-2.5-0.2-3.8c-1.1-12.6-3.9-22.1-5.9-30.5
					c-2.2-9.3-3.5-17.2-0.6-26.4c2.4-7.6,6.4-11.5,11.2-14c0.4-0.2,0.9-0.4,1.3-0.6c6.3-2.8,14-3.4,22-6c3.7-1.2,7.4-2.7,11.1-5.1
					c18.7-11.9,28.8,0,28.8,0s3,0.7,7.1,1.7c1.7,0.4,3.6,0.9,5.5,1.5c0.4,0.1,0.8,0.2,1.2,0.4c6.7,2,14,4.5,17.6,7.1
					c5,3.6,6.3,20.3,6.6,38.1c0,0.4,0,0.9,0,1.3c0,1.5,0,3.1,0.1,4.6c0,2.3,0,4.6,0,6.9l0,0c0,0.5,0,1,0,1.5c0,5.7,0,11.2,0.1,16.1
					c0,0.5,0,1.1,0,1.6c0,2.8,0.1,5.3,0.3,7.5c0.1,0.9,0.1,1.8,0.2,2.6c0.8,8.6,10.5,75.6,13.1,87.4
					C322.1,465.4,281.7,467,231.3,467.2L231.3,467.2z"/>
				<polygon class="st10" points="282.2,334.9 285.1,360.5 332.5,360.5 328.2,334.9 				"/>
				<path d="M254.1,400.2c18.8,16.2,42.6,26.3,67.3,28.7c6.8,0.7,13.7,0.7,20.6,0.2c0.6,0,0.6,0.9,0,0.9c-24.9,1.9-50.2-4.2-71.6-17
					c-6-3.6-11.7-7.7-17-12.3C252.9,400.5,253.6,399.8,254.1,400.2L254.1,400.2L254.1,400.2z"/>
				<path d="M285.7,405.4c15.7,4,32.5,2.9,47.6-3c0.6-0.2,0.8,0.7,0.3,0.9c-15.2,6-32.2,7.1-48.1,3
					C284.8,406.2,285.1,405.3,285.7,405.4L285.7,405.4z"/>
				<path d="M243.2,351.1c2.9,29.2,3.4,58.7,1.3,87.9c-0.6,8.3-1.4,16.7-2.4,25c-0.1,0.7-1.2,0.7-1.1,0c3.5-29.1,4.5-58.6,3-87.9
					c-0.4-8.4-1.1-16.7-1.9-25C242,350.4,243.2,350.4,243.2,351.1L243.2,351.1L243.2,351.1z"/>
				<path d="M342.9,318.3c0,7.2,0,14.3,0,21.5c0,0.7-1.1,0.7-1.1,0c0-7.2,0-14.3,0-21.5C341.8,317.6,342.9,317.6,342.9,318.3
					L342.9,318.3z"/>
				<g>
					<g>
						<path class="st8" d="M276.4,282.2c-0.8,1.3,23.4,21.5,30.2,3.1l-2.9-11.7l-1.9-7.7l-1.3-5.4L279,256
							C279.6,265.9,278.6,274.6,276.4,282.2L276.4,282.2z"/>
						<path d="M283.7,264.1c9.3,11.8,17.8,13.5,20.7,12.4l-2.6-10.7L283.7,264.1z"/>
					</g>
					<g>
						<path d="M285.1,214.6c0,0,10.4-12.3,25.9-1.3c9.8,6.9,12.5,19.5,10.6,26.7c-1.7,6.6-9.1,6.2-13.1,4.7
							c-3.9-1.5-30.2-20.3-30.2-20.3S274.3,214.4,285.1,214.6L285.1,214.6z"/>
						<path class="st8" d="M276.8,249.9c0,0.9,0.1,1.7,0.3,2.4c0.3,1.8,0.9,3.3,1.7,4.9c1.1,2.1,2.7,4.2,5,7
							c3.5,4.4,9.1,5.9,14.5,5.7c14.3-0.4,15.2-10.2,13.6-24.8c-1-9.1,1.4-14.2-1-17.7l0,0c-0.2-0.2-0.3-0.3-0.5-0.5
							c-3.9-3.6-9-5.5-14.3-5.4c-1,0-2,0.1-2.9,0.1c-0.2,0-0.4,0-0.6,0.1c-0.1,0-0.2,0-0.3,0c-0.2,0-0.5,0-0.7,0.1
							c-0.2,0-0.3,0-0.5,0.1c-0.4,0-0.7,0.1-1.1,0.2c-11.3,1.9-14,9-14.1,15.8C275.6,242.5,276.6,247.1,276.8,249.9L276.8,249.9z"/>
						<path d="M312.4,252.6c0,0,2,9.9,0.1,17c-2,7.1-11.7,11-23.3,3.2c-7.1-4.7-7.2-18.6-7.2-18.6l4.4-8.6l3.1-0.4
							c0,0,1.7,4.5,5,6.1C297.6,253,301.2,249.5,312.4,252.6L312.4,252.6z"/>
						<path d="M308.5,246c-0.5,0.4-1.3,0.3-1.7-0.2c-0.4-0.5-0.3-1.3,0.2-1.7s1.3-0.3,1.7,0.2C309.2,244.8,309.1,245.6,308.5,246z"
							/>
						<path d="M298.8,245.4c-0.5,0.4-1.3,0.3-1.7-0.2c-0.4-0.5-0.3-1.3,0.2-1.7s1.3-0.3,1.7,0.2C299.4,244.2,299.3,245,298.8,245.4z
							"/>
						<path class="st11" d="M304.5,261c-1.9,0.6-3.9,0.4-5.5-0.8c-0.6-0.4,0.1-1.3,0.7-0.9c1.3,0.9,2.9,1.2,4.4,0.7
							C304.7,259.7,305.1,260.8,304.5,261L304.5,261L304.5,261z"/>
						<path class="st13" d="M307,254c-4.7-0.5-9.4-1-9.4-1s0,4.9,4.9,5.4C306.5,258.8,307,254,307,254L307,254z"/>
						<path d="M293.7,220.4c0,0,8.3,14.1,21.2,12C327.8,230.2,306.3,211.7,293.7,220.4z"/>
						<path class="st9" d="M291.7,248.1c0,0.8,1.3,1.4,2.8,1.3s2.7-0.8,2.6-1.6c0-0.8-1.3-1.4-2.8-1.3
							C292.8,246.7,291.6,247.3,291.7,248.1z"/>
						<path class="st9" d="M312.2,248.8c-0.5,0.4-1.2,0.6-2.1,0.7c-1.5,0.1-2.7-0.5-2.8-1.3c0-0.8,1.1-1.5,2.6-1.5
							c0.8,0,1.6,0.1,2.1,0.4L312.2,248.8L312.2,248.8z"/>
						<path d="M298.1,238.4c-1-0.3-2.3-0.2-2.7,0.9c-0.2,0.7-0.9,1.2-1.6,1s-1.2-0.9-1-1.6c0.9-2.4,3.5-3.7,6-2.9
							c0.7,0.2,1.2,0.9,1,1.6C299.5,238,298.7,238.6,298.1,238.4L298.1,238.4L298.1,238.4z"/>
						<path d="M305.4,239.2c1-0.1,2.3,0.2,2.5,1.4c0.1,0.7,0.6,1.3,1.4,1.3c0.7,0,1.4-0.7,1.3-1.4c-0.4-2.6-2.7-4.3-5.3-4
							c-0.7,0.1-1.3,0.6-1.3,1.4C304,238.6,304.7,239.3,305.4,239.2L305.4,239.2L305.4,239.2z"/>
					</g>
					<path d="M282.1,253.7c-2,0.1-3.7-0.4-5-1.3c0.3,1.8,0.9,3.3,1.7,4.9C280.1,256.5,281.3,255.3,282.1,253.7L282.1,253.7z"/>
					<path d="M288.5,246.7c-2.8,1.8-3.9-7.8-9.6-9.1c-1.3-0.3-2.3-0.2-3.2,0.3c-0.1,4.7,0.9,9.3,1,12.1c0,0.9,0.1,1.6,0.3,2.4
						c-2.5-5.8-5.3-12.6-5.9-15.5c-0.1-0.6-0.2-1.1-0.2-1.7c0.1-0.2,0.3-0.3,0.4-0.4c0.6-0.6,1.2-1.2,1.9-1.6
						c1.1-0.7,2.4-1.3,3.7-1.7c4.3-1.3,8.6-1.2,12.2-0.7C288.2,234.9,290.9,245.2,288.5,246.7L288.5,246.7z"/>
					<path d="M294.1,224.6c0,0-3.9,1.6-4.8,4.7c-0.9,3.1-0.6,6.3-0.6,6.3s-10.7,0.4-12.8-0.9c-2.1-1.3-1.2-8.5-1.2-8.5
						s15-7.8,18.9-5.9C297.6,222.3,294.1,224.6,294.1,224.6L294.1,224.6z"/>
					<path d="M284.9,216.8c0,0-4.9-3.1-10.2,1.4c-5.3,4.5-4.9,12.5-3.9,16.9S287.5,231.2,284.9,216.8L284.9,216.8z"/>
					<path class="st8" d="M286.4,249.9c0.7-2.3,0.1-4.8-1.3-6.8c-1.8-2.5-5.2-6.4-8.2-5.8c-4.4,0.8-4.8,4.8-4.1,8.9
						c0.6,4,3.6,9.2,9.1,8C284.6,253.7,285.9,251.8,286.4,249.9L286.4,249.9z"/>
					<path d="M281.1,249.5c0.1-1.7,0.2-3.5-0.6-5.1c-0.6-1.4-2.4-3.4-4.2-2.7c-0.6,0.2-1.1-0.7-0.5-0.9c1.8-0.7,3.5,0.3,4.7,1.7
						c1.6,2,1.8,4.6,1.6,7.1C282.1,250.2,281,250.1,281.1,249.5L281.1,249.5L281.1,249.5z"/>
					<g>
						<path class="st13" d="M303.7,246.6c-0.9-3.3,1.1-6.7,4.3-7.6c3.3-0.9,6.7,1.1,7.6,4.3c0.9,3.3-1.1,6.7-4.3,7.6
							C308,251.8,304.6,249.9,303.7,246.6z M304.6,246.4c0.8,2.8,3.7,4.5,6.5,3.7s4.5-3.7,3.7-6.5s-3.7-4.5-6.5-3.7
							C305.5,240.7,303.8,243.6,304.6,246.4z"/>
						<path d="M302.5,243.4c-0.2,1.9,2.6,2.7,2.3,4.8c-0.2,1.4-1.6,2.2-3,1.9c-0.7-0.1-0.6-1.2,0.1-1.1c1,0.2,1.9-0.4,1.7-1.5
							c-0.1-0.7-0.7-1.2-1.2-1.7c-0.7-0.8-1.2-1.6-1.1-2.6C301.5,242.6,302.6,242.7,302.5,243.4L302.5,243.4z"/>
						<path class="st13" d="M289.1,246.2c-0.9-3.3,1.1-6.7,4.3-7.6c3.3-0.9,6.7,1.1,7.6,4.3s-1.1,6.7-4.3,7.6
							C293.4,251.5,289.9,249.5,289.1,246.2z M289.9,246c0.8,2.8,3.7,4.5,6.5,3.7s4.5-3.7,3.7-6.5s-3.7-4.5-6.5-3.7
							C290.8,240.3,289.2,243.2,289.9,246z"/>
						<path class="st13" d="M303.7,244c-0.7-0.8-1.7-0.8-2.5-0.2c-0.4,0.3-0.8-0.4-0.4-0.7c1.1-0.8,2.6-0.7,3.5,0.3
							C304.6,243.8,304.1,244.4,303.7,244L303.7,244L303.7,244z"/>
						<path class="st13" d="M288.8,243.1c-1.5-1.9-3.6-3-6-3.1c-0.5,0-0.5-0.8,0-0.8c2.6,0.1,4.9,1.3,6.5,3.3
							C289.7,242.9,289.1,243.5,288.8,243.1L288.8,243.1L288.8,243.1z"/>
					</g>
				</g>
				<path class="st3" d="M275.7,279.1c2.3,11,9,23,20.9,25.5c4.9,1,9.6-0.7,11.2-5.8c1-3.1,0.6-6.7,0.2-9.9c-0.4-3.4-1.1-6.8-2.2-10
					c-0.2-0.7-1.3-0.4-1.1,0.3c1.7,5.4,3.1,11.7,2.3,17.5c-0.4,2.9-1.8,5.6-4.7,6.7c-2.5,0.9-5.3,0.4-7.7-0.5
					c-10.3-3.6-15.8-14-17.9-24C276.6,278.1,275.5,278.4,275.7,279.1L275.7,279.1L275.7,279.1z"/>
			</g>
		</g>
		<g>
			<g>
				<g>
					<rect x="164.5" y="549.6" width="141" height="93.8"/>
					<rect x="153.4" y="549.6" class="st3" width="141" height="93.8"/>
					<path d="M279.4,628.5H167.8v-63.9h111.6V628.5L279.4,628.5z M168.6,627.6h109.9v-62.2H168.6V627.6L168.6,627.6z"/>
					<rect x="159.5" y="555.6" width="0.8" height="80"/>
					<rect x="286.9" y="555.6" width="0.8" height="80"/>
					<path d="M168.8,549.6c0,8.5-6.9,15.4-15.4,15.4v-15.4H168.8z"/>
					<path d="M294.4,549.6V565c-8.5,0-15.4-6.9-15.4-15.4H294.4z"/>
					<path d="M294.4,628.1v15.4H279C279,635,285.8,628.1,294.4,628.1z"/>
					<path d="M168.8,643.5h-15.4v-15.4C161.9,628.1,168.8,635,168.8,643.5z"/>
				</g>
				<rect x="184.9" y="549.6" width="12.9" height="93.8"/>
				<path class="st14" d="M188.3,569.5h6.1c1.9,0,3.4,1.5,3.4,3.4v70.5h-12.9v-70.5C184.9,571.1,186.4,569.5,188.3,569.5z"/>
				<circle cx="191.2" cy="607.6" r="1.8"/>
				<circle cx="191.2" cy="617.8" r="1.8"/>
				<circle cx="191.2" cy="628.1" r="1.8"/>
				<rect x="247.6" y="549.6" width="12.9" height="93.8"/>
				<path class="st14" d="M251,569.5h6.1c1.9,0,3.4,1.5,3.4,3.4v70.5h-12.9v-70.5C247.6,571.1,249.1,569.5,251,569.5z"/>
				<circle cx="254.1" cy="607.6" r="1.8"/>
				<circle cx="254.1" cy="617.8" r="1.8"/>
				<circle cx="254.1" cy="628.1" r="1.8"/>
				<path d="M198.7,600.7H184v-8.5h14.6L198.7,600.7L198.7,600.7z M185.7,599H197v-5.1h-11.2v5.1H185.7z"/>
				<path d="M261.4,600.7h-14.6v-8.5h14.6V600.7z M248.5,599h11.2v-5.1h-11.2L248.5,599L248.5,599z"/>
				<g>
					<path d="M203.3,549.6h-4V537c0-4.7,3.8-8.5,8.5-8.5h26.7c4.7,0,8.5,3.8,8.5,8.5v12.6h-4V537c0-2.5-2-4.5-4.5-4.5h-26.7
						c-2.5,0-4.5,2-4.5,4.5V549.6z"/>
					<path class="st14" d="M235,533.5v-6.2c0-1.1-0.9-2-2-2h-23.5c-1.1,0-2,0.9-2,2v6.2H235L235,533.5z"/>
				</g>
			</g>
			<path d="M202.3,349.2c0,0-3.4,9.9,19.7,18.2c23.1,8.3,29.4,0.4,29.4,0.4s2.3-17.5-19.1-22.3C210.9,340.6,206.6,342.5,202.3,349.2
				L202.3,349.2z"/>
			<path class="st8" d="M215.8,333c0,0-26.9,53.3-27,79.1c-0.1,15.5,19.7,96.3,19.7,96.3l18.4-1.2c0,0-3.4-76.8-3.7-87.3
				c-0.5-14.4,32.1-68.2,32.1-68.2L215.8,333L215.8,333z"/>
			<path class="st9" d="M223.2,416.3c-3.5-3.7-8.1-6.2-13.1-7.2c-0.7-0.1-1,1-0.3,1.1c4.9,0.9,9.2,3.3,12.6,6.9
				C222.9,417.7,223.7,416.9,223.2,416.3L223.2,416.3z"/>
			<path class="st9" d="M220.7,414c-0.7-2.5-1.8-4.8-3.3-6.9c-0.4-0.6-1.4,0-1,0.6c1.4,2,2.5,4.3,3.2,6.7
				C219.8,415,220.9,414.7,220.7,414L220.7,414z"/>
			<path class="st10" d="M233.4,297.7c0,0-18.1,15.4-31.1,51.5c3.7-9.7,52.8,8.9,49.1,18.6c0,0,15.7-25.8,9.4-51.1
				S237.5,292.9,233.4,297.7z"/>
			<path d="M207.4,338.4c19-0.5,37.6,7.7,49.7,22.4c0.4,0.4,1-0.2,0.6-0.6c-12.3-14.9-31.1-23.1-50.3-22.6
				C206.9,337.5,206.9,338.4,207.4,338.4L207.4,338.4z"/>
			<path d="M252.8,368.4c7.7-10,14-20.9,18.8-32.6c0.2-0.5-0.6-0.7-0.8-0.2c-4.8,11.6-11.1,22.4-18.7,32.4
				C251.7,368.4,252.5,368.8,252.8,368.4L252.8,368.4z"/>
			<path d="M244.5,290.7c10.1,0.8,19.2,7.1,23.7,16.2c0.2,0.5,1,0.1,0.7-0.4c-4.6-9.4-14-15.8-24.4-16.6
				C243.9,289.8,243.9,290.7,244.5,290.7L244.5,290.7z"/>
			<g>
				<path class="st8" d="M209.3,505c0,0-2.8,13-3.3,17.4c-0.5,4.5-0.9,14.1,2.2,15.3c3.1,1.2,17.8,1.1,20.3-0.6s2.4-9.4,3.1-9.5
					c0.7,0,3.4,0.2,3.4,0.2s3.5-4.6-0.6-9.3c-4-4.7-7.7-16.4-7.7-16.4L209.3,505L209.3,505z"/>
				<path class="st9" d="M231.5,527.4c-0.7-3.4-1.8-6.6-3.2-9.8c-0.2-0.4-0.9-0.1-0.6,0.4c1.4,3.1,2.5,6.3,3.2,9.6
					C230.9,528.1,231.6,527.9,231.5,527.4L231.5,527.4L231.5,527.4z"/>
			</g>
		</g>
	</g>
	<path d="M236.3,390.6c0,0,44.2-14.9,65.4-54.6c17.5-32.8,9.8-54.9,9.8-54.9s12.6,0.5,18.8,6c0,0,9.1,32.7-18.1,73.4
		c-25.4,37.9-76.9,56.8-76.9,56.8S235.5,397.1,236.3,390.6L236.3,390.6z"/>
	<path class="st3" d="M305.4,328.4c7.2,1,13.6,4.6,18.4,10c0.5,0.5,1.3-0.3,0.8-0.8c-5-5.5-11.5-9.2-18.9-10.3
		C305,327.2,304.7,328.3,305.4,328.4L305.4,328.4z"/>
	<path class="st3" d="M290.5,354c7.2,1,13.6,4.6,18.4,10c0.5,0.5,1.3-0.3,0.8-0.8c-5-5.5-11.5-9.2-18.9-10.3
		C290.1,352.8,289.8,353.9,290.5,354L290.5,354L290.5,354z"/>
</g>
<g>
	<path class="st15" d="M188.4,721.7c-1,0-1.8-0.8-1.8-1.8v-12h-25.9v12c0,1-0.8,1.8-1.8,1.8s-1.8-0.8-1.8-1.8V706
		c0-1,0.8-1.8,1.8-1.8h29.6c1,0,1.8,0.8,1.8,1.8v13.9C190.2,720.9,189.4,721.7,188.4,721.7L188.4,721.7z"/>
	<path class="st16" d="M128.6,716.8h91.9c1.9,0,3.4,1.5,3.4,3.4v57.9c0,1.9-1.5,3.4-3.4,3.4h-91.9c-1.9,0-3.4-1.5-3.4-3.4v-57.9
		C125.2,718.3,126.7,716.8,128.6,716.8z"/>
	<rect x="146.8" y="716.8" width="6.9" height="64.6"/>
	<path class="st15" d="M155,742h-9.6c-0.4,0-0.8,0.3-0.8,0.8v12.9c0,0.4,0.3,0.8,0.8,0.8h9.6c0.4,0,0.8-0.3,0.8-0.8v-12.9
		C155.8,742.3,155.4,742,155,742z M149.7,750.2h4.6v4.8h-8.1v-11.4h8.1v5.3h-4.6c-0.2,0-0.4,0.1-0.5,0.2c-0.1,0.1-0.2,0.3-0.2,0.5
		C149,749.9,149.3,750.2,149.7,750.2z"/>
	<rect x="194.9" y="716.8" width="6.9" height="64.6"/>
	<path class="st15" d="M203.1,742h-9.6c-0.4,0-0.8,0.3-0.8,0.8v12.9c0,0.4,0.3,0.8,0.8,0.8h9.6c0.4,0,0.8-0.3,0.8-0.8v-12.9
		C203.9,742.3,203.5,742,203.1,742z M197.8,750.2h4.6v4.8h-8.1v-11.4h8.1v5.3h-4.6c-0.2,0-0.4,0.1-0.5,0.2c-0.1,0.1-0.2,0.3-0.2,0.5
		C197.1,749.9,197.4,750.2,197.8,750.2L197.8,750.2z"/>
	<path class="st17" d="M135.7,716.8c-0.4,8.3-6.3,12.4-10.5,14.3v-10.9c0-1.9,1.5-3.4,3.4-3.4L135.7,716.8L135.7,716.8z"/>
	<path class="st17" d="M135.7,781.4c-0.4-8.3-6.3-12.4-10.5-14.3V778c0,1.9,1.5,3.4,3.4,3.4L135.7,781.4L135.7,781.4z"/>
	<path class="st17" d="M213.3,716.8c0.4,8.3,6.3,12.4,10.5,14.3v-10.9c0-1.9-1.5-3.4-3.4-3.4L213.3,716.8L213.3,716.8z"/>
	<path class="st17" d="M213.3,781.4c0.4-8.3,6.3-12.4,10.5-14.3V778c0,1.9-1.5,3.4-3.4,3.4L213.3,781.4L213.3,781.4z"/>
</g>
</svg>
