<svg width="1054" height="1490" viewBox="0 0 1054 1490" fill="none" xmlns="http://www.w3.org/2000/svg">
<g clip-path="url(#clip0_3562_6295)">
<path d="M1085.51 -30.7383H-31.5071V1520.74H1085.51V-30.7383Z" fill="#2EC4B6"/>
<g opacity="0.1">
<mask id="mask0_3562_6295" style="mask-type:luminance" maskUnits="userSpaceOnUse" x="-9" y="-5" width="1072" height="1500">
<path d="M1062.57 -4.62891H-8.56787V1494.63H1062.57V-4.62891Z" fill="white"/>
</mask>
<g mask="url(#mask0_3562_6295)">
<path d="M528.327 2651.32C527.452 2651.32 526.743 2650.61 526.743 2649.74V-722.577C526.743 -723.451 527.452 -724.16 528.327 -724.16C529.202 -724.16 529.911 -723.451 529.911 -722.577V2649.74C529.911 2650.61 529.202 2651.32 528.327 2651.32Z" fill="white"/>
<path d="M900.587 2568.79C899.866 2568.79 899.214 2568.3 899.044 2567.57L154.522 -639.691C154.324 -640.543 154.855 -641.394 155.707 -641.591C156.56 -641.789 157.411 -641.259 157.609 -640.406L902.131 2566.85C902.329 2567.7 901.798 2568.56 900.946 2568.75C900.826 2568.78 900.705 2568.79 900.587 2568.79Z" fill="white"/>
<path d="M1236.41 2329.29C1235.84 2329.29 1235.28 2328.98 1235 2328.44L-181.162 -399.819C-181.565 -400.596 -181.262 -401.552 -180.485 -401.954C-179.708 -402.357 -178.752 -402.055 -178.349 -401.278L1237.82 2326.98C1238.22 2327.76 1237.92 2328.71 1237.14 2329.11C1236.91 2329.24 1236.66 2329.29 1236.41 2329.29Z" fill="white"/>
<path d="M1502.92 1956.26C1502.51 1956.26 1502.1 1956.1 1501.79 1955.79L-447.395 -26.4081C-448.008 -27.0316 -447.999 -28.0345 -447.375 -28.6476C-446.751 -29.2603 -445.748 -29.2517 -445.135 -28.6282L1504.05 1953.57C1504.66 1954.19 1504.65 1955.19 1504.03 1955.81C1503.72 1956.11 1503.32 1956.26 1502.92 1956.26Z" fill="white"/>
<path d="M1674.03 1486.22C1673.81 1486.22 1673.59 1486.17 1673.37 1486.07L-618.03 443.971C-618.827 443.609 -619.179 442.67 -618.817 441.874C-618.454 441.077 -617.515 440.725 -616.718 441.088L1674.68 1483.19C1675.48 1483.55 1675.83 1484.49 1675.47 1485.29C1675.2 1485.87 1674.63 1486.22 1674.03 1486.22Z" fill="white"/>
<path d="M1732.99 965.163H-676.335C-677.21 965.163 -677.919 964.454 -677.919 963.58C-677.919 962.705 -677.21 961.996 -676.335 961.996H1732.99C1733.86 961.996 1734.57 962.705 1734.57 963.58C1734.57 964.454 1733.86 965.163 1732.99 965.163Z" fill="white"/>
<path d="M-617.373 1486.21C-617.975 1486.21 -618.551 1485.87 -618.817 1485.29C-619.179 1484.49 -618.827 1483.55 -618.03 1483.19L1673.37 441.088C1674.17 440.726 1675.11 441.077 1675.47 441.873C1675.83 442.669 1675.48 443.609 1674.68 443.971L-616.718 1486.07C-616.931 1486.17 -617.154 1486.21 -617.373 1486.21Z" fill="white"/>
<path d="M-446.265 1956.26C-446.666 1956.26 -447.067 1956.11 -447.375 1955.81C-447.999 1955.19 -448.008 1954.19 -447.395 1953.57L1501.79 -28.6284C1502.4 -29.2519 1503.41 -29.2601 1504.03 -28.6478C1504.65 -28.0347 1504.66 -27.0318 1504.05 -26.4083L-445.135 1955.79C-445.445 1956.1 -445.855 1956.26 -446.265 1956.26Z" fill="white"/>
<path d="M-179.757 2329.29C-180.003 2329.29 -180.252 2329.24 -180.485 2329.11C-181.262 2328.71 -181.565 2327.76 -181.162 2326.98L1235 -401.278C1235.41 -402.055 1236.36 -402.357 1237.14 -401.954C1237.92 -401.552 1238.22 -400.596 1237.82 -399.819L-178.349 2328.44C-178.631 2328.98 -179.184 2329.29 -179.757 2329.29Z" fill="white"/>
<path d="M156.067 2568.79C155.948 2568.79 155.828 2568.78 155.707 2568.75C154.855 2568.56 154.324 2567.7 154.522 2566.85L899.044 -640.407C899.243 -641.259 900.094 -641.789 900.946 -641.592C901.798 -641.394 902.329 -640.543 902.131 -639.691L157.609 2567.57C157.439 2568.3 156.788 2568.79 156.067 2568.79Z" fill="white"/>
<path d="M343.232 2631.3C343.174 2631.3 343.115 2631.29 343.055 2631.29C342.186 2631.19 341.559 2630.41 341.655 2629.54L711.849 -702.727C711.945 -703.597 712.727 -704.223 713.598 -704.127C714.468 -704.03 715.095 -703.247 714.998 -702.378L344.805 2629.89C344.715 2630.7 344.029 2631.3 343.232 2631.3Z" fill="#CBF3F0"/>
<path d="M720.129 2629.81C719.334 2629.81 718.649 2629.22 718.556 2628.41L334.95 -700.884C334.85 -701.753 335.473 -702.538 336.342 -702.638C337.212 -702.738 337.997 -702.115 338.098 -701.246L721.704 2628.05C721.804 2628.92 721.181 2629.7 720.311 2629.8C720.25 2629.81 720.189 2629.81 720.129 2629.81Z" fill="#CBF3F0"/>
<path d="M1078.25 2465.38C1077.61 2465.38 1077 2464.98 1076.77 2464.34L-23.0889 -536.086C-23.3899 -536.908 -22.9679 -537.817 -22.1461 -538.118C-21.3247 -538.418 -20.4146 -537.997 -20.1136 -537.176L1079.74 2463.25C1080.04 2464.07 1079.62 2464.98 1078.8 2465.28C1078.62 2465.35 1078.44 2465.38 1078.25 2465.38Z" fill="#CBF3F0"/>
<path d="M1382.55 2154.09C1382.06 2154.09 1381.57 2153.86 1381.26 2153.43L-327.182 -224.422C-327.692 -225.133 -327.53 -226.122 -326.819 -226.632C-326.109 -227.142 -325.118 -226.98 -324.608 -226.27L1383.84 2151.58C1384.35 2152.3 1384.18 2153.28 1383.47 2153.79C1383.19 2154 1382.87 2154.09 1382.55 2154.09Z" fill="#CBF3F0"/>
<path d="M1603.22 1726.43C1602.91 1726.43 1602.59 1726.33 1602.31 1726.13L-547.488 203.611C-548.202 203.105 -548.37 202.117 -547.865 201.403C-547.359 200.689 -546.37 200.52 -545.656 201.026L1604.14 1723.55C1604.86 1724.05 1605.02 1725.04 1604.52 1725.76C1604.21 1726.19 1603.72 1726.43 1603.22 1726.43Z" fill="#CBF3F0"/>
<path d="M1718.69 1224.24C1718.57 1224.24 1718.46 1224.23 1718.35 1224.21L-662.367 706.05C-663.222 705.864 -663.764 705.021 -663.578 704.166C-663.392 703.311 -662.548 702.766 -661.693 702.956L1719.02 1221.11C1719.88 1221.3 1720.42 1222.14 1720.23 1223C1720.07 1223.74 1719.41 1224.24 1718.69 1224.24Z" fill="#CBF3F0"/>
<path d="M-660.969 1233.63C-661.693 1233.63 -662.347 1233.13 -662.513 1232.39C-662.706 1231.54 -662.17 1230.69 -661.317 1230.5L1717.27 693.57C1718.13 693.379 1718.97 693.913 1719.17 694.766C1719.36 695.619 1718.82 696.467 1717.97 696.66L-660.619 1233.59C-660.736 1233.62 -660.854 1233.63 -660.969 1233.63Z" fill="#CBF3F0"/>
<path d="M-543.488 1734.89C-543.981 1734.89 -544.466 1734.66 -544.776 1734.23C-545.286 1733.52 -545.124 1732.53 -544.414 1732.02L1599.22 192.564C1599.93 192.053 1600.92 192.215 1601.43 192.925C1601.94 193.636 1601.78 194.626 1601.07 195.136L-542.565 1734.6C-542.844 1734.8 -543.168 1734.89 -543.488 1734.89Z" fill="#CBF3F0"/>
<path d="M-321.095 2160.81C-321.412 2160.81 -321.732 2160.72 -322.011 2160.52C-322.724 2160.01 -322.892 2159.02 -322.385 2158.31L1376.46 -232.985C1376.96 -233.699 1377.95 -233.866 1378.66 -233.36C1379.38 -232.853 1379.55 -231.864 1379.04 -231.152L-319.802 2160.14C-320.111 2160.58 -320.599 2160.81 -321.095 2160.81Z" fill="#CBF3F0"/>
<path d="M-15.5513 2469.69C-15.73 2469.69 -15.9118 2469.66 -16.0896 2469.6C-16.9126 2469.3 -17.3386 2468.39 -17.0413 2467.57L1070.71 -541.485C1071.01 -542.308 1071.92 -542.734 1072.74 -542.437C1073.57 -542.139 1073.99 -541.231 1073.69 -540.409L-14.0608 2468.65C-14.2938 2469.29 -14.9026 2469.69 -15.5513 2469.69Z" fill="#CBF3F0"/>
</g>
</g>
<path d="M854.053 267.454C849.837 266.628 844.946 266.21 839.516 266.21C835.745 266.21 830.087 266.42 824.543 267.421C820.235 268.199 816.482 269.445 813.235 271.04C810.148 269.483 806.592 268.251 802.526 267.454C800.051 266.969 797.318 266.642 794.404 266.441C795.8 260.31 796.535 253.786 796.535 246.933V157.543C796.535 145.483 789.138 129.95 768.293 125.868C764.077 125.042 759.187 124.623 753.756 124.623C749.985 124.623 744.327 124.834 738.782 125.835C734.474 126.613 730.722 127.859 727.476 129.453C724.388 127.897 720.833 126.664 716.766 125.868C712.551 125.042 707.659 124.623 702.229 124.623C698.459 124.623 692.8 124.834 687.256 125.835C684.116 126.402 681.304 127.243 678.735 128.261C671.338 124.323 662.988 122.204 654.11 122.204C649.214 122.204 642.569 122.982 635.418 126.052C635.135 125.99 634.85 125.932 634.561 125.875C630.349 125.045 625.464 124.623 620.044 124.623C616.283 124.623 610.636 124.834 605.1 125.841C601.941 126.415 599.116 127.267 596.536 128.298C589.123 124.336 580.748 122.204 571.842 122.204C566.946 122.204 560.3 122.983 553.149 126.052C552.867 125.99 552.582 125.932 552.294 125.875C548.081 125.045 543.197 124.623 537.777 124.623C534.015 124.623 528.369 124.834 522.833 125.841C519.893 126.376 517.213 127.128 514.777 128.061C512.486 127.156 509.974 126.416 507.229 125.875C503.017 125.045 498.133 124.623 492.713 124.623C489.565 124.623 485.098 124.772 480.48 125.41C474.663 123.302 468.427 122.204 461.977 122.204C454.594 122.204 447.577 123.654 441.088 126.348V109.357C441.088 96.2836 432.302 81.4371 412.673 77.7384C408.548 76.9607 403.754 76.5666 398.423 76.5666C394.717 76.5666 389.155 76.7654 383.708 77.7082C382.572 77.9044 381.474 78.1342 380.414 78.3935C375.635 76.7965 370.402 75.9375 364.861 75.9375C350.954 75.9375 338.635 80.4571 328.887 88.9295C307.683 90.9983 289.171 100.649 276.098 116.625C264.187 131.179 257.357 150.612 257.357 169.942C257.357 190.096 264.687 206.956 276.625 217.333C273.281 217.001 269.855 216.825 266.351 216.825C229.687 216.825 207.445 231.719 195.243 244.213C180.285 259.528 171.706 280.245 171.706 301.05C171.706 329.811 187.875 351.552 211.259 355.985V377.346C211.259 384.945 213.965 392.051 218.697 397.567C228.948 411.368 248.332 425.08 274.56 425.08C298.359 425.08 316.776 417.368 329.799 405.922C337.268 410.383 345.874 412.859 355.257 412.859C362.23 412.859 368.982 411.63 375.31 409.267C379.307 409.968 383.955 410.324 389.133 410.324C390.281 410.324 391.433 410.307 392.571 410.271C393.314 410.3 394.062 410.314 394.81 410.314C413.16 410.314 424.548 402.094 429.795 391.779C439.468 404.951 453.768 412.859 470.534 412.859C477.57 412.859 484.389 411.603 490.774 409.192C494.685 409.908 499.115 410.309 504.126 410.309C507.841 410.309 513.414 410.112 518.87 409.174C525.084 408.106 530.153 406.064 534.223 403.408C542.574 409.585 552.768 412.859 564.155 412.859C572.93 412.859 581.262 410.955 588.825 407.348C596.029 410.941 604.053 412.859 612.538 412.859C618.413 412.859 626.544 411.706 635.038 406.945C642.135 410.784 650.176 412.859 658.826 412.859C667.459 412.859 675.673 411.004 683.144 407.491C690.261 410.991 698.166 412.859 706.508 412.859C712.413 412.859 720.592 411.697 729.135 406.89C735.084 410.133 741.696 412.127 748.775 412.693C749.837 419.986 752.293 427.409 756.545 434.39C762.847 444.736 778.343 462.094 811.308 462.094C853.103 462.094 882.294 431.839 882.294 388.52V299.129C882.294 287.069 874.898 271.536 854.053 267.454Z" fill="#CBF3F0"/>
<path d="M306.697 198.398C319.796 198.398 322.766 187.224 318.574 187.224C303.378 187.224 306.347 143.752 337.438 133.8C334.993 144.101 334.294 156.671 334.294 170.114C334.294 197.001 334.469 250.774 334.469 250.774C334.469 254.616 361.018 254.092 361.018 250.774V188.272H384.424V218.127C384.424 242.569 393.855 253.394 408.353 253.394C421.386 253.394 430.268 242.917 435.478 228.683C439.963 236.231 446.825 241.173 456.213 241.173C467.042 241.173 474.553 230.522 479.793 217.078C482.588 231.395 490.971 241.173 502.674 241.173C511.059 241.173 518.284 237.571 523.809 231.266V269.281C523.809 273.122 550.359 272.598 550.359 269.281V232.443C553.851 237.506 558.393 241.173 564.855 241.173C600.836 241.173 611.84 152.306 571.842 152.306C562.41 152.306 555.423 159.813 550.359 170.289V157.544C550.359 153.528 523.809 154.053 523.809 157.544V193.697C523.806 204.343 521.185 215.158 512.979 215.158C506.866 215.158 505.294 208.349 505.294 201.017V157.544C505.294 153.528 478.745 154.053 478.745 157.544V159.289C474.902 155.274 469.487 152.306 461.977 152.306C440.725 152.306 429.187 177.392 429.012 200.907C427.709 212.378 423.733 227.554 417.261 227.554C412.545 227.554 410.973 220.571 410.973 213.238V109.357C410.973 105.515 384.424 106.039 384.424 109.357V175.177H361.018V130.657C382.152 125.768 382.851 106.039 364.86 106.039C354.381 106.039 347.569 110.754 342.853 118.785C341.281 118.61 339.534 118.61 337.612 118.61C278.925 118.61 276.13 198.398 306.697 198.398ZM565.379 167.845C577.606 167.845 573.065 214.46 560.663 214.46C556.472 214.46 553.153 212.191 550.533 209.747C554.375 190.541 560.139 167.845 565.379 167.845ZM467.566 167.845C472.282 167.845 475.95 173.432 478.57 179.193C475.251 195.255 469.836 214.46 462.675 214.46C450.623 214.46 454.989 167.845 467.566 167.845Z" fill="#FF9F1C"/>
<path d="M632.626 269.28V232.442C636.119 237.504 640.661 241.171 647.123 241.171C683.105 241.171 694.109 152.305 654.11 152.305C644.678 152.305 637.692 159.812 632.626 170.287V157.542C632.626 153.527 606.077 154.051 606.077 157.542V269.28C606.077 273.121 632.626 272.597 632.626 269.28ZM647.647 167.843C659.874 167.843 655.333 214.459 642.932 214.459C638.74 214.459 635.421 212.189 632.801 209.745C636.643 190.54 642.408 167.843 647.647 167.843Z" fill="#FF9F1C"/>
<path d="M715.418 241.17C727.12 241.17 734.806 234.885 739.696 225.806V239.074C739.696 256.01 739.521 272.945 726.247 272.945C715.418 272.945 713.147 259.502 717.339 250.423C718.911 246.931 696.903 246.582 694.981 250.597C689.567 261.073 690.441 290.405 725.548 290.405C749.652 290.405 766.42 274.168 766.42 246.931V157.541C766.42 153.525 739.696 154.05 739.696 157.541C739.696 157.541 736.902 214.457 720.658 214.457C716.291 214.457 714.894 210.268 714.894 194.554V157.541C714.894 153.525 688.169 154.05 688.169 157.541V196.649C688.169 223.187 695.505 241.17 715.418 241.17Z" fill="#FF9F1C"/>
<path d="M291.154 313.794C327.31 297.034 318.227 246.926 266.351 246.926C192.117 246.926 189.672 326.714 220.239 326.714C233.339 326.714 236.308 315.54 231.941 315.54C214.999 315.54 219.366 260.021 261.985 260.021C302.857 260.021 294.123 304.541 268.098 308.906V280.622C268.098 276.781 241.374 277.305 241.374 280.622V377.345C241.374 377.694 241.548 378.043 241.898 378.218C244.168 381.709 254.299 394.979 274.56 394.979C331.676 394.979 340.236 331.254 291.154 313.794ZM276.831 371.758C271.591 371.758 269.146 369.314 268.098 367.044V319.207C311.415 322 301.284 371.758 276.831 371.758Z" fill="#FF9F1C"/>
<path d="M332.376 276.607C332.376 283.765 338.14 289.526 345.127 289.526C352.288 289.526 358.052 283.765 358.052 276.607C358.052 269.448 352.288 263.688 345.127 263.688C338.14 263.688 332.376 269.448 332.376 276.607Z" fill="#FF9F1C"/>
<path d="M413.595 293.891C408.18 293.891 403.813 295.113 400.495 297.208C393.682 295.463 376.39 296.335 376.39 299.128V335.365C376.375 345.984 373.747 356.743 365.563 356.743C359.449 356.743 357.878 349.934 357.878 342.602V299.128C357.878 295.113 331.153 295.637 331.153 299.128V347.315C331.153 367.742 340.586 382.757 355.257 382.757C363.642 382.757 370.866 379.156 376.39 372.851V377.519C376.39 379.789 385.299 380.487 392.809 380.138C397.351 380.487 403.115 379.614 403.115 377.519V341.38C403.115 324.443 406.957 309.429 415.516 309.429C421.28 309.429 423.027 320.778 420.232 329.333C419.009 332.999 431.585 333.872 433.507 329.857C438.921 319.381 434.904 293.891 413.595 293.891Z" fill="#FF9F1C"/>
<path d="M825.456 299.128C825.456 299.128 822.661 356.044 806.417 356.044C802.05 356.044 800.653 351.855 800.653 336.141V299.128C800.653 295.112 773.929 295.637 773.929 299.128V338.236C773.929 338.711 773.937 339.176 773.941 339.645C773.271 348.69 770.354 356.742 763.274 356.742C757.161 356.742 755.589 349.934 755.589 342.601V299.128C755.589 295.112 729.04 295.637 729.04 299.128V300.874C725.197 296.859 719.783 293.89 712.271 293.89C690.646 293.89 679.086 319.866 679.316 343.731C678.122 350.978 675.117 356.742 669.13 356.742C663.017 356.742 661.445 349.934 661.445 342.601V265.781C661.445 261.941 634.721 262.465 634.721 265.781V300.874C630.878 296.859 625.639 293.89 618.128 293.89C599.527 293.89 588.372 313.109 585.778 333.672C585.47 334.137 585.29 334.669 585.29 335.268C585.29 345.918 582.67 356.742 574.461 356.742C568.347 356.742 566.776 351.506 566.776 322.697C566.776 301.746 557.169 293.89 543.719 293.89C531.143 293.89 523.283 302.096 518.218 313.095V265.781C518.218 261.941 491.494 262.465 491.494 265.781V339.792C490.803 348.777 487.881 356.742 480.84 356.742C474.726 356.742 473.154 349.934 473.154 342.601V309.429H480.316C482.411 309.429 481.887 296.335 480.316 296.335H473.154V265.781C473.154 261.941 446.605 262.465 446.605 265.781V296.335H439.967C437.871 296.335 438.046 309.429 439.967 309.429H446.605V347.314C446.605 367.742 455.863 382.757 470.534 382.757C478.832 382.757 485.992 379.228 491.494 373.044V377.519C491.494 381.359 518.218 380.836 518.218 377.519C518.218 377.519 522.934 309.429 535.684 309.429C541.099 309.429 540.051 318.508 540.051 337.013C540.051 371.583 549.484 382.757 564.155 382.757C575.04 382.757 583.973 376.697 589.761 366.515C594.115 376.135 601.626 382.757 612.538 382.757C623.193 382.757 630.703 372.281 635.943 358.837C638.739 373.154 647.122 382.757 658.826 382.757C669.537 382.757 678.305 376.884 684.052 366.992C688.411 376.354 695.822 382.757 706.507 382.757C717.337 382.757 724.848 372.107 730.087 358.663C732.882 372.979 741.266 382.757 752.97 382.757C763.731 382.757 772.582 376.83 778.374 366.856C782.516 376.862 789.785 382.757 801.177 382.757C812.88 382.757 820.565 376.472 825.456 367.393V380.661C825.456 397.597 825.282 414.531 812.007 414.531C801.177 414.531 798.907 401.088 803.099 392.009C804.671 388.518 782.663 388.169 780.742 392.184C775.326 402.659 776.2 431.991 811.308 431.991C835.412 431.991 852.18 415.754 852.18 388.518V299.128C852.18 295.112 825.456 295.637 825.456 299.128ZM634.721 320.952C631.402 337.013 625.988 356.044 619.001 356.044C606.774 356.044 611.316 309.429 623.717 309.429C628.433 309.429 632.101 315.016 634.721 320.603V320.952ZM712.971 356.044C700.918 356.044 705.285 309.429 717.861 309.429C722.577 309.429 726.245 315.016 728.865 320.777C725.547 336.839 720.132 356.044 712.971 356.044Z" fill="#FF9F1C"/>
<g opacity="0.95">
<path d="M145.679 720.113L55.2973 776.274C-15.9118 756.787 -42.9238 705.297 -42.9238 705.297L-23.5091 600.629L91.202 634.117L145.679 720.113Z" fill="#FD9F1F"/>
<path d="M181.042 711.521C202.461 677.844 192.128 616.489 123.252 568.629C54.375 520.769 -48.9758 542.849 -37.0294 593.559C-29.5159 625.451 5.01916 637.138 29.6223 641.425C28.3158 647.654 30.6571 653.678 35.2319 659.104C41.6141 666.115 51.6461 671.202 61.106 671.227C62.0819 671.257 63.4291 671.157 64.9253 670.934C64.428 674.906 64.839 679.021 65.9497 681.731C71.5855 696.272 89.0532 706.038 105.094 705.29C121.408 740.377 162.272 741.033 181.042 711.521Z" fill="#FEC270"/>
<path d="M5.2459 588.728C-4.23243 589.887 -12.3598 587.205 -12.9069 582.734C-13.4546 578.265 -6.21374 573.703 3.2649 572.543C12.7424 571.384 20.8699 574.067 21.4176 578.537C21.965 583.006 14.7236 587.569 5.2459 588.728Z" fill="#FDFDFE"/>
<path d="M93.9653 604.771C87.8222 597.463 85.6382 589.191 89.0885 586.294C92.5374 583.398 100.313 586.975 106.456 594.284C112.596 601.592 114.781 609.865 111.332 612.76C107.882 615.657 100.106 612.08 93.9653 604.771Z" fill="#E2F6F4"/>
<path d="M90.9442 667.207C83.8996 660.762 80.6561 652.845 83.6987 649.522C86.7395 646.202 94.9153 648.737 101.958 655.181C109 661.627 112.246 669.544 109.203 672.865C106.163 676.187 97.9853 673.653 90.9442 667.207Z" fill="#E2F6F4"/>
<path d="M131.673 697.502C126.74 697.371 122.685 699.483 122.612 702.218C122.537 704.955 126.477 707.279 131.409 707.411C136.339 707.541 140.398 705.43 140.469 702.694C140.542 699.958 136.602 697.633 131.673 697.502Z" fill="#FDFDFE"/>
<path d="M49.3163 562.071C46.401 558.091 42.2503 556.177 40.0402 557.792C37.8289 559.408 38.3999 563.946 41.3132 567.925C44.2257 571.904 48.3784 573.821 50.5876 572.204C52.7983 570.589 52.2274 566.05 49.3163 562.071Z" fill="#E2F6F4"/>
<path d="M6.49691 609.498C1.92954 607.632 -2.6095 608.171 -3.64786 610.703C-4.68669 613.236 -1.82446 616.805 2.74106 618.674C7.30574 620.54 11.8501 620.002 12.8843 617.468C13.9225 614.935 11.0611 611.365 6.49691 609.498Z" fill="#E2F6F4"/>
<path d="M57.9046 648.764C53.3378 646.897 48.7989 647.436 47.7606 649.97C46.7209 652.502 49.5846 656.071 54.1486 657.94C58.7148 659.806 63.2577 659.268 64.2919 656.735C65.3308 654.202 62.4687 650.631 57.9046 648.764Z" fill="#FDFDFE"/>
<path d="M74.989 565.088C70.422 563.221 65.8834 563.761 64.8451 566.294C63.8053 568.827 66.6691 572.395 71.2331 574.264C75.7991 576.13 80.3421 575.592 81.3762 573.059C82.4153 570.526 79.5531 566.956 74.989 565.088Z" fill="#FDFDFE"/>
<path d="M168.546 698.295C166.107 694.008 162.204 691.629 159.822 692.98C157.438 694.33 157.486 698.904 159.921 703.192C162.358 707.479 166.264 709.861 168.643 708.507C171.025 707.156 170.979 702.582 168.546 698.295Z" fill="#FDFDFE"/>
<path d="M160.956 664.271C155.967 656.131 155.035 647.628 158.877 645.276C162.717 642.922 169.874 647.614 174.864 655.752C179.853 663.89 180.785 672.395 176.944 674.748C173.104 677.1 165.945 672.409 160.956 664.271Z" fill="#E2F6F4"/>
<path d="M160.896 628.809C162.077 621.648 154.308 614.405 143.535 612.627C132.762 610.85 123.076 615.215 121.893 622.377C120.709 629.536 128.482 636.781 139.255 638.558C150.024 640.334 159.715 635.97 160.896 628.809Z" fill="#FDFDFE"/>
<path d="M76.79 616.684C77.9701 609.522 70.2009 602.28 59.4289 600.502C48.6559 598.725 38.9694 603.09 37.7871 610.252C36.6035 617.411 44.3763 624.656 55.149 626.433C65.9177 628.209 75.6083 623.844 76.79 616.684Z" fill="#FDFDFE"/>
<path d="M131.363 595.988C137.375 596.82 143.239 595.544 147.846 591.892C158.311 583.594 158.326 566.198 147.88 553.035C137.435 539.873 120.483 535.929 110.018 544.227C102.383 550.282 100.336 561.179 103.831 571.741C111.393 575.327 126.57 583.815 131.363 595.988Z" fill="#CBF3F0"/>
<path d="M165.562 556.168C161.338 552.333 157.079 550.589 152.902 550.982C146.531 551.583 142.374 557.013 142.332 557.07L140.406 555.629C140.595 555.371 145.21 549.308 152.649 548.592C157.537 548.122 162.425 550.073 167.178 554.389L165.562 556.168Z" fill="#CBF3F0"/>
<path d="M151.95 579.914C151.122 584.182 148.426 587.251 145.929 586.765C143.434 586.28 142.081 582.431 142.909 578.163C143.737 573.896 146.433 570.827 148.93 571.312C151.424 571.797 152.778 575.648 151.95 579.914Z" fill="#CBF3F0"/>
<path d="M97.7397 571.891L98.2135 569.535C98.5184 569.596 128.873 575.994 135.005 602.734L132.66 603.269C126.883 578.037 98.0312 571.951 97.7397 571.891Z" fill="#CBF3F0"/>
</g>
<g opacity="0.95">
<path d="M1143.31 1461.62C1143.31 1496.72 1072.46 1525.16 985.064 1525.16C897.671 1525.16 826.828 1496.72 826.828 1461.62C826.828 1426.53 897.671 1398.08 985.064 1398.08C1072.46 1398.08 1143.31 1426.53 1143.31 1461.62Z" fill="#D0F1ED"/>
<path d="M1040.03 1313.36L924.626 1323.13L873.771 1461.63C899.198 1497.96 929.027 1468.3 929.027 1468.3C919.246 1543.09 982.328 1480.85 982.328 1480.85C1026.83 1541.29 1039.05 1461.63 1039.05 1461.63C1073.28 1496 1103.11 1454.13 1103.11 1454.13L1040.03 1313.36Z" fill="#FDA838"/>
<path d="M923.973 1318.9L893.331 1398.08C893.331 1398.08 908.006 1436.86 934.083 1358.49C934.083 1358.49 944.84 1392.22 956.902 1392.22C968.961 1392.22 973.201 1342.68 973.201 1342.68C973.201 1342.68 996.349 1414.98 1011.34 1407.67C1026.34 1400.36 1013.62 1349.2 1013.62 1349.2C1013.62 1349.2 1042.96 1418.93 1073.61 1380.48L1040.35 1310.1L923.973 1318.9Z" fill="#CBF3F0"/>
<path d="M941.929 1393.95L929.242 1461.08L935.037 1462.17L947.724 1395.04L941.929 1393.95Z" fill="#FFBF69"/>
<path d="M980.407 1376.9H974.508V1472.7H980.407V1376.9Z" fill="#FFBF69"/>
<path d="M1027.11 1380.86L1021.33 1382.06L1036.49 1455.06L1042.27 1453.86L1027.11 1380.86Z" fill="#FFBF69"/>
<path d="M965.975 1283.37L971.222 1291.66C971.222 1291.66 947.844 1293.1 948.647 1296.71C949.459 1300.32 954.745 1301.23 954.745 1301.23C954.745 1301.23 934.238 1304.54 934.034 1312.31C933.823 1320.07 959.085 1332.48 995.424 1328.01C1031.75 1323.55 1041.3 1301.1 1009.55 1304.31C1009.55 1304.31 1027.64 1287.43 983.509 1292.91C983.509 1292.91 983.313 1276.16 965.975 1283.37Z" fill="#FFBF69"/>
<path d="M978.059 1320.72C974.854 1320.72 971.804 1320.28 968.921 1319.4C957.57 1315.95 953.189 1306.91 953.008 1306.52L958.342 1304.01L955.675 1305.26L958.336 1303.99C958.477 1304.28 961.902 1311.16 970.755 1313.8C979.931 1316.53 991.461 1313.8 1005.04 1305.68L1008.06 1310.74C996.962 1317.38 986.91 1320.72 978.059 1320.72Z" fill="#E9F9F8"/>
<path d="M980.862 1307.04C979.971 1307.04 979.091 1306.97 978.218 1306.83C970.099 1305.5 966.052 1298.4 965.882 1298.1L971.023 1295.21C971.052 1295.26 973.929 1300.18 979.226 1301.02C983.641 1301.71 988.69 1299.52 994.246 1294.48L998.209 1298.85C992.201 1304.29 986.378 1307.04 980.862 1307.04Z" fill="#E9F9F8"/>
</g>
<g opacity="0.95">
<path d="M105.622 1303.13L-12.7062 1320.07L-44.1438 1455.33L48.121 1524.96L155.308 1494.73L192.242 1362.38L105.622 1303.13Z" fill="#FFBF69"/>
<path d="M66.8658 1434.49L-21.6346 1364.91L-27.5686 1390.58L60.1245 1456.12" fill="#FF9F1C"/>
<path d="M48.5005 1441.82C47.9004 1441.65 47.3203 1441.41 46.7604 1441.11C41.0943 1437.98 39.3859 1428.38 38.8986 1424.14C34.3948 1426.04 30.5745 1425.99 27.5213 1423.99C22.9743 1421.01 21.4838 1414.5 21.0014 1411C17.37 1413.05 13.9407 1413.42 10.7587 1412.12C3.77332 1409.23 0.242656 1398.92 -0.955574 1394.61C-5.17856 1397.2 -8.80324 1397.66 -11.7607 1395.95C-18.8642 1391.85 -18.8985 1376.61 -18.8954 1375.96L-16.0862 1375.75C-16.0863 1375.89 -16.052 1389.83 -10.3372 1393.12C-7.95421 1394.51 -4.72706 1393.76 -0.755892 1390.93L0.87042 1389.77L1.30122 1391.77C1.33172 1391.92 4.46123 1406.08 11.8935 1409.14C14.7549 1410.31 17.9837 1409.66 21.4949 1407.17L23.4844 1405.76L23.5856 1408.31C23.5897 1408.4 24.023 1417.94 29.0707 1421.24C31.7039 1422.96 35.2532 1422.71 39.6165 1420.47L41.4141 1419.55L41.5245 1421.7C41.5312 1421.83 42.2785 1435.02 48.1437 1438.25C50.5591 1439.59 53.6457 1439 57.328 1436.51L58.645 1439.19C54.8357 1441.76 51.4327 1442.64 48.5005 1441.82Z" fill="white"/>
<path d="M65.2079 1435.12L174.433 1421.18L167.95 1444.41L59.7764 1457.11" fill="#FF9F1C"/>
<path d="M76.8953 1451.71C77.4954 1451.88 78.1149 1451.98 78.7543 1452C85.2224 1452.26 91.6522 1444.93 94.2673 1441.55C97.1359 1445.51 100.429 1447.44 104.077 1447.31C109.511 1447.12 114.157 1442.32 116.385 1439.57C118.43 1443.2 121.171 1445.3 124.569 1445.82C132.039 1446.97 140.4 1439.98 143.657 1436.91C145.929 1441.31 148.791 1443.58 152.207 1443.65C160.408 1443.81 168.332 1430.79 168.664 1430.23L166.372 1428.59C166.299 1428.71 159.049 1440.63 152.455 1440.49C149.7 1440.44 147.324 1438.13 145.394 1433.65L144.603 1431.82L143.196 1433.31C143.096 1433.42 133.082 1443.92 125.137 1442.69C122.084 1442.21 119.66 1439.98 117.945 1436.04L116.973 1433.8L115.566 1435.93C115.513 1436.01 110.204 1443.94 104.176 1444.16C101.031 1444.27 98.1276 1442.21 95.5525 1438.04L94.4909 1436.32L93.2841 1438.1C93.2096 1438.21 85.7403 1449.11 79.0478 1448.84C76.2886 1448.74 73.9549 1446.63 72.0918 1442.6L69.5769 1444.21C71.507 1448.38 73.9631 1450.9 76.8953 1451.71Z" fill="white"/>
<path d="M108.831 1346.16C114.906 1343.58 119.664 1339.12 121.92 1333.14C127.046 1319.55 117.336 1303.31 100.231 1296.86C83.1266 1290.42 65.1054 1296.2 59.9795 1309.79C56.2394 1319.7 60.4215 1331.02 69.5864 1338.92C78.6477 1338.04 97.5534 1337.48 108.831 1346.16Z" fill="#2EC4B6"/>
<path d="M95.2006 1306.51C96.884 1300.54 96.5146 1295.55 94.104 1291.67C90.427 1285.77 83.1219 1284.36 83.0466 1284.35L83.5147 1281.77C83.857 1281.83 92.0009 1283.38 96.3089 1290.27C99.1387 1294.8 99.612 1300.5 97.7174 1307.22L95.2006 1306.51Z" fill="#231F20"/>
<path d="M119.055 1319.67C120.667 1324.11 119.868 1328.48 117.267 1329.42C114.668 1330.36 111.253 1327.53 109.64 1323.08C108.027 1318.64 108.826 1314.27 111.428 1313.33C114.027 1312.39 117.442 1315.22 119.055 1319.67Z" fill="white"/>
<path d="M63.9884 1342.46L63.1133 1340C63.432 1339.89 95.3316 1328.9 116.001 1350.43L114.112 1352.24C94.6162 1331.92 64.2938 1342.36 63.9884 1342.46Z" fill="#CBF3F0"/>
<path d="M81.7003 1376.37L-7.76172 1326.52L-6.51654 1324.29L82.2363 1373.74L187.055 1362.57L187.326 1365.11L81.7003 1376.37Z" fill="white"/>
<path d="M80.4547 1376.08L46.9878 1520.41L49.479 1520.99L82.9459 1376.66L80.4547 1376.08Z" fill="white"/>
</g>
<path d="M861.393 1182.7L232.719 1231.97C205.859 1234.08 182.198 1211.74 179.872 1182.08L905.815 1125.18C908.142 1154.85 888.253 1180.6 861.393 1182.7Z" fill="#FFF5DF"/>
<path d="M819.489 858.285L223.564 904.988L244.902 1177.02L840.827 1130.32L819.489 858.285Z" fill="#35C5B8"/>
<path d="M827.586 961.48L231.658 1008.18L242.32 1144.1L838.248 1097.4L827.586 961.48Z" fill="#FFF5DF"/>
<path d="M829.293 983.24L233.365 1029.94L240.607 1122.26L836.535 1075.56L829.293 983.24Z" fill="#FDAB3F"/>
<path d="M819.492 858.316C819.492 858.316 799.271 942.871 779.296 939.355C759.329 935.839 739.996 894.801 739.996 894.801C739.996 894.801 740.209 920.367 727.245 920.396C720.251 920.373 710.002 911.968 702.032 904.227C695.229 897.615 690.1 891.495 690.1 891.495C690.1 891.495 685.987 906.348 678.429 921.574C670.557 937.422 658.957 953.68 644.377 954.031C640.857 954.112 637.416 953.447 634.073 952.216C610.251 943.434 591.824 905.836 591.824 905.836C591.824 905.836 591.88 934.86 572.049 938.627C552.139 942.316 534.588 917.538 534.588 917.538C534.588 917.538 526.814 949.96 504.038 956.333C481.263 962.712 457.04 911.318 457.04 911.318C457.04 911.318 445.157 958.903 433.9 946.91C422.655 935 415.881 917.087 415.881 917.087C415.881 917.087 419.802 955.231 402.203 959.155C384.61 963.071 368.954 923.303 368.954 923.303C368.954 923.303 370.008 971.432 343.389 974.504C316.783 977.654 303.114 928.462 303.114 928.462C303.114 928.462 300.364 973.775 282.94 968.008C265.439 962.248 260.787 936.699 260.787 936.699C260.787 936.699 254.302 980.007 243.075 979.329C231.848 978.652 223.566 905.019 223.566 905.019C223.566 905.019 223.591 905.005 223.648 904.98C228.647 902.583 458.82 793.228 771.571 848.644C787.307 851.428 803.251 854.637 819.386 858.292C819.419 858.302 819.458 858.305 819.492 858.316Z" fill="#F0DBD9"/>
<path d="M819.492 858.316C795.646 861.229 772.526 863.97 750.126 866.529C397.339 906.918 223.566 905.019 223.566 905.019C223.566 905.019 223.591 905.005 223.648 904.98C228.647 902.583 458.82 793.228 771.571 848.644C787.307 851.428 803.251 854.637 819.386 858.292C819.419 858.302 819.458 858.305 819.492 858.316Z" fill="#EFF0EC"/>
<path d="M336.161 718.884L306.322 721.223L318.128 871.727L347.967 869.388L336.161 718.884Z" fill="#FDAB3F"/>
<path d="M338.27 745.774L308.431 748.113L309.953 767.507L339.791 765.168L338.27 745.774Z" fill="#F9EED0"/>
<path d="M341.485 786.763L311.646 789.102L313.168 808.494L343.006 806.155L341.485 786.763Z" fill="#F9EED0"/>
<path d="M344.694 827.666L314.855 830.004L316.383 849.478L346.221 847.14L344.694 827.666Z" fill="#F9EED0"/>
<path d="M336.888 701.751C337.622 711.123 330.618 719.316 321.241 720.051C311.865 720.786 303.668 713.784 302.934 704.413C302.198 695.04 317.3 669.805 317.3 669.805C317.3 669.805 336.152 692.379 336.888 701.751Z" fill="#FD9F1E"/>
<path d="M328.472 704.911C328.834 709.53 325.382 713.567 320.761 713.929C316.14 714.291 312.101 710.841 311.739 706.223C311.377 701.604 318.819 689.168 318.819 689.168C318.819 689.168 328.11 700.292 328.472 704.911Z" fill="#FD9F1E"/>
<path d="M460.169 705.298L430.331 707.637L442.137 858.141L471.974 855.803L460.169 705.298Z" fill="#35C5B8"/>
<path d="M462.278 732.186L432.44 734.523L433.961 753.917L463.799 751.579L462.278 732.186Z" fill="#F9EED0"/>
<path d="M465.493 773.174L435.656 775.512L437.176 794.905L467.014 792.567L465.493 773.174Z" fill="#F9EED0"/>
<path d="M468.702 814.08L438.864 816.418L440.391 835.892L470.229 833.554L468.702 814.08Z" fill="#F9EED0"/>
<path d="M460.896 688.166C461.631 697.537 454.626 705.731 445.251 706.465C435.874 707.2 427.677 700.199 426.942 690.827C426.206 681.455 441.309 656.219 441.309 656.219C441.309 656.219 460.161 678.794 460.896 688.166Z" fill="#FD9F1E"/>
<path d="M452.48 691.325C452.842 695.944 449.391 699.982 444.77 700.344C440.15 700.706 436.11 697.256 435.747 692.637C435.385 688.019 442.827 675.582 442.827 675.582C442.827 675.582 452.118 686.707 452.48 691.325Z" fill="#FD9F1E"/>
<path d="M584.479 695.556L554.641 697.895L566.446 848.399L596.285 846.06L584.479 695.556Z" fill="#FC9F20"/>
<path d="M586.588 722.446L556.75 724.785L558.271 744.179L588.11 741.84L586.588 722.446Z" fill="#F9EED0"/>
<path d="M589.803 763.435L559.965 765.773L561.486 785.166L591.325 782.828L589.803 763.435Z" fill="#F9EED0"/>
<path d="M593.012 804.338L563.174 806.676L564.701 826.15L594.54 823.812L593.012 804.338Z" fill="#F9EED0"/>
<path d="M585.206 678.423C585.94 687.795 578.936 695.988 569.559 696.723C560.184 697.458 551.986 690.456 551.252 681.084C550.517 671.712 565.618 646.477 565.618 646.477C565.618 646.477 584.471 669.052 585.206 678.423Z" fill="#FD9F1E"/>
<path d="M576.79 681.583C577.152 686.202 573.7 690.24 569.08 690.602C564.459 690.964 560.42 687.513 560.058 682.895C559.696 678.276 567.137 665.84 567.137 665.84C567.137 665.84 576.428 676.964 576.79 681.583Z" fill="#FD9F1E"/>
<path d="M709.091 689.658L679.252 691.996L691.058 842.5L720.897 840.162L709.091 689.658Z" fill="#EFF0EC"/>
<path d="M711.2 716.548L681.361 718.887L682.883 738.28L712.721 735.942L711.2 716.548Z" fill="#FDAB3F"/>
<path d="M714.416 757.537L684.576 759.875L686.097 779.268L715.936 776.93L714.416 757.537Z" fill="#FDAB3F"/>
<path d="M717.624 798.443L687.785 800.781L689.313 820.256L719.151 817.918L717.624 798.443Z" fill="#FDAB3F"/>
<path d="M709.818 672.525C710.552 681.897 703.547 690.09 694.171 690.825C684.795 691.56 676.598 684.557 675.864 675.186C675.128 665.813 690.23 640.578 690.23 640.578C690.23 640.578 709.082 663.152 709.818 672.525Z" fill="#FD9F1E"/>
<path d="M701.402 675.685C701.764 680.304 698.312 684.341 693.691 684.703C689.07 685.065 685.031 681.614 684.669 676.996C684.307 672.377 691.749 659.941 691.749 659.941C691.749 659.941 701.04 671.067 701.402 675.685Z" fill="#FD9F1E"/>
<g style="mix-blend-mode:soft-light">
<path d="M819.489 858.284L840.827 1130.31L244.902 1177.02L238.404 1094.17C378.101 1097.86 523.938 1025.12 634.073 952.217C649.609 941.94 664.436 931.653 678.429 921.575C686.584 915.704 694.46 909.909 702.032 904.227C719.85 890.844 735.983 878.093 750.126 866.53C751.401 865.482 752.664 864.449 753.908 863.424C760.233 858.216 766.129 853.27 771.571 848.645C787.307 851.428 803.251 854.637 819.385 858.292L819.489 858.284Z" fill="#100905"/>
</g>
<g opacity="0.95">
<path d="M1106.75 703.77L969.587 783.516L932.416 805.127C932.416 805.127 932.414 805.103 932.415 805.068L929.39 781.067L921.215 716.118L912.654 648.107L905.159 588.593L900.492 551.5L941.207 581.559L990.415 617.887L1018.01 638.257L1047.05 659.693L1106.75 703.77Z" fill="#E9F9F8"/>
<path d="M1106.75 703.769L932.416 805.126C932.416 805.126 932.413 805.101 932.415 805.067L929.39 781.065L1047.05 659.691L1106.75 703.769Z" fill="#FDAB3E"/>
<path d="M1018.01 638.256L921.215 716.118L912.654 648.107L990.415 617.887L1018.01 638.256Z" fill="#FDAB3E"/>
<path d="M941.207 581.559L905.159 588.593L900.492 551.5L941.207 581.559Z" fill="#FDAB3E"/>
<g style="mix-blend-mode:soft-light">
<path d="M969.587 783.516L932.416 805.127C932.416 805.127 932.414 805.103 932.415 805.068L929.39 781.067L921.215 716.118L912.654 648.107L905.159 588.593L900.492 551.5L969.587 783.516Z" fill="#E9F9F8"/>
</g>
<path d="M1106.75 703.77C1106.75 703.77 1103.26 708.424 1096.84 715.738C1074.63 741.017 1017.45 798.094 948.971 804.566C943.52 805.1 938 805.291 932.416 805.127C932.416 805.127 1002 709.629 1106.75 703.77Z" fill="#E9F9F8"/>
<path d="M1093.52 710.035C1071.31 735.314 1014.13 792.392 945.652 798.864C965.741 775.648 1019.59 721.511 1093.52 710.035Z" fill="#FDAB3E"/>
<path d="M919.118 518.044L911.602 538.202L923.953 555.818L902.452 554.902L889.507 572.088L883.734 551.364L863.382 544.37L881.316 532.478L881.683 510.969L898.54 524.343L919.118 518.044Z" fill="#CBF3F0"/>
</g>
</g>
<defs>
<clipPath id="clip0_3562_6295">
<rect width="1054" height="1490" fill="white"/>
</clipPath>
</defs>
</svg>
