<svg width="1054" height="1490" viewBox="0 0 1054 1490" fill="none" xmlns="http://www.w3.org/2000/svg">
<g clip-path="url(#clip0_3572_9720)">
<path d="M1068.55 -32.4062H-14.5542V1522.42H1068.55V-32.4062Z" fill="#EAB2BD"/>
<mask id="mask0_3572_9720" style="mask-type:luminance" maskUnits="userSpaceOnUse" x="-1" y="1174" width="576" height="319">
<path d="M574.239 1174.34H-0.53125V1492.14H574.239V1174.34Z" fill="white"/>
</mask>
<g mask="url(#mask0_3572_9720)">
<path d="M545.06 1489.79C544.706 1489.79 544.352 1489.59 544.175 1489.26C533.445 1468.74 512.481 1451.08 486.63 1440.78C445.039 1422.62 401.659 1435.61 359.696 1448.16C351.445 1450.62 342.911 1453.19 334.589 1455.44C297.796 1466.8 266.191 1472.92 231.665 1465.88C194.624 1458.52 164.4 1436.84 133.715 1395.58C124.827 1383.24 116.647 1370.57 108.732 1358.31C86.0154 1323.12 64.538 1289.89 28.4179 1265.37C28.3648 1265.34 28.3117 1265.29 28.2585 1265.25L25.2839 1262.22C14.7666 1256.28 7.09993 1252.58 -1.15104 1249.46C-1.66452 1249.27 -1.93011 1248.68 -1.73534 1248.17C-1.54058 1247.66 -0.956279 1247.39 -0.442807 1247.59C7.94981 1250.76 15.7227 1254.51 26.3994 1260.54C26.4879 1260.6 26.5588 1260.65 26.6296 1260.72L29.6396 1263.78C66.0607 1288.52 87.6089 1321.9 110.432 1357.23C118.329 1369.46 126.509 1382.11 135.344 1394.39C165.71 1435.21 195.544 1456.66 232.072 1463.91C266.191 1470.87 297.513 1464.78 334.04 1453.51C342.38 1451.26 350.896 1448.71 359.13 1446.25C401.429 1433.6 445.181 1420.52 487.409 1438.94C513.667 1449.4 535.021 1467.42 545.963 1488.34C546.211 1488.83 546.034 1489.43 545.538 1489.68C545.396 1489.75 545.237 1489.79 545.078 1489.79H545.06Z" fill="#9BDCE0"/>
</g>
<path d="M290.714 1447.79C272.707 1447.79 258.047 1437.71 258.047 1425.32C258.047 1412.93 272.69 1402.84 290.714 1402.84C308.739 1402.84 323.382 1412.93 323.382 1425.32C323.382 1437.71 308.721 1447.79 290.714 1447.79ZM290.714 1404.84C273.805 1404.84 260.048 1414.03 260.048 1425.32C260.048 1436.61 273.805 1445.79 290.714 1445.79C307.624 1445.79 321.381 1436.61 321.381 1425.32C321.381 1414.03 307.624 1404.84 290.714 1404.84Z" fill="#9BDCE0"/>
<path d="M46.1946 1390.08C33.8004 1390.08 23.708 1380.5 23.708 1368.73C23.708 1356.97 33.8004 1347.39 46.1946 1347.39C58.5887 1347.39 68.6811 1356.97 68.6811 1368.73C68.6811 1380.5 58.5887 1390.08 46.1946 1390.08ZM46.1946 1349.39C34.8982 1349.39 25.7088 1358.06 25.7088 1368.73C25.7088 1379.41 34.8982 1388.08 46.1946 1388.08C57.491 1388.08 66.6804 1379.41 66.6804 1368.73C66.6804 1358.06 57.491 1349.39 46.1946 1349.39Z" fill="#9BDCE0"/>
<mask id="mask1_3572_9720" style="mask-type:luminance" maskUnits="userSpaceOnUse" x="546" y="1" width="508" height="263">
<path d="M1053.22 1.62891H546.671V263.829H1053.22V1.62891Z" fill="white"/>
</mask>
<g mask="url(#mask1_3572_9720)">
<path d="M587.059 -5.82031C631.43 119.236 808.259 53.876 901.392 53.2565C965.417 52.8318 982.857 88.4761 1002.49 142.155C1011.49 166.738 1029.44 192.719 1055.61 193.462" stroke="#9BDCE0" stroke-width="1.13" stroke-linecap="round" stroke-linejoin="round"/>
</g>
<path d="M901.711 136.116C919.195 136.116 933.369 126.504 933.369 114.648C933.369 102.791 919.195 93.1797 901.711 93.1797C884.227 93.1797 870.053 102.791 870.053 114.648C870.053 126.504 884.227 136.116 901.711 136.116Z" stroke="#9BDCE0" stroke-width="1.13" stroke-linecap="round" stroke-linejoin="round"/>
<path d="M756.982 46.8298C761.979 46.8298 766.03 42.7808 766.03 37.786C766.03 32.7912 761.979 28.7422 756.982 28.7422C751.985 28.7422 747.935 32.7912 747.935 37.786C747.935 42.7808 751.985 46.8298 756.982 46.8298Z" stroke="#9BDCE0" stroke-width="1.13" stroke-linecap="round" stroke-linejoin="round"/>
<path d="M512.34 1114.23C438.152 1082.36 338.768 1033.28 285.19 973.653C231.612 914.045 197.245 835.111 204.309 756.831C211.374 678.552 265.076 603.6 342.168 581.99C419.277 560.363 506.851 602.467 549.611 682.994C568.592 622.802 646.71 587.14 710.576 598.75C774.423 610.361 826.638 663.402 844.397 724.514C862.139 785.627 848.328 852.491 815.572 906.559C782.798 960.609 745.881 1014.36 690.639 1046.52C635.396 1078.67 589.679 1096.96 512.357 1114.25L512.34 1114.23Z" fill="#F8C5CA"/>
<path d="M551.346 698.285C546.512 689.808 558.446 679.578 566.856 684.074C575.267 688.569 577.197 701.011 573.39 709.789C569.583 718.568 561.775 724.55 554.267 730.142C545.609 726.797 536.597 723.204 530.294 716.107C523.99 709.01 521.441 697.241 527.195 689.985C532.949 682.711 547.415 685.896 551.346 698.285Z" fill="#F3DADC"/>
<path d="M817.006 618.041C817.077 612.024 826.62 610.307 829.701 615.315C832.782 620.324 829.913 627.545 825.15 631.049C820.388 634.553 814.368 635.279 808.631 635.916C805.072 631.439 801.389 626.713 800.256 620.961C799.123 615.209 801.424 608.165 806.754 606.095C812.083 604.024 818.794 610.218 817.023 618.041H817.006Z" fill="#F3DADC"/>
<path d="M242.218 618.236C239.598 614.289 245.051 608.962 249.265 610.856C253.479 612.767 254.807 618.714 253.249 623.103C251.691 627.474 248.096 630.625 244.661 633.562C240.359 632.217 235.879 630.766 232.604 627.545C229.328 624.306 227.717 618.696 230.267 614.997C232.816 611.298 239.916 612.36 242.236 618.236H242.218Z" fill="#F3DADC"/>
<path d="M697.562 657.439C695.49 656.536 693.383 655.846 691.241 655.368C688.443 654.748 686.495 650.642 686.566 645.492C686.619 641.599 686.531 637.67 686.336 633.688C685.575 637.528 684.919 641.404 684.371 645.315C683.645 650.519 681.06 654.571 678.156 655.067C675.96 655.439 673.765 656.023 671.587 656.819C673.641 657.81 675.766 658.571 677.908 659.085C680.705 659.757 682.618 663.898 682.512 669.066C682.441 673.013 682.476 676.924 682.653 680.8C683.485 676.924 684.176 672.978 684.76 668.978C685.486 663.881 688.036 659.916 690.886 659.368C693.082 658.961 695.313 658.306 697.579 657.403L697.562 657.439Z" fill="white"/>
<path d="M865.06 787.556C862.988 786.653 860.881 785.963 858.739 785.485C855.941 784.866 853.993 780.76 854.064 775.609C854.117 771.716 854.029 767.787 853.834 763.805C853.073 767.645 852.418 771.521 851.869 775.432C851.143 780.636 848.558 784.689 845.654 785.184C843.458 785.556 841.263 786.14 839.085 786.936C841.139 787.927 843.264 788.688 845.406 789.202C848.204 789.874 850.116 794.016 850.01 799.184C849.939 803.13 849.974 807.042 850.151 810.917C850.983 807.042 851.674 803.095 852.258 799.095C852.984 793.998 855.534 790.033 858.384 789.485C860.58 789.078 862.811 788.423 865.077 787.52L865.06 787.556Z" fill="white"/>
<path d="M562.43 882.33C560.217 881.853 558.021 881.587 555.826 881.552C552.957 881.499 550.248 877.853 549.292 872.791C548.566 868.968 547.734 865.128 546.743 861.27C546.743 865.181 546.867 869.128 547.097 873.057C547.415 878.295 545.68 882.773 542.918 883.835C540.847 884.631 538.81 885.64 536.81 886.844C539.023 887.41 541.236 887.728 543.467 887.817C546.335 887.923 549.027 891.622 549.947 896.701C550.656 900.577 551.47 904.418 552.391 908.188C552.444 904.223 552.355 900.223 552.125 896.188C551.842 891.038 553.542 886.667 556.251 885.569C558.322 884.737 560.376 883.658 562.43 882.33Z" fill="white"/>
<path d="M415.594 603.28C413.381 602.802 411.185 602.536 408.99 602.501C406.121 602.448 403.412 598.802 402.456 593.74C401.73 589.918 400.898 586.077 399.907 582.219C399.907 586.13 400.031 590.077 400.261 594.006C400.579 599.244 398.844 603.722 396.082 604.784C394.011 605.58 391.974 606.589 389.974 607.793C392.187 608.359 394.4 608.678 396.631 608.766C399.499 608.872 402.191 612.571 403.111 617.651C403.82 621.527 404.634 625.367 405.555 629.137C405.608 625.172 405.519 621.173 405.289 617.137C405.006 611.987 406.706 607.616 409.415 606.518C411.486 605.687 413.54 604.607 415.594 603.28Z" fill="white"/>
<path d="M229.009 808.545C226.796 808.067 224.6 807.802 222.405 807.767C219.536 807.713 216.827 804.068 215.871 799.006C215.145 795.183 214.313 791.343 213.322 787.484C213.322 791.396 213.446 795.342 213.676 799.271C213.995 804.51 212.259 808.988 209.497 810.05C207.426 810.846 205.389 811.855 203.389 813.058C205.602 813.625 207.815 813.943 210.046 814.032C212.914 814.138 215.606 817.837 216.526 822.916C217.235 826.792 218.049 830.633 218.97 834.402C219.023 830.438 218.934 826.438 218.704 822.403C218.421 817.253 220.121 812.881 222.83 811.784C224.901 810.952 226.955 809.873 229.009 808.545Z" fill="white"/>
<path d="M188.94 680.817C188.94 678.711 190.64 677.012 192.747 677.012C194.854 677.012 196.554 678.711 196.554 680.817C196.554 682.923 194.854 684.622 192.747 684.622C190.64 684.622 188.94 682.923 188.94 680.817Z" fill="white"/>
<path d="M306.685 689.969C306.685 687.863 308.384 686.164 310.491 686.164C312.598 686.164 314.298 687.863 314.298 689.969C314.298 692.075 312.598 693.774 310.491 693.774C308.384 693.774 306.685 692.075 306.685 689.969Z" fill="white"/>
<path d="M347.303 605.688C347.303 603.582 349.003 601.883 351.11 601.883C353.217 601.883 354.916 603.582 354.916 605.688C354.916 607.794 353.217 609.493 351.11 609.493C349.003 609.493 347.303 607.794 347.303 605.688Z" fill="white"/>
<path d="M545.804 613.688C545.804 611.582 547.503 609.883 549.61 609.883C551.717 609.883 553.417 611.582 553.417 613.688C553.417 615.794 551.717 617.493 549.61 617.493C547.503 617.493 545.804 615.794 545.804 613.688Z" fill="white"/>
<path d="M796.131 711.543C796.131 709.437 797.831 707.738 799.938 707.738C802.045 707.738 803.744 709.437 803.744 711.543C803.744 713.649 802.045 715.349 799.938 715.349C797.831 715.349 796.131 713.649 796.131 711.543Z" fill="white"/>
<path d="M607.138 763.735C607.138 761.629 608.837 759.93 610.944 759.93C613.051 759.93 614.751 761.629 614.751 763.735C614.751 765.841 613.051 767.54 610.944 767.54C608.837 767.54 607.138 765.841 607.138 763.735Z" fill="white"/>
<path d="M441.569 921.161C441.569 919.054 443.269 917.355 445.376 917.355C447.483 917.355 449.183 919.054 449.183 921.161C449.183 923.267 447.483 924.966 445.376 924.966C443.269 924.966 441.569 923.267 441.569 921.161Z" fill="white"/>
<path d="M603.33 985.176C603.33 983.07 605.03 981.371 607.137 981.371C609.244 981.371 610.944 983.07 610.944 985.176C610.944 987.282 609.244 988.981 607.137 988.981C605.03 988.981 603.33 987.282 603.33 985.176Z" fill="white"/>
<path d="M848.381 888.543C848.381 886.437 850.081 884.738 852.188 884.738C854.295 884.738 855.994 886.437 855.994 888.543C855.994 890.649 854.295 892.349 852.188 892.349C850.081 892.349 848.381 890.649 848.381 888.543Z" fill="white"/>
<path d="M212.383 888.543C212.383 886.437 214.083 884.738 216.19 884.738C218.297 884.738 219.996 886.437 219.996 888.543C219.996 890.649 218.297 892.349 216.19 892.349C214.083 892.349 212.383 890.649 212.383 888.543Z" fill="white"/>
<path d="M495.749 532.027C487.445 534.116 479.124 536.204 470.819 538.293C458.939 541.284 446.863 544.345 436.311 550.575C425.758 556.805 416.745 566.769 414.532 578.91C418.374 579.937 430.414 580.485 434.239 579.441C450.387 575.07 461.595 567.194 474.272 556.239C482.311 549.283 489.074 540.31 495.749 532.027Z" fill="#CBCFD7"/>
<path d="M407.273 517.215C402.351 524.259 397.446 531.32 392.524 538.364C385.495 548.452 378.377 558.717 374.464 570.398C370.551 582.079 370.214 595.583 376.411 606.255C397.251 596.061 403.643 570.929 406.759 549.744C408.318 539.161 407.592 527.905 407.255 517.215H407.273Z" fill="#CBCFD7"/>
<path d="M350.95 560.471C347.834 568.488 344.7 576.523 341.584 584.54C337.122 596.009 332.607 607.69 331.527 619.972C330.447 632.273 333.28 645.493 341.796 654.396C359.644 639.547 359.998 613.566 358.068 592.221C357.112 581.567 353.783 570.789 350.95 560.453V560.471Z" fill="#CBCFD7"/>
<path d="M308.597 629.402C307.517 637.968 306.437 646.517 305.357 655.083C303.817 667.33 302.276 679.754 304.206 691.966C306.154 704.16 312.086 716.301 322.514 722.867C336.201 704.054 330.234 678.763 323.187 658.516C319.664 648.393 313.821 638.765 308.58 629.42L308.597 629.402Z" fill="#CBCFD7"/>
<path d="M478.203 599.511C470.465 603.192 462.71 606.855 454.972 610.537C443.906 615.793 432.645 621.102 420.534 623.014C408.424 624.908 395.144 622.961 385.742 614.979C399.252 596.042 424.979 593.971 446.243 594.484C456.867 594.732 467.774 597.369 478.185 599.511H478.203Z" fill="#CBCFD7"/>
<path d="M437.178 629.352C430.733 635.015 424.27 640.661 417.825 646.324C408.601 654.412 399.199 662.607 388.079 667.757C376.96 672.889 363.645 674.641 352.473 669.527C360.37 647.581 384.52 638.572 405.112 633.245C415.4 630.59 426.59 630.148 437.178 629.369V629.352Z" fill="#CBCFD7"/>
<path d="M406.759 668.961C402.97 676.677 399.164 684.412 395.375 692.128C389.957 703.172 384.415 714.392 376.11 723.436C367.806 732.48 356.209 739.223 343.956 738.816C342.876 715.472 361.716 697.791 378.678 684.925C387.141 678.5 397.287 673.775 406.759 668.961Z" fill="#CBCFD7"/>
<path d="M335.157 756.531C332.164 718.285 339.052 678.127 356.811 644.129C375.456 608.467 425.634 566.221 468.854 548.328" stroke="#48727F" stroke-width="1.37" stroke-linecap="round" stroke-linejoin="round"/>
<path d="M443.092 603.212C418.906 607.92 396.95 614.911 373.401 622.185C376.819 596.894 385.565 572.364 398.916 550.684" stroke="#48727F" stroke-width="1.37" stroke-linecap="round" stroke-linejoin="round"/>
<path d="M397.782 645.086C378.819 653.546 359.378 662.076 343.46 675.456C337.299 648.165 338.733 619.211 347.533 592.734" stroke="#48727F" stroke-width="1.37" stroke-linecap="round" stroke-linejoin="round"/>
<path d="M384.839 691.824C370.852 710.921 356.174 730.619 335.387 741.822" stroke="#48727F" stroke-width="1.37" stroke-linecap="round" stroke-linejoin="round"/>
<path d="M313.218 671.828C313.165 695.986 317.096 707.048 320.017 714.8C322.939 722.516 330.004 731.188 334.607 735.984" stroke="#48727F" stroke-width="1.37" stroke-linecap="round" stroke-linejoin="round"/>
<path d="M648.782 594.752C542.015 531.02 382.148 602.008 291.741 753.346C201.317 904.666 214.543 1079.01 321.31 1142.76C428.059 1206.49 587.926 1135.5 678.351 984.167C768.775 832.847 755.531 658.501 648.782 594.752ZM600.108 942.523C523.76 1070.27 408.707 1142.09 343.106 1102.94C277.506 1063.77 286.217 928.453 362.583 800.707C438.931 672.943 553.984 601.123 619.585 640.29C685.185 679.438 676.474 814.759 600.108 942.523Z" fill="#6DA8BA"/>
<path d="M641.735 660.624C635.644 652.323 628.261 645.456 619.585 640.271C553.984 601.104 438.931 672.924 362.583 800.688C289.369 923.16 278.356 1052.6 335.351 1097.58C330.747 1095.7 326.268 1093.49 321.948 1090.9C244.82 1044.85 245.316 902.081 323.045 772.017C400.774 641.934 526.292 573.831 603.437 619.882C619.602 629.545 632.368 643.456 641.735 660.624Z" fill="#F2E9E4"/>
<path d="M425.74 650.535C468.518 620.696 520.768 602.591 572.877 615.493C589.892 619.705 606.075 626.89 620.966 636.076" stroke="#F2CDB2" stroke-width="1.91" stroke-linecap="round" stroke-linejoin="round"/>
<path d="M339.636 736.073C361.503 706.676 383.777 681.951 412.85 660.059" stroke="#F2CDB2" stroke-width="1.91" stroke-linecap="round" stroke-linejoin="round"/>
<path d="M273.221 1015.86C273.221 1015.86 292.078 1103.95 387.052 1112.3" stroke="#F2CDB2" stroke-width="1.91" stroke-linecap="round" stroke-linejoin="round"/>
<path d="M688.266 844.473C676.368 890.293 654.04 934.026 625.463 971.918" stroke="#FFEEE2" stroke-width="2.77" stroke-linecap="round" stroke-linejoin="round"/>
<path d="M692.692 715.523C693.932 720.284 694.764 725.151 695.49 730.018C697.438 743.186 698.217 756.548 698.11 769.857C698.04 780.299 697.384 790.723 696.234 801.095" stroke="#FFEEE2" stroke-width="2.77" stroke-linecap="round" stroke-linejoin="round"/>
<path d="M625.942 438.812L613.601 584.327L692.516 628.343L822.283 568.93L814.174 530.932L650.022 431.078L625.942 438.812Z" fill="#F2E9E4"/>
<path d="M660.716 610.31C659.742 610.31 658.786 609.886 658.131 609.054C657.016 607.638 657.281 605.585 658.698 604.47L728.158 550.508C729.575 549.393 731.629 549.658 732.744 551.074C733.86 552.49 733.594 554.543 732.177 555.658L662.717 609.62C662.115 610.08 661.407 610.31 660.716 610.31Z" fill="white"/>
<path d="M694.251 628.006L769.608 592.91" stroke="#F4DEE1" stroke-width="3.69" stroke-linecap="round" stroke-linejoin="round"/>
<path d="M648.764 597.193C648.286 597.193 647.808 597.052 647.383 596.769C646.498 596.167 646.108 595.07 646.409 594.043L670.613 512.206L633.608 582.592C633.095 583.566 631.979 584.079 630.899 583.849C629.819 583.601 629.04 582.663 628.987 581.548L623.48 438.9C623.445 437.927 623.976 437.024 624.861 436.599C625.729 436.175 626.773 436.316 627.517 436.936C628.88 438.086 764.172 552.912 822.831 566.54C824.142 566.841 824.974 568.168 824.673 569.478C824.372 570.788 823.044 571.619 821.734 571.319C800.186 566.31 769.271 548.576 738.268 527.71L650.287 596.662C649.844 597.016 649.313 597.193 648.782 597.193H648.764ZM680.015 486.615C680.316 486.615 680.635 486.668 680.936 486.792C682.105 487.269 682.724 488.544 682.37 489.765L653.279 588.079L734.001 524.825C687.948 493.411 642.638 456.05 628.597 444.263L633.537 572.203L677.855 487.924C678.298 487.092 679.148 486.615 680.033 486.615H680.015Z" fill="white"/>
<path d="M683.592 458.35C683.362 458.35 683.132 458.315 682.901 458.244L625.251 441.147C624.189 440.829 623.498 439.855 623.498 438.793C623.498 438.563 623.533 438.333 623.604 438.085C623.994 436.793 625.357 436.05 626.65 436.44L684.3 453.536C685.363 453.855 686.053 454.828 686.053 455.89C686.053 456.12 686.018 456.35 685.947 456.598C685.628 457.66 684.654 458.35 683.592 458.35Z" fill="white"/>
<path d="M680.033 491.516C680.033 491.516 679.856 491.516 679.768 491.516C678.422 491.374 677.448 490.171 677.59 488.826L681.149 455.659C681.29 454.314 682.494 453.341 683.84 453.482C685.186 453.624 686.16 454.827 686.018 456.173L682.459 489.339C682.317 490.596 681.255 491.534 680.033 491.534V491.516Z" fill="white"/>
<path d="M676.474 615.885C675.553 615.885 674.686 615.372 674.261 614.504C673.73 613.425 674.084 612.115 675.075 611.425L765.889 548.578L743.58 493.926L697.863 495.076C696.5 495.13 695.384 494.032 695.349 492.687C695.313 491.342 696.393 490.209 697.739 490.174L745.138 488.988C746.147 488.988 747.085 489.572 747.475 490.51L771.183 548.543C771.626 549.605 771.254 550.826 770.316 551.481L690.816 606.487L821.574 566.578C822.867 566.188 824.248 566.914 824.637 568.206C825.027 569.498 824.301 570.878 823.009 571.268L677.2 615.779C676.97 615.849 676.722 615.885 676.492 615.885H676.474Z" fill="white"/>
<path d="M768.899 551.921C767.925 551.921 767.022 551.355 766.633 550.399C766.119 549.143 766.721 547.709 767.978 547.196L813.252 528.648C814.509 528.135 815.944 528.737 816.457 529.993C816.971 531.25 816.369 532.683 815.111 533.197L769.837 551.744C769.536 551.868 769.218 551.921 768.917 551.921H768.899Z" fill="white"/>
<path d="M602.251 570.191L701.982 627.746C703.607 628.684 704.165 630.763 703.226 632.388L701.703 635.024C700.765 636.649 698.685 637.206 697.06 636.268L597.328 578.713C595.703 577.775 595.146 575.696 596.084 574.071L597.607 571.435C598.545 569.81 600.625 569.253 602.251 570.191Z" fill="#1F0900"/>
<path d="M224.636 1071.03C233.188 1078.81 241.722 1086.6 250.274 1094.39C262.491 1105.52 274.921 1116.81 289.811 1124.03C304.702 1131.25 322.638 1133.96 337.936 1127.41C336.236 1122.33 327.879 1108.39 323.86 1104.85C306.915 1089.95 289.687 1083.2 267.909 1077.13C254.081 1073.28 238.96 1072.37 224.653 1071.03H224.636Z" fill="#F3DADC"/>
<path d="M273.929 1181.55C285.526 1181.82 297.124 1182.1 308.721 1182.37C325.312 1182.76 342.168 1183.11 358.227 1178.81C374.286 1174.51 389.743 1164.83 397.127 1149.89C370.125 1134.05 337.068 1145.59 310.899 1157.87C297.832 1164.02 285.703 1173.22 273.911 1181.55H273.929Z" fill="#F3DADC"/>
<path d="M364.565 1212.67C375.933 1210.21 387.282 1207.73 398.649 1205.27C414.903 1201.75 431.405 1198.12 446.031 1190.17C460.673 1182.23 473.439 1169.18 477.122 1152.97C447.111 1143.96 417.612 1162.93 395.02 1181C383.741 1190.03 374.091 1201.82 364.565 1212.68V1212.67Z" fill="#F3DADC"/>
<path d="M473.723 1208.91C484.169 1203.75 494.598 1198.58 505.044 1193.41C519.971 1186.03 535.127 1178.49 547.397 1167.22C559.685 1155.94 568.91 1140.21 568.538 1123.61C537.163 1122.23 513.136 1147.8 495.59 1170.81C486.825 1182.3 480.327 1196.06 473.723 1208.91Z" fill="#F3DADC"/>
<path d="M313.679 1040.45C323.594 1046.41 333.492 1052.37 343.389 1058.36C357.554 1066.89 371.931 1075.59 383.086 1087.79C394.241 1099.98 401.943 1116.39 399.978 1132.9C368.585 1131.8 347.09 1104.44 331.81 1080.12C324.178 1067.98 319.008 1053.77 313.661 1040.45H313.679Z" fill="#F3DADC"/>
<path d="M377.828 1064.36C389.001 1067.4 400.173 1070.44 411.363 1073.47C427.352 1077.82 443.57 1082.27 457.647 1090.96C471.723 1099.65 483.603 1113.29 486.171 1129.68C455.593 1137.15 427.44 1116.71 406.105 1097.52C395.446 1087.93 386.61 1075.68 377.846 1064.36H377.828Z" fill="#F3DADC"/>
<path d="M445.093 1069.05C456.619 1067.56 468.146 1066.07 479.655 1064.59C496.139 1062.46 512.871 1060.34 529.249 1062.92C545.627 1065.53 561.864 1073.52 570.522 1087.63C545.043 1106.23 511.118 1098.23 483.993 1088.75C470.448 1084.02 457.558 1076.13 445.093 1069.06V1069.05Z" fill="#F3DADC"/>
<path d="M597.01 1084.3C556.198 1116.18 505.877 1138.35 454.353 1143.71C400.314 1149.32 315.361 1124.39 263.022 1089.1" stroke="#48727F" stroke-width="1.37" stroke-linecap="round" stroke-linejoin="round"/>
<path d="M344.009 1077.19C367.328 1100.89 391.568 1120.35 417.294 1141.41C386.274 1156.42 352.137 1164.86 317.805 1166.02" stroke="#48727F" stroke-width="1.37" stroke-linecap="round" stroke-linejoin="round"/>
<path d="M424.908 1096.94C448.546 1111.95 472.661 1127.47 499.574 1135.4C473.44 1162.67 439.781 1182.65 403.413 1192.46" stroke="#48727F" stroke-width="1.37" stroke-linecap="round" stroke-linejoin="round"/>
<path d="M487.162 1076.67C519.086 1078.18 552.196 1080 580.295 1095.02" stroke="#48727F" stroke-width="1.37" stroke-linecap="round" stroke-linejoin="round"/>
<path d="M518.023 1172.08C545.255 1154.14 554.781 1141.48 561.332 1132.4C567.848 1123.38 572.328 1108.95 574.311 1100.21" stroke="#48727F" stroke-width="1.37" stroke-linecap="round" stroke-linejoin="round"/>
<path d="M779.133 513.215L783.613 521.391L791.775 525.851L783.613 530.329L779.133 538.488L774.671 530.329L766.491 525.851L774.671 521.391L779.133 513.215Z" fill="#F7EDE8"/>
<path d="M341.353 1213.02L345.815 1221.2L353.995 1225.66L345.815 1230.12L341.353 1238.3L336.891 1230.12L328.711 1225.66L336.891 1221.2L341.353 1213.02Z" fill="#F7EDE8"/>
<path d="M753.14 533.602L755.655 538.221L760.276 540.752L755.655 543.283L753.14 547.902L750.609 543.283L745.987 540.752L750.609 538.221L753.14 533.602Z" fill="#F7EDE8"/>
<path d="M295.46 1193.91L297.992 1198.53L302.613 1201.06L297.992 1203.59L295.46 1208.21L292.945 1203.59L288.324 1201.06L292.945 1198.53L295.46 1193.91Z" fill="#F7EDE8"/>
<path d="M173.076 897.41L176.847 904.295L183.753 908.065L176.847 911.834L173.076 918.737L169.305 911.834L162.417 908.065L169.305 904.295L173.076 897.41Z" fill="#F7EDE8"/>
<path d="M840.201 1191.36L845.53 1201.11L855.286 1206.44L845.53 1211.78L840.201 1221.52L834.871 1211.78L825.115 1206.44L834.871 1201.11L840.201 1191.36Z" fill="#F7EDE8"/>
<path d="M879.774 1169.79L883.952 1177.41L891.584 1181.57L883.952 1185.75L879.774 1193.38L875.595 1185.75L867.964 1181.57L875.595 1177.41L879.774 1169.79Z" fill="#F7EDE8"/>
<path d="M654.872 494.543L662.858 509.144L677.483 517.144L662.858 525.126L654.872 539.744L646.869 525.126L632.262 517.144L646.869 509.144L654.872 494.543Z" fill="#F7EDE8"/>
<path d="M260.508 625.474C254.7 623.846 255.586 623.775 251.106 623.633C243.51 620.43 236.215 616.66 228.938 612.784C223.396 609.829 217.819 606.802 212.861 602.909C210.86 601.334 208.895 599.564 207.195 597.582C208.736 597.776 210.276 597.953 211.799 598.077C224.724 581.529 240.925 566.999 260.402 559.123C279.878 551.248 302.878 550.646 321.416 560.539C324.108 561.973 328.517 560.468 330.216 562.999C336.006 556.079 341.796 549.159 347.586 542.239C353.022 535.744 358.705 529.036 366.372 525.426C375.561 521.09 386.999 521.992 395.392 527.709C403.785 533.425 408.813 543.743 408.158 553.867C402.386 553.867 399.889 553.778 394.56 555.973C380.625 579.175 362.122 600.13 338.68 613.687C315.255 627.244 286.553 632.801 260.508 625.474Z" fill="#F7EDE8"/>
<path d="M354.19 568.875C332.164 543.389 294.273 532.947 262.296 543.548C230.319 554.132 206.168 585.122 203.725 618.713C258.064 605.156 301.391 587.599 354.19 568.892V568.875Z" fill="#F7EDE8"/>
<path d="M323.293 461.006C313.909 446.546 301.284 434.494 290.625 420.937C269.201 393.735 255.851 360.267 252.664 325.809C235.985 355.064 232.036 389.77 230.921 423.432C230.107 447.697 231.576 474.563 248.485 491.995C250.451 494.031 252.646 495.96 253.744 498.561C255.692 503.216 253.585 508.455 252.593 513.393C245.422 548.789 293.777 576.381 322.284 557.125C353.393 536.117 339.919 486.597 323.311 461.006H323.293Z" fill="#F7EDE8"/>
<path d="M257.144 574.186C250.61 574.859 242.271 573.903 240.217 567.673C238.021 560.983 245.228 555.107 251.726 552.4C260.331 548.789 306.614 537.161 310.704 550.966C314.954 565.337 265.696 573.337 257.161 574.204L257.144 574.186Z" fill="#F7EDE8"/>
<path d="M242.164 552.878C235.631 553.55 227.291 552.594 225.237 546.365C223.042 539.675 230.248 533.799 236.746 531.091C245.351 527.481 291.635 515.853 295.725 529.657C299.974 544.028 250.716 552.028 242.182 552.895L242.164 552.878Z" fill="#F7EDE8"/>
<path d="M237.366 535.815C230.833 536.488 222.493 535.532 220.439 529.302C218.244 522.612 225.45 516.736 231.948 514.028C240.553 510.418 286.837 498.79 290.927 512.595C295.176 526.966 245.918 534.966 237.384 535.833L237.366 535.815Z" fill="#F7EDE8"/>
<path d="M230.903 519.975C224.37 520.648 216.03 519.692 213.977 513.462C211.781 506.772 218.987 500.896 225.485 498.189C234.091 494.578 280.374 482.95 284.464 496.755C288.713 511.126 239.455 519.126 230.921 519.993L230.903 519.975Z" fill="#F7EDE8"/>
<path d="M223.857 488.578C217.908 487.268 210.506 484.472 209.285 479.994C207.992 475.198 215.092 473.41 221.201 473.41C229.31 473.41 272.141 478.295 274.407 488.082C276.762 498.259 231.63 490.294 223.839 488.578H223.857Z" fill="#F7EDE8"/>
<path d="M221.608 474.316C215.659 473.006 208.257 470.21 207.036 465.732C205.743 460.936 212.843 459.148 218.952 459.148C227.061 459.148 269.892 464.033 272.158 473.82C274.513 483.997 229.381 476.033 221.59 474.316H221.608Z" fill="#F7EDE8"/>
<path d="M217.712 459.8C211.763 458.491 204.362 455.694 203.14 451.217C201.848 446.42 208.948 444.633 215.056 444.633C223.166 444.633 265.996 449.518 268.263 459.305C270.618 469.481 225.485 461.517 217.694 459.8H217.712Z" fill="#F7EDE8"/>
<path d="M219.182 446.671C213.233 445.362 205.832 442.565 204.61 438.088C203.317 433.291 210.417 431.504 216.526 431.504C224.635 431.504 267.466 436.389 269.75 446.176C272.105 456.352 226.973 448.388 219.182 446.671Z" fill="#F7EDE8"/>
<path d="M212.313 423.873C207.815 419.784 202.787 413.643 203.973 409.165C205.248 404.369 212.295 406.351 217.589 409.413C224.618 413.466 259.286 439.093 256.365 448.686C253.32 458.685 218.191 429.235 212.313 423.873Z" fill="#F7EDE8"/>
<path d="M214.525 405.857C210.028 401.769 205 395.628 206.186 391.15C207.461 386.354 214.508 388.336 219.802 391.398C226.831 395.451 261.499 421.078 258.578 430.67C255.532 440.67 220.404 411.22 214.525 405.857Z" fill="#F7EDE8"/>
<path d="M220.351 393.396C215.853 389.308 210.825 383.167 212.011 378.689C213.286 373.893 220.333 375.875 225.627 378.937C232.656 382.99 267.325 408.617 264.403 418.209C261.358 428.209 226.229 398.759 220.351 393.396Z" fill="#F7EDE8"/>
<path d="M222.263 370.566C219.341 365.238 216.579 357.805 219.146 353.947C221.909 349.823 227.929 353.982 231.948 358.584C237.277 364.69 261.765 400.175 255.886 408.298C249.76 416.776 226.087 377.539 222.263 370.548V370.566Z" fill="#F7EDE8"/>
<path d="M228.425 355.929C225.503 350.602 222.741 343.168 225.309 339.31C228.071 335.187 234.091 339.346 238.11 343.947C243.439 350.053 267.927 385.538 262.048 393.662C255.922 402.139 232.249 362.902 228.425 355.911V355.929Z" fill="#F7EDE8"/>
<path d="M234.48 333.063C234.214 326.992 235.011 319.099 239.013 316.78C243.315 314.285 246.874 320.692 248.45 326.603C250.539 334.443 256.842 377.061 247.989 381.786C238.765 386.689 234.834 341.027 234.48 333.081V333.063Z" fill="#F7EDE8"/>
<path d="M246.785 323.277C246.892 314.216 248.202 302.393 252.398 298.659C256.895 294.677 260.082 303.986 261.286 312.729C262.898 324.304 266.563 387.593 257.32 395.185C247.706 403.096 246.626 335.135 246.785 323.277Z" fill="#F7EDE8"/>
<path d="M250.734 604.555L163.603 643.668C156.22 646.977 148.234 640.358 150.147 632.483C151.014 628.872 153.883 626.076 157.495 625.262L250.734 604.555Z" fill="#F7EDE8"/>
<path d="M239.862 607.44L146.464 627.421C138.549 629.12 132.122 620.961 135.645 613.669C137.256 610.324 140.638 608.183 144.357 608.148L239.862 607.422V607.44Z" fill="#F7EDE8"/>
<path d="M236.658 608.326L124.933 611.83C115.461 612.131 109.777 601.406 115.354 593.742C117.904 590.22 122.242 588.468 126.527 589.212L236.658 608.326Z" fill="#F7EDE8"/>
<path d="M247.689 608.221L136.053 602.328C126.58 601.832 121.835 590.664 128.032 583.497C130.883 580.205 135.345 578.824 139.559 579.922L247.689 608.221Z" fill="#F7EDE8"/>
<path d="M401.589 533.904C405.042 539.833 407.981 546.275 408.406 553.125C408.831 559.974 406.352 567.301 400.775 571.301C402.545 578.185 404.935 585.955 406.724 592.839C402.811 586.397 399.323 579.707 396.313 572.787C391.054 577 383.617 577.973 377.173 576.026C368.798 573.495 362.087 566.133 360.37 557.549C358.652 548.983 361.981 539.585 368.744 534.028C375.49 528.471 385.353 526.984 393.444 530.311" fill="#F7EDE8"/>
<path d="M286.624 569.46C280.976 555.089 281.72 538.346 288.643 524.524C295.548 510.719 308.509 500.065 323.399 495.959C315.573 487.889 310.403 477.146 304.543 467.553C298.682 457.961 294.946 446.669 296.274 435.52" stroke="#1F0A00" stroke-linecap="round" stroke-linejoin="round"/>
<path d="M389.85 557.567C389.301 559.531 390.452 561.567 392.4 562.115C394.347 562.646 396.383 561.496 396.915 559.514C397.463 557.549 396.313 555.514 394.365 554.965C392.417 554.434 390.381 555.585 389.85 557.567Z" fill="#1F0A00"/>
<path d="M395.427 571.743L407.662 595.547L401.464 570.434L395.427 571.743Z" fill="#F5B78D"/>
<path d="M257.835 608.059C252.753 614.996 250.522 623.934 251.726 632.447C251.266 629.102 265.838 631.332 267.431 631.544C278.657 633.066 294.291 642.553 283.898 655.118" stroke="#FDBDBC" stroke-width="1.13" stroke-linecap="round" stroke-linejoin="round"/>
<path d="M300.4 591.652C299.585 598.785 293.565 604.307 287.032 607.28C279.56 610.696 270.901 611.634 262.987 609.421C255.072 607.227 248.025 601.811 244.236 594.52" stroke="#1F0A00" stroke-linecap="round" stroke-linejoin="round"/>
<path d="M251.266 632.483C251.584 631.669 252.434 631.227 253.249 630.891C259.393 628.342 266.316 629.015 272.92 629.723C279.896 630.466 287.687 631.652 291.954 637.227C294.362 640.377 295.212 644.66 294.203 648.483" stroke="#FDBDBC" stroke-width="1.13" stroke-linecap="round" stroke-linejoin="round"/>
<path d="M273.663 655.545C275.452 651.227 276.337 646.377 275.151 641.847C273.964 637.316 264.403 626.502 251.708 632.466" stroke="#FDBDBC" stroke-width="1.13" stroke-linecap="round" stroke-linejoin="round"/>
<path d="M383.741 568.223C389.124 582.576 386.273 599.496 377.19 611.849C368.107 624.185 353.251 631.866 337.953 633.051C322.673 634.237 307.145 629.158 294.91 619.919C310.261 585.956 346.505 566.4 383.741 568.24V568.223Z" fill="#F7EDE8"/>
<path d="M366.442 557.692C364.937 563.161 368.16 568.824 373.631 570.329C379.102 571.833 384.768 568.612 386.273 563.143C387.778 557.674 384.555 552.011 379.084 550.507C373.613 549.002 367.947 552.223 366.442 557.692Z" fill="#FDBDBC"/>
<path d="M393.391 558.539L401.978 578.273" stroke="#1F0A00" stroke-width="0.57" stroke-linecap="round" stroke-linejoin="round"/>
<path d="M731.415 1115.66C727.874 1110.49 726.192 1104.3 723.483 1098.65C713.922 1078.85 684.654 1060.03 663.088 1064.42C653.474 1057.75 642.036 1053.08 630.35 1053.58C612.98 1054.32 592.034 1072.39 602.888 1090.71C603.047 1090.87 603.206 1091.02 603.366 1091.2C608.288 1091.84 613.228 1093.94 616.999 1097.11C625.463 1104.19 629.925 1114.81 635.237 1124.49C643.806 1140.1 655.581 1154.4 671.003 1163.3C686.442 1172.21 707.282 1170.22 723.837 1163.59C740.374 1156.95 751.441 1144.74 750.113 1126.97C744.022 1128.42 734.956 1120.83 731.415 1115.66Z" fill="#F7EDE8"/>
<path d="M693.1 1150.69C700.076 1170.53 681.361 1198.1 671.835 1216.86C675.482 1218.74 679.272 1220.35 683.326 1219.75C687.381 1219.16 691.294 1216.13 691.825 1212.08C696.057 1216.44 702.714 1218.28 708.575 1216.7C714.436 1215.13 719.287 1210.21 720.757 1204.33C727.131 1206.38 734.372 1206.45 740.269 1203.27C746.165 1200.08 750.255 1193.25 749.051 1186.67C755.584 1187.5 761.463 1185.94 765.677 1180.88C769.873 1175.82 770.652 1167.92 766.863 1162.56C768.35 1164.4 770.67 1161.59 772.547 1160.16C774.866 1158.39 777.274 1156.46 778.301 1153.73C779.363 1150.88 778.655 1147.62 777.15 1145.01C775.645 1142.37 773.414 1140.24 771.219 1138.16C777.274 1136.85 782.019 1130.71 782.125 1124.51C782.249 1118.32 778.761 1112.44 773.928 1108.58C778.018 1105.04 777.256 1098.6 774.972 1093.7C772.706 1088.8 767.978 1085.38 762.879 1083.56C763.817 1079.45 759.834 1075.33 756.222 1073.15C752.61 1070.97 748.254 1070.46 744.04 1070.27C745.067 1076.85 742.96 1084.19 739.631 1089.98C736.108 1096.09 731.504 1101.73 725.555 1105.52C719.606 1109.33 712.205 1111.15 705.335 1109.56L667.355 1139.87C669.976 1143.47 691.648 1146.53 693.135 1150.72L693.1 1150.69Z" fill="#F7EDE8"/>
<path d="M760.524 962.307C761.392 955.351 761.161 948.007 758.293 941.936C757.479 940.219 754.752 940.626 754.221 942.538L751.069 953.936C749.281 960.395 747.492 966.873 744.907 973.121C743.81 975.793 742.553 978.43 741.171 981.014C740.87 979.545 740.534 978.076 740.162 976.625C745.509 960.395 747.917 943.423 745.81 927.052C743.332 907.761 734.266 889.39 719.039 877.231C714.542 873.639 709.46 870.559 703.759 868.913C715.055 880.559 724.245 894.363 728.529 909.991C731.876 922.238 732.018 935.653 728.158 948.201C727.379 946.927 726.564 945.653 725.732 944.414C729.22 914.522 714.736 886.027 691.949 867.462C688.018 864.258 683.786 861.303 679.006 859.214C673.039 856.595 666.258 855.356 659.352 855.604C672.065 866.86 679.519 883.62 683.114 900.133C683.786 903.23 684.282 906.363 684.778 909.495L685.433 913.672C685.504 914.079 685.522 914.557 685.15 914.84C684.778 915.106 684.211 914.557 684.619 914.345C678.28 896.947 670.56 882.169 657.794 868.63C645.028 855.073 627.003 845.197 606.624 844.56C618.646 852.188 629.146 861.48 638.406 871.833C637.078 871.196 635.697 870.648 634.281 870.223C629.89 866.807 625.339 863.621 620.311 859.781C605.916 848.826 581.039 838.631 561.863 845.144C604.464 859.816 648.357 888.293 648.835 931.954C649.136 960.059 652.925 987.757 660.061 1014.36C662.398 1023.07 665.107 1031.68 666.771 1040.59C668.559 1050.2 669.462 1060.39 669.108 1070.6C671.339 1071.47 673.464 1072.51 675.447 1073.79C675.606 1073.89 675.748 1073.98 675.89 1074.09C683.308 1078.14 689.824 1083.66 694.339 1090.39C699.315 1087.04 704.007 1083.29 708.362 1079.22C720.473 1075.56 731.929 1069.36 741.543 1061.15C747.174 1056.34 752.344 1050.5 754.805 1043.9C755.496 1042.04 753.371 1040.55 751.636 1041.68L741.242 1048.43C736.444 1051.54 731.628 1054.66 726.635 1057.42C727.361 1056.28 728.069 1055.13 728.76 1053.98C742.039 1047.26 753.725 1037.28 762.118 1025.31C766.314 1019.33 769.767 1012.5 770.351 1005.65C770.51 1003.7 767.996 1002.85 766.615 1004.36L758.275 1013.37C753.548 1018.46 748.82 1023.6 743.526 1028.16C741.951 1029.52 740.339 1030.82 738.693 1032.07C739.029 1030.99 739.365 1029.91 739.666 1028.82C739.684 1028.75 739.702 1028.69 739.72 1028.62C751.105 1019.61 760.259 1007.97 765.907 995.084C768.793 988.5 770.758 981.244 769.855 974.519C769.607 972.625 766.916 972.289 765.854 974.005L759.497 984.323C755.903 990.164 752.291 996.022 748.024 1001.47C746.501 1003.4 744.89 1005.28 743.208 1007.1C743.278 1005.69 743.332 1004.27 743.332 1002.85C752.663 990.907 758.736 976.749 760.524 962.342V962.307Z" fill="#F7EDE8"/>
<path d="M558.977 1232.54C552.78 1235.83 545.84 1238.24 539.147 1237.73C537.252 1237.59 536.668 1234.9 538.261 1233.71L547.787 1226.68C553.188 1222.7 558.588 1218.72 563.528 1214.08C565.635 1212.1 567.653 1209.99 569.566 1207.78C568.078 1208.01 566.591 1208.22 565.104 1208.4C551.842 1219.2 536.845 1227.51 520.803 1231.39C501.876 1235.96 481.496 1234.06 464.693 1224.19C459.718 1221.27 455.043 1217.64 451.467 1212.9C466.393 1219.29 482.576 1222.93 498.706 1221.34C511.348 1220.1 523.937 1215.43 534.278 1207.34C532.808 1207.06 531.338 1206.77 529.869 1206.42C503.186 1220.36 471.386 1217.02 445.889 1202.38C441.498 1199.85 437.214 1196.97 433.548 1193.25C428.98 1188.61 425.404 1182.74 423.155 1176.21C438.223 1184.07 456.531 1185.02 473.245 1182.47C476.379 1181.99 479.478 1181.34 482.594 1180.67L486.719 1179.78C487.109 1179.69 487.587 1179.53 487.711 1179.11C487.835 1178.67 487.109 1178.33 487.073 1178.79C468.553 1179.09 451.98 1177.16 434.77 1170.08C417.542 1163 401.89 1149.71 393.993 1130.92C405.414 1139.41 417.843 1145.89 430.839 1150.85C429.759 1149.84 428.768 1148.74 427.865 1147.57C423.102 1144.7 418.498 1141.59 413.116 1138.26C397.729 1128.74 379.315 1109.17 378.554 1088.94C407.485 1123.47 449.785 1154.28 490.739 1139.13C517.103 1129.38 544.335 1123.01 571.743 1120.17C580.72 1119.25 589.733 1118.71 598.656 1117.06C608.271 1115.31 618.115 1112.49 627.535 1108.51C629.146 1110.3 630.881 1111.89 632.776 1113.29C632.917 1113.4 633.077 1113.5 633.218 1113.61C639.646 1119.1 647.153 1123.2 655.032 1125.01C653.687 1130.85 651.863 1136.56 649.614 1142.09C650.517 1154.7 648.835 1167.61 644.586 1179.52C642.089 1186.49 638.477 1193.41 633.201 1198.07C631.713 1199.37 629.553 1197.91 629.996 1195.89L632.581 1183.78C633.785 1178.19 634.971 1172.6 635.75 1166.93C634.954 1168.03 634.139 1169.09 633.307 1170.15C631.767 1184.97 626.614 1199.43 618.434 1211.55C614.344 1217.6 609.191 1223.27 602.994 1226.26C601.241 1227.11 599.542 1225.05 600.445 1223.23L605.88 1212.22C608.961 1205.99 612.06 1199.75 614.432 1193.16C615.141 1191.22 615.778 1189.23 616.362 1187.25C615.477 1187.96 614.574 1188.65 613.671 1189.32C613.618 1189.36 613.565 1189.39 613.512 1189.45C609.174 1203.29 601.56 1216.01 591.539 1225.87C586.422 1230.91 580.331 1235.34 573.744 1236.91C571.885 1237.36 570.61 1234.97 571.832 1233.36L579.198 1223.75C583.376 1218.29 587.555 1212.84 591.114 1206.9C592.371 1204.79 593.557 1202.61 594.655 1200.4C593.362 1200.97 592.052 1201.52 590.742 1202.03C582.898 1215 571.85 1225.75 559.03 1232.56L558.977 1232.54Z" fill="#F7EDE8"/>
<path d="M610.378 1076.41C611.44 1077.73 611.228 1079.68 609.918 1080.74C608.59 1081.8 606.66 1081.57 605.58 1080.25C604.517 1078.92 604.73 1076.97 606.04 1075.91C607.368 1074.85 609.298 1075.08 610.378 1076.41Z" fill="#1F0A00"/>
<path d="M629.217 1068.74C632.156 1072.41 631.554 1077.77 627.871 1080.71C624.206 1083.65 618.841 1083.04 615.902 1079.36C612.963 1075.7 613.565 1070.34 617.248 1067.4C620.913 1064.46 626.278 1065.06 629.217 1068.74Z" fill="#FDBDBC"/>
<path d="M693.95 1076.64C700.307 1059.72 695.19 1039.12 681.662 1027.12C670.118 1004.36 663.23 979.242 661.548 953.792C660.167 932.784 661.265 908.945 646.339 894.078" stroke="#1F0A00" stroke-linecap="round" stroke-linejoin="round"/>
<path d="M651.757 1135.73C641.912 1140.94 629.571 1141.13 619.567 1136.25C615.371 1134.19 611.546 1131.31 607.067 1129.96C603.667 1128.96 600.091 1128.9 596.549 1128.85C576.878 1128.62 557.083 1128.78 537.766 1132.46C518.449 1136.14 499.468 1143.56 484.595 1156.42" stroke="#1F0A00" stroke-linecap="round" stroke-linejoin="round"/>
<path d="M611.776 1089.45L591.804 1100.99L603.543 1088.32L611.776 1089.45Z" fill="#F5B78D"/>
<path d="M601.596 1092.33L607.492 1088.88C607.492 1088.88 603.862 1081.24 608.749 1077.27" stroke="#1F0A00" stroke-width="0.59" stroke-linecap="round" stroke-linejoin="round"/>
<path d="M749.051 1186.67L719.925 1146.58L766.846 1162.56" stroke="#1F0A00" stroke-width="0.59" stroke-linecap="round" stroke-linejoin="round"/>
<path d="M771.184 1138.14L719.925 1146.58L773.893 1108.55" stroke="#1F0A00" stroke-width="0.59" stroke-linecap="round" stroke-linejoin="round"/>
<path d="M720.757 1204.33L719.925 1146.58L691.825 1212.08" stroke="#1F0A00" stroke-width="0.59" stroke-linecap="round" stroke-linejoin="round"/>
<path d="M762.844 1083.52L719.925 1146.58" stroke="#1F0A00" stroke-width="0.59" stroke-linecap="round" stroke-linejoin="round"/>
<path d="M272.265 207.849V68.0859H291.777V128.472H327.684V68.0859H347.196V207.849H327.684V142.454H291.777V207.849H272.265Z" fill="#FCFDF8"/>
<path d="M361.503 207.851L391.196 68.1055H410.017L439.869 207.851H421.402L415.01 172.649H386.521L379.793 207.851H361.503ZM389.124 158.685H412.425L400.686 95.7148L389.124 158.685Z" fill="#FCFDF8"/>
<path d="M454.017 207.849V68.0859H488.703C497.095 68.0859 503.806 69.608 508.816 72.6521C513.827 75.6962 517.475 80.1031 519.776 85.855C522.078 91.6069 523.229 98.5624 523.229 106.739C523.229 114.101 521.937 120.491 519.352 125.888C516.766 131.304 512.942 135.463 507.878 138.401C502.814 141.339 496.493 142.808 488.897 142.808H473.529V207.849H454.017ZM473.529 128.826H482.505C488.136 128.826 492.58 128.189 495.803 126.933C499.025 125.676 501.327 123.446 502.708 120.296C504.089 117.128 504.78 112.686 504.78 106.934C504.78 100.261 504.284 95.1466 503.31 91.5715C502.336 88.0142 500.282 85.5364 497.184 84.156C494.085 82.7755 489.251 82.0853 482.682 82.0853H473.529V128.844V128.826Z" fill="#FCFDF8"/>
<path d="M536.862 207.849V68.0859H571.548C579.941 68.0859 586.651 69.608 591.662 72.6521C596.673 75.6962 600.32 80.1031 602.622 85.855C604.924 91.6069 606.075 98.5624 606.075 106.739C606.075 114.101 604.782 120.491 602.197 125.888C599.612 131.304 595.788 135.463 590.724 138.401C585.66 141.339 579.339 142.808 571.743 142.808H556.374V207.849H536.862ZM556.374 128.826H565.351C570.982 128.826 575.426 128.189 578.648 126.933C581.871 125.676 584.173 123.446 585.554 120.296C586.935 117.128 587.625 112.686 587.625 106.934C587.625 100.261 587.129 95.1466 586.156 91.5715C585.182 88.0142 583.128 85.5364 580.029 84.156C576.931 82.7755 572.097 82.0853 565.528 82.0853H556.374V128.844V128.826Z" fill="#FCFDF8"/>
<path d="M620.753 207.849V68.0859H639.911V207.849H620.753Z" fill="#FCFDF8"/>
<path d="M662.521 207.849V68.0859H682.033V193.868H717.764V207.849H662.521Z" fill="#FCFDF8"/>
<path d="M737.081 207.851V158.508L706.875 68.1055H725.006L746.412 135.571L767.465 68.1055H785.755L755.726 158.508V207.851H737.081Z" fill="#FCFDF8"/>
<path d="M268.228 363.683V223.938H305.658V238.432H281.702V284.678H301.125V298.483H281.702V349.719H305.888V363.701H268.228V363.683Z" fill="#FCFDF8"/>
<path d="M333.544 363.683L311.979 223.938H324.621L339.883 326.941L354.42 223.938H366.69L345.354 363.683H333.562H333.544Z" fill="#FCFDF8"/>
<path d="M376.925 363.683V223.938H414.355V238.432H390.399V284.678H409.822V298.483H390.399V349.719H414.585V363.701H376.925V363.683Z" fill="#FCFDF8"/>
<path d="M425.438 363.683V223.938H444.862C451.289 223.938 456.619 225.176 460.833 227.654C465.047 230.132 468.163 234.096 470.181 239.565C472.2 245.034 473.227 252.184 473.227 261.051C473.227 266.466 472.82 271.369 472.041 275.811C471.244 280.236 469.969 283.988 468.234 287.032C466.481 290.076 464.179 292.288 461.328 293.669L475.033 363.718H462.037L449.395 298.164H438.913V363.718H425.438V363.683ZM438.913 284.147H444.03C447.837 284.147 450.935 283.457 453.325 282.076C455.716 280.696 457.451 278.342 458.566 274.997C459.682 271.67 460.231 266.997 460.231 261.015C460.231 252.856 459.204 246.945 457.132 243.335C455.061 239.707 450.97 237.901 444.862 237.901H438.895V284.147H438.913Z" fill="#FCFDF8"/>
<path d="M509.329 363.683L529.833 223.938H542.829L563.456 363.683H550.708L546.299 328.481H526.628L521.971 363.683H509.329ZM528.398 314.517H544.493L536.384 251.547L528.398 314.517Z" fill="#FCFDF8"/>
<path d="M573.213 363.683V223.938H610.519V237.919H586.687V284.501H605.154V298.306H586.687V363.701H573.213V363.683Z" fill="#FCFDF8"/>
<path d="M630.421 363.683V238.432H614.096V223.938H659.742V238.432H643.895V363.683H630.421Z" fill="#FCFDF8"/>
<path d="M669.037 363.683V223.938H706.468V238.432H682.511V284.678H701.935V298.483H682.511V349.719H706.698V363.701H669.037V363.683Z" fill="#FCFDF8"/>
<path d="M717.534 363.683V223.938H736.958C743.385 223.938 748.714 225.176 752.928 227.654C757.142 230.132 760.259 234.096 762.277 239.565C764.296 245.034 765.323 252.184 765.323 261.051C765.323 266.466 764.915 271.369 764.136 275.811C763.339 280.236 762.065 283.988 760.329 287.032C758.577 290.076 756.275 292.288 753.424 293.669L767.129 363.718H754.132L741.49 298.164H731.008V363.718H717.534V363.683ZM731.008 284.147H736.125C739.932 284.147 743.031 283.457 745.421 282.076C747.811 280.696 749.547 278.342 750.662 274.997C751.777 271.67 752.326 266.997 752.326 261.015C752.326 252.856 751.299 246.945 749.228 243.335C747.156 239.707 743.066 237.901 736.958 237.901H730.991V284.147H731.008Z" fill="#FCFDF8"/>
</g>
<defs>
<clipPath id="clip0_3572_9720">
<rect width="1054" height="1490" fill="white"/>
</clipPath>
</defs>
</svg>
