<svg width="1054" height="1490" viewBox="0 0 1054 1490" fill="none" xmlns="http://www.w3.org/2000/svg">
<g clip-path="url(#clip0_3507_9043)">
<path d="M1079.91 -31.0195H-25.9072V1521.02H1079.91V-31.0195Z" fill="url(#paint0_linear_3507_9043)"/>
<path d="M70.9915 46.9279C70.9915 48.3184 69.8638 49.4456 68.4728 49.4456C67.0817 49.4456 65.9539 48.3184 65.9539 46.9279C65.9539 45.5373 67.0817 44.4102 68.4728 44.4102C69.8638 44.4102 70.9915 45.5373 70.9915 46.9279Z" fill="white"/>
<path d="M143.772 62.4649C143.772 63.8554 142.644 64.9827 141.253 64.9827C139.862 64.9827 138.734 63.8554 138.734 62.4649C138.734 61.0744 139.862 59.9473 141.253 59.9473C142.644 59.9473 143.772 61.0744 143.772 62.4649Z" fill="white"/>
<path d="M20.1375 18.3868C20.1375 19.7773 19.0098 20.9046 17.6188 20.9046C16.2275 20.9046 15.0999 19.7773 15.0999 18.3868C15.0999 16.9963 16.2275 15.8691 17.6188 15.8691C19.0098 15.8691 20.1375 16.9963 20.1375 18.3868Z" fill="white"/>
<path d="M327.081 55.338C327.081 56.7284 325.953 57.8557 324.562 57.8557C323.171 57.8557 322.043 56.7284 322.043 55.338C322.043 53.9475 323.171 52.8203 324.562 52.8203C325.953 52.8203 327.081 53.9475 327.081 55.338Z" fill="white"/>
<path d="M96.7085 28.0851C96.7085 28.7803 96.1447 29.344 95.4492 29.344C94.7536 29.344 94.1897 28.7803 94.1897 28.0851C94.1897 27.3898 94.7536 26.8262 95.4492 26.8262C96.1447 26.8262 96.7085 27.3898 96.7085 28.0851Z" fill="white"/>
<path d="M148.526 21.6007C148.526 22.2959 147.962 22.8594 147.267 22.8594C146.571 22.8594 146.007 22.2959 146.007 21.6007C146.007 20.9053 146.571 20.3418 147.267 20.3418C147.962 20.3418 148.526 20.9053 148.526 21.6007Z" fill="white"/>
<path d="M96.233 98.5792C96.233 99.2744 95.6691 99.838 94.9736 99.838C94.278 99.838 93.7141 99.2744 93.7141 98.5792C93.7141 97.8838 94.278 97.3203 94.9736 97.3203C95.6691 97.3203 96.233 97.8838 96.233 98.5792Z" fill="white"/>
<path d="M120.701 114.092C121.086 114.092 121.398 113.78 121.398 113.395C121.398 113.01 121.086 112.697 120.701 112.697C120.315 112.697 120.003 113.01 120.003 113.395C120.003 113.78 120.315 114.092 120.701 114.092Z" fill="white"/>
<path d="M159.04 90.8911C159.426 90.8911 159.738 90.5788 159.738 90.1936C159.738 89.8084 159.426 89.4961 159.04 89.4961C158.655 89.4961 158.343 89.8084 158.343 90.1936C158.343 90.5788 158.655 90.8911 159.04 90.8911Z" fill="white"/>
<path d="M143.185 106.438C143.571 106.438 143.883 106.126 143.883 105.74C143.883 105.355 143.571 105.043 143.185 105.043C142.8 105.043 142.487 105.355 142.487 105.74C142.487 106.126 142.8 106.438 143.185 106.438Z" fill="white"/>
<path d="M134.484 118.467C134.87 118.467 135.182 118.155 135.182 117.77C135.182 117.385 134.87 117.072 134.484 117.072C134.099 117.072 133.786 117.385 133.786 117.77C133.786 118.155 134.099 118.467 134.484 118.467Z" fill="white"/>
<path d="M135.333 98.9517C135.718 98.9517 136.031 98.6394 136.031 98.2542C136.031 97.8689 135.718 97.5566 135.333 97.5566C134.948 97.5566 134.635 97.8689 134.635 98.2542C134.635 98.6394 134.948 98.9517 135.333 98.9517Z" fill="white"/>
<path d="M62.3136 144.504C63.0092 144.504 63.5731 143.94 63.5731 143.245C63.5731 142.55 63.0092 141.986 62.3136 141.986C61.6181 141.986 61.0542 142.55 61.0542 143.245C61.0542 143.94 61.6181 144.504 62.3136 144.504Z" fill="white"/>
<path d="M264.036 19.1643C264.731 19.1643 265.295 18.6006 265.295 17.9054C265.295 17.2101 264.731 16.6465 264.036 16.6465C263.34 16.6465 262.776 17.2101 262.776 17.9054C262.776 18.6006 263.34 19.1643 264.036 19.1643Z" fill="white"/>
<path d="M69.6111 233.529C69.6111 234.92 68.4835 236.047 67.0924 236.047C65.7013 236.047 64.5735 234.92 64.5735 233.529C64.5735 232.139 65.7013 231.012 67.0924 231.012C68.4835 231.012 69.6111 232.139 69.6111 233.529Z" fill="white"/>
<path d="M50.5198 365.563C50.5198 366.953 49.3922 368.08 48.0009 368.08C46.6098 368.08 45.4822 366.953 45.4822 365.563C45.4822 364.172 46.6098 363.045 48.0009 363.045C49.3922 363.045 50.5198 364.172 50.5198 365.563Z" fill="white"/>
<path d="M251.827 171.899C251.827 173.289 250.7 174.416 249.309 174.416C247.917 174.416 246.79 173.289 246.79 171.899C246.79 170.508 247.917 169.381 249.309 169.381C250.7 169.381 251.827 170.508 251.827 171.899Z" fill="white"/>
<g style="mix-blend-mode:soft-light" opacity="0.8">
<path opacity="0.28" d="M248.571 171.689L249.591 141.506L250.203 171.485L249.999 205.134L248.571 171.689Z" fill="white"/>
<path opacity="0.28" d="M249.593 171.078L279.789 172.098L249.797 172.71L216.132 172.506L249.593 171.078Z" fill="white"/>
<path opacity="0.57" d="M248.864 171.272L265.709 156.912L249.78 172.055L231.461 188.569L248.864 171.272Z" fill="white"/>
<path opacity="0.57" d="M249.699 171.525L264.066 188.363L248.916 172.442L232.394 154.131L249.699 171.525Z" fill="white"/>
</g>
<path d="M419.803 103.494C419.803 104.885 418.675 106.012 417.284 106.012C415.893 106.012 414.765 104.885 414.765 103.494C414.765 102.104 415.893 100.977 417.284 100.977C418.675 100.977 419.803 102.104 419.803 103.494Z" fill="white"/>
<path d="M200.127 108.863C200.822 108.863 201.386 108.3 201.386 107.605C201.386 106.909 200.822 106.346 200.127 106.346C199.431 106.346 198.867 106.909 198.867 107.605C198.867 108.3 199.431 108.863 200.127 108.863Z" fill="white"/>
<path d="M17.5253 221.085C17.5253 221.78 16.9614 222.344 16.2659 222.344C15.5704 222.344 15.0066 221.78 15.0066 221.085C15.0066 220.39 15.5704 219.826 16.2659 219.826C16.9614 219.826 17.5253 220.39 17.5253 221.085Z" fill="white"/>
<path d="M189.597 178.599C189.597 179.294 189.033 179.857 188.338 179.857C187.642 179.857 187.078 179.294 187.078 178.599C187.078 177.903 187.642 177.34 188.338 177.34C189.033 177.34 189.597 177.903 189.597 178.599Z" fill="white"/>
<path d="M227.853 262.38C227.853 263.075 227.29 263.639 226.594 263.639C225.898 263.639 225.335 263.075 225.335 262.38C225.335 261.685 225.898 261.121 226.594 261.121C227.29 261.121 227.853 261.685 227.853 262.38Z" fill="white"/>
<path d="M137.304 255.579C137.304 256.274 136.74 256.838 136.045 256.838C135.349 256.838 134.785 256.274 134.785 255.579C134.785 254.884 135.349 254.32 136.045 254.32C136.74 254.32 137.304 254.884 137.304 255.579Z" fill="white"/>
<path d="M23.2316 111.81C23.2316 112.505 22.6679 113.068 21.9723 113.068C21.2767 113.068 20.7129 112.505 20.7129 111.81C20.7129 111.114 21.2767 110.551 21.9723 110.551C22.6679 110.551 23.2316 111.114 23.2316 111.81Z" fill="white"/>
<path d="M153.359 298.546C153.359 299.241 152.795 299.805 152.1 299.805C151.404 299.805 150.841 299.241 150.841 298.546C150.841 297.851 151.404 297.287 152.1 297.287C152.795 297.287 153.359 297.851 153.359 298.546Z" fill="white"/>
<path d="M161.772 271.092C162.157 271.092 162.469 270.78 162.469 270.395C162.469 270.01 162.157 269.697 161.772 269.697C161.386 269.697 161.074 270.01 161.074 270.395C161.074 270.78 161.386 271.092 161.772 271.092Z" fill="white"/>
<path d="M200.112 247.891C200.497 247.891 200.809 247.579 200.809 247.194C200.809 246.808 200.497 246.496 200.112 246.496C199.726 246.496 199.414 246.808 199.414 247.194C199.414 247.579 199.726 247.891 200.112 247.891Z" fill="white"/>
<path d="M272.743 193.758C273.128 193.758 273.441 193.446 273.441 193.061C273.441 192.676 273.128 192.363 272.743 192.363C272.357 192.363 272.045 192.676 272.045 193.061C272.045 193.446 272.357 193.758 272.743 193.758Z" fill="white"/>
<path d="M184.256 263.438C184.642 263.438 184.954 263.126 184.954 262.74C184.954 262.355 184.642 262.043 184.256 262.043C183.871 262.043 183.559 262.355 183.559 262.74C183.559 263.126 183.871 263.438 184.256 263.438Z" fill="white"/>
<path d="M196.118 293.151C196.504 293.151 196.816 292.839 196.816 292.453C196.816 292.068 196.504 291.756 196.118 291.756C195.733 291.756 195.421 292.068 195.421 292.453C195.421 292.839 195.733 293.151 196.118 293.151Z" fill="white"/>
<path d="M242.267 292.977C242.653 292.977 242.965 292.665 242.965 292.28C242.965 291.894 242.653 291.582 242.267 291.582C241.882 291.582 241.569 291.894 241.569 292.28C241.569 292.665 241.882 292.977 242.267 292.977Z" fill="white"/>
<path d="M339.789 259.034C340.175 259.034 340.487 258.721 340.487 258.336C340.487 257.951 340.175 257.639 339.789 257.639C339.404 257.639 339.091 257.951 339.091 258.336C339.091 258.721 339.404 259.034 339.789 259.034Z" fill="white"/>
<path d="M175.555 275.467C175.941 275.467 176.253 275.155 176.253 274.77C176.253 274.385 175.941 274.072 175.555 274.072C175.17 274.072 174.858 274.385 174.858 274.77C174.858 275.155 175.17 275.467 175.555 275.467Z" fill="white"/>
<path d="M244.879 330.403C245.265 330.403 245.577 330.091 245.577 329.705C245.577 329.32 245.265 329.008 244.879 329.008C244.494 329.008 244.182 329.32 244.182 329.705C244.182 330.091 244.494 330.403 244.879 330.403Z" fill="white"/>
<path d="M176.541 254.57C176.919 254.646 177.164 255.013 177.089 255.391C177.013 255.769 176.646 256.014 176.268 255.938C175.89 255.863 175.645 255.496 175.72 255.118C175.795 254.74 176.163 254.495 176.541 254.57Z" fill="white"/>
<path d="M158.034 357.522C158.419 357.522 158.732 357.21 158.732 356.824C158.732 356.439 158.419 356.127 158.034 356.127C157.648 356.127 157.336 356.439 157.336 356.824C157.336 357.21 157.648 357.522 158.034 357.522Z" fill="white"/>
<path d="M133.789 196.436C134.174 196.436 134.487 196.124 134.487 195.739C134.487 195.353 134.174 195.041 133.789 195.041C133.403 195.041 133.091 195.353 133.091 195.739C133.091 196.124 133.403 196.436 133.789 196.436Z" fill="white"/>
<path d="M178.531 213.079C178.916 213.079 179.229 212.766 179.229 212.381C179.229 211.996 178.916 211.684 178.531 211.684C178.145 211.684 177.833 211.996 177.833 212.381C177.833 212.766 178.145 213.079 178.531 213.079Z" fill="white"/>
<path d="M84.6651 209.424C85.0505 209.424 85.3629 209.112 85.3629 208.727C85.3629 208.342 85.0505 208.029 84.6651 208.029C84.2797 208.029 83.9673 208.342 83.9673 208.727C83.9673 209.112 84.2797 209.424 84.6651 209.424Z" fill="white"/>
<path d="M17.7916 352.334C18.177 352.334 18.4894 352.022 18.4894 351.637C18.4894 351.252 18.177 350.939 17.7916 350.939C17.4062 350.939 17.0938 351.252 17.0938 351.637C17.0938 352.022 17.4062 352.334 17.7916 352.334Z" fill="white"/>
<path d="M69.6898 347.983C70.0752 347.983 70.3876 347.671 70.3876 347.285C70.3876 346.9 70.0752 346.588 69.6898 346.588C69.3044 346.588 68.9919 346.9 68.9919 347.285C68.9919 347.671 69.3044 347.983 69.6898 347.983Z" fill="white"/>
<path d="M103.385 301.504C104.081 301.504 104.644 300.94 104.644 300.245C104.644 299.55 104.081 298.986 103.385 298.986C102.689 298.986 102.125 299.55 102.125 300.245C102.125 300.94 102.689 301.504 103.385 301.504Z" fill="white"/>
<path d="M79.8292 402.599C79.8292 403.294 79.2653 403.858 78.5698 403.858C77.8742 403.858 77.3103 403.294 77.3103 402.599C77.3103 401.903 77.8742 401.34 78.5698 401.34C79.2653 401.34 79.8292 401.903 79.8292 402.599Z" fill="white"/>
<path d="M383.24 46.9279C383.24 48.3184 382.112 49.4456 380.721 49.4456C379.33 49.4456 378.202 48.3184 378.202 46.9279C378.202 45.5373 379.33 44.4102 380.721 44.4102C382.112 44.4102 383.24 45.5373 383.24 46.9279Z" fill="white"/>
<path d="M517.449 47.5649C518.84 47.5649 519.968 46.4376 519.968 45.0471C519.968 43.6565 518.84 42.5293 517.449 42.5293C516.058 42.5293 514.93 43.6565 514.93 45.0471C514.93 46.4376 516.058 47.5649 517.449 47.5649Z" fill="white"/>
<path d="M332.386 18.3868C332.386 19.7773 331.258 20.9046 329.867 20.9046C328.476 20.9046 327.348 19.7773 327.348 18.3868C327.348 16.9963 328.476 15.8691 329.867 15.8691C331.258 15.8691 332.386 16.9963 332.386 18.3868Z" fill="white"/>
<path d="M639.329 55.338C639.329 56.7284 638.201 57.8557 636.81 57.8557C635.419 57.8557 634.291 56.7284 634.291 55.338C634.291 53.9475 635.419 52.8203 636.81 52.8203C638.201 52.8203 639.329 53.9475 639.329 55.338Z" fill="white"/>
<path d="M407.697 29.344C408.393 29.344 408.956 28.7803 408.956 28.0851C408.956 27.3898 408.393 26.8262 407.697 26.8262C407.001 26.8262 406.438 27.3898 406.438 28.0851C406.438 28.7803 407.001 29.344 407.697 29.344Z" fill="white"/>
<path d="M460.774 21.6007C460.774 22.2959 460.21 22.8594 459.514 22.8594C458.819 22.8594 458.255 22.2959 458.255 21.6007C458.255 20.9053 458.819 20.3418 459.514 20.3418C460.21 20.3418 460.774 20.9053 460.774 21.6007Z" fill="white"/>
<path d="M408.481 98.5792C408.481 99.2744 407.917 99.838 407.222 99.838C406.526 99.838 405.962 99.2744 405.962 98.5792C405.962 97.8838 406.526 97.3203 407.222 97.3203C407.917 97.3203 408.481 97.8838 408.481 98.5792Z" fill="white"/>
<path d="M370.554 179.047C370.939 179.047 371.252 178.735 371.252 178.35C371.252 177.965 370.939 177.652 370.554 177.652C370.168 177.652 369.856 177.965 369.856 178.35C369.856 178.735 370.168 179.047 370.554 179.047Z" fill="white"/>
<path d="M471.288 90.8911C471.674 90.8911 471.986 90.5788 471.986 90.1936C471.986 89.8084 471.674 89.4961 471.288 89.4961C470.903 89.4961 470.59 89.8084 470.59 90.1936C470.59 90.5788 470.903 90.8911 471.288 90.8911Z" fill="white"/>
<path d="M455.433 106.438C455.819 106.438 456.131 106.126 456.131 105.74C456.131 105.355 455.819 105.043 455.433 105.043C455.048 105.043 454.735 105.355 454.735 105.74C454.735 106.126 455.048 106.438 455.433 106.438Z" fill="white"/>
<path d="M446.732 118.467C447.118 118.467 447.43 118.155 447.43 117.77C447.43 117.385 447.118 117.072 446.732 117.072C446.347 117.072 446.034 117.385 446.034 117.77C446.034 118.155 446.347 118.467 446.732 118.467Z" fill="white"/>
<path d="M267.141 107.043C267.527 107.043 267.839 106.731 267.839 106.346C267.839 105.961 267.527 105.648 267.141 105.648C266.756 105.648 266.444 105.961 266.444 106.346C266.444 106.731 266.756 107.043 267.141 107.043Z" fill="white"/>
<path d="M375.821 143.245C375.821 143.94 375.257 144.504 374.562 144.504C373.866 144.504 373.302 143.94 373.302 143.245C373.302 142.55 373.866 141.986 374.562 141.986C375.257 141.986 375.821 142.55 375.821 143.245Z" fill="white"/>
<path d="M577.543 17.9054C577.543 18.6006 576.979 19.1643 576.283 19.1643C575.588 19.1643 575.024 18.6006 575.024 17.9054C575.024 17.2101 575.588 16.6465 576.283 16.6465C576.979 16.6465 577.543 17.2101 577.543 17.9054Z" fill="white"/>
<path d="M383.843 307.471C383.843 308.861 382.715 309.989 381.324 309.989C379.933 309.989 378.805 308.861 378.805 307.471C378.805 306.08 379.933 304.953 381.324 304.953C382.715 304.953 383.843 306.08 383.843 307.471Z" fill="white"/>
<path d="M324.198 318.094C324.198 319.484 323.07 320.612 321.679 320.612C320.288 320.612 319.16 319.484 319.16 318.094C319.16 316.703 320.288 315.576 321.679 315.576C323.07 315.576 324.198 316.703 324.198 318.094Z" fill="white"/>
<path d="M232.215 419.965C232.215 421.356 231.088 422.483 229.697 422.483C228.305 422.483 227.178 421.356 227.178 419.965C227.178 418.575 228.305 417.447 229.697 417.447C231.088 417.447 232.215 418.575 232.215 419.965Z" fill="white"/>
<path d="M564.075 171.899C564.075 173.289 562.948 174.416 561.557 174.416C560.165 174.416 559.038 173.289 559.038 171.899C559.038 170.508 560.165 169.381 561.557 169.381C562.948 169.381 564.075 170.508 564.075 171.899Z" fill="white"/>
<path d="M729.532 106.012C730.923 106.012 732.051 104.885 732.051 103.494C732.051 102.104 730.923 100.977 729.532 100.977C728.141 100.977 727.013 102.104 727.013 103.494C727.013 104.885 728.141 106.012 729.532 106.012Z" fill="white"/>
<path d="M538.842 100.311C539.538 100.311 540.101 99.7471 540.101 99.0519C540.101 98.3566 539.538 97.793 538.842 97.793C538.146 97.793 537.583 98.3566 537.583 99.0519C537.583 99.7471 538.146 100.311 538.842 100.311Z" fill="white"/>
<path d="M329.773 221.085C329.773 221.78 329.209 222.344 328.514 222.344C327.818 222.344 327.254 221.78 327.254 221.085C327.254 220.39 327.818 219.826 328.514 219.826C329.209 219.826 329.773 220.39 329.773 221.085Z" fill="white"/>
<path d="M454.698 154.647C455.393 154.647 455.957 154.083 455.957 153.388C455.957 152.693 455.393 152.129 454.698 152.129C454.002 152.129 453.438 152.693 453.438 153.388C453.438 154.083 454.002 154.647 454.698 154.647Z" fill="white"/>
<path d="M618.707 191.545C619.403 191.545 619.967 190.982 619.967 190.286C619.967 189.591 619.403 189.027 618.707 189.027C618.012 189.027 617.448 189.591 617.448 190.286C617.448 190.982 618.012 191.545 618.707 191.545Z" fill="white"/>
<path d="M449.552 255.579C449.552 256.274 448.988 256.838 448.293 256.838C447.597 256.838 447.033 256.274 447.033 255.579C447.033 254.884 447.597 254.32 448.293 254.32C448.988 254.32 449.552 254.884 449.552 255.579Z" fill="white"/>
<path d="M335.48 111.81C335.48 112.505 334.916 113.068 334.22 113.068C333.525 113.068 332.961 112.505 332.961 111.81C332.961 111.114 333.525 110.551 334.22 110.551C334.916 110.551 335.48 111.114 335.48 111.81Z" fill="white"/>
<path d="M437.64 291.052C437.64 291.747 437.076 292.311 436.38 292.311C435.685 292.311 435.121 291.747 435.121 291.052C435.121 290.357 435.685 289.793 436.38 289.793C437.076 289.793 437.64 290.357 437.64 291.052Z" fill="white"/>
<path d="M474.02 271.092C474.405 271.092 474.717 270.78 474.717 270.395C474.717 270.01 474.405 269.697 474.02 269.697C473.634 269.697 473.322 270.01 473.322 270.395C473.322 270.78 473.634 271.092 474.02 271.092Z" fill="white"/>
<path d="M512.359 247.891C512.745 247.891 513.057 247.579 513.057 247.194C513.057 246.808 512.745 246.496 512.359 246.496C511.974 246.496 511.662 246.808 511.662 247.194C511.662 247.579 511.974 247.891 512.359 247.891Z" fill="white"/>
<path d="M584.991 193.758C585.376 193.758 585.688 193.446 585.688 193.061C585.688 192.676 585.376 192.363 584.991 192.363C584.605 192.363 584.293 192.676 584.293 193.061C584.293 193.446 584.605 193.758 584.991 193.758Z" fill="white"/>
<path d="M572.372 152.661C572.758 152.661 573.07 152.348 573.07 151.963C573.07 151.578 572.758 151.266 572.372 151.266C571.987 151.266 571.674 151.578 571.674 151.963C571.674 152.348 571.987 152.661 572.372 152.661Z" fill="white"/>
<path d="M508.366 293.151C508.752 293.151 509.064 292.839 509.064 292.453C509.064 292.068 508.752 291.756 508.366 291.756C507.981 291.756 507.668 292.068 507.668 292.453C507.668 292.839 507.981 293.151 508.366 293.151Z" fill="white"/>
<path d="M654.362 137.676C654.747 137.676 655.059 137.364 655.059 136.979C655.059 136.594 654.747 136.281 654.362 136.281C653.976 136.281 653.664 136.594 653.664 136.979C653.664 137.364 653.976 137.676 654.362 137.676Z" fill="white"/>
<path d="M652.037 259.034C652.422 259.034 652.735 258.721 652.735 258.336C652.735 257.951 652.422 257.639 652.037 257.639C651.651 257.639 651.339 257.951 651.339 258.336C651.339 258.721 651.651 259.034 652.037 259.034Z" fill="white"/>
<path d="M426.969 382.239C427.355 382.239 427.667 381.927 427.667 381.541C427.667 381.156 427.355 380.844 426.969 380.844C426.584 380.844 426.271 381.156 426.271 381.541C426.271 381.927 426.584 382.239 426.969 382.239Z" fill="white"/>
<path d="M512.523 340.336C512.908 340.336 513.22 340.024 513.22 339.639C513.22 339.254 512.908 338.941 512.523 338.941C512.137 338.941 511.825 339.254 511.825 339.639C511.825 340.024 512.137 340.336 512.523 340.336Z" fill="white"/>
<path d="M139.514 46.4732C139.9 46.4732 140.212 46.1609 140.212 45.7756C140.212 45.3904 139.9 45.0781 139.514 45.0781C139.129 45.0781 138.817 45.3904 138.817 45.7756C138.817 46.1609 139.129 46.4732 139.514 46.4732Z" fill="white"/>
<path d="M557.127 330.403C557.513 330.403 557.825 330.091 557.825 329.705C557.825 329.32 557.513 329.008 557.127 329.008C556.742 329.008 556.429 329.32 556.429 329.705C556.429 330.091 556.742 330.403 557.127 330.403Z" fill="white"/>
<path d="M578.084 319.489C578.469 319.489 578.782 319.177 578.782 318.791C578.782 318.406 578.469 318.094 578.084 318.094C577.698 318.094 577.386 318.406 577.386 318.791C577.386 319.177 577.698 319.489 578.084 319.489Z" fill="white"/>
<path d="M574.098 306.209C574.484 306.209 574.796 305.897 574.796 305.512C574.796 305.127 574.484 304.814 574.098 304.814C573.713 304.814 573.4 305.127 573.4 305.512C573.4 305.897 573.713 306.209 574.098 306.209Z" fill="white"/>
<path d="M488.789 254.57C489.167 254.646 489.412 255.013 489.337 255.391C489.261 255.769 488.894 256.014 488.516 255.938C488.138 255.863 487.893 255.496 487.968 255.118C488.043 254.74 488.411 254.495 488.789 254.57Z" fill="white"/>
<path d="M418.414 391.645C418.8 391.645 419.112 391.333 419.112 390.948C419.112 390.562 418.8 390.25 418.414 390.25C418.029 390.25 417.716 390.562 417.716 390.948C417.716 391.333 418.029 391.645 418.414 391.645Z" fill="white"/>
<path d="M446.037 196.436C446.422 196.436 446.735 196.124 446.735 195.739C446.735 195.353 446.422 195.041 446.037 195.041C445.651 195.041 445.339 195.353 445.339 195.739C445.339 196.124 445.651 196.436 446.037 196.436Z" fill="white"/>
<path d="M490.779 213.079C491.164 213.079 491.477 212.766 491.477 212.381C491.477 211.996 491.164 211.684 490.779 211.684C490.394 211.684 490.081 211.996 490.081 212.381C490.081 212.766 490.394 213.079 490.779 213.079Z" fill="white"/>
<path d="M877.168 143.657C877.553 143.657 877.865 143.344 877.865 142.959C877.865 142.574 877.553 142.262 877.168 142.262C876.782 142.262 876.47 142.574 876.47 142.959C876.47 143.344 876.782 143.657 877.168 143.657Z" fill="white"/>
<path d="M915.507 120.456C915.893 120.456 916.205 120.143 916.205 119.758C916.205 119.373 915.893 119.061 915.507 119.061C915.122 119.061 914.81 119.373 914.81 119.758C914.81 120.143 915.122 120.456 915.507 120.456Z" fill="white"/>
<path d="M911.514 165.715C911.9 165.715 912.212 165.403 912.212 165.018C912.212 164.633 911.9 164.32 911.514 164.32C911.129 164.32 910.816 164.633 910.816 165.018C910.816 165.403 911.129 165.715 911.514 165.715Z" fill="white"/>
<path d="M891.937 127.135C892.315 127.21 892.56 127.577 892.485 127.955C892.409 128.333 892.042 128.578 891.664 128.503C891.286 128.428 891.04 128.06 891.116 127.682C891.191 127.305 891.559 127.059 891.937 127.135Z" fill="white"/>
<path d="M893.927 85.6431C894.312 85.6431 894.625 85.3308 894.625 84.9456C894.625 84.5603 894.312 84.248 893.927 84.248C893.541 84.248 893.229 84.5603 893.229 84.9456C893.229 85.3308 893.541 85.6431 893.927 85.6431Z" fill="white"/>
<path d="M396.913 209.424C397.298 209.424 397.611 209.112 397.611 208.727C397.611 208.342 397.298 208.029 396.913 208.029C396.528 208.029 396.215 208.342 396.215 208.727C396.215 209.112 396.528 209.424 396.913 209.424Z" fill="white"/>
<path d="M904.642 48.1802C905.027 48.1802 905.34 47.8679 905.34 47.4827C905.34 47.0974 905.027 46.7852 904.642 46.7852C904.256 46.7852 903.944 47.0974 903.944 47.4827C903.944 47.8679 904.256 48.1802 904.642 48.1802Z" fill="white"/>
<path d="M896.247 175.079C896.006 176.448 894.701 177.363 893.33 177.123C891.96 176.882 891.045 175.577 891.285 174.208C891.526 172.838 892.832 171.923 894.202 172.163C895.572 172.404 896.488 173.709 896.247 175.079Z" fill="white"/>
<path d="M907.886 123.119C907.886 124.51 906.759 125.637 905.368 125.637C903.976 125.637 902.849 124.51 902.849 123.119C902.849 121.729 903.976 120.602 905.368 120.602C906.759 120.602 907.886 121.729 907.886 123.119Z" fill="white"/>
<path d="M990.045 22.5206C990.045 23.2158 989.481 23.7795 988.786 23.7795C988.09 23.7795 987.526 23.2158 987.526 22.5206C987.526 21.8254 988.09 21.2617 988.786 21.2617C989.481 21.2617 990.045 21.8254 990.045 22.5206Z" fill="white"/>
<path d="M982.381 125.969C983.076 125.969 983.64 125.405 983.64 124.71C983.64 124.015 983.076 123.451 982.381 123.451C981.685 123.451 981.121 124.015 981.121 124.71C981.121 125.405 981.685 125.969 982.381 125.969Z" fill="white"/>
<path d="M951.539 186.29C951.539 186.985 950.975 187.549 950.279 187.549C949.584 187.549 949.02 186.985 949.02 186.29C949.02 185.595 949.584 185.031 950.279 185.031C950.975 185.031 951.539 185.595 951.539 186.29Z" fill="white"/>
<path d="M1008.11 140.225C1008.49 140.225 1008.81 139.913 1008.81 139.528C1008.81 139.142 1008.49 138.83 1008.11 138.83C1007.72 138.83 1007.41 139.142 1007.41 139.528C1007.41 139.913 1007.72 140.225 1008.11 140.225Z" fill="white"/>
<path d="M1022.88 123.703C1023.25 123.778 1023.5 124.146 1023.42 124.524C1023.35 124.901 1022.98 125.147 1022.6 125.071C1022.23 124.996 1021.98 124.628 1022.06 124.251C1022.13 123.873 1022.5 123.628 1022.88 123.703Z" fill="white"/>
<path d="M980.822 64.8694C980.822 65.2547 980.51 65.5669 980.125 65.5669C979.739 65.5669 979.427 65.2547 979.427 64.8694C979.427 64.4842 979.739 64.1719 980.125 64.1719C980.51 64.1719 980.822 64.4842 980.822 64.8694Z" fill="white"/>
<path d="M1025.56 81.5139C1025.56 81.8991 1025.25 82.2114 1024.87 82.2114C1024.48 82.2114 1024.17 81.8991 1024.17 81.5139C1024.17 81.1287 1024.48 80.8164 1024.87 80.8164C1025.25 80.8164 1025.56 81.1287 1025.56 81.5139Z" fill="white"/>
<path d="M931.001 78.5571C931.386 78.5571 931.698 78.2449 931.698 77.8596C931.698 77.4744 931.386 77.1621 931.001 77.1621C930.615 77.1621 930.303 77.4744 930.303 77.8596C930.303 78.2449 930.615 78.5571 931.001 78.5571Z" fill="white"/>
<path d="M330.039 352.334C330.425 352.334 330.737 352.022 330.737 351.637C330.737 351.252 330.425 350.939 330.039 350.939C329.654 350.939 329.342 351.252 329.342 351.637C329.342 352.022 329.654 352.334 330.039 352.334Z" fill="white"/>
<path d="M381.938 347.983C382.323 347.983 382.635 347.671 382.635 347.285C382.635 346.9 382.323 346.588 381.938 346.588C381.552 346.588 381.24 346.9 381.24 347.285C381.24 347.671 381.552 347.983 381.938 347.983Z" fill="white"/>
<path d="M299.246 325.879C299.941 325.879 300.505 325.316 300.505 324.62C300.505 323.925 299.941 323.361 299.246 323.361C298.55 323.361 297.986 323.925 297.986 324.62C297.986 325.316 298.55 325.879 299.246 325.879Z" fill="white"/>
<path d="M348.995 418.371C349.69 418.371 350.254 417.808 350.254 417.112C350.254 416.417 349.69 415.854 348.995 415.854C348.299 415.854 347.735 416.417 347.735 417.112C347.735 417.808 348.299 418.371 348.995 418.371Z" fill="white"/>
<path d="M900.94 267.588C901.326 267.588 901.638 267.276 901.638 266.891C901.638 266.506 901.326 266.193 900.94 266.193C900.555 266.193 900.243 266.506 900.243 266.891C900.243 267.276 900.555 267.588 900.94 267.588Z" fill="white"/>
<path d="M915.351 314.475C915.351 315.865 914.223 316.993 912.832 316.993C911.441 316.993 910.313 315.865 910.313 314.475C910.313 313.084 911.441 311.957 912.832 311.957C914.223 311.957 915.351 313.084 915.351 314.475Z" fill="white"/>
<path d="M1010.7 264.132C1010.7 264.827 1010.14 265.391 1009.44 265.391C1008.75 265.391 1008.18 264.827 1008.18 264.132C1008.18 263.437 1008.75 262.873 1009.44 262.873C1010.14 262.873 1010.7 263.437 1010.7 264.132Z" fill="white"/>
<path d="M977.343 326.971C978.039 326.971 978.602 326.407 978.602 325.712C978.602 325.017 978.039 324.453 977.343 324.453C976.647 324.453 976.083 325.017 976.083 325.712C976.083 326.407 976.647 326.971 977.343 326.971Z" fill="white"/>
<path d="M891.191 360.887C891.576 360.887 891.889 360.575 891.889 360.19C891.889 359.804 891.576 359.492 891.191 359.492C890.806 359.492 890.493 359.804 890.493 360.19C890.493 360.575 890.806 360.887 891.191 360.887Z" fill="white"/>
<path d="M943.089 356.536C943.474 356.536 943.787 356.223 943.787 355.838C943.787 355.453 943.474 355.141 943.089 355.141C942.704 355.141 942.391 355.453 942.391 355.838C942.391 356.223 942.704 356.536 943.089 356.536Z" fill="white"/>
<path d="M911.405 425.667C911.405 426.362 910.842 426.926 910.146 426.926C909.451 426.926 908.887 426.362 908.887 425.667C908.887 424.972 909.451 424.408 910.146 424.408C910.842 424.408 911.405 424.972 911.405 425.667Z" fill="white"/>
<path d="M716.533 142.437C716.533 143.132 715.97 143.696 715.274 143.696C714.579 143.696 714.015 143.132 714.015 142.437C714.015 141.741 714.579 141.178 715.274 141.178C715.97 141.178 716.533 141.741 716.533 142.437Z" fill="white"/>
<path d="M678.607 222.907C678.992 222.907 679.304 222.594 679.304 222.209C679.304 221.824 678.992 221.512 678.607 221.512C678.221 221.512 677.909 221.824 677.909 222.209C677.909 222.594 678.221 222.907 678.607 222.907Z" fill="white"/>
<path d="M779.341 134.751C779.726 134.751 780.039 134.438 780.039 134.053C780.039 133.668 779.726 133.355 779.341 133.355C778.955 133.355 778.643 133.668 778.643 134.053C778.643 134.438 778.955 134.751 779.341 134.751Z" fill="white"/>
<path d="M538.842 50.7485C539.227 50.7485 539.54 50.4363 539.54 50.051C539.54 49.6658 539.227 49.3535 538.842 49.3535C538.456 49.3535 538.144 49.6658 538.144 50.051C538.144 50.4363 538.456 50.7485 538.842 50.7485Z" fill="white"/>
<path d="M836.911 39.315C837.297 39.315 837.609 39.0027 837.609 38.6174C837.609 38.2322 837.297 37.9199 836.911 37.9199C836.526 37.9199 836.213 38.2322 836.213 38.6174C836.213 39.0027 836.526 39.315 836.911 39.315Z" fill="white"/>
<path d="M764.177 77.8345C764.562 77.8345 764.874 77.5222 764.874 77.137C764.874 76.7517 764.562 76.4395 764.177 76.4395C763.791 76.4395 763.479 76.7517 763.479 77.137C763.479 77.5222 763.791 77.8345 764.177 77.8345Z" fill="white"/>
<path d="M754.785 162.327C755.17 162.327 755.483 162.014 755.483 161.629C755.483 161.244 755.17 160.932 754.785 160.932C754.399 160.932 754.087 161.244 754.087 161.629C754.087 162.014 754.399 162.327 754.785 162.327Z" fill="white"/>
<path d="M590.392 138.958C590.01 139.015 589.655 138.753 589.598 138.372C589.54 137.991 589.803 137.635 590.184 137.578C590.565 137.521 590.921 137.783 590.978 138.164C591.035 138.545 590.773 138.9 590.392 138.958Z" fill="white"/>
<path d="M683.874 187.104C683.874 187.8 683.31 188.363 682.614 188.363C681.918 188.363 681.355 187.8 681.355 187.104C681.355 186.409 681.918 185.846 682.614 185.846C683.31 185.846 683.874 186.409 683.874 187.104Z" fill="white"/>
<path d="M283.724 39.1779C284.42 39.1779 284.984 38.6143 284.984 37.9191C284.984 37.2238 284.42 36.6602 283.724 36.6602C283.029 36.6602 282.465 37.2238 282.465 37.9191C282.465 38.6143 283.029 39.1779 283.724 39.1779Z" fill="white"/>
<path d="M662.252 349.779C662.252 351.17 661.124 352.297 659.733 352.297C658.342 352.297 657.214 351.17 657.214 349.779C657.214 348.389 658.342 347.262 659.733 347.262C661.124 347.262 662.252 348.389 662.252 349.779Z" fill="white"/>
<path d="M462.901 377.424C462.901 378.814 461.774 379.942 460.383 379.942C458.992 379.942 457.864 378.814 457.864 377.424C457.864 376.033 458.992 374.906 460.383 374.906C461.774 374.906 462.901 376.033 462.901 377.424Z" fill="white"/>
<path d="M564.522 385.818C564.522 387.209 563.394 388.336 562.003 388.336C560.612 388.336 559.484 387.209 559.484 385.818C559.484 384.428 560.612 383.301 562.003 383.301C563.394 383.301 564.522 384.428 564.522 385.818Z" fill="white"/>
<path d="M461.143 424.504C461.143 425.895 460.015 427.022 458.624 427.022C457.233 427.022 456.105 425.895 456.105 424.504C456.105 423.113 457.233 421.986 458.624 421.986C460.015 421.986 461.143 423.113 461.143 424.504Z" fill="white"/>
<path d="M540.609 437.607C540.609 438.998 539.481 440.125 538.09 440.125C536.699 440.125 535.571 438.998 535.571 437.607C535.571 436.217 536.699 435.09 538.09 435.09C539.481 435.09 540.609 436.217 540.609 437.607Z" fill="white"/>
<path d="M417.194 335.357C417.194 336.748 416.067 337.875 414.676 337.875C413.284 337.875 412.157 336.748 412.157 335.357C412.157 333.967 413.284 332.84 414.676 332.84C416.067 332.84 417.194 333.967 417.194 335.357Z" fill="white"/>
<path d="M872.128 215.758C872.128 217.148 871 218.276 869.609 218.276C868.218 218.276 867.09 217.148 867.09 215.758C867.09 214.367 868.218 213.24 869.609 213.24C871 213.24 872.128 214.367 872.128 215.758Z" fill="white"/>
<path d="M1040.1 147.354C1040.1 148.744 1038.98 149.871 1037.58 149.871C1036.19 149.871 1035.07 148.744 1035.07 147.354C1035.07 145.963 1036.19 144.836 1037.58 144.836C1038.98 144.836 1040.1 145.963 1040.1 147.354Z" fill="white"/>
<path d="M848.154 142.909C848.154 143.604 847.59 144.168 846.895 144.168C846.199 144.168 845.635 143.604 845.635 142.909C845.635 142.214 846.199 141.65 846.895 141.65C847.59 141.65 848.154 142.214 848.154 142.909Z" fill="white"/>
<path d="M637.826 264.942C637.826 265.638 637.262 266.201 636.567 266.201C635.871 266.201 635.307 265.638 635.307 264.942C635.307 264.247 635.871 263.684 636.567 263.684C637.262 263.684 637.826 264.247 637.826 264.942Z" fill="white"/>
<path d="M825.502 71.799C826.198 71.799 826.762 71.2354 826.762 70.5401C826.762 69.8449 826.198 69.2812 825.502 69.2812C824.807 69.2812 824.243 69.8449 824.243 70.5401C824.243 71.2354 824.807 71.799 825.502 71.799Z" fill="white"/>
<path d="M809.814 27.9416C810.51 27.9416 811.074 27.378 811.074 26.6827C811.074 25.9875 810.51 25.4238 809.814 25.4238C809.119 25.4238 808.555 25.9875 808.555 26.6827C808.555 27.378 809.119 27.9416 809.814 27.9416Z" fill="white"/>
<path d="M928.019 234.144C928.019 234.839 927.455 235.402 926.76 235.402C926.064 235.402 925.5 234.839 925.5 234.144C925.5 233.448 926.064 232.885 926.76 232.885C927.455 232.885 928.019 233.448 928.019 234.144Z" fill="white"/>
<path d="M786.829 201.69C787.524 201.69 788.088 201.126 788.088 200.431C788.088 199.736 787.524 199.172 786.829 199.172C786.133 199.172 785.569 199.736 785.569 200.431C785.569 201.126 786.133 201.69 786.829 201.69Z" fill="white"/>
<path d="M642.273 156.926C642.968 156.926 643.532 156.362 643.532 155.667C643.532 154.972 642.968 154.408 642.273 154.408C641.577 154.408 641.013 154.972 641.013 155.667C641.013 156.362 641.577 156.926 642.273 156.926Z" fill="white"/>
<path d="M725.503 361.017C725.503 361.712 724.939 362.275 724.244 362.275C723.548 362.275 722.984 361.712 722.984 361.017C722.984 360.321 723.548 359.758 724.244 359.758C724.939 359.758 725.503 360.321 725.503 361.017Z" fill="white"/>
<path d="M782.072 314.952C782.457 314.952 782.77 314.639 782.77 314.254C782.77 313.869 782.457 313.557 782.072 313.557C781.687 313.557 781.374 313.869 781.374 314.254C781.374 314.639 781.687 314.952 782.072 314.952Z" fill="white"/>
<path d="M820.412 291.751C820.798 291.751 821.11 291.438 821.11 291.053C821.11 290.668 820.798 290.355 820.412 290.355C820.027 290.355 819.714 290.668 819.714 291.053C819.714 291.438 820.027 291.751 820.412 291.751Z" fill="white"/>
<path d="M893.043 237.616C893.428 237.616 893.741 237.303 893.741 236.918C893.741 236.533 893.428 236.221 893.043 236.221C892.658 236.221 892.345 236.533 892.345 236.918C892.345 237.303 892.658 237.616 893.043 237.616Z" fill="white"/>
<path d="M866.014 202.815C866.4 202.815 866.712 202.503 866.712 202.117C866.712 201.732 866.4 201.42 866.014 201.42C865.629 201.42 865.316 201.732 865.316 202.117C865.316 202.503 865.629 202.815 866.014 202.815Z" fill="white"/>
<path d="M745.845 277.951C745.845 279.342 744.717 280.469 743.326 280.469C741.935 280.469 740.807 279.342 740.807 277.951C740.807 276.561 741.935 275.434 743.326 275.434C744.717 275.434 745.845 276.561 745.845 277.951Z" fill="white"/>
<path d="M644.028 510.922C644.028 512.312 642.9 513.44 641.509 513.44C640.118 513.44 638.99 512.312 638.99 510.922C638.99 509.531 640.118 508.404 641.509 508.404C642.9 508.404 644.028 509.531 644.028 510.922Z" fill="white"/>
<path d="M668.256 540.188C668.952 540.188 669.516 539.624 669.516 538.929C669.516 538.234 668.952 537.67 668.256 537.67C667.561 537.67 666.997 538.234 666.997 538.929C666.997 539.624 667.561 540.188 668.256 540.188Z" fill="white"/>
<path d="M799.99 499.776C800.686 499.776 801.25 499.212 801.25 498.517C801.25 497.821 800.686 497.258 799.99 497.258C799.295 497.258 798.731 497.821 798.731 498.517C798.731 499.212 799.295 499.776 799.99 499.776Z" fill="white"/>
<path d="M711.164 526.784C711.549 526.784 711.862 526.471 711.862 526.086C711.862 525.701 711.549 525.389 711.164 525.389C710.778 525.389 710.466 525.701 710.466 526.086C710.466 526.471 710.778 526.784 711.164 526.784Z" fill="white"/>
<path d="M748.401 471.643C748.786 471.643 749.099 471.331 749.099 470.946C749.099 470.56 748.786 470.248 748.401 470.248C748.015 470.248 747.703 470.56 747.703 470.946C747.703 471.331 748.015 471.643 748.401 471.643Z" fill="white"/>
<path d="M786.267 469.129C786.653 469.129 786.965 468.817 786.965 468.432C786.965 468.047 786.653 467.734 786.267 467.734C785.882 467.734 785.569 468.047 785.569 468.432C785.569 468.817 785.882 469.129 786.267 469.129Z" fill="white"/>
<path d="M622.288 480.534C622.674 480.534 622.986 480.221 622.986 479.836C622.986 479.451 622.674 479.139 622.288 479.139C621.903 479.139 621.59 479.451 621.59 479.836C621.59 480.221 621.903 480.534 622.288 480.534Z" fill="white"/>
<path d="M962.414 181.536C962.8 181.536 963.112 181.223 963.112 180.838C963.112 180.453 962.8 180.141 962.414 180.141C962.029 180.141 961.716 180.453 961.716 180.838C961.716 181.223 962.029 181.536 962.414 181.536Z" fill="white"/>
<path d="M960.09 302.893C960.475 302.893 960.787 302.581 960.787 302.196C960.787 301.81 960.475 301.498 960.09 301.498C959.704 301.498 959.392 301.81 959.392 302.196C959.392 302.581 959.704 302.893 960.09 302.893Z" fill="white"/>
<path d="M752.767 525.454C753.153 525.454 753.465 525.141 753.465 524.756C753.465 524.371 753.153 524.059 752.767 524.059C752.382 524.059 752.069 524.371 752.069 524.756C752.069 525.141 752.382 525.454 752.767 525.454Z" fill="white"/>
<path d="M835.485 475.53C835.871 475.53 836.183 475.217 836.183 474.832C836.183 474.447 835.871 474.135 835.485 474.135C835.1 474.135 834.787 474.447 834.787 474.832C834.787 475.217 835.1 475.53 835.485 475.53Z" fill="white"/>
<path d="M796.841 298.43C797.219 298.505 797.464 298.872 797.389 299.25C797.314 299.628 796.946 299.873 796.568 299.798C796.19 299.722 795.945 299.355 796.02 298.977C796.096 298.599 796.463 298.354 796.841 298.43Z" fill="white"/>
<path d="M782.717 411.412C783.095 411.487 783.34 411.855 783.265 412.232C783.189 412.61 782.822 412.856 782.444 412.78C782.066 412.705 781.821 412.337 781.896 411.96C781.972 411.582 782.339 411.337 782.717 411.412Z" fill="white"/>
<path d="M717.841 470.555C718.227 470.555 718.539 470.243 718.539 469.858C718.539 469.472 718.227 469.16 717.841 469.16C717.456 469.16 717.144 469.472 717.144 469.858C717.144 470.243 717.456 470.555 717.841 470.555Z" fill="white"/>
<path d="M754.089 240.293C754.475 240.293 754.787 239.981 754.787 239.596C754.787 239.211 754.475 238.898 754.089 238.898C753.704 238.898 753.392 239.211 753.392 239.596C753.392 239.981 753.704 240.293 754.089 240.293Z" fill="white"/>
<path d="M799.529 256.239C799.529 256.624 799.217 256.936 798.831 256.936C798.446 256.936 798.134 256.624 798.134 256.239C798.134 255.853 798.446 255.541 798.831 255.541C799.217 255.541 799.529 255.853 799.529 256.239Z" fill="white"/>
<path d="M704.965 253.284C705.351 253.284 705.663 252.971 705.663 252.586C705.663 252.201 705.351 251.889 704.965 251.889C704.58 251.889 704.268 252.201 704.268 252.586C704.268 252.971 704.58 253.284 704.965 253.284Z" fill="white"/>
<path d="M823.06 371.584C823.445 371.584 823.758 371.272 823.758 370.887C823.758 370.502 823.445 370.189 823.06 370.189C822.674 370.189 822.362 370.502 822.362 370.887C822.362 371.272 822.674 371.584 823.06 371.584Z" fill="white"/>
<path d="M869.957 509.696C869.957 510.392 869.393 510.955 868.697 510.955C868.002 510.955 867.438 510.392 867.438 509.696C867.438 509.001 868.002 508.438 868.697 508.438C869.393 508.438 869.957 509.001 869.957 509.696Z" fill="white"/>
<path d="M926.525 463.629C926.911 463.629 927.223 463.317 927.223 462.932C927.223 462.547 926.911 462.234 926.525 462.234C926.14 462.234 925.828 462.547 925.828 462.932C925.828 463.317 926.14 463.629 926.525 463.629Z" fill="white"/>
<path d="M964.865 440.428C965.251 440.428 965.563 440.116 965.563 439.731C965.563 439.345 965.251 439.033 964.865 439.033C964.48 439.033 964.167 439.345 964.167 439.731C964.167 440.116 964.48 440.428 964.865 440.428Z" fill="white"/>
<path d="M1013.03 362.215C1013.41 362.215 1013.73 361.903 1013.73 361.518C1013.73 361.133 1013.41 360.82 1013.03 360.82C1012.64 360.82 1012.33 361.133 1012.33 361.518C1012.33 361.903 1012.64 362.215 1013.03 362.215Z" fill="white"/>
<path d="M941.295 447.107C941.673 447.183 941.918 447.55 941.842 447.928C941.767 448.306 941.4 448.551 941.022 448.475C940.644 448.4 940.398 448.033 940.474 447.655C940.549 447.277 940.917 447.032 941.295 447.107Z" fill="white"/>
<path d="M749.421 68.3521C749.807 68.3521 750.119 68.0398 750.119 67.6545C750.119 67.2693 749.807 66.957 749.421 66.957C749.036 66.957 748.723 67.2693 748.723 67.6545C748.723 68.0398 749.036 68.3521 749.421 68.3521Z" fill="white"/>
<path d="M715.921 124.676C716.307 124.676 716.619 124.364 716.619 123.979C716.619 123.594 716.307 123.281 715.921 123.281C715.536 123.281 715.224 123.594 715.224 123.979C715.224 124.364 715.536 124.676 715.921 124.676Z" fill="white"/>
<path d="M798.639 74.7525C799.025 74.7525 799.337 74.4402 799.337 74.0549C799.337 73.6697 799.025 73.3574 798.639 73.3574C798.254 73.3574 797.941 73.6697 797.941 74.0549C797.941 74.4402 798.254 74.7525 798.639 74.7525Z" fill="white"/>
<path d="M780.958 44.1959C780.641 44.4144 780.206 44.3342 779.988 44.0168C779.769 43.6995 779.849 43.2653 780.167 43.0469C780.484 42.8284 780.919 42.9086 781.137 43.226C781.356 43.5433 781.275 43.9775 780.958 44.1959Z" fill="white"/>
<path d="M745.871 10.6328C746.249 10.708 746.494 11.0754 746.419 11.4532C746.344 11.8309 745.976 12.0761 745.598 12.0009C745.22 11.9254 744.975 11.5582 745.05 11.1805C745.126 10.8025 745.493 10.5574 745.871 10.6328Z" fill="white"/>
<path d="M680.996 69.7778C681.381 69.7778 681.694 69.4656 681.694 69.0803C681.694 68.6951 681.381 68.3828 680.996 68.3828C680.61 68.3828 680.298 68.6951 680.298 69.0803C680.298 69.4656 680.61 69.7778 680.996 69.7778Z" fill="white"/>
<path d="M833.111 108.917C833.111 109.612 832.547 110.176 831.851 110.176C831.156 110.176 830.592 109.612 830.592 108.917C830.592 108.222 831.156 107.658 831.851 107.658C832.547 107.658 833.111 108.222 833.111 108.917Z" fill="white"/>
<path d="M865.435 24.7561C866.13 24.7561 866.694 24.1924 866.694 23.4972C866.694 22.8019 866.13 22.2383 865.435 22.2383C864.739 22.2383 864.175 22.8019 864.175 23.4972C864.175 24.1924 864.739 24.7561 865.435 24.7561Z" fill="white"/>
<path d="M889.679 62.8521C890.065 62.8521 890.377 62.5398 890.377 62.1545C890.377 61.7693 890.065 61.457 889.679 61.457C889.294 61.457 888.982 61.7693 888.982 62.1545C888.982 62.5398 889.294 62.8521 889.679 62.8521Z" fill="white"/>
<path d="M904.449 46.3281C904.827 46.4033 905.072 46.7707 904.997 47.1485C904.921 47.5262 904.554 47.7714 904.176 47.6962C903.798 47.6208 903.553 47.2535 903.628 46.8756C903.703 46.4979 904.071 46.2527 904.449 46.3281Z" fill="white"/>
<path d="M898.543 388.973C898.928 388.973 899.24 388.661 899.24 388.276C899.24 387.89 898.928 387.578 898.543 387.578C898.157 387.578 897.845 387.89 897.845 388.276C897.845 388.661 898.157 388.973 898.543 388.973Z" fill="white"/>
<path d="M943.285 405.616C943.67 405.616 943.983 405.303 943.983 404.918C943.983 404.533 943.67 404.221 943.285 404.221C942.899 404.221 942.587 404.533 942.587 404.918C942.587 405.303 942.899 405.616 943.285 405.616Z" fill="white"/>
<path d="M1024.47 300.917C1024.85 300.917 1025.17 300.604 1025.17 300.219C1025.17 299.834 1024.85 299.521 1024.47 299.521C1024.08 299.521 1023.77 299.834 1023.77 300.219C1023.77 300.604 1024.08 300.917 1024.47 300.917Z" fill="white"/>
<path d="M849.419 401.961C849.804 401.961 850.117 401.649 850.117 401.264C850.117 400.879 849.804 400.566 849.419 400.566C849.033 400.566 848.721 400.879 848.721 401.264C848.721 401.649 849.033 401.961 849.419 401.961Z" fill="white"/>
<path d="M638.092 396.192C638.477 396.192 638.79 395.88 638.79 395.494C638.79 395.109 638.477 394.797 638.092 394.797C637.707 394.797 637.394 395.109 637.394 395.494C637.394 395.88 637.707 396.192 638.092 396.192Z" fill="white"/>
<path d="M576.845 478.174C577.23 478.174 577.543 477.862 577.543 477.477C577.543 477.092 577.23 476.779 576.845 476.779C576.459 476.779 576.147 477.092 576.147 477.477C576.147 477.862 576.459 478.174 576.845 478.174Z" fill="white"/>
<path d="M689.99 391.84C690.375 391.84 690.688 391.528 690.688 391.143C690.688 390.758 690.375 390.445 689.99 390.445C689.605 390.445 689.292 390.758 689.292 391.143C689.292 391.528 689.605 391.84 689.99 391.84Z" fill="white"/>
<path d="M640.828 486.237C641.214 486.237 641.526 485.925 641.526 485.539C641.526 485.154 641.214 484.842 640.828 484.842C640.443 484.842 640.13 485.154 640.13 485.539C640.13 485.925 640.443 486.237 640.828 486.237Z" fill="white"/>
<path d="M607.298 369.737C607.994 369.737 608.557 369.173 608.557 368.478C608.557 367.782 607.994 367.219 607.298 367.219C606.602 367.219 606.039 367.782 606.039 368.478C606.039 369.173 606.602 369.737 607.298 369.737Z" fill="white"/>
<path d="M596.545 312.782C596.545 313.478 595.981 314.041 595.286 314.041C594.59 314.041 594.026 313.478 594.026 312.782C594.026 312.087 594.59 311.523 595.286 311.523C595.981 311.523 596.545 312.087 596.545 312.782Z" fill="white"/>
<path d="M179.093 363.201C179.093 364.592 177.965 365.719 176.574 365.719C175.183 365.719 174.055 364.592 174.055 363.201C174.055 361.811 175.183 360.684 176.574 360.684C177.965 360.684 179.093 361.811 179.093 363.201Z" fill="white"/>
<path d="M70.9746 344.69C70.9746 345.386 70.4107 345.949 69.7151 345.949C69.0196 345.949 68.4558 345.386 68.4558 344.69C68.4558 343.995 69.0196 343.432 69.7151 343.432C70.4107 343.432 70.9746 343.995 70.9746 344.69Z" fill="white"/>
<path d="M234.984 381.589C234.984 382.284 234.42 382.848 233.725 382.848C233.029 382.848 232.465 382.284 232.465 381.589C232.465 380.894 233.029 380.33 233.725 380.33C234.42 380.33 234.984 380.894 234.984 381.589Z" fill="white"/>
<path d="M64.5695 446.882C64.5695 447.577 64.0058 448.141 63.3102 448.141C62.6147 448.141 62.0508 447.577 62.0508 446.882C62.0508 446.187 62.6147 445.623 63.3102 445.623C64.0058 445.623 64.5695 446.187 64.5695 446.882Z" fill="white"/>
<path d="M32.468 508.462C32.468 509.157 31.9041 509.721 31.2085 509.721C30.513 509.721 29.9492 509.157 29.9492 508.462C29.9492 507.767 30.513 507.203 31.2085 507.203C31.9041 507.203 32.468 507.767 32.468 508.462Z" fill="white"/>
<path d="M89.0367 462.395C89.4221 462.395 89.7345 462.083 89.7345 461.698C89.7345 461.312 89.4221 461 89.0367 461C88.6513 461 88.3389 461.312 88.3389 461.698C88.3389 462.083 88.6513 462.395 89.0367 462.395Z" fill="white"/>
<path d="M127.377 439.194C127.762 439.194 128.075 438.882 128.075 438.496C128.075 438.111 127.762 437.799 127.377 437.799C126.991 437.799 126.679 438.111 126.679 438.496C126.679 438.882 126.991 439.194 127.377 439.194Z" fill="white"/>
<path d="M200.008 385.061C200.393 385.061 200.706 384.749 200.706 384.364C200.706 383.978 200.393 383.666 200.008 383.666C199.622 383.666 199.31 383.978 199.31 384.364C199.31 384.749 199.622 385.061 200.008 385.061Z" fill="white"/>
<path d="M187.389 343.963C187.775 343.963 188.087 343.651 188.087 343.266C188.087 342.881 187.775 342.568 187.389 342.568C187.004 342.568 186.692 342.881 186.692 343.266C186.692 343.651 187.004 343.963 187.389 343.963Z" fill="white"/>
<path d="M123.384 484.454C123.769 484.454 124.081 484.141 124.081 483.756C124.081 483.371 123.769 483.059 123.384 483.059C122.998 483.059 122.686 483.371 122.686 483.756C122.686 484.141 122.998 484.454 123.384 484.454Z" fill="white"/>
<path d="M100.363 553.518C100.748 553.518 101.06 553.206 101.06 552.821C101.06 552.435 100.748 552.123 100.363 552.123C99.9772 552.123 99.6648 552.435 99.6648 552.821C99.6648 553.206 99.9772 553.518 100.363 553.518Z" fill="white"/>
<path d="M183.013 515.446C183.398 515.446 183.711 515.134 183.711 514.748C183.711 514.363 183.398 514.051 183.013 514.051C182.627 514.051 182.315 514.363 182.315 514.748C182.315 515.134 182.627 515.446 183.013 515.446Z" fill="white"/>
<path d="M103.806 445.873C104.184 445.948 104.429 446.316 104.354 446.693C104.279 447.071 103.911 447.316 103.533 447.241C103.155 447.166 102.91 446.798 102.985 446.421C103.061 446.043 103.428 445.798 103.806 445.873Z" fill="white"/>
<path d="M85.2989 548.825C85.6843 548.825 85.9967 548.512 85.9967 548.127C85.9967 547.742 85.6843 547.43 85.2989 547.43C84.9135 547.43 84.6011 547.742 84.6011 548.127C84.6011 548.512 84.9135 548.825 85.2989 548.825Z" fill="white"/>
<path d="M61.054 387.739C61.4394 387.739 61.7519 387.427 61.7519 387.041C61.7519 386.656 61.4394 386.344 61.054 386.344C60.6686 386.344 60.3562 386.656 60.3562 387.041C60.3562 387.427 60.6686 387.739 61.054 387.739Z" fill="white"/>
<path d="M105.796 404.381C106.182 404.381 106.494 404.069 106.494 403.684C106.494 403.299 106.182 402.986 105.796 402.986C105.411 402.986 105.098 403.299 105.098 403.684C105.098 404.069 105.411 404.381 105.796 404.381Z" fill="white"/>
<path d="M208.699 330.852C209.084 330.852 209.397 330.54 209.397 330.155C209.397 329.769 209.084 329.457 208.699 329.457C208.314 329.457 208.001 329.769 208.001 330.155C208.001 330.54 208.314 330.852 208.699 330.852Z" fill="white"/>
<path d="M940.938 491.892C940.938 492.587 940.374 493.151 939.679 493.151C938.983 493.151 938.419 492.587 938.419 491.892C938.419 491.196 938.983 490.633 939.679 490.633C940.374 490.633 940.938 491.196 940.938 491.892Z" fill="white"/>
<path d="M850.389 485.091C850.389 485.786 849.825 486.35 849.13 486.35C848.434 486.35 847.87 485.786 847.87 485.091C847.87 484.396 848.434 483.832 849.13 483.832C849.825 483.832 850.389 484.396 850.389 485.091Z" fill="white"/>
<path d="M866.444 528.058C866.444 528.753 865.88 529.316 865.185 529.316C864.489 529.316 863.925 528.753 863.925 528.058C863.925 527.362 864.489 526.799 865.185 526.799C865.88 526.799 866.444 527.362 866.444 528.058Z" fill="white"/>
<path d="M874.856 500.606C875.242 500.606 875.554 500.294 875.554 499.908C875.554 499.523 875.242 499.211 874.856 499.211C874.471 499.211 874.158 499.523 874.158 499.908C874.158 500.294 874.471 500.606 874.856 500.606Z" fill="white"/>
<path d="M122.674 523.42C123.369 523.42 123.933 522.856 123.933 522.161C123.933 521.466 123.369 520.902 122.674 520.902C121.978 520.902 121.414 521.466 121.414 522.161C121.414 522.856 121.978 523.42 122.674 523.42Z" fill="white"/>
<path d="M164.493 592.907C164.878 592.907 165.191 592.594 165.191 592.209C165.191 591.824 164.878 591.512 164.493 591.512C164.107 591.512 163.795 591.824 163.795 592.209C163.795 592.594 164.107 592.907 164.493 592.907Z" fill="white"/>
<path d="M44.8243 607.29C45.2097 607.29 45.5221 606.977 45.5221 606.592C45.5221 606.207 45.2097 605.895 44.8243 605.895C44.4389 605.895 44.1265 606.207 44.1265 606.592C44.1265 606.977 44.4389 607.29 44.8243 607.29Z" fill="white"/>
<path d="M268.347 557.274C268.347 557.659 268.034 557.971 267.649 557.971C267.264 557.971 266.951 557.659 266.951 557.274C266.951 556.889 267.264 556.576 267.649 556.576C268.034 556.576 268.347 556.889 268.347 557.274Z" fill="white"/>
<path d="M181.146 572.555C181.524 572.63 181.769 572.997 181.694 573.375C181.619 573.753 181.251 573.998 180.873 573.923C180.495 573.847 180.25 573.48 180.325 573.102C180.401 572.724 180.768 572.479 181.146 572.555Z" fill="white"/>
<path d="M96.067 594.332C96.4524 594.332 96.7648 594.02 96.7648 593.635C96.7648 593.25 96.4524 592.938 96.067 592.938C95.6816 592.938 95.3691 593.25 95.3691 593.635C95.3691 594.02 95.6816 594.332 96.067 594.332Z" fill="white"/>
<path d="M188.732 544.684C189.118 544.684 189.43 544.372 189.43 543.987C189.43 543.601 189.118 543.289 188.732 543.289C188.347 543.289 188.035 543.601 188.035 543.987C188.035 544.372 188.347 544.684 188.732 544.684Z" fill="white"/>
<path d="M302.121 592.136C302.121 592.831 301.557 593.395 300.861 593.395C300.166 593.395 299.602 592.831 299.602 592.136C299.602 591.441 300.166 590.877 300.861 590.877C301.557 590.877 302.121 591.441 302.121 592.136Z" fill="white"/>
<path d="M247.848 563.104C248.234 563.104 248.546 562.792 248.546 562.407C248.546 562.021 248.234 561.709 247.848 561.709C247.463 561.709 247.15 562.021 247.15 562.407C247.15 562.792 247.463 563.104 247.848 563.104Z" fill="white"/>
<path d="M281.294 568.791C281.989 568.791 282.553 568.228 282.553 567.532C282.553 566.837 281.989 566.273 281.294 566.273C280.598 566.273 280.034 566.837 280.034 567.532C280.034 568.228 280.598 568.791 281.294 568.791Z" fill="white"/>
<path d="M393.144 572.837C393.144 573.532 392.58 574.096 391.884 574.096C391.189 574.096 390.625 573.532 390.625 572.837C390.625 572.142 391.189 571.578 391.884 571.578C392.58 571.578 393.144 572.142 393.144 572.837Z" fill="white"/>
<path d="M307.02 583.045C307.406 583.045 307.718 582.733 307.718 582.348C307.718 581.963 307.406 581.65 307.02 581.65C306.635 581.65 306.323 581.963 306.323 582.348C306.323 582.733 306.635 583.045 307.02 583.045Z" fill="white"/>
<path d="M913.196 477.403C913.582 477.403 913.894 477.091 913.894 476.705C913.894 476.32 913.582 476.008 913.196 476.008C912.811 476.008 912.499 476.32 912.499 476.705C912.499 477.091 912.811 477.403 913.196 477.403Z" fill="white"/>
<path d="M897.341 492.95C897.727 492.95 898.039 492.637 898.039 492.252C898.039 491.867 897.727 491.555 897.341 491.555C896.956 491.555 896.643 491.867 896.643 492.252C896.643 492.637 896.956 492.95 897.341 492.95Z" fill="white"/>
<path d="M909.203 522.663C909.589 522.663 909.901 522.35 909.901 521.965C909.901 521.58 909.589 521.268 909.203 521.268C908.818 521.268 908.505 521.58 908.505 521.965C908.505 522.35 908.818 522.663 909.203 522.663Z" fill="white"/>
<path d="M1015.18 476.987C1015.57 476.987 1015.88 476.675 1015.88 476.289C1015.88 475.904 1015.57 475.592 1015.18 475.592C1014.8 475.592 1014.48 475.904 1014.48 476.289C1014.48 476.675 1014.8 476.987 1015.18 476.987Z" fill="white"/>
<path d="M955.352 522.489C955.737 522.489 956.05 522.176 956.05 521.791C956.05 521.406 955.737 521.094 955.352 521.094C954.966 521.094 954.654 521.406 954.654 521.791C954.654 522.176 954.966 522.489 955.352 522.489Z" fill="white"/>
<path d="M888.64 504.979C889.026 504.979 889.338 504.667 889.338 504.281C889.338 503.896 889.026 503.584 888.64 503.584C888.255 503.584 887.942 503.896 887.942 504.281C887.942 504.667 888.255 504.979 888.64 504.979Z" fill="white"/>
<path d="M693.331 454.643C693.716 454.643 694.029 454.331 694.029 453.946C694.029 453.56 693.716 453.248 693.331 453.248C692.946 453.248 692.633 453.56 692.633 453.946C692.633 454.331 692.946 454.643 693.331 454.643Z" fill="white"/>
<path d="M889.625 484.082C890.003 484.157 890.249 484.525 890.173 484.902C890.098 485.28 889.73 485.525 889.353 485.45C888.975 485.375 888.729 485.007 888.805 484.63C888.88 484.252 889.248 484.007 889.625 484.082Z" fill="white"/>
<path d="M701.58 434.938C701.965 434.938 702.278 434.626 702.278 434.24C702.278 433.855 701.965 433.543 701.58 433.543C701.194 433.543 700.882 433.855 700.882 434.24C700.882 434.626 701.194 434.938 701.58 434.938Z" fill="white"/>
<path d="M1032.71 402.018C1032.71 403.408 1031.58 404.535 1030.19 404.535C1028.8 404.535 1027.67 403.408 1027.67 402.018C1027.67 400.627 1028.8 399.5 1030.19 399.5C1031.58 399.5 1032.71 400.627 1032.71 402.018Z" fill="white"/>
<path d="M1012.33 555.391C1013.03 555.391 1013.59 554.827 1013.59 554.132C1013.59 553.437 1013.03 552.873 1012.33 552.873C1011.63 552.873 1011.07 553.437 1011.07 554.132C1011.07 554.827 1011.63 555.391 1012.33 555.391Z" fill="white"/>
<path d="M722.639 440.617C722.639 442.008 721.511 443.135 720.12 443.135C718.729 443.135 717.601 442.008 717.601 440.617C717.601 439.227 718.729 438.1 720.12 438.1C721.511 438.1 722.639 439.227 722.639 440.617Z" fill="white"/>
<path d="M983.536 531.362C984.232 531.362 984.795 530.798 984.795 530.103C984.795 529.407 984.232 528.844 983.536 528.844C982.84 528.844 982.277 529.407 982.277 530.103C982.277 530.798 982.84 531.362 983.536 531.362Z" fill="white"/>
<path d="M743.554 462.477C743.94 462.477 744.252 462.165 744.252 461.78C744.252 461.394 743.94 461.082 743.554 461.082C743.169 461.082 742.856 461.394 742.856 461.78C742.856 462.165 743.169 462.477 743.554 462.477Z" fill="white"/>
<path d="M730.936 421.379C731.321 421.379 731.633 421.067 731.633 420.682C731.633 420.297 731.321 419.984 730.936 419.984C730.55 419.984 730.238 420.297 730.238 420.682C730.238 421.067 730.55 421.379 730.936 421.379Z" fill="white"/>
<path d="M921.784 560.366C922.169 560.366 922.482 560.053 922.482 559.668C922.482 559.283 922.169 558.971 921.784 558.971C921.398 558.971 921.086 559.283 921.086 559.668C921.086 560.053 921.398 560.366 921.784 560.366Z" fill="white"/>
<path d="M226.511 501.221C226.511 502.611 225.383 503.739 223.992 503.739C222.601 503.739 221.473 502.611 221.473 501.221C221.473 499.83 222.601 498.703 223.992 498.703C225.383 498.703 226.511 499.83 226.511 501.221Z" fill="white"/>
<path d="M252.843 456.245C252.843 456.94 252.279 457.504 251.584 457.504C250.888 457.504 250.324 456.94 250.324 456.245C250.324 455.55 250.888 454.986 251.584 454.986C252.279 454.986 252.843 455.55 252.843 456.245Z" fill="white"/>
<path d="M223.575 559.78C223.575 560.476 223.011 561.039 222.315 561.039C221.62 561.039 221.056 560.476 221.056 559.78C221.056 559.085 221.62 558.521 222.315 558.521C223.011 558.521 223.575 559.085 223.575 559.78Z" fill="white"/>
<path d="M554.396 492.868C554.396 493.564 553.832 494.127 553.136 494.127C552.441 494.127 551.877 493.564 551.877 492.868C551.877 492.173 552.441 491.609 553.136 491.609C553.832 491.609 554.396 492.173 554.396 492.868Z" fill="white"/>
<path d="M276.427 508.348C277.122 508.348 277.686 507.784 277.686 507.089C277.686 506.394 277.122 505.83 276.427 505.83C275.731 505.83 275.167 506.394 275.167 507.089C275.167 507.784 275.731 508.348 276.427 508.348Z" fill="white"/>
<path d="M334.255 461.024C334.64 461.024 334.953 460.712 334.953 460.326C334.953 459.941 334.64 459.629 334.255 459.629C333.87 459.629 333.557 459.941 333.557 460.326C333.557 460.712 333.87 461.024 334.255 461.024Z" fill="white"/>
<path d="M368.602 483.081C368.987 483.081 369.3 482.768 369.3 482.383C369.3 481.998 368.987 481.686 368.602 481.686C368.216 481.686 367.904 481.998 367.904 482.383C367.904 482.768 368.216 483.081 368.602 483.081Z" fill="white"/>
<path d="M345.581 552.145C345.966 552.145 346.278 551.833 346.278 551.447C346.278 551.062 345.966 550.75 345.581 550.75C345.195 550.75 344.883 551.062 344.883 551.447C344.883 551.833 345.195 552.145 345.581 552.145Z" fill="white"/>
<path d="M417.363 520.333C417.748 520.333 418.06 520.02 418.06 519.635C418.06 519.25 417.748 518.938 417.363 518.938C416.977 518.938 416.665 519.25 416.665 519.635C416.665 520.02 416.977 520.333 417.363 520.333Z" fill="white"/>
<path d="M330.517 547.452C330.903 547.452 331.215 547.139 331.215 546.754C331.215 546.369 330.903 546.057 330.517 546.057C330.132 546.057 329.819 546.369 329.819 546.754C329.819 547.139 330.132 547.452 330.517 547.452Z" fill="white"/>
<path d="M522.487 539.709C522.487 541.1 521.359 542.227 519.968 542.227C518.577 542.227 517.449 541.1 517.449 539.709C517.449 538.319 518.577 537.191 519.968 537.191C521.359 537.191 522.487 538.319 522.487 539.709Z" fill="white"/>
<path d="M441.195 515.809C441.195 517.199 440.068 518.326 438.677 518.326C437.285 518.326 436.158 517.199 436.158 515.809C436.158 514.418 437.285 513.291 438.677 513.291C440.068 513.291 441.195 514.418 441.195 515.809Z" fill="white"/>
<path d="M498.061 454.874C498.061 455.569 497.497 456.133 496.802 456.133C496.106 456.133 495.542 455.569 495.542 454.874C495.542 454.179 496.106 453.615 496.802 453.615C497.497 453.615 498.061 454.179 498.061 454.874Z" fill="white"/>
<path d="M625.001 519.782C625.001 520.478 624.437 521.041 623.741 521.041C623.046 521.041 622.482 520.478 622.482 519.782C622.482 519.087 623.046 518.523 623.741 518.523C624.437 518.523 625.001 519.087 625.001 519.782Z" fill="white"/>
<path d="M578.077 660.487C578.462 660.487 578.775 660.175 578.775 659.789C578.775 659.404 578.462 659.092 578.077 659.092C577.691 659.092 577.379 659.404 577.379 659.789C577.379 660.175 577.691 660.487 578.077 660.487Z" fill="white"/>
<path d="M507.389 514.249C507.775 514.249 508.087 513.936 508.087 513.551C508.087 513.166 507.775 512.854 507.389 512.854C507.004 512.854 506.691 513.166 506.691 513.551C506.691 513.936 507.004 514.249 507.389 514.249Z" fill="white"/>
<path d="M554.623 485.428C555.008 485.428 555.321 485.116 555.321 484.731C555.321 484.346 555.008 484.033 554.623 484.033C554.238 484.033 553.925 484.346 553.925 484.731C553.925 485.116 554.238 485.428 554.623 485.428Z" fill="white"/>
<path d="M467.533 559.668C468.229 559.668 468.793 559.105 468.793 558.409C468.793 557.714 468.229 557.15 467.533 557.15C466.838 557.15 466.274 557.714 466.274 558.409C466.274 559.105 466.838 559.668 467.533 559.668Z" fill="white"/>
<path d="M450.472 580.546C450.472 581.241 449.909 581.805 449.213 581.805C448.518 581.805 447.954 581.241 447.954 580.546C447.954 579.851 448.518 579.287 449.213 579.287C449.909 579.287 450.472 579.851 450.472 580.546Z" fill="white"/>
<path d="M387.747 518.955C388.443 518.955 389.007 518.392 389.007 517.696C389.007 517.001 388.443 516.438 387.747 516.438C387.052 516.438 386.488 517.001 386.488 517.696C386.488 518.392 387.052 518.955 387.747 518.955Z" fill="white"/>
<path d="M628.643 223.56C629.024 224.351 589.026 244.373 588.235 244.753C587.443 245.134 586.492 244.801 586.111 244.01C585.731 243.219 586.064 242.269 586.856 241.888C587.647 241.507 628.262 222.768 628.643 223.56Z" fill="url(#paint1_linear_3507_9043)"/>
<path d="M806.962 321.603C807.343 322.394 781.559 338.459 780.768 338.84C779.976 339.221 779.025 338.888 778.644 338.096C778.264 337.305 778.597 336.355 779.389 335.974C780.18 335.594 806.581 320.812 806.962 321.603Z" fill="url(#paint2_linear_3507_9043)"/>
<path d="M871.139 69.9945C871.52 70.7858 789.403 110.372 788.612 110.753C787.82 111.134 786.869 110.801 786.488 110.009C786.108 109.218 786.441 108.268 787.232 107.887C788.024 107.507 870.759 69.2032 871.139 69.9945Z" fill="url(#paint3_linear_3507_9043)"/>
<g opacity="0.7">
<path style="mix-blend-mode:screen" opacity="0.39" d="M527 367.205C588.606 367.205 638.548 317.285 638.548 255.706C638.548 194.127 588.606 144.207 527 144.207C465.394 144.207 415.452 194.127 415.452 255.706C415.452 317.285 465.394 367.205 527 367.205Z" fill="url(#paint4_linear_3507_9043)"/>
<path style="mix-blend-mode:screen" opacity="0.32" d="M592.8 282.95C607.852 246.626 590.595 204.982 554.255 189.936C517.915 174.89 476.253 192.14 461.2 228.464C446.148 264.788 463.405 306.432 499.745 321.477C536.085 336.523 577.747 319.274 592.8 282.95Z" fill="url(#paint5_linear_3507_9043)"/>
<path style="mix-blend-mode:screen" d="M533.007 293.925C554.123 290.609 568.553 270.81 565.235 249.703C561.918 228.595 542.11 214.172 520.993 217.488C499.877 220.804 485.447 240.603 488.765 261.711C492.082 282.818 511.89 297.241 533.007 293.925Z" fill="url(#paint6_linear_3507_9043)"/>
</g>
<path d="M53.1028 1424.67L102.503 876.42H133.811L183.498 1424.67H152.767L142.14 1286.59H94.7484L83.5472 1424.67H53.1028ZM99.0573 1231.76H137.831L118.301 984.715L99.0573 1231.76Z" fill="#E0FBFC"/>
<path d="M206.471 1424.67L210.78 876.42H242.662L283.733 1321.11L325.092 876.42H356.686L360.993 1424.67H334.858L332.273 1026.68L292.923 1424.67H274.543L235.481 1026.68L232.896 1424.67H206.471Z" fill="#E0FBFC"/>
<path d="M383.968 1424.67L433.369 876.42H464.676L514.364 1424.67H483.632L473.005 1286.59H425.614L414.412 1424.67H383.968ZM429.923 1231.76H468.696L449.166 984.715L429.923 1231.76Z" fill="#E0FBFC"/>
<path d="M530.731 1424.67V1369.84L599.088 931.245H535.04V876.42H633.555V909.585L561.463 1369.84H633.555V1424.67H530.731Z" fill="#E0FBFC"/>
<path d="M659.401 1424.67V876.42H691.283V1424.67H659.401Z" fill="#E0FBFC"/>
<path d="M728.905 1424.67V876.42H751.02L817.079 1240.56V876.42H844.077V1424.67H823.397L756.477 1050.37V1424.67H728.905Z" fill="#E0FBFC"/>
<path d="M935.986 1431.43C921.432 1431.43 909.801 1424.11 901.089 1409.44C892.375 1394.78 886.057 1373.46 882.133 1345.48C878.206 1317.5 876.246 1283.88 876.246 1244.62V1061.2C876.246 1021.04 878.014 986.862 881.559 958.657C885.1 930.463 891.419 908.909 900.515 894.019C909.607 879.127 922.295 871.682 938.571 871.682C953.12 871.682 964.852 877.435 973.755 888.943C982.658 900.448 989.122 918.046 993.142 941.737C997.164 965.425 999.173 995.324 999.173 1031.42V1051.72H968.729V1034.8C968.729 1010.89 968.056 991.378 966.718 976.255C965.376 961.143 962.647 949.858 958.532 942.413C954.413 934.967 947.95 931.246 939.145 931.246C929.57 931.246 922.631 936.438 918.323 946.813C914.014 957.199 911.331 971.295 910.281 989.116C909.227 1006.95 908.701 1027.13 908.701 1049.69V1252.75C908.701 1278.92 909.514 1300.8 911.142 1318.4C912.766 1336 915.882 1349.09 920.476 1357.66C925.072 1366.24 931.579 1370.52 940.008 1370.52C948.431 1370.52 954.943 1365.78 959.538 1356.31C964.133 1346.83 967.294 1332.85 969.016 1314.34C970.74 1295.84 971.601 1272.83 971.601 1245.3V1207.4H942.017V1153.25H1000.9V1424.67H980.504L977.345 1361.72C974.281 1382.02 969.491 1398.72 962.985 1411.81C956.473 1424.89 947.475 1431.43 935.986 1431.43Z" fill="#E0FBFC"/>
<g filter="url(#filter0_d_3507_9043)">
<path d="M-5.14275 1402.62C-5.14275 1402.62 57.6194 1444.69 135.071 1443.08C211.28 1441.48 271.278 1391.29 275.284 1391.29C279.29 1391.29 322.022 1412.33 356.741 1413.95C391.461 1415.57 569.064 1363.78 589.095 1347.6C592.428 1344.9 673.223 1388.05 673.223 1388.05C673.223 1388.05 711.948 1367.02 752.009 1329.8C785.393 1362.16 856.167 1392.91 856.167 1392.91C856.167 1392.91 972.344 1436.6 1061.81 1422.04V1502.11H-7.81348L-5.14275 1402.62Z" fill="#253237"/>
<mask id="mask0_3507_9043" style="mask-type:luminance" maskUnits="userSpaceOnUse" x="-8" y="1329" width="1070" height="174">
<path d="M-5.14275 1402.62C-5.14275 1402.62 57.6194 1444.69 135.071 1443.08C211.28 1441.48 271.278 1391.29 275.284 1391.29C279.29 1391.29 322.022 1412.33 356.741 1413.95C391.461 1415.57 569.064 1363.78 589.095 1347.6C592.428 1344.9 673.223 1388.05 673.223 1388.05C673.223 1388.05 711.948 1367.02 752.009 1329.8C785.393 1362.16 856.167 1392.91 856.167 1392.91C856.167 1392.91 972.344 1436.6 1061.81 1422.04V1502.11H-7.81348L-5.14275 1402.62Z" fill="white"/>
</mask>
<g mask="url(#mask0_3507_9043)">
<g style="mix-blend-mode:soft-light">
<path d="M-27.6812 1408.2C43.884 1445.83 180.309 1480.12 256.836 1498.5C247.916 1486.34 172.478 1462.41 163.558 1450.25C202.258 1437.68 244.984 1426.57 281.114 1405.58C310.962 1435.76 354.755 1429.88 393.128 1422.35C423.838 1416.32 454.548 1410.29 485.259 1404.26C481.187 1413.25 455.152 1438.27 462.729 1433.7C488.359 1418.27 554.367 1380.79 579.997 1365.36C584.94 1362.38 590.101 1359.34 595.62 1359.28C602.28 1359.21 608.396 1363.47 613.986 1367.86C628.505 1379.25 657.538 1391.36 674.31 1396.48C691.083 1401.61 696.881 1396.74 704.219 1377.76C720.256 1389.04 743.832 1378.09 749.542 1356.71C807.577 1396.86 865.416 1403.38 945.043 1432.33C965.409 1439.73 986.365 1435.35 1007.61 1436.46C1035.83 1437.94 1055.78 1442.1 1083.91 1439.02C1094.07 1437.91 1105.92 1432.02 1107.3 1419.77C1109.28 1402.1 1089.53 1394.59 1074.86 1393.37C1027.99 1389.46 981.416 1380.33 935.917 1366.15C865.873 1344.32 798.443 1310.57 727.538 1293.3C640.968 1272.22 551.718 1276.27 463.529 1281.66C369.516 1287.4 275.051 1294.65 183.313 1320.22C117.599 1338.53 51.5303 1366.39 -15.4903 1357.4" fill="#253237"/>
</g>
</g>
</g>
<path d="M92.383 819.353V722.586H75.2683V714.984H117.44V722.586H100.885V819.353H92.383Z" fill="#9DB4C0"/>
<path d="M127.505 819.353V714.984H136.007V761.241H164.53V714.984H173.03V819.353H164.53V768.586H136.007V819.353H127.505Z" fill="#9DB4C0"/>
<path d="M183.993 819.353L203.12 714.984H212.068L231.308 819.353H222.919L218.445 791.391H196.856L192.27 819.353H183.993ZM198.087 784.305H217.327L207.594 727.997L198.087 784.305Z" fill="#9DB4C0"/>
<path d="M242.269 819.353V714.984H248.421L277.28 796.032V714.984H284.664V819.353H278.624L249.54 737.405V819.353H242.269Z" fill="#9DB4C0"/>
<path d="M300.322 819.353V714.984H308.937V770.133L333.098 714.984H341.262L322.583 759.825L345.289 819.353H336.9L316.989 767.167L308.937 784.176V819.353H300.322Z" fill="#9DB4C0"/>
<path d="M390.591 819.353V784.691L370.121 714.984H378.399L394.73 772.967L410.391 714.984H418.778L398.868 784.691V819.353H390.591Z" fill="#9DB4C0"/>
<path d="M449.652 820.642C443.685 820.642 439.006 819.29 435.613 816.583C432.219 813.878 429.834 810.097 428.455 805.245C427.075 800.392 426.385 794.829 426.385 788.558V745.265C426.385 738.909 427.113 733.39 428.567 728.708C430.021 724.026 432.444 720.397 435.838 717.819C439.23 715.244 443.835 713.955 449.652 713.955C455.541 713.955 460.184 715.244 463.578 717.819C466.97 720.397 469.376 724.026 470.793 728.708C472.208 733.39 472.919 738.909 472.919 745.265V788.688C472.919 794.959 472.229 800.5 470.849 805.308C469.469 810.122 467.102 813.878 463.746 816.583C460.389 819.29 455.691 820.642 449.652 820.642ZM449.652 812.782C453.679 812.782 456.736 811.86 458.825 810.012C460.912 808.167 462.349 805.589 463.13 802.281C463.913 798.974 464.306 795.129 464.306 790.748V743.461C464.306 739.08 463.913 735.26 463.13 731.994C462.349 728.73 460.912 726.216 458.825 724.456C456.736 722.696 453.679 721.815 449.652 721.815C445.699 721.815 442.661 722.696 440.536 724.456C438.411 726.216 436.957 728.73 436.173 731.994C435.39 735.26 434.999 739.08 434.999 743.461V790.748C434.999 795.129 435.39 798.974 436.173 802.281C436.957 805.589 438.411 808.167 440.536 810.012C442.661 811.86 445.699 812.782 449.652 812.782Z" fill="#9DB4C0"/>
<path d="M509.161 820.642C503.045 820.642 498.292 819.372 494.899 816.841C491.505 814.307 489.174 810.785 487.908 806.274C486.639 801.766 486.006 796.632 486.006 790.876V714.984H494.284V791.135C494.284 795.173 494.674 798.846 495.458 802.151C496.241 805.459 497.712 808.058 499.877 809.948C502.039 811.837 505.134 812.782 509.161 812.782C513.038 812.782 516.058 811.815 518.221 809.882C520.383 807.949 521.894 805.351 522.752 802.088C523.608 798.824 524.038 795.173 524.038 791.135V714.984H532.203V790.876C532.203 796.632 531.532 801.766 530.19 806.274C528.849 810.785 526.499 814.307 523.142 816.841C519.788 819.372 515.126 820.642 509.161 820.642Z" fill="#9DB4C0"/>
<path d="M569.897 819.353V714.984H602.448V722.329H578.399V761.629H598.421V768.844H578.399V819.353H569.897Z" fill="#9DB4C0"/>
<path d="M634.438 820.642C628.471 820.642 623.792 819.29 620.4 816.583C617.005 813.878 614.621 810.097 613.241 805.245C611.861 800.392 611.171 794.829 611.171 788.558V745.265C611.171 738.909 611.899 733.39 613.354 728.708C614.808 724.026 617.23 720.397 620.624 717.819C624.017 715.244 628.622 713.955 634.438 713.955C640.328 713.955 644.97 715.244 648.365 717.819C651.757 720.397 654.162 724.026 655.58 728.708C656.995 733.39 657.705 738.909 657.705 745.265V788.688C657.705 794.959 657.015 800.5 655.635 805.308C654.256 810.122 651.888 813.878 648.532 816.583C645.176 819.29 640.478 820.642 634.438 820.642ZM634.438 812.782C638.465 812.782 641.522 811.86 643.611 810.012C645.698 808.167 647.135 805.589 647.917 802.281C648.7 798.974 649.092 795.129 649.092 790.748V743.461C649.092 739.08 648.7 735.26 647.917 731.994C647.135 728.73 645.698 726.216 643.611 724.456C641.522 722.696 638.465 721.815 634.438 721.815C630.486 721.815 627.447 722.696 625.322 724.456C623.197 726.216 621.743 728.73 620.96 731.994C620.177 735.26 619.786 739.08 619.786 743.461V790.748C619.786 795.129 620.177 798.974 620.96 802.281C621.743 805.589 623.197 808.167 625.322 810.012C627.447 811.86 630.486 812.782 634.438 812.782Z" fill="#9DB4C0"/>
<path d="M671.797 819.353V714.984H692.268C697.935 714.984 702.391 716.036 705.634 718.14C708.878 720.247 711.209 723.296 712.625 727.289C714.041 731.283 714.75 736.03 714.75 741.527C714.75 745.394 714.377 749.046 713.633 752.48C712.886 755.917 711.619 758.836 709.829 761.241C708.04 763.647 705.503 765.237 702.223 766.008L716.094 819.353H707.816L694.504 768.07H680.299V819.353H671.797ZM680.299 760.855H691.82C695.623 760.855 698.567 760.125 700.656 758.665C702.743 757.206 704.235 755.058 705.131 752.221C706.027 749.387 706.473 745.824 706.473 741.527C706.473 735.086 705.503 730.275 703.565 727.096C701.625 723.918 697.786 722.329 692.044 722.329H680.299V760.855Z" fill="#9DB4C0"/>
<path d="M751.886 819.353V714.984H771.349C775.451 714.984 778.917 715.587 781.753 716.788C784.585 717.992 786.859 719.752 788.576 722.07C790.29 724.389 791.521 727.16 792.268 730.382C793.011 733.604 793.385 737.146 793.385 741.012C793.385 744.361 793.049 747.605 792.379 750.74C791.708 753.876 790.551 756.539 788.912 758.729C787.271 760.918 784.957 762.359 781.976 763.045C785.481 764.162 788.222 766.074 790.198 768.778C792.173 771.485 793.572 774.622 794.393 778.186C795.213 781.75 795.622 785.423 795.622 789.202C795.622 793.325 795.304 797.213 794.671 800.862C794.038 804.514 792.92 807.714 791.317 810.463C789.712 813.211 787.53 815.381 784.772 816.968C782.013 818.559 778.509 819.353 774.257 819.353H751.886ZM760.388 759.952H772.693C776.196 759.952 778.881 759.159 780.745 757.569C782.609 755.98 783.915 753.791 784.662 750.998C785.405 748.208 785.779 744.876 785.779 741.012C785.779 736.804 785.275 733.326 784.269 730.575C783.263 727.826 781.528 725.808 779.068 724.519C776.607 723.23 773.064 722.586 768.441 722.586H760.388V759.952ZM760.388 812.008H772.58C778.47 812.008 782.405 810.163 784.381 806.467C786.356 802.776 787.345 797.02 787.345 789.202C787.345 784.994 786.897 781.257 786.003 777.993C785.108 774.729 783.598 772.174 781.473 770.326C779.348 768.478 776.457 767.555 772.803 767.555H760.388V812.008Z" fill="#9DB4C0"/>
<path d="M807.814 819.353V714.984H840.59V722.586H816.429V761.756H836.115V768.971H816.429V812.008H840.813V819.353H807.814Z" fill="#9DB4C0"/>
<path d="M852.669 819.353V714.984H861.171V819.353H852.669Z" fill="#9DB4C0"/>
<path d="M877.276 819.353V714.984H883.428L912.287 796.032V714.984H919.67V819.353H913.631L884.547 737.405V819.353H877.276Z" fill="#9DB4C0"/>
<path d="M955.8 820.772C950.132 820.772 945.676 819.395 942.432 816.647C939.189 813.9 936.896 810.012 935.554 804.986C934.21 799.962 933.54 794.143 933.54 787.528V746.81C933.54 740.11 934.191 734.313 935.497 729.416C936.801 724.52 939.114 720.719 942.432 718.012C945.751 715.307 950.431 713.955 956.471 713.955C961.914 713.955 966.22 715.115 969.391 717.433C972.559 719.752 974.853 723.148 976.269 727.612C977.685 732.079 978.394 737.535 978.394 743.977V747.584H970.342V743.977C970.342 738.995 969.949 734.872 969.166 731.606C968.385 728.342 967.022 725.894 965.084 724.263C963.144 722.63 960.275 721.815 956.471 721.815C952.37 721.815 949.274 722.845 947.187 724.908C945.099 726.968 943.736 729.802 943.103 733.41C942.469 737.017 942.154 741.143 942.154 745.78V788.688C942.154 793.758 942.545 798.093 943.328 801.7C944.111 805.308 945.566 808.059 947.691 809.948C949.816 811.838 952.816 812.782 956.694 812.782C960.422 812.782 963.311 811.816 965.364 809.883C967.415 807.949 968.848 805.179 969.671 801.571C970.491 797.963 970.9 793.584 970.9 788.429V776.19H957.477V768.845H978.732V819.354H973.25L972.242 807.5C971.125 811.538 969.279 814.76 966.706 817.164C964.133 819.566 960.498 820.772 955.8 820.772Z" fill="#9DB4C0"/>
</g>
<defs>
<filter id="filter0_d_3507_9043" x="-8.80708" y="1310.8" width="1089.61" height="192.304" filterUnits="userSpaceOnUse" color-interpolation-filters="sRGB">
<feFlood flood-opacity="0" result="BackgroundImageFix"/>
<feColorMatrix in="SourceAlpha" type="matrix" values="0 0 0 0 0 0 0 0 0 0 0 0 0 0 0 0 0 0 127 0" result="hardAlpha"/>
<feOffset dx="9" dy="-9"/>
<feGaussianBlur stdDeviation="4.9968"/>
<feColorMatrix type="matrix" values="0 0 0 0 0.145098 0 0 0 0 0.196078 0 0 0 0 0.215686 0 0 0 0.5 0"/>
<feBlend mode="normal" in2="BackgroundImageFix" result="effect1_dropShadow_3507_9043"/>
<feBlend mode="normal" in="SourceGraphic" in2="effect1_dropShadow_3507_9043" result="shape"/>
</filter>
<linearGradient id="paint0_linear_3507_9043" x1="527" y1="1652.38" x2="527" y2="41.1635" gradientUnits="userSpaceOnUse">
<stop stop-color="#E0FBFC"/>
<stop offset="0.0951839" stop-color="#B9D1D4"/>
<stop offset="0.195528" stop-color="#98ACB1"/>
<stop offset="0.296353" stop-color="#7D8F96"/>
<stop offset="0.39648" stop-color="#6B7B82"/>
<stop offset="0.495604" stop-color="#5F6F76"/>
<stop offset="0.592558" stop-color="#5C6B73"/>
<stop offset="1" stop-color="#253237"/>
</linearGradient>
<linearGradient id="paint1_linear_3507_9043" x1="586.393" y1="244.021" x2="628.91" y2="223.558" gradientUnits="userSpaceOnUse">
<stop stop-color="white"/>
<stop offset="0.11482" stop-color="white" stop-opacity="0.786839"/>
<stop offset="0.241646" stop-color="white" stop-opacity="0.5806"/>
<stop offset="0.370483" stop-color="white" stop-opacity="0.402653"/>
<stop offset="0.498699" stop-color="white" stop-opacity="0.257345"/>
<stop offset="0.626084" stop-color="white" stop-opacity="0.144627"/>
<stop offset="0.75252" stop-color="white" stop-opacity="0.0642609"/>
<stop offset="0.877655" stop-color="white" stop-opacity="0.0160904"/>
<stop offset="1" stop-color="white" stop-opacity="0"/>
</linearGradient>
<linearGradient id="paint2_linear_3507_9043" x1="778.641" y1="337.568" x2="808.073" y2="323.403" gradientUnits="userSpaceOnUse">
<stop stop-color="white"/>
<stop offset="0.11482" stop-color="white" stop-opacity="0.786839"/>
<stop offset="0.241646" stop-color="white" stop-opacity="0.5806"/>
<stop offset="0.370483" stop-color="white" stop-opacity="0.402653"/>
<stop offset="0.498699" stop-color="white" stop-opacity="0.257345"/>
<stop offset="0.626084" stop-color="white" stop-opacity="0.144627"/>
<stop offset="0.75252" stop-color="white" stop-opacity="0.0642609"/>
<stop offset="0.877655" stop-color="white" stop-opacity="0.0160904"/>
<stop offset="1" stop-color="white" stop-opacity="0"/>
</linearGradient>
<linearGradient id="paint3_linear_3507_9043" x1="786.732" y1="110.037" x2="871.084" y2="69.439" gradientUnits="userSpaceOnUse">
<stop stop-color="white"/>
<stop offset="0.11482" stop-color="white" stop-opacity="0.786839"/>
<stop offset="0.241646" stop-color="white" stop-opacity="0.5806"/>
<stop offset="0.370483" stop-color="white" stop-opacity="0.402653"/>
<stop offset="0.498699" stop-color="white" stop-opacity="0.257345"/>
<stop offset="0.626084" stop-color="white" stop-opacity="0.144627"/>
<stop offset="0.75252" stop-color="white" stop-opacity="0.0642609"/>
<stop offset="0.877655" stop-color="white" stop-opacity="0.0160904"/>
<stop offset="1" stop-color="white" stop-opacity="0"/>
</linearGradient>
<linearGradient id="paint4_linear_3507_9043" x1="527" y1="-60.6727" x2="527" y2="350.596" gradientUnits="userSpaceOnUse">
<stop stop-color="white"/>
<stop offset="1"/>
</linearGradient>
<linearGradient id="paint5_linear_3507_9043" x1="527" y1="53.7063" x2="527" y2="316.292" gradientUnits="userSpaceOnUse">
<stop stop-color="white"/>
<stop offset="1"/>
</linearGradient>
<linearGradient id="paint6_linear_3507_9043" x1="527" y1="145.932" x2="527" y2="288.631" gradientUnits="userSpaceOnUse">
<stop stop-color="white"/>
<stop offset="1"/>
</linearGradient>
<clipPath id="clip0_3507_9043">
<rect width="1054" height="1490" fill="white"/>
</clipPath>
</defs>
</svg>
