<svg width="321" height="455" viewBox="0 0 321 455" fill="none" xmlns="http://www.w3.org/2000/svg">
<g clip-path="url(#clip0_3716_5271)">
<path d="M325.836 -6.42108H-4.83643V461.421H325.836V-6.42108Z" fill="#FFD116"/>
<path d="M48.3515 370.944C47.9287 370.944 47.964 371.601 48.385 371.601C48.8078 371.601 48.7725 370.944 48.3515 370.944Z" fill="#267687"/>
<path d="M44.1051 367.702L44.0677 367.707C43.6808 367.751 43.5752 368.382 44.0121 368.432C44.0243 368.433 44.0365 368.435 44.0487 368.436C44.6019 368.498 44.6188 367.644 44.1051 367.702Z" fill="#267687"/>
<path d="M40.9161 371.045C40.5261 371.045 40.5586 371.65 40.947 371.65C41.3371 371.65 41.3045 371.045 40.9161 371.045Z" fill="#267687"/>
<path d="M44.5243 378.846C44.1943 378.846 44.2219 379.359 44.5506 379.359C44.8806 379.359 44.8531 378.846 44.5243 378.846Z" fill="#267687"/>
<path d="M9.14501 48.6881C9.14501 49.5916 8.41456 50.3221 7.51586 50.3221C6.61716 50.3221 5.88672 49.5916 5.88672 48.6881C5.88672 47.7847 6.61716 47.0542 7.51586 47.0542C8.41456 47.0542 9.14501 47.7847 9.14501 48.6881Z" fill="#54D7F6" stroke="#0B3EA4"/>
<path d="M22.5543 56.8607C22.5543 57.7641 21.8238 58.4946 20.925 58.4946C20.0263 58.4946 19.2959 57.7642 19.2959 56.8607C19.2959 55.9573 20.0263 55.2268 20.925 55.2268C21.8238 55.2268 22.5543 55.9573 22.5543 56.8607Z" fill="#54D7F6" stroke="#0B3EA4"/>
<path d="M36.1451 46.5542C36.1451 47.4577 35.4146 48.1881 34.5159 48.1881C33.6171 48.1881 32.8867 47.4577 32.8867 46.5542C32.8867 45.6507 33.6172 44.9202 34.5159 44.9202C35.4146 44.9202 36.1451 45.6508 36.1451 46.5542Z" fill="white" stroke="#0B3EA4"/>
<path d="M57.4005 50.822C57.4005 51.7255 56.67 52.4561 55.7714 52.4561C54.8726 52.4561 54.1421 51.7255 54.1421 50.822C54.1421 49.9186 54.8726 49.1881 55.7714 49.1881C56.6701 49.1881 57.4005 49.9186 57.4005 50.822Z" fill="#54D7F6" stroke="#0B3EA4"/>
<path d="M63.9601 36.9288C63.9601 37.8323 63.2296 38.5627 62.3309 38.5627C61.4322 38.5627 60.7017 37.8322 60.7017 36.9288C60.7017 36.0254 61.4322 35.2948 62.3309 35.2948C63.2296 35.2948 63.9601 36.0253 63.9601 36.9288Z" fill="#54D7F6" stroke="#0B3EA4"/>
<path d="M72.0016 5.16566C72.0016 6.06912 71.2712 6.79957 70.3724 6.79957C69.4737 6.79957 68.7432 6.06909 68.7432 5.16566C68.7432 4.26221 69.4737 3.53165 70.3724 3.53165C71.2711 3.53165 72.0016 4.26217 72.0016 5.16566Z" fill="#54D7F6" stroke="#0B3EA4"/>
<path d="M112.524 26.7941C112.524 27.6975 111.793 28.428 110.894 28.428C109.996 28.428 109.265 27.6975 109.265 26.7941C109.265 25.8906 109.996 25.1602 110.894 25.1602C111.793 25.1602 112.524 25.8906 112.524 26.7941Z" fill="#54D7F6" stroke="#0B3EA4"/>
<path d="M141.127 29.9614C141.127 30.8649 140.397 31.5954 139.498 31.5954C138.6 31.5954 137.869 30.8649 137.869 29.9614C137.869 29.058 138.6 28.3275 139.498 28.3275C140.397 28.3275 141.127 29.058 141.127 29.9614Z" fill="#54D7F6" stroke="#0B3EA4"/>
<path d="M165.473 18.2936C165.473 19.1971 164.743 19.9275 163.844 19.9275C162.945 19.9275 162.215 19.197 162.215 18.2936C162.215 17.3901 162.945 16.6596 163.844 16.6596C164.743 16.6596 165.473 17.3901 165.473 18.2936Z" fill="white" stroke="#0B3EA4"/>
<path d="M218.988 34.7948C218.988 35.6983 218.258 36.4288 217.359 36.4288C216.46 36.4288 215.73 35.6983 215.73 34.7948C215.73 33.8913 216.46 33.1609 217.359 33.1609C218.258 33.1609 218.988 33.8913 218.988 34.7948Z" fill="#54D7F6" stroke="#0B3EA4"/>
<path d="M241.53 57.2805C241.53 58.1839 240.8 58.9144 239.901 58.9144C239.002 58.9144 238.272 58.1839 238.272 57.2805C238.272 56.377 239.002 55.6466 239.901 55.6466C240.8 55.6466 241.53 56.377 241.53 57.2805Z" fill="white" stroke="#0B3EA4"/>
<path d="M263.659 49.1368C263.659 50.0402 262.929 50.7707 262.03 50.7707C261.131 50.7707 260.401 50.0402 260.401 49.1368C260.401 48.2333 261.131 47.5029 262.03 47.5029C262.929 47.5029 263.659 48.2333 263.659 49.1368Z" fill="#54D7F6" stroke="#0B3EA4"/>
<path d="M284.708 59.4144C284.708 60.3178 283.978 61.0484 283.079 61.0484C282.18 61.0484 281.45 60.3179 281.45 59.4144C281.45 58.5109 282.18 57.7805 283.079 57.7805C283.978 57.7805 284.708 58.511 284.708 59.4144Z" fill="white" stroke="#0B3EA4"/>
<path d="M301.979 41.1966C301.979 42.1001 301.249 42.8306 300.35 42.8306C299.451 42.8306 298.721 42.1001 298.721 41.1966C298.721 40.2932 299.451 39.5627 300.35 39.5627C301.249 39.5627 301.979 40.2932 301.979 41.1966Z" fill="#54D7F6" stroke="#0B3EA4"/>
<path d="M184.21 25.6936C184.21 26.597 183.48 27.3275 182.581 27.3275C181.682 27.3275 180.952 26.5971 180.952 25.6936C180.952 24.7901 181.682 24.0596 182.581 24.0596C183.48 24.0596 184.21 24.7902 184.21 25.6936Z" fill="#54D7F6" stroke="#0B3EA4"/>
<path d="M196.512 7.29958C196.512 8.203 195.782 8.93348 194.883 8.93348C193.984 8.93348 193.254 8.20304 193.254 7.29958C193.254 6.39612 193.984 5.66568 194.883 5.66568C195.782 5.66568 196.512 6.39616 196.512 7.29958Z" fill="#54D7F6" stroke="#0B3EA4"/>
<path d="M221.118 8.2806C221.118 9.18402 220.387 9.9145 219.489 9.9145C218.59 9.9145 217.859 9.18405 217.859 8.2806C217.859 7.37714 218.59 6.6467 219.489 6.6467C220.387 6.6467 221.118 7.37717 221.118 8.2806Z" fill="#54D7F6" stroke="#0B3EA4"/>
<path d="M85.7897 37.4784C85.7897 38.3818 85.0592 39.1123 84.1604 39.1123C83.2617 39.1123 82.5312 38.3819 82.5312 37.4784C82.5312 36.5749 83.2617 35.8445 84.1604 35.8445C85.0592 35.8445 85.7897 36.575 85.7897 37.4784Z" fill="white" stroke="#0B3EA4"/>
<path d="M89.5289 20.4275C89.5289 21.3309 88.7984 22.0614 87.8997 22.0614C87.0009 22.0614 86.2705 21.331 86.2705 20.4275C86.2705 19.5241 87.0009 18.7936 87.8997 18.7936C88.7984 18.7936 89.5289 19.5241 89.5289 20.4275Z" fill="#54D7F6" stroke="#0B3EA4"/>
<path d="M110.395 11.5675C110.395 12.4709 109.664 13.2014 108.765 13.2014C107.867 13.2014 107.136 12.4709 107.136 11.5675C107.136 10.664 107.867 9.93347 108.765 9.93347C109.664 9.93347 110.395 10.664 110.395 11.5675Z" fill="white" stroke="#0B3EA4"/>
<path d="M-1.48145 50.4827C-1.48145 50.4827 69.1494 68.0079 108.765 -1.0809" stroke="#0B3EA4" stroke-miterlimit="10"/>
<path d="M42.5439 -1.0809C43.0456 -0.291779 154.116 55.4399 223.227 -1.0809" stroke="#0B3EA4" stroke-miterlimit="10"/>
<path d="M166.656 -1.0809C166.656 -1.0809 229.49 88.069 322.481 39.6123" stroke="#0B3EA4" stroke-miterlimit="10"/>
<path opacity="0.1" d="M301.246 271.752H22.228C22.228 194.53 84.6878 131.925 161.737 131.925C238.786 131.925 301.246 194.53 301.246 271.752Z" fill="black"/>
<g opacity="0.6">
<path d="M106.194 242.177V249.569H85.544V242.177L82.594 239.221L79.6441 242.177V249.569H58.9941V242.177L56.0441 239.221L53.0941 242.177V249.569H32.4441V242.177L29.4941 239.221L26.5441 242.177V249.569H5.89415V242.177L2.94414 239.221L-0.00585938 242.177V271.743H5.89415V264.352H26.5441V271.743H32.4441V264.352H53.0941V271.743H58.9941V264.352H79.6441V271.743H85.544V264.352H106.194V271.743H112.094V242.177L109.144 239.221L106.194 242.177ZM5.89415 261.395V252.525H26.5441V261.395H5.89415ZM32.4441 261.395V252.525H53.0941V261.395H32.4441ZM58.9941 261.395V252.525H79.6441V261.395H58.9941ZM85.544 261.395V252.525H106.194V261.395H85.544Z" fill="white"/>
<path d="M318.056 239.221L315.106 242.177V249.569H294.456V242.177L291.506 239.221L288.556 242.177V249.569H267.906V242.177L264.956 239.221L262.006 242.177V249.569H241.356V242.177L238.406 239.221L235.456 242.177V249.569H214.806V242.177L211.856 239.221L208.906 242.177V271.743H214.806V264.352H235.456V271.743H241.356V264.352H262.006V271.743H267.906V264.352H288.556V271.743H294.456V264.352H315.106V271.743H321.006V242.177L318.056 239.221ZM214.806 261.395V252.525H235.456V261.395H214.806ZM241.356 261.395V252.525H262.006V261.395H241.356ZM267.906 261.395V252.525H288.556V261.395H267.906ZM294.456 261.395V252.525H315.106V261.395H294.456Z" fill="white"/>
</g>
<path d="M244.271 225.876H79.2021V278.304H244.271V225.876Z" fill="#54D7F6"/>
<path d="M244.271 271.982H79.2021V278.304H244.271V271.982Z" fill="#093285"/>
<path d="M178.551 238.688V278.304H144.916V238.688C144.916 236.46 146.723 234.649 148.946 234.649H174.521C176.751 234.649 178.551 236.46 178.551 238.688Z" fill="#093285"/>
<path d="M244.271 161.948H79.2021V214.376H244.271V161.948Z" fill="#54D7F6"/>
<path opacity="0.05" d="M244.271 161.948H79.2021V165.947H244.271V161.948Z" fill="black"/>
<path d="M252.41 161.905H71.064L95.4745 111.778H227.996L252.41 161.905Z" fill="#0B3EA4"/>
<path opacity="0.05" d="M244.271 225.876H79.2021V229.915H244.271V225.876Z" fill="black"/>
<path d="M251.249 225.873H72.2246L79.2036 214.379H245.003L251.249 225.873Z" fill="#093285"/>
<path d="M174.524 238.69H148.95V278.302H174.524V238.69Z" fill="#54D7F6"/>
<path d="M169.083 262.97C170.587 262.97 171.806 261.748 171.806 260.24C171.806 258.732 170.587 257.51 169.083 257.51C167.578 257.51 166.359 258.732 166.359 260.24C166.359 261.748 167.578 262.97 169.083 262.97Z" fill="#093285"/>
<path d="M122.209 236.359H94.3105V267.003H122.209V236.359Z" fill="#D5D4CB"/>
<path opacity="0.3" d="M100.352 236.359H94.3105V267.003H100.352V236.359Z" fill="white"/>
<path opacity="0.3" d="M106.312 236.359H104.167V267.003H106.312V236.359Z" fill="white"/>
<path d="M93.6387 235.685V271.982H122.881V235.685H93.6387ZM94.9822 237.032H107.591V250.834H94.9822V237.032ZM94.9822 252.181H107.591V265.976H94.9822V252.181ZM121.538 265.976H108.935V252.181H121.538V265.976ZM121.538 250.834H108.935V237.032H121.538V250.834Z" fill="#093285"/>
<path opacity="0.1" d="M122.881 266.006H93.6387V269.269H122.881V266.006Z" fill="black"/>
<path d="M213.631 98.0001H195.668V111.775H213.631V98.0001Z" fill="#54D7F6"/>
<path opacity="0.05" d="M213.631 98.0001H195.668V102.04H213.631V98.0001Z" fill="black"/>
<path d="M217.196 94.4273C217.196 92.4551 215.6 90.8563 213.633 90.8563H195.669C193.701 90.8563 192.106 92.4551 192.106 94.4273C192.106 96.3995 193.701 97.9983 195.669 97.9983H213.633C215.6 97.9983 217.196 96.3995 217.196 94.4273Z" fill="#0B3EA4"/>
<path d="M229.156 236.359H201.257V267.003H229.156V236.359Z" fill="#D5D4CB"/>
<path opacity="0.3" d="M207.299 236.359H201.257V267.003H207.299V236.359Z" fill="white"/>
<path opacity="0.3" d="M213.259 236.359H211.113V267.003H213.259V236.359Z" fill="white"/>
<path d="M200.585 235.685V271.982H229.828V235.685H200.585ZM201.929 237.032H214.538V250.834H201.929V237.032ZM201.929 252.181H214.538V265.976H201.929V252.181ZM228.484 265.976H215.882V252.181H228.484V265.976ZM228.484 250.834H215.882V237.032H228.484V250.834Z" fill="#093285"/>
<path opacity="0.1" d="M229.83 266.006H200.587V269.269H229.83V266.006Z" fill="black"/>
<path d="M122.209 171.927H94.3105V202.571H122.209V171.927Z" fill="#D5D4CB"/>
<path opacity="0.3" d="M100.352 171.927H94.3105V202.571H100.352V171.927Z" fill="white"/>
<path opacity="0.3" d="M106.312 171.927H104.167V202.571H106.312V171.927Z" fill="white"/>
<path d="M93.6387 171.254V207.55H122.881V171.254H93.6387ZM94.9822 172.6H107.591V186.402H94.9822V172.6ZM94.9822 187.749H107.591V201.544H94.9822V187.749ZM121.538 201.544H108.935V187.749H121.538V201.544ZM121.538 186.402H108.935V172.6H121.538V186.402Z" fill="#0B3EA4"/>
<path opacity="0.1" d="M122.881 201.575H93.6387V204.837H122.881V201.575Z" fill="black"/>
<path d="M229.156 171.927H201.257V202.571H229.156V171.927Z" fill="#D5D4CB"/>
<path opacity="0.3" d="M207.299 171.927H201.257V202.571H207.299V171.927Z" fill="white"/>
<path opacity="0.3" d="M213.259 171.927H211.113V202.571H213.259V171.927Z" fill="white"/>
<path d="M200.585 171.254V207.55H229.828V171.254H200.585ZM201.929 172.6H214.538V186.402H201.929V172.6ZM201.929 187.749H214.538V201.544H201.929V187.749ZM228.484 201.544H215.882V187.749H228.484V201.544ZM228.484 186.402H215.882V172.6H228.484V186.402Z" fill="#093285"/>
<path opacity="0.1" d="M229.83 201.575H200.587V204.837H229.83V201.575Z" fill="black"/>
<path d="M175.424 171.927H147.525V202.571H175.424V171.927Z" fill="#D5D4CB"/>
<path opacity="0.3" d="M153.567 171.927H147.525V202.571H153.567V171.927Z" fill="white"/>
<path opacity="0.3" d="M159.526 171.927H157.381V202.571H159.526V171.927Z" fill="white"/>
<path d="M146.853 171.254V207.55H176.095V171.254H146.853ZM148.197 172.6H160.806V186.402H148.197V172.6ZM148.197 187.749H160.806V201.544H148.197V187.749ZM174.752 201.544H162.149V187.749H174.752V201.544ZM174.752 186.402H162.149V172.6H174.752V186.402Z" fill="#0A3894"/>
<path opacity="0.1" d="M176.095 201.575H146.853V204.837H176.095V201.575Z" fill="black"/>
<path d="M178.01 127.842H145.46V149.979H178.01V127.842Z" fill="#D5D4CB"/>
<path opacity="0.3" d="M151.502 127.842H145.46V149.979H151.502V127.842Z" fill="white"/>
<path opacity="0.3" d="M157.462 127.842H155.316V149.979H157.462V127.842Z" fill="white"/>
<path d="M144.789 127.169V150.652H178.682V127.169H144.789ZM177.338 138.819H168.218V128.515H177.338V138.819ZM156.594 138.819V128.515H166.875V138.819H156.594ZM166.875 140.166V149.305H156.594V140.166H166.875ZM155.251 128.515V138.819H146.132V128.515H155.251ZM146.132 140.166H155.251V149.305H146.132V140.166ZM168.218 149.305V140.166H177.338V149.305H168.218Z" fill="#54D7F6"/>
<path d="M132.367 285.614C132.367 286.147 132.329 286.673 132.254 287.18H66.171C66.1523 286.973 66.146 286.767 66.146 286.554C66.146 282.822 68.8511 279.735 72.4058 279.147C72.6744 273.512 77.3223 269.022 83.0136 269.022C84.5566 269.022 86.0185 269.348 87.3367 269.949C88.6736 267.883 90.9913 266.518 93.6339 266.518C95.8642 266.518 97.8696 267.495 99.2439 269.041C101.443 267.451 104.142 266.518 107.066 266.518C112.663 266.518 117.467 269.955 119.479 274.839C120.116 274.72 120.766 274.657 121.434 274.657C127.469 274.657 132.367 279.566 132.367 285.614Z" fill="white"/>
<path d="M263.772 280.135C263.772 280.644 263.736 281.148 263.665 281.633H200.403C200.385 281.435 200.379 281.237 200.379 281.034C200.379 277.461 202.968 274.506 206.371 273.943C206.629 268.548 211.078 264.251 216.526 264.251C218.003 264.251 219.403 264.562 220.665 265.138C221.945 263.16 224.163 261.853 226.693 261.853C228.828 261.853 230.748 262.788 232.064 264.269C234.169 262.746 236.752 261.853 239.551 261.853C244.91 261.853 249.509 265.144 251.434 269.819C252.044 269.705 252.666 269.645 253.306 269.645C259.083 269.645 263.772 274.344 263.772 280.135Z" fill="white"/>
<path d="M217.599 86.0214C217.599 86.2295 217.584 86.4352 217.555 86.6335H191.713C191.706 86.5527 191.703 86.4719 191.703 86.3886C191.703 84.9294 192.761 83.7223 194.151 83.4921C194.256 81.2885 196.074 79.533 198.299 79.533C198.903 79.533 199.474 79.6603 199.99 79.8954C200.513 79.0874 201.419 78.5536 202.452 78.5536C203.324 78.5536 204.109 78.9356 204.646 79.5403C205.506 78.9184 206.561 78.5536 207.705 78.5536C209.894 78.5536 211.772 79.8978 212.559 81.8076C212.808 81.7611 213.062 81.7366 213.324 81.7366C215.684 81.7366 217.599 83.6562 217.599 86.0214Z" fill="white"/>
<path d="M97.3549 350.705C97.3549 356.198 95.3805 362.406 90.9555 362.406C88.1304 362.406 86.2921 360.291 86.2921 355.515V349.682H81.731V361.895C81.731 362.543 76.5569 362.645 76.5569 361.895C76.5569 361.895 76.523 351.387 76.523 346.134C76.523 343.507 76.6591 341.05 77.1357 339.038C71.0767 340.982 70.498 349.477 73.4594 349.477C74.2764 349.477 73.6977 351.66 71.1448 351.66C65.1878 351.66 65.7324 336.07 77.1696 336.07C77.5442 336.07 77.8844 336.07 78.1908 336.104C79.1098 334.534 80.4373 333.613 82.4797 333.613C85.9858 333.613 85.8497 337.468 81.731 338.424V347.123H86.2921V334.261C86.2921 333.613 91.4662 333.511 91.4662 334.261V354.56C91.4662 355.993 91.7725 357.357 92.6915 357.357C94.2573 357.357 95.0742 352.786 95.0742 350.705C95.0742 349.784 97.3549 349.647 97.3549 350.705Z" fill="#0B3EA4"/>
<path d="M115.394 350.739C115.394 356.198 112.807 360.018 108.994 360.018C106.714 360.018 105.08 358.108 104.535 355.311C103.514 357.938 102.05 360.018 99.94 360.018C92.1789 360.018 93.2682 342.654 101.063 342.654C102.527 342.654 103.582 343.234 104.331 344.018V343.677C104.331 342.995 109.505 342.893 109.505 343.677V352.172C109.505 353.605 109.811 354.935 111.003 354.935C112.603 354.935 113.113 352.82 113.113 350.739C113.113 349.784 115.394 349.682 115.394 350.739ZM104.297 347.908C103.786 346.782 103.071 345.69 102.152 345.69C99.7017 345.69 98.8508 354.799 101.199 354.799C102.595 354.799 103.65 351.046 104.297 347.908Z" fill="#0B3EA4"/>
<path d="M120.77 360.018C119.511 360.018 118.626 359.302 117.945 358.313V365.511C117.945 366.159 112.771 366.262 112.771 365.511V343.677C112.771 342.995 117.945 342.893 117.945 343.677V346.168C118.932 344.121 120.294 342.654 122.132 342.654C129.927 342.654 127.782 360.018 120.77 360.018ZM120.872 345.69C119.851 345.69 118.728 350.125 117.979 353.878C118.489 354.355 119.136 354.799 119.953 354.799C122.37 354.799 123.255 345.69 120.872 345.69Z" fill="#0B3EA4"/>
<path d="M136.461 360.018C135.201 360.018 134.316 359.302 133.635 358.313V365.511C133.635 366.159 128.461 366.262 128.461 365.511V343.677C128.461 342.995 133.635 342.893 133.635 343.677V346.168C134.622 344.121 135.984 342.654 137.822 342.654C145.617 342.654 143.473 360.018 136.461 360.018ZM136.563 345.69C135.542 345.69 134.418 350.125 133.669 353.878C134.18 354.355 134.827 354.799 135.644 354.799C138.06 354.799 138.945 345.69 136.563 345.69Z" fill="#0B3EA4"/>
<path d="M159.368 343.677V361.144C159.368 366.466 156.1 369.639 151.402 369.639C144.561 369.639 144.391 363.908 145.446 361.861C145.82 361.076 150.109 361.144 149.803 361.827C148.986 363.601 149.428 366.227 151.539 366.227C154.126 366.227 154.16 362.918 154.16 359.609V357.016C153.207 358.79 151.709 360.018 149.428 360.018C145.548 360.018 144.118 356.505 144.118 351.319V343.677C144.118 342.995 149.326 342.893 149.326 343.677V350.91C149.326 353.98 149.599 354.799 150.45 354.799C153.615 354.799 154.16 343.677 154.16 343.677C154.16 342.995 159.368 342.893 159.368 343.677Z" fill="#0B3EA4"/>
<path d="M195.72 354.314C195.72 359.807 193.745 366.016 189.32 366.016C186.495 366.016 184.657 363.901 184.657 359.125V353.291H180.096V365.504C180.096 366.153 174.922 366.255 174.922 365.504C174.922 365.504 174.888 354.997 174.888 349.743C174.888 347.116 175.024 344.66 175.5 342.647C169.441 344.592 168.863 353.086 171.824 353.086C172.641 353.086 172.062 355.27 169.51 355.27C163.553 355.27 164.097 339.679 175.534 339.679C175.909 339.679 176.249 339.679 176.556 339.713C177.475 338.144 178.802 337.223 180.844 337.223C184.351 337.223 184.214 341.078 180.096 342.033V350.732H184.657V337.871C184.657 337.223 189.831 337.12 189.831 337.871V358.17C189.831 359.602 190.137 360.967 191.056 360.967C192.622 360.967 193.439 356.396 193.439 354.314C193.439 353.393 195.72 353.257 195.72 354.314Z" fill="#0B3EA4"/>
<path d="M198.951 363.628C191.224 363.628 190.952 346.263 199.258 346.263C207.597 346.263 205.963 363.628 198.951 363.628ZM200.347 349.3C197.93 349.3 197.385 358.408 200.177 358.408C202.525 358.408 202.594 349.3 200.347 349.3Z" fill="#0B3EA4"/>
<path d="M227.407 354.349C227.407 359.807 224.854 363.628 221.008 363.628C218.965 363.628 217.467 362.093 216.753 359.773C215.8 361.99 214.234 363.628 211.613 363.628C207.732 363.628 206.303 360.114 206.303 354.929V347.287C206.303 346.604 211.477 346.502 211.477 347.287V354.519C211.477 357.589 211.783 358.408 212.6 358.408C215.766 358.408 216.344 347.287 216.344 347.287C216.344 346.604 221.552 346.502 221.552 347.287V355.782C221.552 357.214 221.824 358.545 223.05 358.545C224.616 358.545 225.16 356.43 225.16 354.349C225.16 353.393 227.407 353.291 227.407 354.349Z" fill="#0B3EA4"/>
<path d="M233.056 351.278C233.907 349.811 232.749 349.3 231.83 349.3C230.707 349.3 230.128 349.879 230.128 350.732C230.128 353.803 238.093 352.643 238.093 358.204C238.093 359.705 236.902 363.628 230.775 363.628C222.912 363.628 223.457 355.372 225.329 353.598C225.737 353.155 229.822 354.622 229.482 355.167C228.835 356.259 229.652 358.579 231.013 358.579C232.103 358.579 232.885 357.999 232.885 356.975C232.885 353.393 225.737 354.519 225.737 350.528C225.737 348.515 227.609 346.263 231.728 346.263C236.562 346.263 237.549 349.504 236.528 352.097C236.221 352.814 232.647 352.029 233.056 351.278Z" fill="#0B3EA4"/>
<path d="M254.908 354.349C254.908 359.807 251.47 363.628 246.466 363.628C236.016 363.628 237.377 346.263 246.364 346.263C252.082 346.263 252.831 355.509 244.798 356.941C245.377 358.033 246.398 358.784 247.964 358.784C251.367 358.784 252.627 356.43 252.627 354.349C252.627 353.393 254.908 353.291 254.908 354.349ZM244.219 354.519C249.155 352.779 248.508 349.3 247.181 349.3C245.377 349.3 244.151 351.995 244.219 354.519Z" fill="#0B3EA4"/>
<path d="M105.123 405.997C101.456 405.997 99.0582 403.594 97.5068 400.154C95.4849 403.641 92.805 405.997 89.5139 405.997C75.8321 405.997 78.6532 376.499 79.2643 373.719C70.9426 376.358 70.1432 388.091 74.1868 388.091C75.3621 388.091 74.5627 391.154 71.0366 391.154C62.8086 391.154 63.5609 369.572 79.3583 369.572C79.8757 369.572 80.3457 369.62 80.7688 369.62C81.9913 367.499 83.8719 366.227 86.6929 366.227C91.5356 366.227 91.3476 371.504 85.6586 372.871C85.6586 372.871 84.4832 398.882 90.3131 398.882C92.711 398.882 94.3566 395.348 95.2969 390.777C94.7797 385.782 92.9932 371.504 98.8702 371.504C102.867 371.504 103.29 378.243 101.55 387.62C102.067 393.463 103.29 398.882 105.922 398.882C112.787 398.882 113.586 370.044 108.885 370.044C107.944 370.044 107.897 366.368 111.188 366.368C121.814 366.368 118.805 405.997 105.123 405.997Z" fill="#0B3EA4"/>
<path d="M147.434 389.835C147.434 397.374 143.861 402.652 138.595 402.652C135.445 402.652 133.188 400.013 132.436 396.149C131.026 399.777 129.004 402.652 126.089 402.652C115.369 402.652 116.874 378.667 127.64 378.667C129.662 378.667 131.12 379.468 132.154 380.552V380.081C132.154 379.138 139.301 378.997 139.301 380.081V391.814C139.301 393.793 139.724 395.63 141.369 395.63C143.579 395.63 144.284 392.709 144.284 389.835C144.284 388.515 147.434 388.374 147.434 389.835ZM132.107 385.923C131.402 384.369 130.414 382.861 129.145 382.861C125.76 382.861 124.584 395.442 127.828 395.442C129.756 395.442 131.214 390.259 132.107 385.923Z" fill="#0B3EA4"/>
<path d="M159.139 388.374C158.622 389.458 155.237 389.222 155.566 388.233C156.318 385.923 155.848 382.861 154.297 382.861C151.993 382.861 150.959 386.913 150.959 391.484V401.238C150.959 401.803 149.407 402.039 148.185 401.945C146.163 402.039 143.765 401.85 143.765 401.238V380.081C143.765 379.327 148.42 379.091 150.253 379.562C151.147 378.997 152.322 378.667 153.78 378.667C159.515 378.667 160.597 385.547 159.139 388.374Z" fill="#0B3EA4"/>
<path d="M201.97 389.976C201.97 397.515 198.396 402.793 193.131 402.793C189.181 402.793 186.643 399.777 186.643 390.447C186.643 385.452 186.925 383.002 185.467 383.002C182.035 383.002 180.765 401.379 180.765 401.379C180.765 402.275 173.619 402.416 173.619 401.379C173.619 401.379 173.572 391.107 173.572 388.515C173.572 385.971 173.666 383.002 172.396 383.002C168.964 383.002 167.695 401.379 167.695 401.379C167.695 402.275 160.501 402.416 160.501 401.379V380.222C160.501 379.279 167.695 379.138 167.695 380.222V383.992C169.058 381.023 171.174 378.808 174.559 378.808C177.662 378.808 180.013 380.363 180.624 384.416C181.941 381.211 184.103 378.808 187.63 378.808C191.25 378.808 193.836 380.929 193.836 386.583C193.836 394.358 194.259 395.772 195.905 395.772C198.114 395.772 198.82 392.85 198.82 389.976C198.82 388.657 201.97 388.515 201.97 389.976Z" fill="#0B3EA4"/>
<path d="M213.626 389.835C213.626 397.374 210.053 402.652 204.788 402.652C200.838 402.652 198.299 398.599 198.299 393.086V380.081C198.299 379.138 205.493 378.997 205.493 380.081V391.814C205.493 393.793 205.916 395.63 207.562 395.63C209.771 395.63 210.477 392.709 210.477 389.835C210.477 388.515 213.626 388.374 213.626 389.835ZM198.628 374.002C198.628 372.07 200.18 370.515 202.061 370.515C203.988 370.515 205.54 372.07 205.54 374.002C205.54 375.934 203.988 377.489 202.061 377.489C200.18 377.489 198.628 375.934 198.628 374.002Z" fill="#0B3EA4"/>
<path d="M238.403 389.835C238.403 397.374 234.83 402.652 229.564 402.652C225.615 402.652 223.076 399.636 223.076 390.306C223.076 385.311 223.358 382.861 221.9 382.861C218.468 382.861 217.199 401.238 217.199 401.238C217.199 402.133 210.005 402.275 210.005 401.238V380.081C210.005 379.138 217.199 378.997 217.199 380.081V383.85C218.562 380.882 220.678 378.667 224.063 378.667C227.684 378.667 230.269 380.787 230.269 386.442C230.269 394.217 230.693 395.63 232.338 395.63C234.548 395.63 235.253 392.709 235.253 389.835C235.253 388.515 238.403 388.374 238.403 389.835Z" fill="#0B3EA4"/>
<path d="M255.138 380.081V404.207C255.138 411.557 250.625 415.94 244.183 415.94C234.733 415.94 234.451 408.023 235.909 405.196C236.473 404.112 242.397 404.207 241.927 405.149C240.845 407.599 241.456 411.228 244.371 411.228C247.898 411.228 247.992 406.657 247.992 402.086V397.091C246.628 400.248 244.701 402.652 242.067 402.652C231.301 402.652 232.805 378.667 243.572 378.667C245.547 378.667 246.957 379.421 247.992 380.505V380.081C247.992 379.138 255.138 378.997 255.138 380.081ZM247.992 386.301V385.735C247.286 384.274 246.299 382.861 245.077 382.861C241.738 382.861 240.516 395.442 243.807 395.442C245.641 395.442 247.098 390.541 247.992 386.301Z" fill="#0B3EA4"/>
</g>
<defs>
<clipPath id="clip0_3716_5271">
<rect width="321" height="455" fill="white"/>
</clipPath>
</defs>
</svg>
