<svg width="114" height="61" viewBox="0 0 913 460" fill="none" xmlns="http://www.w3.org/2000/svg">
<path d="M163.816 144.085C157.068 125.239 150.319 106.32 143.571 87.3147C142.586 84.542 139.946 82.6905 137.004 82.7374C128.896 82.8667 120.789 82.8676 112.681 82.7197C109.756 82.6664 107.122 84.4911 106.115 87.2386C99.1667 106.19 92.2189 125.027 85.2711 143.739C81.3965 154.175 66.5537 153.939 63.0116 143.386C56.0809 122.738 49.1501 101.951 42.2193 81.0127C41.4126 78.5756 39.3161 76.7801 36.7799 76.3824C29.3975 75.2248 22.0151 73.8918 14.6327 72.3683C9.45287 71.2994 5.07154 76.2674 6.74499 81.2847C21.7074 126.145 36.6695 170.2 51.6316 213.577C52.4917 216.07 54.7005 217.859 57.321 218.16C67.1208 219.282 76.9205 220.12 86.7204 220.71C89.7291 220.891 92.5085 219.107 93.5783 216.29C101.528 195.349 109.479 174.251 117.429 153.014C119.671 147.024 128.163 147.072 130.335 153.088C138.012 174.347 145.689 195.487 153.367 216.523C154.393 219.335 157.12 221.165 160.11 221.034C169.946 220.603 179.783 220.011 189.619 219.294C192.342 219.096 194.687 217.298 195.594 214.723C210.699 171.873 225.803 128.746 240.908 85.4706C242.567 80.7167 238.722 75.8516 233.713 76.3661C226.891 77.067 220.068 77.7336 213.245 78.3539C210.556 78.5984 208.257 80.3901 207.37 82.9412C200.271 103.356 193.173 123.716 186.075 144.009C182.402 154.513 167.568 154.561 163.816 144.085Z" fill="white"/>
<path d="M250.422 213.584C263.856 212.109 277.291 210.539 290.726 208.966V69.9697C277.291 71.5431 263.856 73.1129 250.422 74.5876V213.584Z" fill="white"/>
<path d="M410.989 124.235C406.08 121.677 400.611 119.835 394.583 118.726C388.553 117.617 382.569 116.939 376.627 116.683C370.685 116.427 365.216 116.036 360.222 115.491C355.224 114.946 351.219 113.981 348.208 112.57C345.192 111.165 343.687 108.742 343.687 105.294C343.687 101.508 345.754 98.1862 349.888 95.3445C354.022 92.5104 360.566 90.6319 369.523 89.805C375.893 89.2188 382.481 89.3851 389.287 90.3186C396.088 91.2564 402.851 93.5001 409.568 97.0616C414.046 87.2366 418.524 77.441 423.003 67.6785C416.454 64.0163 408.277 61.4415 398.459 60.0601C388.641 58.6793 378.992 58.4468 369.523 59.319C356.088 60.5588 344.548 63.7216 334.903 68.6502C325.255 73.5841 317.891 79.7283 312.813 87.0303C307.731 94.334 305.192 102.382 305.192 111.166C305.191 119.091 306.699 125.373 309.713 130.017C312.725 134.666 316.729 138.164 321.727 140.523C326.72 142.888 332.23 144.467 338.261 145.275C344.289 146.088 350.275 146.624 356.217 146.889C362.16 147.159 367.626 147.501 372.623 147.912C377.617 148.326 381.62 149.238 384.637 150.627C387.648 152.022 389.158 154.361 389.158 157.631C389.158 161.595 387.221 164.842 383.345 167.397C379.47 169.957 372.881 171.631 363.58 172.521C355.139 173.329 346.57 172.967 337.874 171.411C329.174 169.86 321.637 167.487 315.268 164.255C310.79 174.415 306.311 184.58 301.833 194.748C308.204 198.314 316.858 200.874 327.798 202.491C338.733 204.109 350.146 204.306 362.03 203.156C375.982 201.805 387.822 198.942 397.555 194.469C407.283 189.997 414.736 184.382 419.902 177.497C425.07 170.618 427.653 162.905 427.653 154.287C427.653 146.368 426.104 140.008 423.003 135.239C419.901 130.471 415.898 126.793 410.989 124.235Z" fill="white"/>
<path d="M574.139 92.7741C569.141 82.6526 562.296 74.5347 553.6 68.667C544.9 62.8009 535.038 59.1822 524.018 57.9892C512.135 56.7051 501.541 58.4588 492.24 62.9787C487.561 65.2561 483.428 68.1591 479.839 71.6511V4.34636C466.404 3.93638 452.97 3.95269 439.535 4.30354V196.004C452.97 195.653 466.404 195.637 479.839 196.047V127.324C479.838 118.714 481.26 111.693 484.102 106.283C486.944 100.88 490.903 96.9543 495.986 94.5709C501.064 92.1922 506.793 91.2473 513.167 91.8053C522.12 92.5918 529.056 96.0881 533.965 102.051C538.873 108.024 541.327 116.661 541.328 127.851V201.225C554.762 203.148 568.197 205.638 581.631 208.785V129.211C581.631 115.095 579.133 102.902 574.139 92.7741Z" fill="white"/>
<path d="M203.911 241.135C195.68 261.308 187.382 281.333 179.018 301.203C174.783 311.262 160.337 310.672 156.921 300.305C150.432 280.618 144.007 260.984 137.646 241.402C126.389 241.219 115.132 240.912 103.874 240.466C95.2939 259.606 86.6461 278.573 77.9313 297.362C73.3838 307.166 59.1346 306.201 55.9394 295.876C49.7645 275.923 43.6547 256.012 37.6098 236.142C25.0734 234.983 12.5364 233.619 0 232.032C13.1705 274.423 26.6445 316.972 40.4233 359.699C41.2549 362.278 43.5247 364.137 46.2182 364.431C56.2092 365.521 66.2001 366.49 76.1912 367.345C79.038 367.588 81.7386 366.04 82.9729 363.464C92.1106 344.387 101.177 325.12 110.171 305.671C112.784 300.02 120.964 300.467 122.932 306.373C129.656 326.545 136.448 346.768 143.31 367.046C144.226 369.753 146.723 371.62 149.579 371.722C159.586 372.077 169.593 372.341 179.6 372.523C182.396 372.574 184.945 370.924 186.046 368.354C204.075 326.257 221.799 283.465 239.218 240.026C227.449 240.493 215.68 240.868 203.911 241.135Z" fill="white"/>
<path d="M340.816 240.507C330.061 235.655 317.969 233.72 304.501 234.591C290.518 235.494 277.92 239.175 266.666 245.596C255.407 252.022 246.412 260.449 239.669 270.941C232.926 281.436 229.318 293.275 228.888 306.572C228.462 319.705 231.356 331.344 237.62 341.516C243.879 351.687 252.966 359.657 264.886 365.346C276.8 371.033 290.783 373.664 306.79 373.111C319.487 372.672 330.743 370.336 340.539 366.117C350.33 361.897 358.479 356.056 364.983 348.611C357.877 341.377 350.794 334.165 343.734 326.972C339 331.604 333.797 335.143 328.136 337.591C322.471 340.044 315.91 341.426 308.467 341.738C300.155 342.086 292.951 340.898 286.878 338.208C280.801 335.522 276.15 331.446 272.923 326.004C271.17 323.05 269.927 319.821 269.185 316.322C304.284 315.1 339.383 313.193 374.482 310.999C374.67 309.296 374.863 307.461 375.057 305.499C375.248 303.542 375.354 301.795 375.37 300.269C375.525 285.517 372.474 273.058 366.262 262.94C360.048 252.823 351.566 245.361 340.816 240.507ZM285.92 269.477C291.215 266.304 297.282 264.514 304.134 264.118C310.981 263.721 316.946 264.818 322.034 267.43C327.119 270.046 331.078 273.862 333.911 278.887C335.79 282.224 337.018 286.013 337.603 290.247C314.828 291.625 292.052 292.822 269.277 293.728C270.055 289.537 271.425 285.714 273.398 282.258C276.45 276.908 280.622 272.653 285.92 269.477Z" fill="white"/>
<path d="M490.534 234.678C478.852 225.547 462.566 221.952 441.594 223.775C430.681 224.721 419.935 227.111 409.342 230.902C398.745 234.697 389.665 239.519 382.096 245.366C386.793 254.245 391.508 263.147 396.243 272.074C401.245 267.793 407.311 264.22 414.435 261.36C421.555 258.502 428.797 256.77 436.163 256.186C446.954 255.328 454.957 257.101 460.197 261.526C465.431 265.954 468.072 272.503 468.093 281.148C457.433 281.927 446.772 282.713 436.112 283.494C422.012 284.529 410.572 287.116 401.773 291.221C392.973 295.332 386.516 300.562 382.407 306.936C378.296 313.31 376.192 320.553 376.107 328.693C376.027 336.495 378.029 343.414 382.133 349.465C386.237 355.52 392.185 360.173 399.983 363.415C407.78 366.657 417.166 367.994 428.126 367.395C440.476 366.72 450.572 363.842 458.387 358.74C463.667 355.294 467.821 350.912 470.863 345.602C470.88 351.389 470.897 357.177 470.914 362.964C483.61 362.264 496.305 361.574 509.001 360.913C508.783 334.147 508.566 307.38 508.348 280.614C508.17 259.162 502.206 243.805 490.534 234.678ZM456.538 333.875C451.172 337.401 445.103 339.361 438.345 339.772C431.236 340.205 425.651 339.042 421.595 336.294C417.534 333.55 415.524 329.612 415.548 324.482C415.57 319.865 417.359 315.905 420.911 312.587C424.46 309.271 430.978 307.287 440.467 306.639C449.696 306.009 458.925 305.377 468.155 304.75C468.167 309.505 468.179 314.26 468.191 319.015C465.786 325.397 461.901 330.352 456.538 333.875Z" fill="white"/>
<path d="M623.163 211.819C610.795 245.26 598.252 278.527 585.534 311.603C572.067 279.712 558.769 248.151 545.641 216.897C531.91 217.938 518.18 219.037 504.449 220.172C524.106 265.489 544.141 311.444 564.554 358.113C578.554 357.534 592.554 357.026 606.553 356.613C625.262 308.139 643.591 259.274 661.54 210.075C648.747 210.552 635.955 211.14 623.163 211.819Z" fill="white"/>
<path d="M764.89 216.001C753.79 209.622 741.525 206.459 728.058 206.526C714.075 206.597 701.659 210.069 690.771 216.756C679.878 223.452 671.388 232.576 665.288 244.028C659.188 255.488 656.319 268.484 656.723 283.048C657.121 297.437 660.749 310.158 667.657 321.324C674.56 332.495 684.154 341.308 696.443 347.889C708.728 354.47 722.897 357.955 738.904 358.428C751.601 358.805 762.742 357.22 772.305 353.557C781.865 349.894 789.683 344.419 795.752 337.045C788.183 328.272 780.637 319.591 773.114 310.999C768.649 315.594 763.646 318.976 758.118 321.165C752.588 323.36 746.094 324.348 738.65 324.174C730.337 323.982 723.043 322.276 716.79 319.028C710.533 315.783 705.62 311.138 702.048 305.057C700.108 301.755 698.661 298.177 697.7 294.319C732.799 294.148 767.898 294.921 802.997 297.04C803.083 295.199 803.164 293.216 803.24 291.092C803.313 288.973 803.314 287.074 803.236 285.405C802.495 269.275 798.672 255.223 791.82 243.382C784.962 231.546 775.986 222.383 764.89 216.001ZM711.57 243.683C716.684 240.464 722.663 238.837 729.513 238.85C736.361 238.864 742.415 240.518 747.684 243.795C752.95 247.077 757.157 251.615 760.311 257.38C762.401 261.209 763.867 265.477 764.713 270.171C741.937 269.499 719.161 269.336 696.386 269.57C696.904 265.004 698.042 260.862 699.805 257.15C702.531 251.402 706.453 246.906 711.57 243.683Z" fill="white"/>
<path d="M866.367 220.668C860.759 223.658 856.222 227.843 852.748 233.172C852.403 226.551 852.058 219.929 851.713 213.308C839.006 212.239 826.298 211.375 813.591 210.697C815.972 260.724 818.352 310.75 820.732 360.776C834.297 361.916 847.862 363.262 861.427 364.84C860.18 341.016 858.933 317.194 857.686 293.371C856.932 278.933 859.77 268.613 866.183 262.449C872.594 256.298 881.272 253.809 892.242 255.188C893.786 255.382 895.241 255.617 896.621 255.889C897.996 256.164 899.547 256.509 901.273 256.927C900.487 243.285 899.7 229.644 898.914 216.003C885.954 214.371 875.115 216.008 866.367 220.668Z" fill="white"/>
<path d="M911.648 430.65L908.406 427.507C906.194 425.063 904.293 423.985 903.397 419.406C902.671 415.702 902.007 404.085 895.271 396.906C892.97 394.449 887.361 389.113 879.564 385.715C879.564 385.715 878.519 385.173 877.817 384.851C877.023 384.485 876.265 384.622 875.932 385.517C875.921 385.543 876.002 401.637 873.232 409.152C871.697 413.31 870.353 411.852 866.176 408.181L864.251 406.38L859.992 402.36C859.736 402.163 859.443 402.028 859.136 401.96C858.746 401.874 858.337 401.897 857.95 402.037C857.262 402.286 856.745 402.876 856.59 403.594L855.283 409.591L853.323 418.557L851.782 425.604L850.05 433.525C849.895 434.242 850.117 434.988 850.644 435.508C850.938 435.795 851.293 435.984 851.683 436.071C851.995 436.138 852.314 436.139 852.631 436.06L858.178 434.186L860.682 433.352C866.006 431.758 867.832 430.991 867.493 435.409C866.884 443.398 860.095 457.988 860.094 458.02C860.026 458.97 860.655 459.41 861.529 459.413C862.299 459.412 863.479 459.356 863.479 459.356C871.985 459.516 879.308 457.004 882.422 455.735C891.538 452.016 896.981 441.736 899.192 438.668C901.913 434.884 904.086 434.694 907.124 433.391L911.377 431.887C911.767 431.785 911.952 431.597 912.011 431.38C912.05 431.156 911.959 430.907 911.648 430.65Z" fill="white"/>
<path d="M838.231 414.667C825.185 412.214 811.715 411.365 798.35 410.713C776.15 409.735 753.849 410.086 731.704 410.997C660.864 414.176 590.566 423.288 521.335 434.225C504.252 436.909 486.337 439.947 469.373 442.931C362.949 462.631 248.001 460.741 143.721 433.092C113.505 424.981 84.2379 414.626 57.5703 401.218C42.474 393.548 28.1418 384.883 15.9283 374.756C12.8922 372.234 10.0234 369.611 7.31934 366.916C13.8837 371.464 20.9078 375.725 28.231 379.568C39.1143 385.336 50.6814 390.409 62.5542 394.951C179.282 438.034 324.013 443.651 449.058 422.947C461.286 420.899 476.316 418.304 488.54 416.462C490.764 416.115 503.104 414.248 505.125 413.935C511.264 413.073 522.232 411.56 528.443 410.699C550.205 407.865 573.606 405.241 595.563 403.283C662.966 397.692 732.153 395.342 799.241 405.49C805.917 406.572 812.559 407.807 819.108 409.268C825.616 410.769 832.139 412.384 838.231 414.667Z" fill="white"/>
<path d="M293.934 30.2239C284.236 22.1898 277.723 15.6768 269.689 5.97876C261.655 15.6768 255.142 22.1898 245.444 30.2239C255.142 38.258 261.655 44.771 269.689 54.4691C277.723 44.771 284.236 38.2581 293.934 30.2239Z" fill="white"/>
<path d="M253.237 10.7553C248.935 7.19129 246.046 4.30212 242.482 0C238.918 4.30211 236.029 7.19129 231.727 10.7553C236.029 14.3193 238.918 17.2084 242.482 21.5106C246.046 17.2084 248.935 14.3193 253.237 10.7553Z" fill="white"/>
<path d="M252.322 48.7663C249.163 46.1496 247.042 44.0284 244.425 40.8699C241.809 44.0284 239.687 46.1496 236.529 48.7663C239.687 51.3829 241.809 53.5041 244.425 56.6626C247.042 53.5041 249.163 51.3829 252.322 48.7663Z" fill="white"/>
</svg>